%TF.GenerationSoftware,KiCad,Pcbnew,10.0.4-10.0.4~ubuntu24.04.1*%
%TF.CreationDate,2026-07-06T17:21:14-07:00*%
%TF.ProjectId,imspi8080,696d7370-6938-4303-9830-2e6b69636164,rev?*%
%TF.SameCoordinates,Original*%
%TF.FileFunction,Legend,Bot*%
%TF.FilePolarity,Positive*%
%FSLAX46Y46*%
G04 Gerber Fmt 4.6, Leading zero omitted, Abs format (unit mm)*
G04 Created by KiCad (PCBNEW 10.0.4-10.0.4~ubuntu24.04.1) date 2026-07-06 17:21:14*
%MOMM*%
%LPD*%
G01*
G04 APERTURE LIST*
%ADD10C,0.120000*%
G04 APERTURE END LIST*
%TO.C,C11*%
D10*
X190867164Y-118045000D02*
X191082836Y-118045000D01*
X190867164Y-118765000D02*
X191082836Y-118765000D01*
%TO.C,R15*%
X183561359Y-90300000D02*
X183868641Y-90300000D01*
X183561359Y-91060000D02*
X183868641Y-91060000D01*
%TO.C,R16*%
X183561359Y-87500000D02*
X183868641Y-87500000D01*
X183561359Y-88260000D02*
X183868641Y-88260000D01*
%TO.C,C5*%
X172392164Y-117078000D02*
X172607836Y-117078000D01*
X172392164Y-117798000D02*
X172607836Y-117798000D01*
%TO.C,R1*%
X116771359Y-110520000D02*
X117078641Y-110520000D01*
X116771359Y-111280000D02*
X117078641Y-111280000D01*
%TO.C,C16*%
X181506164Y-119444000D02*
X181721836Y-119444000D01*
X181506164Y-120164000D02*
X181721836Y-120164000D01*
%TO.C,C10*%
X186032164Y-88920000D02*
X186247836Y-88920000D01*
X186032164Y-89640000D02*
X186247836Y-89640000D01*
%TO.C,R10*%
X229498359Y-84835000D02*
X229805641Y-84835000D01*
X229498359Y-85595000D02*
X229805641Y-85595000D01*
%TO.C,C15*%
X177792164Y-113960000D02*
X178007836Y-113960000D01*
X177792164Y-114680000D02*
X178007836Y-114680000D01*
%TO.C,C22*%
X120488748Y-111190000D02*
X121011252Y-111190000D01*
X120488748Y-112660000D02*
X121011252Y-112660000D01*
%TO.C,C1*%
X175992164Y-117078000D02*
X176207836Y-117078000D01*
X175992164Y-117798000D02*
X176207836Y-117798000D01*
%TO.C,R2*%
X116771359Y-107720000D02*
X117078641Y-107720000D01*
X116771359Y-108480000D02*
X117078641Y-108480000D01*
%TO.C,R8*%
X206981359Y-90400000D02*
X207288641Y-90400000D01*
X206981359Y-91160000D02*
X207288641Y-91160000D01*
%TO.C,R11*%
X236885359Y-76968000D02*
X237192641Y-76968000D01*
X236885359Y-77728000D02*
X237192641Y-77728000D01*
%TO.C,C9*%
X86032164Y-104420000D02*
X86247836Y-104420000D01*
X86032164Y-105140000D02*
X86247836Y-105140000D01*
%TO.C,R7*%
X105561359Y-104400000D02*
X105868641Y-104400000D01*
X105561359Y-105160000D02*
X105868641Y-105160000D01*
%TO.C,C8*%
X204602164Y-89020000D02*
X204817836Y-89020000D01*
X204602164Y-89740000D02*
X204817836Y-89740000D01*
%TO.C,C23*%
X164992164Y-119490000D02*
X165207836Y-119490000D01*
X164992164Y-120210000D02*
X165207836Y-120210000D01*
%TO.C,R14*%
X187386359Y-91325000D02*
X187693641Y-91325000D01*
X187386359Y-92085000D02*
X187693641Y-92085000D01*
%TO.C,C3*%
X177792164Y-120195000D02*
X178007836Y-120195000D01*
X177792164Y-120915000D02*
X178007836Y-120915000D01*
%TO.C,R12*%
X239643359Y-76442000D02*
X239950641Y-76442000D01*
X239643359Y-77202000D02*
X239950641Y-77202000D01*
%TO.C,R5*%
X170700359Y-114146000D02*
X171007641Y-114146000D01*
X170700359Y-114906000D02*
X171007641Y-114906000D01*
%TO.C,C12*%
X238293164Y-98642000D02*
X238508836Y-98642000D01*
X238293164Y-99362000D02*
X238508836Y-99362000D01*
%TO.C,C7*%
X103182164Y-103020000D02*
X103397836Y-103020000D01*
X103182164Y-103740000D02*
X103397836Y-103740000D01*
%TO.C,C4*%
X174192164Y-120195000D02*
X174407836Y-120195000D01*
X174192164Y-120915000D02*
X174407836Y-120915000D01*
%TO.C,C19*%
X194467164Y-118045000D02*
X194682836Y-118045000D01*
X194467164Y-118765000D02*
X194682836Y-118765000D01*
%TO.C,C20*%
X121888748Y-108765000D02*
X122411252Y-108765000D01*
X121888748Y-110235000D02*
X122411252Y-110235000D01*
%TO.C,C24*%
X168592164Y-119490000D02*
X168807836Y-119490000D01*
X168592164Y-120210000D02*
X168807836Y-120210000D01*
%TO.C,R9*%
X229146359Y-87620000D02*
X229453641Y-87620000D01*
X229146359Y-88380000D02*
X229453641Y-88380000D01*
%TO.C,R13*%
X188786359Y-88900000D02*
X189093641Y-88900000D01*
X188786359Y-89660000D02*
X189093641Y-89660000D01*
%TO.C,C13*%
X119242164Y-109140000D02*
X119457836Y-109140000D01*
X119242164Y-109860000D02*
X119457836Y-109860000D01*
%TO.C,C18*%
X229544164Y-90425000D02*
X229759836Y-90425000D01*
X229544164Y-91145000D02*
X229759836Y-91145000D01*
%TO.C,C14*%
X56392164Y-103640000D02*
X56607836Y-103640000D01*
X56392164Y-104360000D02*
X56607836Y-104360000D01*
%TO.C,R6*%
X175642359Y-111065000D02*
X175949641Y-111065000D01*
X175642359Y-111825000D02*
X175949641Y-111825000D01*
%TO.C,C2*%
X179592164Y-117078000D02*
X179807836Y-117078000D01*
X179592164Y-117798000D02*
X179807836Y-117798000D01*
%TO.C,C17*%
X171439164Y-120986000D02*
X171654836Y-120986000D01*
X171439164Y-121706000D02*
X171654836Y-121706000D01*
%TO.C,C6*%
X174192164Y-113960000D02*
X174407836Y-113960000D01*
X174192164Y-114680000D02*
X174407836Y-114680000D01*
%TO.C,R4*%
X53921359Y-102220000D02*
X54228641Y-102220000D01*
X53921359Y-102980000D02*
X54228641Y-102980000D01*
%TO.C,C21*%
X58663748Y-104665000D02*
X59186252Y-104665000D01*
X58663748Y-106135000D02*
X59186252Y-106135000D01*
%TO.C,R3*%
X54946359Y-106045000D02*
X55253641Y-106045000D01*
X54946359Y-106805000D02*
X55253641Y-106805000D01*
%TD*%
M02*
