%TF.GenerationSoftware,KiCad,Pcbnew,10.0.4-10.0.4~ubuntu24.04.1*%
%TF.CreationDate,2026-07-06T17:21:14-07:00*%
%TF.ProjectId,imspi8080,696d7370-6938-4303-9830-2e6b69636164,rev?*%
%TF.SameCoordinates,Original*%
%TF.FileFunction,Soldermask,Bot*%
%TF.FilePolarity,Negative*%
%FSLAX46Y46*%
G04 Gerber Fmt 4.6, Leading zero omitted, Abs format (unit mm)*
G04 Created by KiCad (PCBNEW 10.0.4-10.0.4~ubuntu24.04.1) date 2026-07-06 17:21:14*
%MOMM*%
%LPD*%
G01*
G04 APERTURE LIST*
G04 Aperture macros list*
%AMRoundRect*
0 Rectangle with rounded corners*
0 $1 Rounding radius*
0 $2 $3 $4 $5 $6 $7 $8 $9 X,Y pos of 4 corners*
0 Add a 4 corners polygon primitive as box body*
4,1,4,$2,$3,$4,$5,$6,$7,$8,$9,$2,$3,0*
0 Add four circle primitives for the rounded corners*
1,1,$1+$1,$2,$3*
1,1,$1+$1,$4,$5*
1,1,$1+$1,$6,$7*
1,1,$1+$1,$8,$9*
0 Add four rect primitives between the rounded corners*
20,1,$1+$1,$2,$3,$4,$5,0*
20,1,$1+$1,$4,$5,$6,$7,0*
20,1,$1+$1,$6,$7,$8,$9,0*
20,1,$1+$1,$8,$9,$2,$3,0*%
G04 Aperture macros list end*
%ADD10C,0.650000*%
%ADD11O,1.000000X2.100000*%
%ADD12O,1.000000X1.600000*%
%ADD13C,2.700000*%
%ADD14RoundRect,0.250000X-0.600000X-0.725000X0.600000X-0.725000X0.600000X0.725000X-0.600000X0.725000X0*%
%ADD15O,1.700000X1.950000*%
%ADD16R,1.700000X1.700000*%
%ADD17C,1.700000*%
%ADD18RoundRect,0.140000X-0.140000X-0.170000X0.140000X-0.170000X0.140000X0.170000X-0.140000X0.170000X0*%
%ADD19RoundRect,0.135000X-0.135000X-0.185000X0.135000X-0.185000X0.135000X0.185000X-0.135000X0.185000X0*%
%ADD20RoundRect,0.250000X-0.250000X-0.475000X0.250000X-0.475000X0.250000X0.475000X-0.250000X0.475000X0*%
G04 APERTURE END LIST*
D10*
%TO.C,J2*%
X148430000Y-117530000D03*
X154210000Y-117530000D03*
D11*
X147000000Y-117000000D03*
D12*
X147000000Y-121180000D03*
D11*
X155640000Y-117000000D03*
D12*
X155640000Y-121180000D03*
%TD*%
D13*
%TO.C,H5*%
X175425000Y-101925000D03*
%TD*%
%TO.C,H4*%
X42425000Y-101925000D03*
%TD*%
%TO.C,H3*%
X242425000Y-60925000D03*
%TD*%
D14*
%TO.C,J4*%
X215250000Y-117055000D03*
D15*
X217750000Y-117055000D03*
X220250000Y-117055000D03*
X222750000Y-117055000D03*
X225250000Y-117055000D03*
X227750000Y-117055000D03*
%TD*%
D13*
%TO.C,H6*%
X242425000Y-101925000D03*
%TD*%
%TO.C,H2*%
X175425000Y-60925000D03*
%TD*%
D16*
%TO.C,J5*%
X119000000Y-95500000D03*
D17*
X119000000Y-98040000D03*
X119000000Y-100580000D03*
%TD*%
D10*
%TO.C,J1*%
X116360000Y-117855000D03*
X122140000Y-117855000D03*
D11*
X114930000Y-117325000D03*
D12*
X114930000Y-121505000D03*
D11*
X123570000Y-117325000D03*
D12*
X123570000Y-121505000D03*
%TD*%
D14*
%TO.C,J3*%
X58750000Y-117055000D03*
D15*
X61250000Y-117055000D03*
X63750000Y-117055000D03*
X66250000Y-117055000D03*
X68750000Y-117055000D03*
X71250000Y-117055000D03*
X73750000Y-117055000D03*
X76250000Y-117055000D03*
X78750000Y-117055000D03*
X81250000Y-117055000D03*
%TD*%
D13*
%TO.C,H1*%
X42425000Y-60925000D03*
%TD*%
D18*
%TO.C,C11*%
X190495000Y-118405000D03*
X191455000Y-118405000D03*
%TD*%
D19*
%TO.C,R15*%
X183205000Y-90680000D03*
X184225000Y-90680000D03*
%TD*%
%TO.C,R16*%
X183205000Y-87880000D03*
X184225000Y-87880000D03*
%TD*%
D18*
%TO.C,C5*%
X172020000Y-117438000D03*
X172980000Y-117438000D03*
%TD*%
D19*
%TO.C,R1*%
X116415000Y-110900000D03*
X117435000Y-110900000D03*
%TD*%
D18*
%TO.C,C16*%
X181134000Y-119804000D03*
X182094000Y-119804000D03*
%TD*%
%TO.C,C10*%
X185660000Y-89280000D03*
X186620000Y-89280000D03*
%TD*%
D19*
%TO.C,R10*%
X229142000Y-85215000D03*
X230162000Y-85215000D03*
%TD*%
D18*
%TO.C,C15*%
X177420000Y-114320000D03*
X178380000Y-114320000D03*
%TD*%
D20*
%TO.C,C22*%
X119800000Y-111925000D03*
X121700000Y-111925000D03*
%TD*%
D18*
%TO.C,C1*%
X175620000Y-117438000D03*
X176580000Y-117438000D03*
%TD*%
D19*
%TO.C,R2*%
X116415000Y-108100000D03*
X117435000Y-108100000D03*
%TD*%
%TO.C,R8*%
X206625000Y-90780000D03*
X207645000Y-90780000D03*
%TD*%
%TO.C,R11*%
X236529000Y-77348000D03*
X237549000Y-77348000D03*
%TD*%
D18*
%TO.C,C9*%
X85660000Y-104780000D03*
X86620000Y-104780000D03*
%TD*%
D19*
%TO.C,R7*%
X105205000Y-104780000D03*
X106225000Y-104780000D03*
%TD*%
D18*
%TO.C,C8*%
X204230000Y-89380000D03*
X205190000Y-89380000D03*
%TD*%
%TO.C,C23*%
X164620000Y-119850000D03*
X165580000Y-119850000D03*
%TD*%
D19*
%TO.C,R14*%
X187030000Y-91705000D03*
X188050000Y-91705000D03*
%TD*%
D18*
%TO.C,C3*%
X177420000Y-120555000D03*
X178380000Y-120555000D03*
%TD*%
D19*
%TO.C,R12*%
X239287000Y-76822000D03*
X240307000Y-76822000D03*
%TD*%
%TO.C,R5*%
X170344000Y-114526000D03*
X171364000Y-114526000D03*
%TD*%
D18*
%TO.C,C12*%
X237921000Y-99002000D03*
X238881000Y-99002000D03*
%TD*%
%TO.C,C7*%
X102810000Y-103380000D03*
X103770000Y-103380000D03*
%TD*%
%TO.C,C4*%
X173820000Y-120555000D03*
X174780000Y-120555000D03*
%TD*%
%TO.C,C19*%
X194095000Y-118405000D03*
X195055000Y-118405000D03*
%TD*%
D20*
%TO.C,C20*%
X121200000Y-109500000D03*
X123100000Y-109500000D03*
%TD*%
D18*
%TO.C,C24*%
X168220000Y-119850000D03*
X169180000Y-119850000D03*
%TD*%
D19*
%TO.C,R9*%
X228790000Y-88000000D03*
X229810000Y-88000000D03*
%TD*%
%TO.C,R13*%
X188430000Y-89280000D03*
X189450000Y-89280000D03*
%TD*%
D18*
%TO.C,C13*%
X118870000Y-109500000D03*
X119830000Y-109500000D03*
%TD*%
%TO.C,C18*%
X229172000Y-90785000D03*
X230132000Y-90785000D03*
%TD*%
%TO.C,C14*%
X56020000Y-104000000D03*
X56980000Y-104000000D03*
%TD*%
D19*
%TO.C,R6*%
X175286000Y-111445000D03*
X176306000Y-111445000D03*
%TD*%
D18*
%TO.C,C2*%
X179220000Y-117438000D03*
X180180000Y-117438000D03*
%TD*%
%TO.C,C17*%
X171067000Y-121346000D03*
X172027000Y-121346000D03*
%TD*%
%TO.C,C6*%
X173820000Y-114320000D03*
X174780000Y-114320000D03*
%TD*%
D19*
%TO.C,R4*%
X53565000Y-102600000D03*
X54585000Y-102600000D03*
%TD*%
D20*
%TO.C,C21*%
X57975000Y-105400000D03*
X59875000Y-105400000D03*
%TD*%
D19*
%TO.C,R3*%
X54590000Y-106425000D03*
X55610000Y-106425000D03*
%TD*%
M02*
