M48
; DRILL file KiCad 10.0.4-10.0.4~ubuntu24.04.1 date 2026-07-06T17:21:14
; FORMAT={-:-/ absolute / metric / decimal}
; #@! TF.CreationDate,2026-07-06T17:21:14-07:00
; #@! TF.GenerationSoftware,Kicad,Pcbnew,10.0.4-10.0.4~ubuntu24.04.1
; #@! TF.FileFunction,Plated,1,2,PTH
FMAT,2
METRIC
; #@! TA.AperFunction,Plated,PTH,ViaDrill
T1C0.300
; #@! TA.AperFunction,Plated,PTH,ComponentDrill
T2C0.600
; #@! TA.AperFunction,Plated,PTH,ComponentDrill
T3C0.950
; #@! TA.AperFunction,Plated,PTH,ComponentDrill
T4C1.000
%
G90
G05
T1
X50.811Y-76.634
X54.737Y-87.537
X54.737Y-116.787
X55.288Y-101.49
X57.83Y-103.775
X59.624Y-115.606
X65.511Y-64.339
X65.712Y-75.837
X65.897Y-65.37
X70.084Y-106.308
X71.606Y-105.69
X72.67Y-105.343
X74.73Y-104.267
X75.552Y-104.936
X78.536Y-105.087
X80.65Y-64.138
X80.65Y-75.837
X81.303Y-106.222
X85.577Y-105.649
X86.47Y-104.034
X86.902Y-103.35
X87.586Y-102.852
X87.774Y-106.303
X91.147Y-104.918
X91.804Y-109.367
X92.343Y-101.573
X92.519Y-106.849
X92.7Y-63.841
X93.028Y-100.39
X93.263Y-78.912
X93.412Y-107.431
X96.386Y-102.162
X96.432Y-102.921
X98.066Y-103.311
X98.331Y-108.139
X101.274Y-69.765
X101.46Y-102.251
X101.9Y-104.77
X102.028Y-103.401
X102.238Y-100.498
X102.702Y-106.12
X105.362Y-102.369
X107.637Y-64.066
X107.637Y-87.537
X108.039Y-76.523
X108.307Y-98.42
X108.451Y-99.219
X108.602Y-106.898
X108.78Y-104.167
X108.781Y-82.181
X110.411Y-100.287
X110.871Y-106.97
X111.122Y-104.024
X117.212Y-65.379
X117.212Y-114.697
X117.972Y-111.81
X118.87Y-108.672
X120.186Y-76.125
X120.653Y-115.239
X122.254Y-119.712
X122.438Y-113.799
X132.088Y-78.763
X137.512Y-64.29
X142.454Y-122.511
X153.875Y-102.623
X155.475Y-101.562
X156.162Y-123.027
X156.918Y-122.841
X164.812Y-116.644
X164.812Y-121.676
X165.594Y-112.17
X166.644Y-100.139
X167.077Y-109.245
X167.368Y-118.904
X168.398Y-121.523
X169.759Y-115.067
X170.031Y-121.44
X170.255Y-105.572
X170.413Y-120.145
X170.698Y-118.181
X170.72Y-118.988
X170.884Y-116.095
X171.336Y-104.516
X171.493Y-118.506
X171.635Y-115.392
X173.087Y-110.115
X173.837Y-119.282
X174.189Y-109.623
X174.572Y-111.209
X175.981Y-121.831
X176.268Y-93.691
X176.707Y-100.092
X176.713Y-84.612
X176.848Y-93.18
X177.308Y-92.126
X178.135Y-116.521
X178.324Y-115.24
X178.65Y-118.364
X180.844Y-118.404
X181.662Y-115.65
X182.057Y-88.672
X182.282Y-116.518
X182.506Y-106.528
X182.698Y-84.773
X182.856Y-110.231
X183.139Y-107.04
X184.765Y-89.68
X184.979Y-88.563
X186.49Y-120.416
X186.6Y-88.53
X186.759Y-87.655
X187.513Y-89.61
X190.174Y-89.281
X190.455Y-86.594
X191.287Y-116.71
X196.362Y-119.712
X201.441Y-83.824
X205.899Y-90.808
X209.663Y-90.913
X226.363Y-86.64
X226.68Y-87.677
X231.388Y-91.162
X231.517Y-86.308
X233.977Y-89.529
X234.05Y-85.075
X234.49Y-91.415
X236.393Y-96.357
T3
X58.75Y-117.055
X61.25Y-117.055
X63.75Y-117.055
X66.25Y-117.055
X68.75Y-117.055
X71.25Y-117.055
X73.75Y-117.055
X76.25Y-117.055
X78.75Y-117.055
X81.25Y-117.055
X215.25Y-117.055
X217.75Y-117.055
X220.25Y-117.055
X222.75Y-117.055
X225.25Y-117.055
X227.75Y-117.055
T4
X119.0Y-95.5
X119.0Y-98.04
X119.0Y-100.58
T2
X114.93Y-116.775G85X114.93Y-117.875
G05
X114.93Y-121.205G85X114.93Y-121.805
G05
X123.57Y-116.775G85X123.57Y-117.875
G05
X123.57Y-121.205G85X123.57Y-121.805
G05
X147.0Y-116.45G85X147.0Y-117.55
G05
X147.0Y-120.88G85X147.0Y-121.48
G05
X155.64Y-116.45G85X155.64Y-117.55
G05
X155.64Y-120.88G85X155.64Y-121.48
G05
M30
