%TF.GenerationSoftware,KiCad,Pcbnew,10.0.4-10.0.4~ubuntu24.04.1*%
%TF.CreationDate,2026-07-06T17:21:14-07:00*%
%TF.ProjectId,imspi8080,696d7370-6938-4303-9830-2e6b69636164,rev?*%
%TF.SameCoordinates,Original*%
%TF.FileFunction,Paste,Top*%
%TF.FilePolarity,Positive*%
%FSLAX46Y46*%
G04 Gerber Fmt 4.6, Leading zero omitted, Abs format (unit mm)*
G04 Created by KiCad (PCBNEW 10.0.4-10.0.4~ubuntu24.04.1) date 2026-07-06 17:21:14*
%MOMM*%
%LPD*%
G01*
G04 APERTURE LIST*
G04 Aperture macros list*
%AMRoundRect*
0 Rectangle with rounded corners*
0 $1 Rounding radius*
0 $2 $3 $4 $5 $6 $7 $8 $9 X,Y pos of 4 corners*
0 Add a 4 corners polygon primitive as box body*
4,1,4,$2,$3,$4,$5,$6,$7,$8,$9,$2,$3,0*
0 Add four circle primitives for the rounded corners*
1,1,$1+$1,$2,$3*
1,1,$1+$1,$4,$5*
1,1,$1+$1,$6,$7*
1,1,$1+$1,$8,$9*
0 Add four rect primitives between the rounded corners*
20,1,$1+$1,$2,$3,$4,$5,0*
20,1,$1+$1,$4,$5,$6,$7,0*
20,1,$1+$1,$6,$7,$8,$9,0*
20,1,$1+$1,$8,$9,$2,$3,0*%
G04 Aperture macros list end*
%ADD10RoundRect,0.250000X-0.375000X-0.625000X0.375000X-0.625000X0.375000X0.625000X-0.375000X0.625000X0*%
%ADD11RoundRect,0.150000X-0.150000X-0.575000X0.150000X-0.575000X0.150000X0.575000X-0.150000X0.575000X0*%
%ADD12RoundRect,0.075000X-0.075000X-0.650000X0.075000X-0.650000X0.075000X0.650000X-0.075000X0.650000X0*%
%ADD13RoundRect,0.100000X-0.637500X-0.100000X0.637500X-0.100000X0.637500X0.100000X-0.637500X0.100000X0*%
%ADD14R,1.200000X0.700000*%
%ADD15R,0.800000X1.000000*%
%ADD16R,1.200000X1.000000*%
%ADD17R,2.800000X1.000000*%
%ADD18R,1.900000X1.300000*%
%ADD19RoundRect,0.375000X-0.625000X-0.375000X0.625000X-0.375000X0.625000X0.375000X-0.625000X0.375000X0*%
%ADD20RoundRect,0.500000X-0.500000X-1.400000X0.500000X-1.400000X0.500000X1.400000X-0.500000X1.400000X0*%
%ADD21RoundRect,0.249999X-0.395001X-0.395001X0.395001X-0.395001X0.395001X0.395001X-0.395001X0.395001X0*%
%ADD22RoundRect,0.050000X-0.387500X-0.050000X0.387500X-0.050000X0.387500X0.050000X-0.387500X0.050000X0*%
%ADD23RoundRect,0.050000X-0.050000X-0.387500X0.050000X-0.387500X0.050000X0.387500X-0.050000X0.387500X0*%
%ADD24RoundRect,0.100000X-0.687500X-0.100000X0.687500X-0.100000X0.687500X0.100000X-0.687500X0.100000X0*%
%ADD25R,0.900000X1.000000*%
%ADD26RoundRect,0.150000X-0.825000X-0.150000X0.825000X-0.150000X0.825000X0.150000X-0.825000X0.150000X0*%
%ADD27RoundRect,0.250000X-0.450000X-0.350000X0.450000X-0.350000X0.450000X0.350000X-0.450000X0.350000X0*%
G04 APERTURE END LIST*
D10*
%TO.C,D19*%
X79100000Y-88000000D03*
X81900000Y-88000000D03*
%TD*%
%TO.C,D5*%
X109100000Y-64000000D03*
X111900000Y-64000000D03*
%TD*%
%TO.C,D21*%
X109100000Y-88000000D03*
X111900000Y-88000000D03*
%TD*%
D11*
%TO.C,J2*%
X148070000Y-116085000D03*
X148870000Y-116085000D03*
D12*
X150070000Y-116085000D03*
X151070000Y-116085000D03*
X151570000Y-116085000D03*
X152570000Y-116085000D03*
D11*
X153770000Y-116085000D03*
X154570000Y-116085000D03*
X154570000Y-116085000D03*
X153770000Y-116085000D03*
D12*
X153070000Y-116085000D03*
X152070000Y-116085000D03*
X150570000Y-116085000D03*
X149570000Y-116085000D03*
D11*
X148870000Y-116085000D03*
X148070000Y-116085000D03*
%TD*%
D13*
%TO.C,U6*%
X183275000Y-87000000D03*
X183275000Y-87650000D03*
X183275000Y-88300000D03*
X183275000Y-88950000D03*
X183275000Y-89600000D03*
X183275000Y-90250000D03*
X183275000Y-90900000D03*
X183275000Y-91550000D03*
X189000000Y-91550000D03*
X189000000Y-90900000D03*
X189000000Y-90250000D03*
X189000000Y-89600000D03*
X189000000Y-88950000D03*
X189000000Y-88300000D03*
X189000000Y-87650000D03*
X189000000Y-87000000D03*
%TD*%
D10*
%TO.C,D24*%
X154100000Y-88000000D03*
X156900000Y-88000000D03*
%TD*%
%TO.C,D26*%
X209100000Y-76000000D03*
X211900000Y-76000000D03*
%TD*%
D14*
%TO.C,U7*%
X232775000Y-85225000D03*
X232775000Y-86325000D03*
X232775000Y-87425000D03*
X232775000Y-88525000D03*
X232775000Y-89625000D03*
X232775000Y-90725000D03*
X232775000Y-91825000D03*
X232775000Y-92925000D03*
X232775000Y-93875000D03*
D15*
X243275000Y-94825000D03*
D16*
X237075000Y-94825000D03*
D17*
X247425000Y-94825000D03*
D16*
X232775000Y-83675000D03*
D18*
X247875000Y-81325000D03*
%TD*%
D10*
%TO.C,D17*%
X49100000Y-88000000D03*
X51900000Y-88000000D03*
%TD*%
%TO.C,D11*%
X79100000Y-76000000D03*
X81900000Y-76000000D03*
%TD*%
D19*
%TO.C,U9*%
X53350000Y-101700000D03*
X53350000Y-104000000D03*
D20*
X59650000Y-104000000D03*
D19*
X53350000Y-106300000D03*
%TD*%
D10*
%TO.C,D12*%
X94100000Y-76000000D03*
X96900000Y-76000000D03*
%TD*%
%TO.C,D23*%
X139100000Y-88000000D03*
X141900000Y-88000000D03*
%TD*%
D19*
%TO.C,U8*%
X116200000Y-107200000D03*
X116200000Y-109500000D03*
D20*
X122500000Y-109500000D03*
D19*
X116200000Y-111800000D03*
%TD*%
D21*
%TO.C,U1*%
X175300000Y-116637500D03*
X175300000Y-118237500D03*
X176900000Y-116637500D03*
X176900000Y-118237500D03*
D22*
X172662500Y-114837500D03*
X172662500Y-115237500D03*
X172662500Y-115637500D03*
X172662500Y-116037500D03*
X172662500Y-116437500D03*
X172662500Y-116837500D03*
X172662500Y-117237500D03*
X172662500Y-117637500D03*
X172662500Y-118037500D03*
X172662500Y-118437500D03*
X172662500Y-118837500D03*
X172662500Y-119237500D03*
X172662500Y-119637500D03*
X172662500Y-120037500D03*
D23*
X173500000Y-120875000D03*
X173900000Y-120875000D03*
X174300000Y-120875000D03*
X174700000Y-120875000D03*
X175100000Y-120875000D03*
X175500000Y-120875000D03*
X175900000Y-120875000D03*
X176300000Y-120875000D03*
X176700000Y-120875000D03*
X177100000Y-120875000D03*
X177500000Y-120875000D03*
X177900000Y-120875000D03*
X178300000Y-120875000D03*
X178700000Y-120875000D03*
D22*
X179537500Y-120037500D03*
X179537500Y-119637500D03*
X179537500Y-119237500D03*
X179537500Y-118837500D03*
X179537500Y-118437500D03*
X179537500Y-118037500D03*
X179537500Y-117637500D03*
X179537500Y-117237500D03*
X179537500Y-116837500D03*
X179537500Y-116437500D03*
X179537500Y-116037500D03*
X179537500Y-115637500D03*
X179537500Y-115237500D03*
X179537500Y-114837500D03*
D23*
X178700000Y-114000000D03*
X178300000Y-114000000D03*
X177900000Y-114000000D03*
X177500000Y-114000000D03*
X177100000Y-114000000D03*
X176700000Y-114000000D03*
X176300000Y-114000000D03*
X175900000Y-114000000D03*
X175500000Y-114000000D03*
X175100000Y-114000000D03*
X174700000Y-114000000D03*
X174300000Y-114000000D03*
X173900000Y-114000000D03*
X173500000Y-114000000D03*
%TD*%
D10*
%TO.C,D20*%
X94100000Y-88000000D03*
X96900000Y-88000000D03*
%TD*%
%TO.C,D1*%
X49100000Y-64000000D03*
X51900000Y-64000000D03*
%TD*%
D24*
%TO.C,U3*%
X99575000Y-98500000D03*
X99575000Y-99150000D03*
X99575000Y-99800000D03*
X99575000Y-100450000D03*
X99575000Y-101100000D03*
X99575000Y-101750000D03*
X99575000Y-102400000D03*
X99575000Y-103050000D03*
X99575000Y-103700000D03*
X99575000Y-104350000D03*
X99575000Y-105000000D03*
X99575000Y-105650000D03*
X99575000Y-106300000D03*
X99575000Y-106950000D03*
X99575000Y-107600000D03*
X99575000Y-108250000D03*
X107000000Y-108250000D03*
X107000000Y-107600000D03*
X107000000Y-106950000D03*
X107000000Y-106300000D03*
X107000000Y-105650000D03*
X107000000Y-105000000D03*
X107000000Y-104350000D03*
X107000000Y-103700000D03*
X107000000Y-103050000D03*
X107000000Y-102400000D03*
X107000000Y-101750000D03*
X107000000Y-101100000D03*
X107000000Y-100450000D03*
X107000000Y-99800000D03*
X107000000Y-99150000D03*
X107000000Y-98500000D03*
%TD*%
D10*
%TO.C,D27*%
X224100000Y-76000000D03*
X226900000Y-76000000D03*
%TD*%
%TO.C,D10*%
X64100000Y-76000000D03*
X66900000Y-76000000D03*
%TD*%
%TO.C,D6*%
X124100000Y-64000000D03*
X126900000Y-64000000D03*
%TD*%
%TO.C,D4*%
X94100000Y-64000000D03*
X96900000Y-64000000D03*
%TD*%
%TO.C,D2*%
X64100000Y-64000000D03*
X66900000Y-64000000D03*
%TD*%
%TO.C,D8*%
X154100000Y-64000000D03*
X156900000Y-64000000D03*
%TD*%
%TO.C,D3*%
X79100000Y-64000000D03*
X81900000Y-64000000D03*
%TD*%
%TO.C,D28*%
X239100000Y-76000000D03*
X241900000Y-76000000D03*
%TD*%
%TO.C,D9*%
X49100000Y-76000000D03*
X51900000Y-76000000D03*
%TD*%
D24*
%TO.C,U4*%
X201000000Y-84500000D03*
X201000000Y-85150000D03*
X201000000Y-85800000D03*
X201000000Y-86450000D03*
X201000000Y-87100000D03*
X201000000Y-87750000D03*
X201000000Y-88400000D03*
X201000000Y-89050000D03*
X201000000Y-89700000D03*
X201000000Y-90350000D03*
X201000000Y-91000000D03*
X201000000Y-91650000D03*
X201000000Y-92300000D03*
X201000000Y-92950000D03*
X201000000Y-93600000D03*
X201000000Y-94250000D03*
X208425000Y-94250000D03*
X208425000Y-93600000D03*
X208425000Y-92950000D03*
X208425000Y-92300000D03*
X208425000Y-91650000D03*
X208425000Y-91000000D03*
X208425000Y-90350000D03*
X208425000Y-89700000D03*
X208425000Y-89050000D03*
X208425000Y-88400000D03*
X208425000Y-87750000D03*
X208425000Y-87100000D03*
X208425000Y-86450000D03*
X208425000Y-85800000D03*
X208425000Y-85150000D03*
X208425000Y-84500000D03*
%TD*%
D10*
%TO.C,D7*%
X139100000Y-64000000D03*
X141900000Y-64000000D03*
%TD*%
%TO.C,D13*%
X109100000Y-76000000D03*
X111900000Y-76000000D03*
%TD*%
%TO.C,D14*%
X124100000Y-76000000D03*
X126900000Y-76000000D03*
%TD*%
D25*
%TO.C,SW1*%
X144900000Y-102500000D03*
X149000000Y-102500000D03*
X144900000Y-104100000D03*
X149000000Y-104100000D03*
%TD*%
D11*
%TO.C,J1*%
X116000000Y-116410000D03*
X116800000Y-116410000D03*
D12*
X118000000Y-116410000D03*
X119000000Y-116410000D03*
X119500000Y-116410000D03*
X120500000Y-116410000D03*
D11*
X121700000Y-116410000D03*
X122500000Y-116410000D03*
X122500000Y-116410000D03*
X121700000Y-116410000D03*
D12*
X121000000Y-116410000D03*
X120000000Y-116410000D03*
X118500000Y-116410000D03*
X117500000Y-116410000D03*
D11*
X116800000Y-116410000D03*
X116000000Y-116410000D03*
%TD*%
D10*
%TO.C,D15*%
X139100000Y-76000000D03*
X141900000Y-76000000D03*
%TD*%
%TO.C,D18*%
X64100000Y-88000000D03*
X66900000Y-88000000D03*
%TD*%
%TO.C,D16*%
X154100000Y-76000000D03*
X156900000Y-76000000D03*
%TD*%
D13*
%TO.C,U5*%
X83275000Y-102500000D03*
X83275000Y-103150000D03*
X83275000Y-103800000D03*
X83275000Y-104450000D03*
X83275000Y-105100000D03*
X83275000Y-105750000D03*
X83275000Y-106400000D03*
X83275000Y-107050000D03*
X89000000Y-107050000D03*
X89000000Y-106400000D03*
X89000000Y-105750000D03*
X89000000Y-105100000D03*
X89000000Y-104450000D03*
X89000000Y-103800000D03*
X89000000Y-103150000D03*
X89000000Y-102500000D03*
%TD*%
D26*
%TO.C,U2*%
X188500000Y-116500000D03*
X188500000Y-117770000D03*
X188500000Y-119040000D03*
X188500000Y-120310000D03*
X193450000Y-120310000D03*
X193450000Y-119040000D03*
X193450000Y-117770000D03*
X193450000Y-116500000D03*
%TD*%
D10*
%TO.C,D22*%
X124100000Y-88000000D03*
X126900000Y-88000000D03*
%TD*%
D27*
%TO.C,Y1*%
X164000000Y-120700000D03*
X166200000Y-120700000D03*
X166200000Y-119000000D03*
X164000000Y-119000000D03*
%TD*%
D10*
%TO.C,D25*%
X194100000Y-76000000D03*
X196900000Y-76000000D03*
%TD*%
D25*
%TO.C,SW2*%
X152900000Y-102500000D03*
X157000000Y-102500000D03*
X152900000Y-104100000D03*
X157000000Y-104100000D03*
%TD*%
M02*
