%TF.GenerationSoftware,KiCad,Pcbnew,10.0.4-10.0.4~ubuntu24.04.1*%
%TF.CreationDate,2026-07-14T21:19:46-07:00*%
%TF.ProjectId,imspi8080_rev3,696d7370-6938-4303-9830-5f726576332e,rev?*%
%TF.SameCoordinates,Original*%
%TF.FileFunction,Paste,Bot*%
%TF.FilePolarity,Positive*%
%FSLAX46Y46*%
G04 Gerber Fmt 4.6, Leading zero omitted, Abs format (unit mm)*
G04 Created by KiCad (PCBNEW 10.0.4-10.0.4~ubuntu24.04.1) date 2026-07-14 21:19:46*
%MOMM*%
%LPD*%
G01*
G04 APERTURE LIST*
G04 Aperture macros list*
%AMRoundRect*
0 Rectangle with rounded corners*
0 $1 Rounding radius*
0 $2 $3 $4 $5 $6 $7 $8 $9 X,Y pos of 4 corners*
0 Add a 4 corners polygon primitive as box body*
4,1,4,$2,$3,$4,$5,$6,$7,$8,$9,$2,$3,0*
0 Add four circle primitives for the rounded corners*
1,1,$1+$1,$2,$3*
1,1,$1+$1,$4,$5*
1,1,$1+$1,$6,$7*
1,1,$1+$1,$8,$9*
0 Add four rect primitives between the rounded corners*
20,1,$1+$1,$2,$3,$4,$5,0*
20,1,$1+$1,$4,$5,$6,$7,0*
20,1,$1+$1,$6,$7,$8,$9,0*
20,1,$1+$1,$8,$9,$2,$3,0*%
G04 Aperture macros list end*
%ADD10RoundRect,0.140000X-0.140000X-0.170000X0.140000X-0.170000X0.140000X0.170000X-0.140000X0.170000X0*%
%ADD11RoundRect,0.135000X-0.135000X-0.185000X0.135000X-0.185000X0.135000X0.185000X-0.135000X0.185000X0*%
%ADD12RoundRect,0.250000X-0.250000X-0.475000X0.250000X-0.475000X0.250000X0.475000X-0.250000X0.475000X0*%
G04 APERTURE END LIST*
D10*
%TO.C,C11*%
X144445000Y-97875000D03*
X145405000Y-97875000D03*
%TD*%
D11*
%TO.C,R15*%
X194442500Y-107280000D03*
X195462500Y-107280000D03*
%TD*%
%TO.C,R16*%
X194442500Y-104480000D03*
X195462500Y-104480000D03*
%TD*%
D10*
%TO.C,C5*%
X133295000Y-97875500D03*
X134255000Y-97875500D03*
%TD*%
D11*
%TO.C,R1*%
X110440000Y-79275000D03*
X111460000Y-79275000D03*
%TD*%
D10*
%TO.C,C16*%
X142409000Y-100241500D03*
X143369000Y-100241500D03*
%TD*%
%TO.C,C10*%
X196897500Y-105880000D03*
X197857500Y-105880000D03*
%TD*%
D11*
%TO.C,R10*%
X203407000Y-63485000D03*
X204427000Y-63485000D03*
%TD*%
D10*
%TO.C,C15*%
X138695000Y-94757500D03*
X139655000Y-94757500D03*
%TD*%
D12*
%TO.C,C22*%
X113825000Y-80300000D03*
X115725000Y-80300000D03*
%TD*%
D10*
%TO.C,C1*%
X136895000Y-97875500D03*
X137855000Y-97875500D03*
%TD*%
D11*
%TO.C,R2*%
X110440000Y-76475000D03*
X111460000Y-76475000D03*
%TD*%
%TO.C,R8*%
X211100000Y-99730000D03*
X212120000Y-99730000D03*
%TD*%
%TO.C,R11*%
X210794000Y-55618000D03*
X211814000Y-55618000D03*
%TD*%
D10*
%TO.C,C9*%
X76897500Y-105880000D03*
X77857500Y-105880000D03*
%TD*%
D11*
%TO.C,R7*%
X103292500Y-112280000D03*
X104312500Y-112280000D03*
%TD*%
D10*
%TO.C,C8*%
X208705000Y-98330000D03*
X209665000Y-98330000D03*
%TD*%
%TO.C,C23*%
X130820000Y-99300000D03*
X131780000Y-99300000D03*
%TD*%
D11*
%TO.C,R14*%
X198267500Y-108305000D03*
X199287500Y-108305000D03*
%TD*%
D10*
%TO.C,C3*%
X138695000Y-100992500D03*
X139655000Y-100992500D03*
%TD*%
D11*
%TO.C,R12*%
X213552000Y-55092000D03*
X214572000Y-55092000D03*
%TD*%
%TO.C,R5*%
X131619000Y-94963500D03*
X132639000Y-94963500D03*
%TD*%
D10*
%TO.C,C12*%
X212186000Y-77272000D03*
X213146000Y-77272000D03*
%TD*%
%TO.C,C7*%
X100897500Y-110880000D03*
X101857500Y-110880000D03*
%TD*%
%TO.C,C4*%
X135095000Y-100992500D03*
X136055000Y-100992500D03*
%TD*%
%TO.C,C19*%
X148045000Y-97875000D03*
X149005000Y-97875000D03*
%TD*%
D12*
%TO.C,C20*%
X115225000Y-77875000D03*
X117125000Y-77875000D03*
%TD*%
D10*
%TO.C,C24*%
X127395000Y-100365000D03*
X128355000Y-100365000D03*
%TD*%
D11*
%TO.C,R9*%
X203055000Y-66270000D03*
X204075000Y-66270000D03*
%TD*%
%TO.C,R13*%
X199667500Y-105880000D03*
X200687500Y-105880000D03*
%TD*%
D10*
%TO.C,C13*%
X112895000Y-77875000D03*
X113855000Y-77875000D03*
%TD*%
%TO.C,C18*%
X222759500Y-99660000D03*
X223719500Y-99660000D03*
%TD*%
%TO.C,C14*%
X174895000Y-77875000D03*
X175855000Y-77875000D03*
%TD*%
D11*
%TO.C,R6*%
X136561000Y-91882500D03*
X137581000Y-91882500D03*
%TD*%
D10*
%TO.C,C2*%
X140495000Y-97875500D03*
X141455000Y-97875500D03*
%TD*%
%TO.C,C17*%
X132342000Y-101783500D03*
X133302000Y-101783500D03*
%TD*%
%TO.C,C6*%
X135095000Y-94757500D03*
X136055000Y-94757500D03*
%TD*%
D11*
%TO.C,R4*%
X172440000Y-76475000D03*
X173460000Y-76475000D03*
%TD*%
D12*
%TO.C,C21*%
X177655000Y-79995000D03*
X179555000Y-79995000D03*
%TD*%
D11*
%TO.C,R3*%
X173465000Y-80300000D03*
X174485000Y-80300000D03*
%TD*%
M02*
