%TF.GenerationSoftware,KiCad,Pcbnew,10.0.4-10.0.4~ubuntu24.04.1*%
%TF.CreationDate,2026-07-14T21:19:46-07:00*%
%TF.ProjectId,imspi8080_rev3,696d7370-6938-4303-9830-5f726576332e,rev?*%
%TF.SameCoordinates,Original*%
%TF.FileFunction,Legend,Top*%
%TF.FilePolarity,Positive*%
%FSLAX46Y46*%
G04 Gerber Fmt 4.6, Leading zero omitted, Abs format (unit mm)*
G04 Created by KiCad (PCBNEW 10.0.4-10.0.4~ubuntu24.04.1) date 2026-07-14 21:19:46*
%MOMM*%
%LPD*%
G01*
G04 APERTURE LIST*
G04 Aperture macros list*
%AMRoundRect*
0 Rectangle with rounded corners*
0 $1 Rounding radius*
0 $2 $3 $4 $5 $6 $7 $8 $9 X,Y pos of 4 corners*
0 Add a 4 corners polygon primitive as box body*
4,1,4,$2,$3,$4,$5,$6,$7,$8,$9,$2,$3,0*
0 Add four circle primitives for the rounded corners*
1,1,$1+$1,$2,$3*
1,1,$1+$1,$4,$5*
1,1,$1+$1,$6,$7*
1,1,$1+$1,$8,$9*
0 Add four rect primitives between the rounded corners*
20,1,$1+$1,$2,$3,$4,$5,0*
20,1,$1+$1,$4,$5,$6,$7,0*
20,1,$1+$1,$6,$7,$8,$9,0*
20,1,$1+$1,$8,$9,$2,$3,0*%
G04 Aperture macros list end*
%ADD10C,0.100000*%
%ADD11C,0.150000*%
%ADD12C,0.120000*%
%ADD13RoundRect,0.250000X-0.375000X-0.625000X0.375000X-0.625000X0.375000X0.625000X-0.375000X0.625000X0*%
%ADD14R,1.700000X1.700000*%
%ADD15C,1.700000*%
%ADD16C,0.650000*%
%ADD17RoundRect,0.150000X0.150000X0.575000X-0.150000X0.575000X-0.150000X-0.575000X0.150000X-0.575000X0*%
%ADD18RoundRect,0.075000X0.075000X0.650000X-0.075000X0.650000X-0.075000X-0.650000X0.075000X-0.650000X0*%
%ADD19O,1.000000X2.100000*%
%ADD20O,1.000000X1.600000*%
%ADD21RoundRect,0.100000X-0.637500X-0.100000X0.637500X-0.100000X0.637500X0.100000X-0.637500X0.100000X0*%
%ADD22C,2.700000*%
%ADD23R,0.700000X1.200000*%
%ADD24R,1.000000X0.800000*%
%ADD25R,1.000000X1.200000*%
%ADD26R,1.000000X2.800000*%
%ADD27R,1.300000X1.900000*%
%ADD28RoundRect,0.375000X-0.625000X-0.375000X0.625000X-0.375000X0.625000X0.375000X-0.625000X0.375000X0*%
%ADD29RoundRect,0.500000X-0.500000X-1.400000X0.500000X-1.400000X0.500000X1.400000X-0.500000X1.400000X0*%
%ADD30RoundRect,0.050000X-0.387500X-0.050000X0.387500X-0.050000X0.387500X0.050000X-0.387500X0.050000X0*%
%ADD31RoundRect,0.050000X-0.050000X-0.387500X0.050000X-0.387500X0.050000X0.387500X-0.050000X0.387500X0*%
%ADD32R,3.200000X3.200000*%
%ADD33RoundRect,0.100000X-0.687500X-0.100000X0.687500X-0.100000X0.687500X0.100000X-0.687500X0.100000X0*%
%ADD34R,0.900000X1.000000*%
%ADD35RoundRect,0.150000X-0.825000X-0.150000X0.825000X-0.150000X0.825000X0.150000X-0.825000X0.150000X0*%
%ADD36RoundRect,0.250000X-0.450000X-0.350000X0.450000X-0.350000X0.450000X0.350000X-0.450000X0.350000X0*%
G04 APERTURE END LIST*
D10*
X146280074Y-112872419D02*
X145803884Y-112872419D01*
X145803884Y-112872419D02*
X145803884Y-111872419D01*
X146613408Y-112348609D02*
X146946741Y-112348609D01*
X147089598Y-112872419D02*
X146613408Y-112872419D01*
X146613408Y-112872419D02*
X146613408Y-111872419D01*
X146613408Y-111872419D02*
X147089598Y-111872419D01*
X147518170Y-112872419D02*
X147518170Y-111872419D01*
X147518170Y-111872419D02*
X147756265Y-111872419D01*
X147756265Y-111872419D02*
X147899122Y-111920038D01*
X147899122Y-111920038D02*
X147994360Y-112015276D01*
X147994360Y-112015276D02*
X148041979Y-112110514D01*
X148041979Y-112110514D02*
X148089598Y-112300990D01*
X148089598Y-112300990D02*
X148089598Y-112443847D01*
X148089598Y-112443847D02*
X148041979Y-112634323D01*
X148041979Y-112634323D02*
X147994360Y-112729561D01*
X147994360Y-112729561D02*
X147899122Y-112824800D01*
X147899122Y-112824800D02*
X147756265Y-112872419D01*
X147756265Y-112872419D02*
X147518170Y-112872419D01*
X149280075Y-112872419D02*
X149280075Y-111872419D01*
X149280075Y-111872419D02*
X149661027Y-111872419D01*
X149661027Y-111872419D02*
X149756265Y-111920038D01*
X149756265Y-111920038D02*
X149803884Y-111967657D01*
X149803884Y-111967657D02*
X149851503Y-112062895D01*
X149851503Y-112062895D02*
X149851503Y-112205752D01*
X149851503Y-112205752D02*
X149803884Y-112300990D01*
X149803884Y-112300990D02*
X149756265Y-112348609D01*
X149756265Y-112348609D02*
X149661027Y-112396228D01*
X149661027Y-112396228D02*
X149280075Y-112396228D01*
X150422932Y-112872419D02*
X150327694Y-112824800D01*
X150327694Y-112824800D02*
X150280075Y-112777180D01*
X150280075Y-112777180D02*
X150232456Y-112681942D01*
X150232456Y-112681942D02*
X150232456Y-112396228D01*
X150232456Y-112396228D02*
X150280075Y-112300990D01*
X150280075Y-112300990D02*
X150327694Y-112253371D01*
X150327694Y-112253371D02*
X150422932Y-112205752D01*
X150422932Y-112205752D02*
X150565789Y-112205752D01*
X150565789Y-112205752D02*
X150661027Y-112253371D01*
X150661027Y-112253371D02*
X150708646Y-112300990D01*
X150708646Y-112300990D02*
X150756265Y-112396228D01*
X150756265Y-112396228D02*
X150756265Y-112681942D01*
X150756265Y-112681942D02*
X150708646Y-112777180D01*
X150708646Y-112777180D02*
X150661027Y-112824800D01*
X150661027Y-112824800D02*
X150565789Y-112872419D01*
X150565789Y-112872419D02*
X150422932Y-112872419D01*
X151089599Y-112205752D02*
X151280075Y-112872419D01*
X151280075Y-112872419D02*
X151470551Y-112396228D01*
X151470551Y-112396228D02*
X151661027Y-112872419D01*
X151661027Y-112872419D02*
X151851503Y-112205752D01*
X152613408Y-112824800D02*
X152518170Y-112872419D01*
X152518170Y-112872419D02*
X152327694Y-112872419D01*
X152327694Y-112872419D02*
X152232456Y-112824800D01*
X152232456Y-112824800D02*
X152184837Y-112729561D01*
X152184837Y-112729561D02*
X152184837Y-112348609D01*
X152184837Y-112348609D02*
X152232456Y-112253371D01*
X152232456Y-112253371D02*
X152327694Y-112205752D01*
X152327694Y-112205752D02*
X152518170Y-112205752D01*
X152518170Y-112205752D02*
X152613408Y-112253371D01*
X152613408Y-112253371D02*
X152661027Y-112348609D01*
X152661027Y-112348609D02*
X152661027Y-112443847D01*
X152661027Y-112443847D02*
X152184837Y-112539085D01*
X153089599Y-112872419D02*
X153089599Y-112205752D01*
X153089599Y-112396228D02*
X153137218Y-112300990D01*
X153137218Y-112300990D02*
X153184837Y-112253371D01*
X153184837Y-112253371D02*
X153280075Y-112205752D01*
X153280075Y-112205752D02*
X153375313Y-112205752D01*
X154661028Y-111872419D02*
X154851504Y-111872419D01*
X154851504Y-111872419D02*
X154946742Y-111920038D01*
X154946742Y-111920038D02*
X155041980Y-112015276D01*
X155041980Y-112015276D02*
X155089599Y-112205752D01*
X155089599Y-112205752D02*
X155089599Y-112539085D01*
X155089599Y-112539085D02*
X155041980Y-112729561D01*
X155041980Y-112729561D02*
X154946742Y-112824800D01*
X154946742Y-112824800D02*
X154851504Y-112872419D01*
X154851504Y-112872419D02*
X154661028Y-112872419D01*
X154661028Y-112872419D02*
X154565790Y-112824800D01*
X154565790Y-112824800D02*
X154470552Y-112729561D01*
X154470552Y-112729561D02*
X154422933Y-112539085D01*
X154422933Y-112539085D02*
X154422933Y-112205752D01*
X154422933Y-112205752D02*
X154470552Y-112015276D01*
X154470552Y-112015276D02*
X154565790Y-111920038D01*
X154565790Y-111920038D02*
X154661028Y-111872419D01*
X155518171Y-112205752D02*
X155518171Y-112872419D01*
X155518171Y-112300990D02*
X155565790Y-112253371D01*
X155565790Y-112253371D02*
X155661028Y-112205752D01*
X155661028Y-112205752D02*
X155803885Y-112205752D01*
X155803885Y-112205752D02*
X155899123Y-112253371D01*
X155899123Y-112253371D02*
X155946742Y-112348609D01*
X155946742Y-112348609D02*
X155946742Y-112872419D01*
X156565790Y-112872419D02*
X156470552Y-112824800D01*
X156470552Y-112824800D02*
X156422933Y-112729561D01*
X156422933Y-112729561D02*
X156422933Y-111872419D01*
X156851505Y-112205752D02*
X157089600Y-112872419D01*
X157327695Y-112205752D02*
X157089600Y-112872419D01*
X157089600Y-112872419D02*
X156994362Y-113110514D01*
X156994362Y-113110514D02*
X156946743Y-113158133D01*
X156946743Y-113158133D02*
X156851505Y-113205752D01*
D11*
X78160714Y-140499819D02*
X78160714Y-139499819D01*
X78160714Y-139499819D02*
X78398809Y-139499819D01*
X78398809Y-139499819D02*
X78541666Y-139547438D01*
X78541666Y-139547438D02*
X78636904Y-139642676D01*
X78636904Y-139642676D02*
X78684523Y-139737914D01*
X78684523Y-139737914D02*
X78732142Y-139928390D01*
X78732142Y-139928390D02*
X78732142Y-140071247D01*
X78732142Y-140071247D02*
X78684523Y-140261723D01*
X78684523Y-140261723D02*
X78636904Y-140356961D01*
X78636904Y-140356961D02*
X78541666Y-140452200D01*
X78541666Y-140452200D02*
X78398809Y-140499819D01*
X78398809Y-140499819D02*
X78160714Y-140499819D01*
X79684523Y-140499819D02*
X79113095Y-140499819D01*
X79398809Y-140499819D02*
X79398809Y-139499819D01*
X79398809Y-139499819D02*
X79303571Y-139642676D01*
X79303571Y-139642676D02*
X79208333Y-139737914D01*
X79208333Y-139737914D02*
X79113095Y-139785533D01*
X80160714Y-140499819D02*
X80351190Y-140499819D01*
X80351190Y-140499819D02*
X80446428Y-140452200D01*
X80446428Y-140452200D02*
X80494047Y-140404580D01*
X80494047Y-140404580D02*
X80589285Y-140261723D01*
X80589285Y-140261723D02*
X80636904Y-140071247D01*
X80636904Y-140071247D02*
X80636904Y-139690295D01*
X80636904Y-139690295D02*
X80589285Y-139595057D01*
X80589285Y-139595057D02*
X80541666Y-139547438D01*
X80541666Y-139547438D02*
X80446428Y-139499819D01*
X80446428Y-139499819D02*
X80255952Y-139499819D01*
X80255952Y-139499819D02*
X80160714Y-139547438D01*
X80160714Y-139547438D02*
X80113095Y-139595057D01*
X80113095Y-139595057D02*
X80065476Y-139690295D01*
X80065476Y-139690295D02*
X80065476Y-139928390D01*
X80065476Y-139928390D02*
X80113095Y-140023628D01*
X80113095Y-140023628D02*
X80160714Y-140071247D01*
X80160714Y-140071247D02*
X80255952Y-140118866D01*
X80255952Y-140118866D02*
X80446428Y-140118866D01*
X80446428Y-140118866D02*
X80541666Y-140071247D01*
X80541666Y-140071247D02*
X80589285Y-140023628D01*
X80589285Y-140023628D02*
X80636904Y-139928390D01*
X108636905Y-116499819D02*
X108636905Y-115499819D01*
X108636905Y-115499819D02*
X108875000Y-115499819D01*
X108875000Y-115499819D02*
X109017857Y-115547438D01*
X109017857Y-115547438D02*
X109113095Y-115642676D01*
X109113095Y-115642676D02*
X109160714Y-115737914D01*
X109160714Y-115737914D02*
X109208333Y-115928390D01*
X109208333Y-115928390D02*
X109208333Y-116071247D01*
X109208333Y-116071247D02*
X109160714Y-116261723D01*
X109160714Y-116261723D02*
X109113095Y-116356961D01*
X109113095Y-116356961D02*
X109017857Y-116452200D01*
X109017857Y-116452200D02*
X108875000Y-116499819D01*
X108875000Y-116499819D02*
X108636905Y-116499819D01*
X110113095Y-115499819D02*
X109636905Y-115499819D01*
X109636905Y-115499819D02*
X109589286Y-115976009D01*
X109589286Y-115976009D02*
X109636905Y-115928390D01*
X109636905Y-115928390D02*
X109732143Y-115880771D01*
X109732143Y-115880771D02*
X109970238Y-115880771D01*
X109970238Y-115880771D02*
X110065476Y-115928390D01*
X110065476Y-115928390D02*
X110113095Y-115976009D01*
X110113095Y-115976009D02*
X110160714Y-116071247D01*
X110160714Y-116071247D02*
X110160714Y-116309342D01*
X110160714Y-116309342D02*
X110113095Y-116404580D01*
X110113095Y-116404580D02*
X110065476Y-116452200D01*
X110065476Y-116452200D02*
X109970238Y-116499819D01*
X109970238Y-116499819D02*
X109732143Y-116499819D01*
X109732143Y-116499819D02*
X109636905Y-116452200D01*
X109636905Y-116452200D02*
X109589286Y-116404580D01*
X108160714Y-140499819D02*
X108160714Y-139499819D01*
X108160714Y-139499819D02*
X108398809Y-139499819D01*
X108398809Y-139499819D02*
X108541666Y-139547438D01*
X108541666Y-139547438D02*
X108636904Y-139642676D01*
X108636904Y-139642676D02*
X108684523Y-139737914D01*
X108684523Y-139737914D02*
X108732142Y-139928390D01*
X108732142Y-139928390D02*
X108732142Y-140071247D01*
X108732142Y-140071247D02*
X108684523Y-140261723D01*
X108684523Y-140261723D02*
X108636904Y-140356961D01*
X108636904Y-140356961D02*
X108541666Y-140452200D01*
X108541666Y-140452200D02*
X108398809Y-140499819D01*
X108398809Y-140499819D02*
X108160714Y-140499819D01*
X109113095Y-139595057D02*
X109160714Y-139547438D01*
X109160714Y-139547438D02*
X109255952Y-139499819D01*
X109255952Y-139499819D02*
X109494047Y-139499819D01*
X109494047Y-139499819D02*
X109589285Y-139547438D01*
X109589285Y-139547438D02*
X109636904Y-139595057D01*
X109636904Y-139595057D02*
X109684523Y-139690295D01*
X109684523Y-139690295D02*
X109684523Y-139785533D01*
X109684523Y-139785533D02*
X109636904Y-139928390D01*
X109636904Y-139928390D02*
X109065476Y-140499819D01*
X109065476Y-140499819D02*
X109684523Y-140499819D01*
X110636904Y-140499819D02*
X110065476Y-140499819D01*
X110351190Y-140499819D02*
X110351190Y-139499819D01*
X110351190Y-139499819D02*
X110255952Y-139642676D01*
X110255952Y-139642676D02*
X110160714Y-139737914D01*
X110160714Y-139737914D02*
X110065476Y-139785533D01*
X137352200Y-148658332D02*
X137399819Y-148515475D01*
X137399819Y-148515475D02*
X137399819Y-148277380D01*
X137399819Y-148277380D02*
X137352200Y-148182142D01*
X137352200Y-148182142D02*
X137304580Y-148134523D01*
X137304580Y-148134523D02*
X137209342Y-148086904D01*
X137209342Y-148086904D02*
X137114104Y-148086904D01*
X137114104Y-148086904D02*
X137018866Y-148134523D01*
X137018866Y-148134523D02*
X136971247Y-148182142D01*
X136971247Y-148182142D02*
X136923628Y-148277380D01*
X136923628Y-148277380D02*
X136876009Y-148467856D01*
X136876009Y-148467856D02*
X136828390Y-148563094D01*
X136828390Y-148563094D02*
X136780771Y-148610713D01*
X136780771Y-148610713D02*
X136685533Y-148658332D01*
X136685533Y-148658332D02*
X136590295Y-148658332D01*
X136590295Y-148658332D02*
X136495057Y-148610713D01*
X136495057Y-148610713D02*
X136447438Y-148563094D01*
X136447438Y-148563094D02*
X136399819Y-148467856D01*
X136399819Y-148467856D02*
X136399819Y-148229761D01*
X136399819Y-148229761D02*
X136447438Y-148086904D01*
X136399819Y-147753570D02*
X137399819Y-147515475D01*
X137399819Y-147515475D02*
X136685533Y-147324999D01*
X136685533Y-147324999D02*
X137399819Y-147134523D01*
X137399819Y-147134523D02*
X136399819Y-146896428D01*
X137399819Y-146515475D02*
X136399819Y-146515475D01*
X136399819Y-146515475D02*
X136399819Y-146277380D01*
X136399819Y-146277380D02*
X136447438Y-146134523D01*
X136447438Y-146134523D02*
X136542676Y-146039285D01*
X136542676Y-146039285D02*
X136637914Y-145991666D01*
X136637914Y-145991666D02*
X136828390Y-145944047D01*
X136828390Y-145944047D02*
X136971247Y-145944047D01*
X136971247Y-145944047D02*
X137161723Y-145991666D01*
X137161723Y-145991666D02*
X137256961Y-146039285D01*
X137256961Y-146039285D02*
X137352200Y-146134523D01*
X137352200Y-146134523D02*
X137399819Y-146277380D01*
X137399819Y-146277380D02*
X137399819Y-146515475D01*
X136399819Y-145086904D02*
X136399819Y-145277380D01*
X136399819Y-145277380D02*
X136447438Y-145372618D01*
X136447438Y-145372618D02*
X136495057Y-145420237D01*
X136495057Y-145420237D02*
X136637914Y-145515475D01*
X136637914Y-145515475D02*
X136828390Y-145563094D01*
X136828390Y-145563094D02*
X137209342Y-145563094D01*
X137209342Y-145563094D02*
X137304580Y-145515475D01*
X137304580Y-145515475D02*
X137352200Y-145467856D01*
X137352200Y-145467856D02*
X137399819Y-145372618D01*
X137399819Y-145372618D02*
X137399819Y-145182142D01*
X137399819Y-145182142D02*
X137352200Y-145086904D01*
X137352200Y-145086904D02*
X137304580Y-145039285D01*
X137304580Y-145039285D02*
X137209342Y-144991666D01*
X137209342Y-144991666D02*
X136971247Y-144991666D01*
X136971247Y-144991666D02*
X136876009Y-145039285D01*
X136876009Y-145039285D02*
X136828390Y-145086904D01*
X136828390Y-145086904D02*
X136780771Y-145182142D01*
X136780771Y-145182142D02*
X136780771Y-145372618D01*
X136780771Y-145372618D02*
X136828390Y-145467856D01*
X136828390Y-145467856D02*
X136876009Y-145515475D01*
X136876009Y-145515475D02*
X136971247Y-145563094D01*
X196761667Y-144852200D02*
X196904524Y-144899819D01*
X196904524Y-144899819D02*
X197142619Y-144899819D01*
X197142619Y-144899819D02*
X197237857Y-144852200D01*
X197237857Y-144852200D02*
X197285476Y-144804580D01*
X197285476Y-144804580D02*
X197333095Y-144709342D01*
X197333095Y-144709342D02*
X197333095Y-144614104D01*
X197333095Y-144614104D02*
X197285476Y-144518866D01*
X197285476Y-144518866D02*
X197237857Y-144471247D01*
X197237857Y-144471247D02*
X197142619Y-144423628D01*
X197142619Y-144423628D02*
X196952143Y-144376009D01*
X196952143Y-144376009D02*
X196856905Y-144328390D01*
X196856905Y-144328390D02*
X196809286Y-144280771D01*
X196809286Y-144280771D02*
X196761667Y-144185533D01*
X196761667Y-144185533D02*
X196761667Y-144090295D01*
X196761667Y-144090295D02*
X196809286Y-143995057D01*
X196809286Y-143995057D02*
X196856905Y-143947438D01*
X196856905Y-143947438D02*
X196952143Y-143899819D01*
X196952143Y-143899819D02*
X197190238Y-143899819D01*
X197190238Y-143899819D02*
X197333095Y-143947438D01*
X197666429Y-143899819D02*
X197904524Y-144899819D01*
X197904524Y-144899819D02*
X198095000Y-144185533D01*
X198095000Y-144185533D02*
X198285476Y-144899819D01*
X198285476Y-144899819D02*
X198523572Y-143899819D01*
X199475952Y-144804580D02*
X199428333Y-144852200D01*
X199428333Y-144852200D02*
X199285476Y-144899819D01*
X199285476Y-144899819D02*
X199190238Y-144899819D01*
X199190238Y-144899819D02*
X199047381Y-144852200D01*
X199047381Y-144852200D02*
X198952143Y-144756961D01*
X198952143Y-144756961D02*
X198904524Y-144661723D01*
X198904524Y-144661723D02*
X198856905Y-144471247D01*
X198856905Y-144471247D02*
X198856905Y-144328390D01*
X198856905Y-144328390D02*
X198904524Y-144137914D01*
X198904524Y-144137914D02*
X198952143Y-144042676D01*
X198952143Y-144042676D02*
X199047381Y-143947438D01*
X199047381Y-143947438D02*
X199190238Y-143899819D01*
X199190238Y-143899819D02*
X199285476Y-143899819D01*
X199285476Y-143899819D02*
X199428333Y-143947438D01*
X199428333Y-143947438D02*
X199475952Y-143995057D01*
X200428333Y-144899819D02*
X199856905Y-144899819D01*
X200142619Y-144899819D02*
X200142619Y-143899819D01*
X200142619Y-143899819D02*
X200047381Y-144042676D01*
X200047381Y-144042676D02*
X199952143Y-144137914D01*
X199952143Y-144137914D02*
X199856905Y-144185533D01*
X181761667Y-144852200D02*
X181904524Y-144899819D01*
X181904524Y-144899819D02*
X182142619Y-144899819D01*
X182142619Y-144899819D02*
X182237857Y-144852200D01*
X182237857Y-144852200D02*
X182285476Y-144804580D01*
X182285476Y-144804580D02*
X182333095Y-144709342D01*
X182333095Y-144709342D02*
X182333095Y-144614104D01*
X182333095Y-144614104D02*
X182285476Y-144518866D01*
X182285476Y-144518866D02*
X182237857Y-144471247D01*
X182237857Y-144471247D02*
X182142619Y-144423628D01*
X182142619Y-144423628D02*
X181952143Y-144376009D01*
X181952143Y-144376009D02*
X181856905Y-144328390D01*
X181856905Y-144328390D02*
X181809286Y-144280771D01*
X181809286Y-144280771D02*
X181761667Y-144185533D01*
X181761667Y-144185533D02*
X181761667Y-144090295D01*
X181761667Y-144090295D02*
X181809286Y-143995057D01*
X181809286Y-143995057D02*
X181856905Y-143947438D01*
X181856905Y-143947438D02*
X181952143Y-143899819D01*
X181952143Y-143899819D02*
X182190238Y-143899819D01*
X182190238Y-143899819D02*
X182333095Y-143947438D01*
X182666429Y-143899819D02*
X182904524Y-144899819D01*
X182904524Y-144899819D02*
X183095000Y-144185533D01*
X183095000Y-144185533D02*
X183285476Y-144899819D01*
X183285476Y-144899819D02*
X183523572Y-143899819D01*
X184475952Y-144804580D02*
X184428333Y-144852200D01*
X184428333Y-144852200D02*
X184285476Y-144899819D01*
X184285476Y-144899819D02*
X184190238Y-144899819D01*
X184190238Y-144899819D02*
X184047381Y-144852200D01*
X184047381Y-144852200D02*
X183952143Y-144756961D01*
X183952143Y-144756961D02*
X183904524Y-144661723D01*
X183904524Y-144661723D02*
X183856905Y-144471247D01*
X183856905Y-144471247D02*
X183856905Y-144328390D01*
X183856905Y-144328390D02*
X183904524Y-144137914D01*
X183904524Y-144137914D02*
X183952143Y-144042676D01*
X183952143Y-144042676D02*
X184047381Y-143947438D01*
X184047381Y-143947438D02*
X184190238Y-143899819D01*
X184190238Y-143899819D02*
X184285476Y-143899819D01*
X184285476Y-143899819D02*
X184428333Y-143947438D01*
X184428333Y-143947438D02*
X184475952Y-143995057D01*
X185095000Y-143899819D02*
X185190238Y-143899819D01*
X185190238Y-143899819D02*
X185285476Y-143947438D01*
X185285476Y-143947438D02*
X185333095Y-143995057D01*
X185333095Y-143995057D02*
X185380714Y-144090295D01*
X185380714Y-144090295D02*
X185428333Y-144280771D01*
X185428333Y-144280771D02*
X185428333Y-144518866D01*
X185428333Y-144518866D02*
X185380714Y-144709342D01*
X185380714Y-144709342D02*
X185333095Y-144804580D01*
X185333095Y-144804580D02*
X185285476Y-144852200D01*
X185285476Y-144852200D02*
X185190238Y-144899819D01*
X185190238Y-144899819D02*
X185095000Y-144899819D01*
X185095000Y-144899819D02*
X184999762Y-144852200D01*
X184999762Y-144852200D02*
X184952143Y-144804580D01*
X184952143Y-144804580D02*
X184904524Y-144709342D01*
X184904524Y-144709342D02*
X184856905Y-144518866D01*
X184856905Y-144518866D02*
X184856905Y-144280771D01*
X184856905Y-144280771D02*
X184904524Y-144090295D01*
X184904524Y-144090295D02*
X184952143Y-143995057D01*
X184952143Y-143995057D02*
X184999762Y-143947438D01*
X184999762Y-143947438D02*
X185095000Y-143899819D01*
X155041666Y-67974819D02*
X155041666Y-68689104D01*
X155041666Y-68689104D02*
X154994047Y-68831961D01*
X154994047Y-68831961D02*
X154898809Y-68927200D01*
X154898809Y-68927200D02*
X154755952Y-68974819D01*
X154755952Y-68974819D02*
X154660714Y-68974819D01*
X155470238Y-68070057D02*
X155517857Y-68022438D01*
X155517857Y-68022438D02*
X155613095Y-67974819D01*
X155613095Y-67974819D02*
X155851190Y-67974819D01*
X155851190Y-67974819D02*
X155946428Y-68022438D01*
X155946428Y-68022438D02*
X155994047Y-68070057D01*
X155994047Y-68070057D02*
X156041666Y-68165295D01*
X156041666Y-68165295D02*
X156041666Y-68260533D01*
X156041666Y-68260533D02*
X155994047Y-68403390D01*
X155994047Y-68403390D02*
X155422619Y-68974819D01*
X155422619Y-68974819D02*
X156041666Y-68974819D01*
X211761667Y-144852200D02*
X211904524Y-144899819D01*
X211904524Y-144899819D02*
X212142619Y-144899819D01*
X212142619Y-144899819D02*
X212237857Y-144852200D01*
X212237857Y-144852200D02*
X212285476Y-144804580D01*
X212285476Y-144804580D02*
X212333095Y-144709342D01*
X212333095Y-144709342D02*
X212333095Y-144614104D01*
X212333095Y-144614104D02*
X212285476Y-144518866D01*
X212285476Y-144518866D02*
X212237857Y-144471247D01*
X212237857Y-144471247D02*
X212142619Y-144423628D01*
X212142619Y-144423628D02*
X211952143Y-144376009D01*
X211952143Y-144376009D02*
X211856905Y-144328390D01*
X211856905Y-144328390D02*
X211809286Y-144280771D01*
X211809286Y-144280771D02*
X211761667Y-144185533D01*
X211761667Y-144185533D02*
X211761667Y-144090295D01*
X211761667Y-144090295D02*
X211809286Y-143995057D01*
X211809286Y-143995057D02*
X211856905Y-143947438D01*
X211856905Y-143947438D02*
X211952143Y-143899819D01*
X211952143Y-143899819D02*
X212190238Y-143899819D01*
X212190238Y-143899819D02*
X212333095Y-143947438D01*
X212666429Y-143899819D02*
X212904524Y-144899819D01*
X212904524Y-144899819D02*
X213095000Y-144185533D01*
X213095000Y-144185533D02*
X213285476Y-144899819D01*
X213285476Y-144899819D02*
X213523572Y-143899819D01*
X214475952Y-144804580D02*
X214428333Y-144852200D01*
X214428333Y-144852200D02*
X214285476Y-144899819D01*
X214285476Y-144899819D02*
X214190238Y-144899819D01*
X214190238Y-144899819D02*
X214047381Y-144852200D01*
X214047381Y-144852200D02*
X213952143Y-144756961D01*
X213952143Y-144756961D02*
X213904524Y-144661723D01*
X213904524Y-144661723D02*
X213856905Y-144471247D01*
X213856905Y-144471247D02*
X213856905Y-144328390D01*
X213856905Y-144328390D02*
X213904524Y-144137914D01*
X213904524Y-144137914D02*
X213952143Y-144042676D01*
X213952143Y-144042676D02*
X214047381Y-143947438D01*
X214047381Y-143947438D02*
X214190238Y-143899819D01*
X214190238Y-143899819D02*
X214285476Y-143899819D01*
X214285476Y-143899819D02*
X214428333Y-143947438D01*
X214428333Y-143947438D02*
X214475952Y-143995057D01*
X214856905Y-143995057D02*
X214904524Y-143947438D01*
X214904524Y-143947438D02*
X214999762Y-143899819D01*
X214999762Y-143899819D02*
X215237857Y-143899819D01*
X215237857Y-143899819D02*
X215333095Y-143947438D01*
X215333095Y-143947438D02*
X215380714Y-143995057D01*
X215380714Y-143995057D02*
X215428333Y-144090295D01*
X215428333Y-144090295D02*
X215428333Y-144185533D01*
X215428333Y-144185533D02*
X215380714Y-144328390D01*
X215380714Y-144328390D02*
X214809286Y-144899819D01*
X214809286Y-144899819D02*
X215428333Y-144899819D01*
X196613095Y-101879819D02*
X196613095Y-102689342D01*
X196613095Y-102689342D02*
X196660714Y-102784580D01*
X196660714Y-102784580D02*
X196708333Y-102832200D01*
X196708333Y-102832200D02*
X196803571Y-102879819D01*
X196803571Y-102879819D02*
X196994047Y-102879819D01*
X196994047Y-102879819D02*
X197089285Y-102832200D01*
X197089285Y-102832200D02*
X197136904Y-102784580D01*
X197136904Y-102784580D02*
X197184523Y-102689342D01*
X197184523Y-102689342D02*
X197184523Y-101879819D01*
X198089285Y-101879819D02*
X197898809Y-101879819D01*
X197898809Y-101879819D02*
X197803571Y-101927438D01*
X197803571Y-101927438D02*
X197755952Y-101975057D01*
X197755952Y-101975057D02*
X197660714Y-102117914D01*
X197660714Y-102117914D02*
X197613095Y-102308390D01*
X197613095Y-102308390D02*
X197613095Y-102689342D01*
X197613095Y-102689342D02*
X197660714Y-102784580D01*
X197660714Y-102784580D02*
X197708333Y-102832200D01*
X197708333Y-102832200D02*
X197803571Y-102879819D01*
X197803571Y-102879819D02*
X197994047Y-102879819D01*
X197994047Y-102879819D02*
X198089285Y-102832200D01*
X198089285Y-102832200D02*
X198136904Y-102784580D01*
X198136904Y-102784580D02*
X198184523Y-102689342D01*
X198184523Y-102689342D02*
X198184523Y-102451247D01*
X198184523Y-102451247D02*
X198136904Y-102356009D01*
X198136904Y-102356009D02*
X198089285Y-102308390D01*
X198089285Y-102308390D02*
X197994047Y-102260771D01*
X197994047Y-102260771D02*
X197803571Y-102260771D01*
X197803571Y-102260771D02*
X197708333Y-102308390D01*
X197708333Y-102308390D02*
X197660714Y-102356009D01*
X197660714Y-102356009D02*
X197613095Y-102451247D01*
X165613095Y-137679819D02*
X165613095Y-136679819D01*
X165613095Y-137156009D02*
X166184523Y-137156009D01*
X166184523Y-137679819D02*
X166184523Y-136679819D01*
X167136904Y-136679819D02*
X166660714Y-136679819D01*
X166660714Y-136679819D02*
X166613095Y-137156009D01*
X166613095Y-137156009D02*
X166660714Y-137108390D01*
X166660714Y-137108390D02*
X166755952Y-137060771D01*
X166755952Y-137060771D02*
X166994047Y-137060771D01*
X166994047Y-137060771D02*
X167089285Y-137108390D01*
X167089285Y-137108390D02*
X167136904Y-137156009D01*
X167136904Y-137156009D02*
X167184523Y-137251247D01*
X167184523Y-137251247D02*
X167184523Y-137489342D01*
X167184523Y-137489342D02*
X167136904Y-137584580D01*
X167136904Y-137584580D02*
X167089285Y-137632200D01*
X167089285Y-137632200D02*
X166994047Y-137679819D01*
X166994047Y-137679819D02*
X166755952Y-137679819D01*
X166755952Y-137679819D02*
X166660714Y-137632200D01*
X166660714Y-137632200D02*
X166613095Y-137584580D01*
X153160714Y-140499819D02*
X153160714Y-139499819D01*
X153160714Y-139499819D02*
X153398809Y-139499819D01*
X153398809Y-139499819D02*
X153541666Y-139547438D01*
X153541666Y-139547438D02*
X153636904Y-139642676D01*
X153636904Y-139642676D02*
X153684523Y-139737914D01*
X153684523Y-139737914D02*
X153732142Y-139928390D01*
X153732142Y-139928390D02*
X153732142Y-140071247D01*
X153732142Y-140071247D02*
X153684523Y-140261723D01*
X153684523Y-140261723D02*
X153636904Y-140356961D01*
X153636904Y-140356961D02*
X153541666Y-140452200D01*
X153541666Y-140452200D02*
X153398809Y-140499819D01*
X153398809Y-140499819D02*
X153160714Y-140499819D01*
X154113095Y-139595057D02*
X154160714Y-139547438D01*
X154160714Y-139547438D02*
X154255952Y-139499819D01*
X154255952Y-139499819D02*
X154494047Y-139499819D01*
X154494047Y-139499819D02*
X154589285Y-139547438D01*
X154589285Y-139547438D02*
X154636904Y-139595057D01*
X154636904Y-139595057D02*
X154684523Y-139690295D01*
X154684523Y-139690295D02*
X154684523Y-139785533D01*
X154684523Y-139785533D02*
X154636904Y-139928390D01*
X154636904Y-139928390D02*
X154065476Y-140499819D01*
X154065476Y-140499819D02*
X154684523Y-140499819D01*
X155541666Y-139833152D02*
X155541666Y-140499819D01*
X155303571Y-139452200D02*
X155065476Y-140166485D01*
X155065476Y-140166485D02*
X155684523Y-140166485D01*
X196160714Y-128499819D02*
X196160714Y-127499819D01*
X196160714Y-127499819D02*
X196398809Y-127499819D01*
X196398809Y-127499819D02*
X196541666Y-127547438D01*
X196541666Y-127547438D02*
X196636904Y-127642676D01*
X196636904Y-127642676D02*
X196684523Y-127737914D01*
X196684523Y-127737914D02*
X196732142Y-127928390D01*
X196732142Y-127928390D02*
X196732142Y-128071247D01*
X196732142Y-128071247D02*
X196684523Y-128261723D01*
X196684523Y-128261723D02*
X196636904Y-128356961D01*
X196636904Y-128356961D02*
X196541666Y-128452200D01*
X196541666Y-128452200D02*
X196398809Y-128499819D01*
X196398809Y-128499819D02*
X196160714Y-128499819D01*
X197113095Y-127595057D02*
X197160714Y-127547438D01*
X197160714Y-127547438D02*
X197255952Y-127499819D01*
X197255952Y-127499819D02*
X197494047Y-127499819D01*
X197494047Y-127499819D02*
X197589285Y-127547438D01*
X197589285Y-127547438D02*
X197636904Y-127595057D01*
X197636904Y-127595057D02*
X197684523Y-127690295D01*
X197684523Y-127690295D02*
X197684523Y-127785533D01*
X197684523Y-127785533D02*
X197636904Y-127928390D01*
X197636904Y-127928390D02*
X197065476Y-128499819D01*
X197065476Y-128499819D02*
X197684523Y-128499819D01*
X198541666Y-127499819D02*
X198351190Y-127499819D01*
X198351190Y-127499819D02*
X198255952Y-127547438D01*
X198255952Y-127547438D02*
X198208333Y-127595057D01*
X198208333Y-127595057D02*
X198113095Y-127737914D01*
X198113095Y-127737914D02*
X198065476Y-127928390D01*
X198065476Y-127928390D02*
X198065476Y-128309342D01*
X198065476Y-128309342D02*
X198113095Y-128404580D01*
X198113095Y-128404580D02*
X198160714Y-128452200D01*
X198160714Y-128452200D02*
X198255952Y-128499819D01*
X198255952Y-128499819D02*
X198446428Y-128499819D01*
X198446428Y-128499819D02*
X198541666Y-128452200D01*
X198541666Y-128452200D02*
X198589285Y-128404580D01*
X198589285Y-128404580D02*
X198636904Y-128309342D01*
X198636904Y-128309342D02*
X198636904Y-128071247D01*
X198636904Y-128071247D02*
X198589285Y-127976009D01*
X198589285Y-127976009D02*
X198541666Y-127928390D01*
X198541666Y-127928390D02*
X198446428Y-127880771D01*
X198446428Y-127880771D02*
X198255952Y-127880771D01*
X198255952Y-127880771D02*
X198160714Y-127928390D01*
X198160714Y-127928390D02*
X198113095Y-127976009D01*
X198113095Y-127976009D02*
X198065476Y-128071247D01*
X219688095Y-76854819D02*
X219688095Y-77664342D01*
X219688095Y-77664342D02*
X219735714Y-77759580D01*
X219735714Y-77759580D02*
X219783333Y-77807200D01*
X219783333Y-77807200D02*
X219878571Y-77854819D01*
X219878571Y-77854819D02*
X220069047Y-77854819D01*
X220069047Y-77854819D02*
X220164285Y-77807200D01*
X220164285Y-77807200D02*
X220211904Y-77759580D01*
X220211904Y-77759580D02*
X220259523Y-77664342D01*
X220259523Y-77664342D02*
X220259523Y-76854819D01*
X220640476Y-76854819D02*
X221307142Y-76854819D01*
X221307142Y-76854819D02*
X220878571Y-77854819D01*
X77352200Y-148658332D02*
X77399819Y-148515475D01*
X77399819Y-148515475D02*
X77399819Y-148277380D01*
X77399819Y-148277380D02*
X77352200Y-148182142D01*
X77352200Y-148182142D02*
X77304580Y-148134523D01*
X77304580Y-148134523D02*
X77209342Y-148086904D01*
X77209342Y-148086904D02*
X77114104Y-148086904D01*
X77114104Y-148086904D02*
X77018866Y-148134523D01*
X77018866Y-148134523D02*
X76971247Y-148182142D01*
X76971247Y-148182142D02*
X76923628Y-148277380D01*
X76923628Y-148277380D02*
X76876009Y-148467856D01*
X76876009Y-148467856D02*
X76828390Y-148563094D01*
X76828390Y-148563094D02*
X76780771Y-148610713D01*
X76780771Y-148610713D02*
X76685533Y-148658332D01*
X76685533Y-148658332D02*
X76590295Y-148658332D01*
X76590295Y-148658332D02*
X76495057Y-148610713D01*
X76495057Y-148610713D02*
X76447438Y-148563094D01*
X76447438Y-148563094D02*
X76399819Y-148467856D01*
X76399819Y-148467856D02*
X76399819Y-148229761D01*
X76399819Y-148229761D02*
X76447438Y-148086904D01*
X76399819Y-147753570D02*
X77399819Y-147515475D01*
X77399819Y-147515475D02*
X76685533Y-147324999D01*
X76685533Y-147324999D02*
X77399819Y-147134523D01*
X77399819Y-147134523D02*
X76399819Y-146896428D01*
X77399819Y-146515475D02*
X76399819Y-146515475D01*
X76399819Y-146515475D02*
X76399819Y-146277380D01*
X76399819Y-146277380D02*
X76447438Y-146134523D01*
X76447438Y-146134523D02*
X76542676Y-146039285D01*
X76542676Y-146039285D02*
X76637914Y-145991666D01*
X76637914Y-145991666D02*
X76828390Y-145944047D01*
X76828390Y-145944047D02*
X76971247Y-145944047D01*
X76971247Y-145944047D02*
X77161723Y-145991666D01*
X77161723Y-145991666D02*
X77256961Y-146039285D01*
X77256961Y-146039285D02*
X77352200Y-146134523D01*
X77352200Y-146134523D02*
X77399819Y-146277380D01*
X77399819Y-146277380D02*
X77399819Y-146515475D01*
X76495057Y-145563094D02*
X76447438Y-145515475D01*
X76447438Y-145515475D02*
X76399819Y-145420237D01*
X76399819Y-145420237D02*
X76399819Y-145182142D01*
X76399819Y-145182142D02*
X76447438Y-145086904D01*
X76447438Y-145086904D02*
X76495057Y-145039285D01*
X76495057Y-145039285D02*
X76590295Y-144991666D01*
X76590295Y-144991666D02*
X76685533Y-144991666D01*
X76685533Y-144991666D02*
X76828390Y-145039285D01*
X76828390Y-145039285D02*
X77399819Y-145610713D01*
X77399819Y-145610713D02*
X77399819Y-144991666D01*
X48160714Y-140499819D02*
X48160714Y-139499819D01*
X48160714Y-139499819D02*
X48398809Y-139499819D01*
X48398809Y-139499819D02*
X48541666Y-139547438D01*
X48541666Y-139547438D02*
X48636904Y-139642676D01*
X48636904Y-139642676D02*
X48684523Y-139737914D01*
X48684523Y-139737914D02*
X48732142Y-139928390D01*
X48732142Y-139928390D02*
X48732142Y-140071247D01*
X48732142Y-140071247D02*
X48684523Y-140261723D01*
X48684523Y-140261723D02*
X48636904Y-140356961D01*
X48636904Y-140356961D02*
X48541666Y-140452200D01*
X48541666Y-140452200D02*
X48398809Y-140499819D01*
X48398809Y-140499819D02*
X48160714Y-140499819D01*
X49684523Y-140499819D02*
X49113095Y-140499819D01*
X49398809Y-140499819D02*
X49398809Y-139499819D01*
X49398809Y-139499819D02*
X49303571Y-139642676D01*
X49303571Y-139642676D02*
X49208333Y-139737914D01*
X49208333Y-139737914D02*
X49113095Y-139785533D01*
X50017857Y-139499819D02*
X50684523Y-139499819D01*
X50684523Y-139499819D02*
X50255952Y-140499819D01*
X78160714Y-128499819D02*
X78160714Y-127499819D01*
X78160714Y-127499819D02*
X78398809Y-127499819D01*
X78398809Y-127499819D02*
X78541666Y-127547438D01*
X78541666Y-127547438D02*
X78636904Y-127642676D01*
X78636904Y-127642676D02*
X78684523Y-127737914D01*
X78684523Y-127737914D02*
X78732142Y-127928390D01*
X78732142Y-127928390D02*
X78732142Y-128071247D01*
X78732142Y-128071247D02*
X78684523Y-128261723D01*
X78684523Y-128261723D02*
X78636904Y-128356961D01*
X78636904Y-128356961D02*
X78541666Y-128452200D01*
X78541666Y-128452200D02*
X78398809Y-128499819D01*
X78398809Y-128499819D02*
X78160714Y-128499819D01*
X79684523Y-128499819D02*
X79113095Y-128499819D01*
X79398809Y-128499819D02*
X79398809Y-127499819D01*
X79398809Y-127499819D02*
X79303571Y-127642676D01*
X79303571Y-127642676D02*
X79208333Y-127737914D01*
X79208333Y-127737914D02*
X79113095Y-127785533D01*
X80636904Y-128499819D02*
X80065476Y-128499819D01*
X80351190Y-128499819D02*
X80351190Y-127499819D01*
X80351190Y-127499819D02*
X80255952Y-127642676D01*
X80255952Y-127642676D02*
X80160714Y-127737914D01*
X80160714Y-127737914D02*
X80065476Y-127785533D01*
X174613095Y-72829819D02*
X174613095Y-73639342D01*
X174613095Y-73639342D02*
X174660714Y-73734580D01*
X174660714Y-73734580D02*
X174708333Y-73782200D01*
X174708333Y-73782200D02*
X174803571Y-73829819D01*
X174803571Y-73829819D02*
X174994047Y-73829819D01*
X174994047Y-73829819D02*
X175089285Y-73782200D01*
X175089285Y-73782200D02*
X175136904Y-73734580D01*
X175136904Y-73734580D02*
X175184523Y-73639342D01*
X175184523Y-73639342D02*
X175184523Y-72829819D01*
X175708333Y-73829819D02*
X175898809Y-73829819D01*
X175898809Y-73829819D02*
X175994047Y-73782200D01*
X175994047Y-73782200D02*
X176041666Y-73734580D01*
X176041666Y-73734580D02*
X176136904Y-73591723D01*
X176136904Y-73591723D02*
X176184523Y-73401247D01*
X176184523Y-73401247D02*
X176184523Y-73020295D01*
X176184523Y-73020295D02*
X176136904Y-72925057D01*
X176136904Y-72925057D02*
X176089285Y-72877438D01*
X176089285Y-72877438D02*
X175994047Y-72829819D01*
X175994047Y-72829819D02*
X175803571Y-72829819D01*
X175803571Y-72829819D02*
X175708333Y-72877438D01*
X175708333Y-72877438D02*
X175660714Y-72925057D01*
X175660714Y-72925057D02*
X175613095Y-73020295D01*
X175613095Y-73020295D02*
X175613095Y-73258390D01*
X175613095Y-73258390D02*
X175660714Y-73353628D01*
X175660714Y-73353628D02*
X175708333Y-73401247D01*
X175708333Y-73401247D02*
X175803571Y-73448866D01*
X175803571Y-73448866D02*
X175994047Y-73448866D01*
X175994047Y-73448866D02*
X176089285Y-73401247D01*
X176089285Y-73401247D02*
X176136904Y-73353628D01*
X176136904Y-73353628D02*
X176184523Y-73258390D01*
X93160714Y-128499819D02*
X93160714Y-127499819D01*
X93160714Y-127499819D02*
X93398809Y-127499819D01*
X93398809Y-127499819D02*
X93541666Y-127547438D01*
X93541666Y-127547438D02*
X93636904Y-127642676D01*
X93636904Y-127642676D02*
X93684523Y-127737914D01*
X93684523Y-127737914D02*
X93732142Y-127928390D01*
X93732142Y-127928390D02*
X93732142Y-128071247D01*
X93732142Y-128071247D02*
X93684523Y-128261723D01*
X93684523Y-128261723D02*
X93636904Y-128356961D01*
X93636904Y-128356961D02*
X93541666Y-128452200D01*
X93541666Y-128452200D02*
X93398809Y-128499819D01*
X93398809Y-128499819D02*
X93160714Y-128499819D01*
X94684523Y-128499819D02*
X94113095Y-128499819D01*
X94398809Y-128499819D02*
X94398809Y-127499819D01*
X94398809Y-127499819D02*
X94303571Y-127642676D01*
X94303571Y-127642676D02*
X94208333Y-127737914D01*
X94208333Y-127737914D02*
X94113095Y-127785533D01*
X95065476Y-127595057D02*
X95113095Y-127547438D01*
X95113095Y-127547438D02*
X95208333Y-127499819D01*
X95208333Y-127499819D02*
X95446428Y-127499819D01*
X95446428Y-127499819D02*
X95541666Y-127547438D01*
X95541666Y-127547438D02*
X95589285Y-127595057D01*
X95589285Y-127595057D02*
X95636904Y-127690295D01*
X95636904Y-127690295D02*
X95636904Y-127785533D01*
X95636904Y-127785533D02*
X95589285Y-127928390D01*
X95589285Y-127928390D02*
X95017857Y-128499819D01*
X95017857Y-128499819D02*
X95636904Y-128499819D01*
X138160714Y-140499819D02*
X138160714Y-139499819D01*
X138160714Y-139499819D02*
X138398809Y-139499819D01*
X138398809Y-139499819D02*
X138541666Y-139547438D01*
X138541666Y-139547438D02*
X138636904Y-139642676D01*
X138636904Y-139642676D02*
X138684523Y-139737914D01*
X138684523Y-139737914D02*
X138732142Y-139928390D01*
X138732142Y-139928390D02*
X138732142Y-140071247D01*
X138732142Y-140071247D02*
X138684523Y-140261723D01*
X138684523Y-140261723D02*
X138636904Y-140356961D01*
X138636904Y-140356961D02*
X138541666Y-140452200D01*
X138541666Y-140452200D02*
X138398809Y-140499819D01*
X138398809Y-140499819D02*
X138160714Y-140499819D01*
X139113095Y-139595057D02*
X139160714Y-139547438D01*
X139160714Y-139547438D02*
X139255952Y-139499819D01*
X139255952Y-139499819D02*
X139494047Y-139499819D01*
X139494047Y-139499819D02*
X139589285Y-139547438D01*
X139589285Y-139547438D02*
X139636904Y-139595057D01*
X139636904Y-139595057D02*
X139684523Y-139690295D01*
X139684523Y-139690295D02*
X139684523Y-139785533D01*
X139684523Y-139785533D02*
X139636904Y-139928390D01*
X139636904Y-139928390D02*
X139065476Y-140499819D01*
X139065476Y-140499819D02*
X139684523Y-140499819D01*
X140017857Y-139499819D02*
X140636904Y-139499819D01*
X140636904Y-139499819D02*
X140303571Y-139880771D01*
X140303571Y-139880771D02*
X140446428Y-139880771D01*
X140446428Y-139880771D02*
X140541666Y-139928390D01*
X140541666Y-139928390D02*
X140589285Y-139976009D01*
X140589285Y-139976009D02*
X140636904Y-140071247D01*
X140636904Y-140071247D02*
X140636904Y-140309342D01*
X140636904Y-140309342D02*
X140589285Y-140404580D01*
X140589285Y-140404580D02*
X140541666Y-140452200D01*
X140541666Y-140452200D02*
X140446428Y-140499819D01*
X140446428Y-140499819D02*
X140160714Y-140499819D01*
X140160714Y-140499819D02*
X140065476Y-140452200D01*
X140065476Y-140452200D02*
X140017857Y-140404580D01*
X112613095Y-72829819D02*
X112613095Y-73639342D01*
X112613095Y-73639342D02*
X112660714Y-73734580D01*
X112660714Y-73734580D02*
X112708333Y-73782200D01*
X112708333Y-73782200D02*
X112803571Y-73829819D01*
X112803571Y-73829819D02*
X112994047Y-73829819D01*
X112994047Y-73829819D02*
X113089285Y-73782200D01*
X113089285Y-73782200D02*
X113136904Y-73734580D01*
X113136904Y-73734580D02*
X113184523Y-73639342D01*
X113184523Y-73639342D02*
X113184523Y-72829819D01*
X113803571Y-73258390D02*
X113708333Y-73210771D01*
X113708333Y-73210771D02*
X113660714Y-73163152D01*
X113660714Y-73163152D02*
X113613095Y-73067914D01*
X113613095Y-73067914D02*
X113613095Y-73020295D01*
X113613095Y-73020295D02*
X113660714Y-72925057D01*
X113660714Y-72925057D02*
X113708333Y-72877438D01*
X113708333Y-72877438D02*
X113803571Y-72829819D01*
X113803571Y-72829819D02*
X113994047Y-72829819D01*
X113994047Y-72829819D02*
X114089285Y-72877438D01*
X114089285Y-72877438D02*
X114136904Y-72925057D01*
X114136904Y-72925057D02*
X114184523Y-73020295D01*
X114184523Y-73020295D02*
X114184523Y-73067914D01*
X114184523Y-73067914D02*
X114136904Y-73163152D01*
X114136904Y-73163152D02*
X114089285Y-73210771D01*
X114089285Y-73210771D02*
X113994047Y-73258390D01*
X113994047Y-73258390D02*
X113803571Y-73258390D01*
X113803571Y-73258390D02*
X113708333Y-73306009D01*
X113708333Y-73306009D02*
X113660714Y-73353628D01*
X113660714Y-73353628D02*
X113613095Y-73448866D01*
X113613095Y-73448866D02*
X113613095Y-73639342D01*
X113613095Y-73639342D02*
X113660714Y-73734580D01*
X113660714Y-73734580D02*
X113708333Y-73782200D01*
X113708333Y-73782200D02*
X113803571Y-73829819D01*
X113803571Y-73829819D02*
X113994047Y-73829819D01*
X113994047Y-73829819D02*
X114089285Y-73782200D01*
X114089285Y-73782200D02*
X114136904Y-73734580D01*
X114136904Y-73734580D02*
X114184523Y-73639342D01*
X114184523Y-73639342D02*
X114184523Y-73448866D01*
X114184523Y-73448866D02*
X114136904Y-73353628D01*
X114136904Y-73353628D02*
X114089285Y-73306009D01*
X114089285Y-73306009D02*
X113994047Y-73258390D01*
X136613095Y-92499819D02*
X136613095Y-93309342D01*
X136613095Y-93309342D02*
X136660714Y-93404580D01*
X136660714Y-93404580D02*
X136708333Y-93452200D01*
X136708333Y-93452200D02*
X136803571Y-93499819D01*
X136803571Y-93499819D02*
X136994047Y-93499819D01*
X136994047Y-93499819D02*
X137089285Y-93452200D01*
X137089285Y-93452200D02*
X137136904Y-93404580D01*
X137136904Y-93404580D02*
X137184523Y-93309342D01*
X137184523Y-93309342D02*
X137184523Y-92499819D01*
X138184523Y-93499819D02*
X137613095Y-93499819D01*
X137898809Y-93499819D02*
X137898809Y-92499819D01*
X137898809Y-92499819D02*
X137803571Y-92642676D01*
X137803571Y-92642676D02*
X137708333Y-92737914D01*
X137708333Y-92737914D02*
X137613095Y-92785533D01*
X93160714Y-140499819D02*
X93160714Y-139499819D01*
X93160714Y-139499819D02*
X93398809Y-139499819D01*
X93398809Y-139499819D02*
X93541666Y-139547438D01*
X93541666Y-139547438D02*
X93636904Y-139642676D01*
X93636904Y-139642676D02*
X93684523Y-139737914D01*
X93684523Y-139737914D02*
X93732142Y-139928390D01*
X93732142Y-139928390D02*
X93732142Y-140071247D01*
X93732142Y-140071247D02*
X93684523Y-140261723D01*
X93684523Y-140261723D02*
X93636904Y-140356961D01*
X93636904Y-140356961D02*
X93541666Y-140452200D01*
X93541666Y-140452200D02*
X93398809Y-140499819D01*
X93398809Y-140499819D02*
X93160714Y-140499819D01*
X94113095Y-139595057D02*
X94160714Y-139547438D01*
X94160714Y-139547438D02*
X94255952Y-139499819D01*
X94255952Y-139499819D02*
X94494047Y-139499819D01*
X94494047Y-139499819D02*
X94589285Y-139547438D01*
X94589285Y-139547438D02*
X94636904Y-139595057D01*
X94636904Y-139595057D02*
X94684523Y-139690295D01*
X94684523Y-139690295D02*
X94684523Y-139785533D01*
X94684523Y-139785533D02*
X94636904Y-139928390D01*
X94636904Y-139928390D02*
X94065476Y-140499819D01*
X94065476Y-140499819D02*
X94684523Y-140499819D01*
X95303571Y-139499819D02*
X95398809Y-139499819D01*
X95398809Y-139499819D02*
X95494047Y-139547438D01*
X95494047Y-139547438D02*
X95541666Y-139595057D01*
X95541666Y-139595057D02*
X95589285Y-139690295D01*
X95589285Y-139690295D02*
X95636904Y-139880771D01*
X95636904Y-139880771D02*
X95636904Y-140118866D01*
X95636904Y-140118866D02*
X95589285Y-140309342D01*
X95589285Y-140309342D02*
X95541666Y-140404580D01*
X95541666Y-140404580D02*
X95494047Y-140452200D01*
X95494047Y-140452200D02*
X95398809Y-140499819D01*
X95398809Y-140499819D02*
X95303571Y-140499819D01*
X95303571Y-140499819D02*
X95208333Y-140452200D01*
X95208333Y-140452200D02*
X95160714Y-140404580D01*
X95160714Y-140404580D02*
X95113095Y-140309342D01*
X95113095Y-140309342D02*
X95065476Y-140118866D01*
X95065476Y-140118866D02*
X95065476Y-139880771D01*
X95065476Y-139880771D02*
X95113095Y-139690295D01*
X95113095Y-139690295D02*
X95160714Y-139595057D01*
X95160714Y-139595057D02*
X95208333Y-139547438D01*
X95208333Y-139547438D02*
X95303571Y-139499819D01*
X48636905Y-116499819D02*
X48636905Y-115499819D01*
X48636905Y-115499819D02*
X48875000Y-115499819D01*
X48875000Y-115499819D02*
X49017857Y-115547438D01*
X49017857Y-115547438D02*
X49113095Y-115642676D01*
X49113095Y-115642676D02*
X49160714Y-115737914D01*
X49160714Y-115737914D02*
X49208333Y-115928390D01*
X49208333Y-115928390D02*
X49208333Y-116071247D01*
X49208333Y-116071247D02*
X49160714Y-116261723D01*
X49160714Y-116261723D02*
X49113095Y-116356961D01*
X49113095Y-116356961D02*
X49017857Y-116452200D01*
X49017857Y-116452200D02*
X48875000Y-116499819D01*
X48875000Y-116499819D02*
X48636905Y-116499819D01*
X50160714Y-116499819D02*
X49589286Y-116499819D01*
X49875000Y-116499819D02*
X49875000Y-115499819D01*
X49875000Y-115499819D02*
X49779762Y-115642676D01*
X49779762Y-115642676D02*
X49684524Y-115737914D01*
X49684524Y-115737914D02*
X49589286Y-115785533D01*
X100613095Y-103879819D02*
X100613095Y-104689342D01*
X100613095Y-104689342D02*
X100660714Y-104784580D01*
X100660714Y-104784580D02*
X100708333Y-104832200D01*
X100708333Y-104832200D02*
X100803571Y-104879819D01*
X100803571Y-104879819D02*
X100994047Y-104879819D01*
X100994047Y-104879819D02*
X101089285Y-104832200D01*
X101089285Y-104832200D02*
X101136904Y-104784580D01*
X101136904Y-104784580D02*
X101184523Y-104689342D01*
X101184523Y-104689342D02*
X101184523Y-103879819D01*
X101565476Y-103879819D02*
X102184523Y-103879819D01*
X102184523Y-103879819D02*
X101851190Y-104260771D01*
X101851190Y-104260771D02*
X101994047Y-104260771D01*
X101994047Y-104260771D02*
X102089285Y-104308390D01*
X102089285Y-104308390D02*
X102136904Y-104356009D01*
X102136904Y-104356009D02*
X102184523Y-104451247D01*
X102184523Y-104451247D02*
X102184523Y-104689342D01*
X102184523Y-104689342D02*
X102136904Y-104784580D01*
X102136904Y-104784580D02*
X102089285Y-104832200D01*
X102089285Y-104832200D02*
X101994047Y-104879819D01*
X101994047Y-104879819D02*
X101708333Y-104879819D01*
X101708333Y-104879819D02*
X101613095Y-104832200D01*
X101613095Y-104832200D02*
X101565476Y-104784580D01*
X42613095Y-137679819D02*
X42613095Y-136679819D01*
X42613095Y-137156009D02*
X43184523Y-137156009D01*
X43184523Y-137679819D02*
X43184523Y-136679819D01*
X44089285Y-137013152D02*
X44089285Y-137679819D01*
X43851190Y-136632200D02*
X43613095Y-137346485D01*
X43613095Y-137346485D02*
X44232142Y-137346485D01*
X211160714Y-128499819D02*
X211160714Y-127499819D01*
X211160714Y-127499819D02*
X211398809Y-127499819D01*
X211398809Y-127499819D02*
X211541666Y-127547438D01*
X211541666Y-127547438D02*
X211636904Y-127642676D01*
X211636904Y-127642676D02*
X211684523Y-127737914D01*
X211684523Y-127737914D02*
X211732142Y-127928390D01*
X211732142Y-127928390D02*
X211732142Y-128071247D01*
X211732142Y-128071247D02*
X211684523Y-128261723D01*
X211684523Y-128261723D02*
X211636904Y-128356961D01*
X211636904Y-128356961D02*
X211541666Y-128452200D01*
X211541666Y-128452200D02*
X211398809Y-128499819D01*
X211398809Y-128499819D02*
X211160714Y-128499819D01*
X212113095Y-127595057D02*
X212160714Y-127547438D01*
X212160714Y-127547438D02*
X212255952Y-127499819D01*
X212255952Y-127499819D02*
X212494047Y-127499819D01*
X212494047Y-127499819D02*
X212589285Y-127547438D01*
X212589285Y-127547438D02*
X212636904Y-127595057D01*
X212636904Y-127595057D02*
X212684523Y-127690295D01*
X212684523Y-127690295D02*
X212684523Y-127785533D01*
X212684523Y-127785533D02*
X212636904Y-127928390D01*
X212636904Y-127928390D02*
X212065476Y-128499819D01*
X212065476Y-128499819D02*
X212684523Y-128499819D01*
X213017857Y-127499819D02*
X213684523Y-127499819D01*
X213684523Y-127499819D02*
X213255952Y-128499819D01*
X63160714Y-128499819D02*
X63160714Y-127499819D01*
X63160714Y-127499819D02*
X63398809Y-127499819D01*
X63398809Y-127499819D02*
X63541666Y-127547438D01*
X63541666Y-127547438D02*
X63636904Y-127642676D01*
X63636904Y-127642676D02*
X63684523Y-127737914D01*
X63684523Y-127737914D02*
X63732142Y-127928390D01*
X63732142Y-127928390D02*
X63732142Y-128071247D01*
X63732142Y-128071247D02*
X63684523Y-128261723D01*
X63684523Y-128261723D02*
X63636904Y-128356961D01*
X63636904Y-128356961D02*
X63541666Y-128452200D01*
X63541666Y-128452200D02*
X63398809Y-128499819D01*
X63398809Y-128499819D02*
X63160714Y-128499819D01*
X64684523Y-128499819D02*
X64113095Y-128499819D01*
X64398809Y-128499819D02*
X64398809Y-127499819D01*
X64398809Y-127499819D02*
X64303571Y-127642676D01*
X64303571Y-127642676D02*
X64208333Y-127737914D01*
X64208333Y-127737914D02*
X64113095Y-127785533D01*
X65303571Y-127499819D02*
X65398809Y-127499819D01*
X65398809Y-127499819D02*
X65494047Y-127547438D01*
X65494047Y-127547438D02*
X65541666Y-127595057D01*
X65541666Y-127595057D02*
X65589285Y-127690295D01*
X65589285Y-127690295D02*
X65636904Y-127880771D01*
X65636904Y-127880771D02*
X65636904Y-128118866D01*
X65636904Y-128118866D02*
X65589285Y-128309342D01*
X65589285Y-128309342D02*
X65541666Y-128404580D01*
X65541666Y-128404580D02*
X65494047Y-128452200D01*
X65494047Y-128452200D02*
X65398809Y-128499819D01*
X65398809Y-128499819D02*
X65303571Y-128499819D01*
X65303571Y-128499819D02*
X65208333Y-128452200D01*
X65208333Y-128452200D02*
X65160714Y-128404580D01*
X65160714Y-128404580D02*
X65113095Y-128309342D01*
X65113095Y-128309342D02*
X65065476Y-128118866D01*
X65065476Y-128118866D02*
X65065476Y-127880771D01*
X65065476Y-127880771D02*
X65113095Y-127690295D01*
X65113095Y-127690295D02*
X65160714Y-127595057D01*
X65160714Y-127595057D02*
X65208333Y-127547438D01*
X65208333Y-127547438D02*
X65303571Y-127499819D01*
X230613095Y-58679819D02*
X230613095Y-57679819D01*
X230613095Y-58156009D02*
X231184523Y-58156009D01*
X231184523Y-58679819D02*
X231184523Y-57679819D01*
X231565476Y-57679819D02*
X232184523Y-57679819D01*
X232184523Y-57679819D02*
X231851190Y-58060771D01*
X231851190Y-58060771D02*
X231994047Y-58060771D01*
X231994047Y-58060771D02*
X232089285Y-58108390D01*
X232089285Y-58108390D02*
X232136904Y-58156009D01*
X232136904Y-58156009D02*
X232184523Y-58251247D01*
X232184523Y-58251247D02*
X232184523Y-58489342D01*
X232184523Y-58489342D02*
X232136904Y-58584580D01*
X232136904Y-58584580D02*
X232089285Y-58632200D01*
X232089285Y-58632200D02*
X231994047Y-58679819D01*
X231994047Y-58679819D02*
X231708333Y-58679819D01*
X231708333Y-58679819D02*
X231613095Y-58632200D01*
X231613095Y-58632200D02*
X231565476Y-58584580D01*
X123636905Y-116499819D02*
X123636905Y-115499819D01*
X123636905Y-115499819D02*
X123875000Y-115499819D01*
X123875000Y-115499819D02*
X124017857Y-115547438D01*
X124017857Y-115547438D02*
X124113095Y-115642676D01*
X124113095Y-115642676D02*
X124160714Y-115737914D01*
X124160714Y-115737914D02*
X124208333Y-115928390D01*
X124208333Y-115928390D02*
X124208333Y-116071247D01*
X124208333Y-116071247D02*
X124160714Y-116261723D01*
X124160714Y-116261723D02*
X124113095Y-116356961D01*
X124113095Y-116356961D02*
X124017857Y-116452200D01*
X124017857Y-116452200D02*
X123875000Y-116499819D01*
X123875000Y-116499819D02*
X123636905Y-116499819D01*
X125065476Y-115499819D02*
X124875000Y-115499819D01*
X124875000Y-115499819D02*
X124779762Y-115547438D01*
X124779762Y-115547438D02*
X124732143Y-115595057D01*
X124732143Y-115595057D02*
X124636905Y-115737914D01*
X124636905Y-115737914D02*
X124589286Y-115928390D01*
X124589286Y-115928390D02*
X124589286Y-116309342D01*
X124589286Y-116309342D02*
X124636905Y-116404580D01*
X124636905Y-116404580D02*
X124684524Y-116452200D01*
X124684524Y-116452200D02*
X124779762Y-116499819D01*
X124779762Y-116499819D02*
X124970238Y-116499819D01*
X124970238Y-116499819D02*
X125065476Y-116452200D01*
X125065476Y-116452200D02*
X125113095Y-116404580D01*
X125113095Y-116404580D02*
X125160714Y-116309342D01*
X125160714Y-116309342D02*
X125160714Y-116071247D01*
X125160714Y-116071247D02*
X125113095Y-115976009D01*
X125113095Y-115976009D02*
X125065476Y-115928390D01*
X125065476Y-115928390D02*
X124970238Y-115880771D01*
X124970238Y-115880771D02*
X124779762Y-115880771D01*
X124779762Y-115880771D02*
X124684524Y-115928390D01*
X124684524Y-115928390D02*
X124636905Y-115976009D01*
X124636905Y-115976009D02*
X124589286Y-116071247D01*
X230613095Y-137679819D02*
X230613095Y-136679819D01*
X230613095Y-137156009D02*
X231184523Y-137156009D01*
X231184523Y-137679819D02*
X231184523Y-136679819D01*
X232089285Y-136679819D02*
X231898809Y-136679819D01*
X231898809Y-136679819D02*
X231803571Y-136727438D01*
X231803571Y-136727438D02*
X231755952Y-136775057D01*
X231755952Y-136775057D02*
X231660714Y-136917914D01*
X231660714Y-136917914D02*
X231613095Y-137108390D01*
X231613095Y-137108390D02*
X231613095Y-137489342D01*
X231613095Y-137489342D02*
X231660714Y-137584580D01*
X231660714Y-137584580D02*
X231708333Y-137632200D01*
X231708333Y-137632200D02*
X231803571Y-137679819D01*
X231803571Y-137679819D02*
X231994047Y-137679819D01*
X231994047Y-137679819D02*
X232089285Y-137632200D01*
X232089285Y-137632200D02*
X232136904Y-137584580D01*
X232136904Y-137584580D02*
X232184523Y-137489342D01*
X232184523Y-137489342D02*
X232184523Y-137251247D01*
X232184523Y-137251247D02*
X232136904Y-137156009D01*
X232136904Y-137156009D02*
X232089285Y-137108390D01*
X232089285Y-137108390D02*
X231994047Y-137060771D01*
X231994047Y-137060771D02*
X231803571Y-137060771D01*
X231803571Y-137060771D02*
X231708333Y-137108390D01*
X231708333Y-137108390D02*
X231660714Y-137156009D01*
X231660714Y-137156009D02*
X231613095Y-137251247D01*
X93636905Y-116499819D02*
X93636905Y-115499819D01*
X93636905Y-115499819D02*
X93875000Y-115499819D01*
X93875000Y-115499819D02*
X94017857Y-115547438D01*
X94017857Y-115547438D02*
X94113095Y-115642676D01*
X94113095Y-115642676D02*
X94160714Y-115737914D01*
X94160714Y-115737914D02*
X94208333Y-115928390D01*
X94208333Y-115928390D02*
X94208333Y-116071247D01*
X94208333Y-116071247D02*
X94160714Y-116261723D01*
X94160714Y-116261723D02*
X94113095Y-116356961D01*
X94113095Y-116356961D02*
X94017857Y-116452200D01*
X94017857Y-116452200D02*
X93875000Y-116499819D01*
X93875000Y-116499819D02*
X93636905Y-116499819D01*
X95065476Y-115833152D02*
X95065476Y-116499819D01*
X94827381Y-115452200D02*
X94589286Y-116166485D01*
X94589286Y-116166485D02*
X95208333Y-116166485D01*
X63636905Y-116499819D02*
X63636905Y-115499819D01*
X63636905Y-115499819D02*
X63875000Y-115499819D01*
X63875000Y-115499819D02*
X64017857Y-115547438D01*
X64017857Y-115547438D02*
X64113095Y-115642676D01*
X64113095Y-115642676D02*
X64160714Y-115737914D01*
X64160714Y-115737914D02*
X64208333Y-115928390D01*
X64208333Y-115928390D02*
X64208333Y-116071247D01*
X64208333Y-116071247D02*
X64160714Y-116261723D01*
X64160714Y-116261723D02*
X64113095Y-116356961D01*
X64113095Y-116356961D02*
X64017857Y-116452200D01*
X64017857Y-116452200D02*
X63875000Y-116499819D01*
X63875000Y-116499819D02*
X63636905Y-116499819D01*
X64589286Y-115595057D02*
X64636905Y-115547438D01*
X64636905Y-115547438D02*
X64732143Y-115499819D01*
X64732143Y-115499819D02*
X64970238Y-115499819D01*
X64970238Y-115499819D02*
X65065476Y-115547438D01*
X65065476Y-115547438D02*
X65113095Y-115595057D01*
X65113095Y-115595057D02*
X65160714Y-115690295D01*
X65160714Y-115690295D02*
X65160714Y-115785533D01*
X65160714Y-115785533D02*
X65113095Y-115928390D01*
X65113095Y-115928390D02*
X64541667Y-116499819D01*
X64541667Y-116499819D02*
X65160714Y-116499819D01*
X165613095Y-58679819D02*
X165613095Y-57679819D01*
X165613095Y-58156009D02*
X166184523Y-58156009D01*
X166184523Y-58679819D02*
X166184523Y-57679819D01*
X166613095Y-57775057D02*
X166660714Y-57727438D01*
X166660714Y-57727438D02*
X166755952Y-57679819D01*
X166755952Y-57679819D02*
X166994047Y-57679819D01*
X166994047Y-57679819D02*
X167089285Y-57727438D01*
X167089285Y-57727438D02*
X167136904Y-57775057D01*
X167136904Y-57775057D02*
X167184523Y-57870295D01*
X167184523Y-57870295D02*
X167184523Y-57965533D01*
X167184523Y-57965533D02*
X167136904Y-58108390D01*
X167136904Y-58108390D02*
X166565476Y-58679819D01*
X166565476Y-58679819D02*
X167184523Y-58679819D01*
X153636905Y-116499819D02*
X153636905Y-115499819D01*
X153636905Y-115499819D02*
X153875000Y-115499819D01*
X153875000Y-115499819D02*
X154017857Y-115547438D01*
X154017857Y-115547438D02*
X154113095Y-115642676D01*
X154113095Y-115642676D02*
X154160714Y-115737914D01*
X154160714Y-115737914D02*
X154208333Y-115928390D01*
X154208333Y-115928390D02*
X154208333Y-116071247D01*
X154208333Y-116071247D02*
X154160714Y-116261723D01*
X154160714Y-116261723D02*
X154113095Y-116356961D01*
X154113095Y-116356961D02*
X154017857Y-116452200D01*
X154017857Y-116452200D02*
X153875000Y-116499819D01*
X153875000Y-116499819D02*
X153636905Y-116499819D01*
X154779762Y-115928390D02*
X154684524Y-115880771D01*
X154684524Y-115880771D02*
X154636905Y-115833152D01*
X154636905Y-115833152D02*
X154589286Y-115737914D01*
X154589286Y-115737914D02*
X154589286Y-115690295D01*
X154589286Y-115690295D02*
X154636905Y-115595057D01*
X154636905Y-115595057D02*
X154684524Y-115547438D01*
X154684524Y-115547438D02*
X154779762Y-115499819D01*
X154779762Y-115499819D02*
X154970238Y-115499819D01*
X154970238Y-115499819D02*
X155065476Y-115547438D01*
X155065476Y-115547438D02*
X155113095Y-115595057D01*
X155113095Y-115595057D02*
X155160714Y-115690295D01*
X155160714Y-115690295D02*
X155160714Y-115737914D01*
X155160714Y-115737914D02*
X155113095Y-115833152D01*
X155113095Y-115833152D02*
X155065476Y-115880771D01*
X155065476Y-115880771D02*
X154970238Y-115928390D01*
X154970238Y-115928390D02*
X154779762Y-115928390D01*
X154779762Y-115928390D02*
X154684524Y-115976009D01*
X154684524Y-115976009D02*
X154636905Y-116023628D01*
X154636905Y-116023628D02*
X154589286Y-116118866D01*
X154589286Y-116118866D02*
X154589286Y-116309342D01*
X154589286Y-116309342D02*
X154636905Y-116404580D01*
X154636905Y-116404580D02*
X154684524Y-116452200D01*
X154684524Y-116452200D02*
X154779762Y-116499819D01*
X154779762Y-116499819D02*
X154970238Y-116499819D01*
X154970238Y-116499819D02*
X155065476Y-116452200D01*
X155065476Y-116452200D02*
X155113095Y-116404580D01*
X155113095Y-116404580D02*
X155160714Y-116309342D01*
X155160714Y-116309342D02*
X155160714Y-116118866D01*
X155160714Y-116118866D02*
X155113095Y-116023628D01*
X155113095Y-116023628D02*
X155065476Y-115976009D01*
X155065476Y-115976009D02*
X154970238Y-115928390D01*
X226761667Y-144852200D02*
X226904524Y-144899819D01*
X226904524Y-144899819D02*
X227142619Y-144899819D01*
X227142619Y-144899819D02*
X227237857Y-144852200D01*
X227237857Y-144852200D02*
X227285476Y-144804580D01*
X227285476Y-144804580D02*
X227333095Y-144709342D01*
X227333095Y-144709342D02*
X227333095Y-144614104D01*
X227333095Y-144614104D02*
X227285476Y-144518866D01*
X227285476Y-144518866D02*
X227237857Y-144471247D01*
X227237857Y-144471247D02*
X227142619Y-144423628D01*
X227142619Y-144423628D02*
X226952143Y-144376009D01*
X226952143Y-144376009D02*
X226856905Y-144328390D01*
X226856905Y-144328390D02*
X226809286Y-144280771D01*
X226809286Y-144280771D02*
X226761667Y-144185533D01*
X226761667Y-144185533D02*
X226761667Y-144090295D01*
X226761667Y-144090295D02*
X226809286Y-143995057D01*
X226809286Y-143995057D02*
X226856905Y-143947438D01*
X226856905Y-143947438D02*
X226952143Y-143899819D01*
X226952143Y-143899819D02*
X227190238Y-143899819D01*
X227190238Y-143899819D02*
X227333095Y-143947438D01*
X227666429Y-143899819D02*
X227904524Y-144899819D01*
X227904524Y-144899819D02*
X228095000Y-144185533D01*
X228095000Y-144185533D02*
X228285476Y-144899819D01*
X228285476Y-144899819D02*
X228523572Y-143899819D01*
X229475952Y-144804580D02*
X229428333Y-144852200D01*
X229428333Y-144852200D02*
X229285476Y-144899819D01*
X229285476Y-144899819D02*
X229190238Y-144899819D01*
X229190238Y-144899819D02*
X229047381Y-144852200D01*
X229047381Y-144852200D02*
X228952143Y-144756961D01*
X228952143Y-144756961D02*
X228904524Y-144661723D01*
X228904524Y-144661723D02*
X228856905Y-144471247D01*
X228856905Y-144471247D02*
X228856905Y-144328390D01*
X228856905Y-144328390D02*
X228904524Y-144137914D01*
X228904524Y-144137914D02*
X228952143Y-144042676D01*
X228952143Y-144042676D02*
X229047381Y-143947438D01*
X229047381Y-143947438D02*
X229190238Y-143899819D01*
X229190238Y-143899819D02*
X229285476Y-143899819D01*
X229285476Y-143899819D02*
X229428333Y-143947438D01*
X229428333Y-143947438D02*
X229475952Y-143995057D01*
X229809286Y-143899819D02*
X230428333Y-143899819D01*
X230428333Y-143899819D02*
X230095000Y-144280771D01*
X230095000Y-144280771D02*
X230237857Y-144280771D01*
X230237857Y-144280771D02*
X230333095Y-144328390D01*
X230333095Y-144328390D02*
X230380714Y-144376009D01*
X230380714Y-144376009D02*
X230428333Y-144471247D01*
X230428333Y-144471247D02*
X230428333Y-144709342D01*
X230428333Y-144709342D02*
X230380714Y-144804580D01*
X230380714Y-144804580D02*
X230333095Y-144852200D01*
X230333095Y-144852200D02*
X230237857Y-144899819D01*
X230237857Y-144899819D02*
X229952143Y-144899819D01*
X229952143Y-144899819D02*
X229856905Y-144852200D01*
X229856905Y-144852200D02*
X229809286Y-144804580D01*
X78636905Y-116499819D02*
X78636905Y-115499819D01*
X78636905Y-115499819D02*
X78875000Y-115499819D01*
X78875000Y-115499819D02*
X79017857Y-115547438D01*
X79017857Y-115547438D02*
X79113095Y-115642676D01*
X79113095Y-115642676D02*
X79160714Y-115737914D01*
X79160714Y-115737914D02*
X79208333Y-115928390D01*
X79208333Y-115928390D02*
X79208333Y-116071247D01*
X79208333Y-116071247D02*
X79160714Y-116261723D01*
X79160714Y-116261723D02*
X79113095Y-116356961D01*
X79113095Y-116356961D02*
X79017857Y-116452200D01*
X79017857Y-116452200D02*
X78875000Y-116499819D01*
X78875000Y-116499819D02*
X78636905Y-116499819D01*
X79541667Y-115499819D02*
X80160714Y-115499819D01*
X80160714Y-115499819D02*
X79827381Y-115880771D01*
X79827381Y-115880771D02*
X79970238Y-115880771D01*
X79970238Y-115880771D02*
X80065476Y-115928390D01*
X80065476Y-115928390D02*
X80113095Y-115976009D01*
X80113095Y-115976009D02*
X80160714Y-116071247D01*
X80160714Y-116071247D02*
X80160714Y-116309342D01*
X80160714Y-116309342D02*
X80113095Y-116404580D01*
X80113095Y-116404580D02*
X80065476Y-116452200D01*
X80065476Y-116452200D02*
X79970238Y-116499819D01*
X79970238Y-116499819D02*
X79684524Y-116499819D01*
X79684524Y-116499819D02*
X79589286Y-116452200D01*
X79589286Y-116452200D02*
X79541667Y-116404580D01*
X203041666Y-95949819D02*
X203041666Y-96664104D01*
X203041666Y-96664104D02*
X202994047Y-96806961D01*
X202994047Y-96806961D02*
X202898809Y-96902200D01*
X202898809Y-96902200D02*
X202755952Y-96949819D01*
X202755952Y-96949819D02*
X202660714Y-96949819D01*
X203994047Y-95949819D02*
X203517857Y-95949819D01*
X203517857Y-95949819D02*
X203470238Y-96426009D01*
X203470238Y-96426009D02*
X203517857Y-96378390D01*
X203517857Y-96378390D02*
X203613095Y-96330771D01*
X203613095Y-96330771D02*
X203851190Y-96330771D01*
X203851190Y-96330771D02*
X203946428Y-96378390D01*
X203946428Y-96378390D02*
X203994047Y-96426009D01*
X203994047Y-96426009D02*
X204041666Y-96521247D01*
X204041666Y-96521247D02*
X204041666Y-96759342D01*
X204041666Y-96759342D02*
X203994047Y-96854580D01*
X203994047Y-96854580D02*
X203946428Y-96902200D01*
X203946428Y-96902200D02*
X203851190Y-96949819D01*
X203851190Y-96949819D02*
X203613095Y-96949819D01*
X203613095Y-96949819D02*
X203517857Y-96902200D01*
X203517857Y-96902200D02*
X203470238Y-96854580D01*
X226160714Y-128499819D02*
X226160714Y-127499819D01*
X226160714Y-127499819D02*
X226398809Y-127499819D01*
X226398809Y-127499819D02*
X226541666Y-127547438D01*
X226541666Y-127547438D02*
X226636904Y-127642676D01*
X226636904Y-127642676D02*
X226684523Y-127737914D01*
X226684523Y-127737914D02*
X226732142Y-127928390D01*
X226732142Y-127928390D02*
X226732142Y-128071247D01*
X226732142Y-128071247D02*
X226684523Y-128261723D01*
X226684523Y-128261723D02*
X226636904Y-128356961D01*
X226636904Y-128356961D02*
X226541666Y-128452200D01*
X226541666Y-128452200D02*
X226398809Y-128499819D01*
X226398809Y-128499819D02*
X226160714Y-128499819D01*
X227113095Y-127595057D02*
X227160714Y-127547438D01*
X227160714Y-127547438D02*
X227255952Y-127499819D01*
X227255952Y-127499819D02*
X227494047Y-127499819D01*
X227494047Y-127499819D02*
X227589285Y-127547438D01*
X227589285Y-127547438D02*
X227636904Y-127595057D01*
X227636904Y-127595057D02*
X227684523Y-127690295D01*
X227684523Y-127690295D02*
X227684523Y-127785533D01*
X227684523Y-127785533D02*
X227636904Y-127928390D01*
X227636904Y-127928390D02*
X227065476Y-128499819D01*
X227065476Y-128499819D02*
X227684523Y-128499819D01*
X228255952Y-127928390D02*
X228160714Y-127880771D01*
X228160714Y-127880771D02*
X228113095Y-127833152D01*
X228113095Y-127833152D02*
X228065476Y-127737914D01*
X228065476Y-127737914D02*
X228065476Y-127690295D01*
X228065476Y-127690295D02*
X228113095Y-127595057D01*
X228113095Y-127595057D02*
X228160714Y-127547438D01*
X228160714Y-127547438D02*
X228255952Y-127499819D01*
X228255952Y-127499819D02*
X228446428Y-127499819D01*
X228446428Y-127499819D02*
X228541666Y-127547438D01*
X228541666Y-127547438D02*
X228589285Y-127595057D01*
X228589285Y-127595057D02*
X228636904Y-127690295D01*
X228636904Y-127690295D02*
X228636904Y-127737914D01*
X228636904Y-127737914D02*
X228589285Y-127833152D01*
X228589285Y-127833152D02*
X228541666Y-127880771D01*
X228541666Y-127880771D02*
X228446428Y-127928390D01*
X228446428Y-127928390D02*
X228255952Y-127928390D01*
X228255952Y-127928390D02*
X228160714Y-127976009D01*
X228160714Y-127976009D02*
X228113095Y-128023628D01*
X228113095Y-128023628D02*
X228065476Y-128118866D01*
X228065476Y-128118866D02*
X228065476Y-128309342D01*
X228065476Y-128309342D02*
X228113095Y-128404580D01*
X228113095Y-128404580D02*
X228160714Y-128452200D01*
X228160714Y-128452200D02*
X228255952Y-128499819D01*
X228255952Y-128499819D02*
X228446428Y-128499819D01*
X228446428Y-128499819D02*
X228541666Y-128452200D01*
X228541666Y-128452200D02*
X228589285Y-128404580D01*
X228589285Y-128404580D02*
X228636904Y-128309342D01*
X228636904Y-128309342D02*
X228636904Y-128118866D01*
X228636904Y-128118866D02*
X228589285Y-128023628D01*
X228589285Y-128023628D02*
X228541666Y-127976009D01*
X228541666Y-127976009D02*
X228446428Y-127928390D01*
X48636905Y-128499819D02*
X48636905Y-127499819D01*
X48636905Y-127499819D02*
X48875000Y-127499819D01*
X48875000Y-127499819D02*
X49017857Y-127547438D01*
X49017857Y-127547438D02*
X49113095Y-127642676D01*
X49113095Y-127642676D02*
X49160714Y-127737914D01*
X49160714Y-127737914D02*
X49208333Y-127928390D01*
X49208333Y-127928390D02*
X49208333Y-128071247D01*
X49208333Y-128071247D02*
X49160714Y-128261723D01*
X49160714Y-128261723D02*
X49113095Y-128356961D01*
X49113095Y-128356961D02*
X49017857Y-128452200D01*
X49017857Y-128452200D02*
X48875000Y-128499819D01*
X48875000Y-128499819D02*
X48636905Y-128499819D01*
X49684524Y-128499819D02*
X49875000Y-128499819D01*
X49875000Y-128499819D02*
X49970238Y-128452200D01*
X49970238Y-128452200D02*
X50017857Y-128404580D01*
X50017857Y-128404580D02*
X50113095Y-128261723D01*
X50113095Y-128261723D02*
X50160714Y-128071247D01*
X50160714Y-128071247D02*
X50160714Y-127690295D01*
X50160714Y-127690295D02*
X50113095Y-127595057D01*
X50113095Y-127595057D02*
X50065476Y-127547438D01*
X50065476Y-127547438D02*
X49970238Y-127499819D01*
X49970238Y-127499819D02*
X49779762Y-127499819D01*
X49779762Y-127499819D02*
X49684524Y-127547438D01*
X49684524Y-127547438D02*
X49636905Y-127595057D01*
X49636905Y-127595057D02*
X49589286Y-127690295D01*
X49589286Y-127690295D02*
X49589286Y-127928390D01*
X49589286Y-127928390D02*
X49636905Y-128023628D01*
X49636905Y-128023628D02*
X49684524Y-128071247D01*
X49684524Y-128071247D02*
X49779762Y-128118866D01*
X49779762Y-128118866D02*
X49970238Y-128118866D01*
X49970238Y-128118866D02*
X50065476Y-128071247D01*
X50065476Y-128071247D02*
X50113095Y-128023628D01*
X50113095Y-128023628D02*
X50160714Y-127928390D01*
X210613095Y-103879819D02*
X210613095Y-104689342D01*
X210613095Y-104689342D02*
X210660714Y-104784580D01*
X210660714Y-104784580D02*
X210708333Y-104832200D01*
X210708333Y-104832200D02*
X210803571Y-104879819D01*
X210803571Y-104879819D02*
X210994047Y-104879819D01*
X210994047Y-104879819D02*
X211089285Y-104832200D01*
X211089285Y-104832200D02*
X211136904Y-104784580D01*
X211136904Y-104784580D02*
X211184523Y-104689342D01*
X211184523Y-104689342D02*
X211184523Y-103879819D01*
X212089285Y-104213152D02*
X212089285Y-104879819D01*
X211851190Y-103832200D02*
X211613095Y-104546485D01*
X211613095Y-104546485D02*
X212232142Y-104546485D01*
X138636905Y-116499819D02*
X138636905Y-115499819D01*
X138636905Y-115499819D02*
X138875000Y-115499819D01*
X138875000Y-115499819D02*
X139017857Y-115547438D01*
X139017857Y-115547438D02*
X139113095Y-115642676D01*
X139113095Y-115642676D02*
X139160714Y-115737914D01*
X139160714Y-115737914D02*
X139208333Y-115928390D01*
X139208333Y-115928390D02*
X139208333Y-116071247D01*
X139208333Y-116071247D02*
X139160714Y-116261723D01*
X139160714Y-116261723D02*
X139113095Y-116356961D01*
X139113095Y-116356961D02*
X139017857Y-116452200D01*
X139017857Y-116452200D02*
X138875000Y-116499819D01*
X138875000Y-116499819D02*
X138636905Y-116499819D01*
X139541667Y-115499819D02*
X140208333Y-115499819D01*
X140208333Y-115499819D02*
X139779762Y-116499819D01*
X108160714Y-128499819D02*
X108160714Y-127499819D01*
X108160714Y-127499819D02*
X108398809Y-127499819D01*
X108398809Y-127499819D02*
X108541666Y-127547438D01*
X108541666Y-127547438D02*
X108636904Y-127642676D01*
X108636904Y-127642676D02*
X108684523Y-127737914D01*
X108684523Y-127737914D02*
X108732142Y-127928390D01*
X108732142Y-127928390D02*
X108732142Y-128071247D01*
X108732142Y-128071247D02*
X108684523Y-128261723D01*
X108684523Y-128261723D02*
X108636904Y-128356961D01*
X108636904Y-128356961D02*
X108541666Y-128452200D01*
X108541666Y-128452200D02*
X108398809Y-128499819D01*
X108398809Y-128499819D02*
X108160714Y-128499819D01*
X109684523Y-128499819D02*
X109113095Y-128499819D01*
X109398809Y-128499819D02*
X109398809Y-127499819D01*
X109398809Y-127499819D02*
X109303571Y-127642676D01*
X109303571Y-127642676D02*
X109208333Y-127737914D01*
X109208333Y-127737914D02*
X109113095Y-127785533D01*
X110017857Y-127499819D02*
X110636904Y-127499819D01*
X110636904Y-127499819D02*
X110303571Y-127880771D01*
X110303571Y-127880771D02*
X110446428Y-127880771D01*
X110446428Y-127880771D02*
X110541666Y-127928390D01*
X110541666Y-127928390D02*
X110589285Y-127976009D01*
X110589285Y-127976009D02*
X110636904Y-128071247D01*
X110636904Y-128071247D02*
X110636904Y-128309342D01*
X110636904Y-128309342D02*
X110589285Y-128404580D01*
X110589285Y-128404580D02*
X110541666Y-128452200D01*
X110541666Y-128452200D02*
X110446428Y-128499819D01*
X110446428Y-128499819D02*
X110160714Y-128499819D01*
X110160714Y-128499819D02*
X110065476Y-128452200D01*
X110065476Y-128452200D02*
X110017857Y-128404580D01*
X92352200Y-148658332D02*
X92399819Y-148515475D01*
X92399819Y-148515475D02*
X92399819Y-148277380D01*
X92399819Y-148277380D02*
X92352200Y-148182142D01*
X92352200Y-148182142D02*
X92304580Y-148134523D01*
X92304580Y-148134523D02*
X92209342Y-148086904D01*
X92209342Y-148086904D02*
X92114104Y-148086904D01*
X92114104Y-148086904D02*
X92018866Y-148134523D01*
X92018866Y-148134523D02*
X91971247Y-148182142D01*
X91971247Y-148182142D02*
X91923628Y-148277380D01*
X91923628Y-148277380D02*
X91876009Y-148467856D01*
X91876009Y-148467856D02*
X91828390Y-148563094D01*
X91828390Y-148563094D02*
X91780771Y-148610713D01*
X91780771Y-148610713D02*
X91685533Y-148658332D01*
X91685533Y-148658332D02*
X91590295Y-148658332D01*
X91590295Y-148658332D02*
X91495057Y-148610713D01*
X91495057Y-148610713D02*
X91447438Y-148563094D01*
X91447438Y-148563094D02*
X91399819Y-148467856D01*
X91399819Y-148467856D02*
X91399819Y-148229761D01*
X91399819Y-148229761D02*
X91447438Y-148086904D01*
X91399819Y-147753570D02*
X92399819Y-147515475D01*
X92399819Y-147515475D02*
X91685533Y-147324999D01*
X91685533Y-147324999D02*
X92399819Y-147134523D01*
X92399819Y-147134523D02*
X91399819Y-146896428D01*
X92399819Y-146515475D02*
X91399819Y-146515475D01*
X91399819Y-146515475D02*
X91399819Y-146277380D01*
X91399819Y-146277380D02*
X91447438Y-146134523D01*
X91447438Y-146134523D02*
X91542676Y-146039285D01*
X91542676Y-146039285D02*
X91637914Y-145991666D01*
X91637914Y-145991666D02*
X91828390Y-145944047D01*
X91828390Y-145944047D02*
X91971247Y-145944047D01*
X91971247Y-145944047D02*
X92161723Y-145991666D01*
X92161723Y-145991666D02*
X92256961Y-146039285D01*
X92256961Y-146039285D02*
X92352200Y-146134523D01*
X92352200Y-146134523D02*
X92399819Y-146277380D01*
X92399819Y-146277380D02*
X92399819Y-146515475D01*
X91399819Y-145610713D02*
X91399819Y-144991666D01*
X91399819Y-144991666D02*
X91780771Y-145324999D01*
X91780771Y-145324999D02*
X91780771Y-145182142D01*
X91780771Y-145182142D02*
X91828390Y-145086904D01*
X91828390Y-145086904D02*
X91876009Y-145039285D01*
X91876009Y-145039285D02*
X91971247Y-144991666D01*
X91971247Y-144991666D02*
X92209342Y-144991666D01*
X92209342Y-144991666D02*
X92304580Y-145039285D01*
X92304580Y-145039285D02*
X92352200Y-145086904D01*
X92352200Y-145086904D02*
X92399819Y-145182142D01*
X92399819Y-145182142D02*
X92399819Y-145467856D01*
X92399819Y-145467856D02*
X92352200Y-145563094D01*
X92352200Y-145563094D02*
X92304580Y-145610713D01*
X123160714Y-128499819D02*
X123160714Y-127499819D01*
X123160714Y-127499819D02*
X123398809Y-127499819D01*
X123398809Y-127499819D02*
X123541666Y-127547438D01*
X123541666Y-127547438D02*
X123636904Y-127642676D01*
X123636904Y-127642676D02*
X123684523Y-127737914D01*
X123684523Y-127737914D02*
X123732142Y-127928390D01*
X123732142Y-127928390D02*
X123732142Y-128071247D01*
X123732142Y-128071247D02*
X123684523Y-128261723D01*
X123684523Y-128261723D02*
X123636904Y-128356961D01*
X123636904Y-128356961D02*
X123541666Y-128452200D01*
X123541666Y-128452200D02*
X123398809Y-128499819D01*
X123398809Y-128499819D02*
X123160714Y-128499819D01*
X124684523Y-128499819D02*
X124113095Y-128499819D01*
X124398809Y-128499819D02*
X124398809Y-127499819D01*
X124398809Y-127499819D02*
X124303571Y-127642676D01*
X124303571Y-127642676D02*
X124208333Y-127737914D01*
X124208333Y-127737914D02*
X124113095Y-127785533D01*
X125541666Y-127833152D02*
X125541666Y-128499819D01*
X125303571Y-127452200D02*
X125065476Y-128166485D01*
X125065476Y-128166485D02*
X125684523Y-128166485D01*
X184041667Y-91832200D02*
X184184524Y-91879819D01*
X184184524Y-91879819D02*
X184422619Y-91879819D01*
X184422619Y-91879819D02*
X184517857Y-91832200D01*
X184517857Y-91832200D02*
X184565476Y-91784580D01*
X184565476Y-91784580D02*
X184613095Y-91689342D01*
X184613095Y-91689342D02*
X184613095Y-91594104D01*
X184613095Y-91594104D02*
X184565476Y-91498866D01*
X184565476Y-91498866D02*
X184517857Y-91451247D01*
X184517857Y-91451247D02*
X184422619Y-91403628D01*
X184422619Y-91403628D02*
X184232143Y-91356009D01*
X184232143Y-91356009D02*
X184136905Y-91308390D01*
X184136905Y-91308390D02*
X184089286Y-91260771D01*
X184089286Y-91260771D02*
X184041667Y-91165533D01*
X184041667Y-91165533D02*
X184041667Y-91070295D01*
X184041667Y-91070295D02*
X184089286Y-90975057D01*
X184089286Y-90975057D02*
X184136905Y-90927438D01*
X184136905Y-90927438D02*
X184232143Y-90879819D01*
X184232143Y-90879819D02*
X184470238Y-90879819D01*
X184470238Y-90879819D02*
X184613095Y-90927438D01*
X184946429Y-90879819D02*
X185184524Y-91879819D01*
X185184524Y-91879819D02*
X185375000Y-91165533D01*
X185375000Y-91165533D02*
X185565476Y-91879819D01*
X185565476Y-91879819D02*
X185803572Y-90879819D01*
X186708333Y-91879819D02*
X186136905Y-91879819D01*
X186422619Y-91879819D02*
X186422619Y-90879819D01*
X186422619Y-90879819D02*
X186327381Y-91022676D01*
X186327381Y-91022676D02*
X186232143Y-91117914D01*
X186232143Y-91117914D02*
X186136905Y-91165533D01*
X95041666Y-67974819D02*
X95041666Y-68689104D01*
X95041666Y-68689104D02*
X94994047Y-68831961D01*
X94994047Y-68831961D02*
X94898809Y-68927200D01*
X94898809Y-68927200D02*
X94755952Y-68974819D01*
X94755952Y-68974819D02*
X94660714Y-68974819D01*
X96041666Y-68974819D02*
X95470238Y-68974819D01*
X95755952Y-68974819D02*
X95755952Y-67974819D01*
X95755952Y-67974819D02*
X95660714Y-68117676D01*
X95660714Y-68117676D02*
X95565476Y-68212914D01*
X95565476Y-68212914D02*
X95470238Y-68260533D01*
X138160714Y-128499819D02*
X138160714Y-127499819D01*
X138160714Y-127499819D02*
X138398809Y-127499819D01*
X138398809Y-127499819D02*
X138541666Y-127547438D01*
X138541666Y-127547438D02*
X138636904Y-127642676D01*
X138636904Y-127642676D02*
X138684523Y-127737914D01*
X138684523Y-127737914D02*
X138732142Y-127928390D01*
X138732142Y-127928390D02*
X138732142Y-128071247D01*
X138732142Y-128071247D02*
X138684523Y-128261723D01*
X138684523Y-128261723D02*
X138636904Y-128356961D01*
X138636904Y-128356961D02*
X138541666Y-128452200D01*
X138541666Y-128452200D02*
X138398809Y-128499819D01*
X138398809Y-128499819D02*
X138160714Y-128499819D01*
X139684523Y-128499819D02*
X139113095Y-128499819D01*
X139398809Y-128499819D02*
X139398809Y-127499819D01*
X139398809Y-127499819D02*
X139303571Y-127642676D01*
X139303571Y-127642676D02*
X139208333Y-127737914D01*
X139208333Y-127737914D02*
X139113095Y-127785533D01*
X140589285Y-127499819D02*
X140113095Y-127499819D01*
X140113095Y-127499819D02*
X140065476Y-127976009D01*
X140065476Y-127976009D02*
X140113095Y-127928390D01*
X140113095Y-127928390D02*
X140208333Y-127880771D01*
X140208333Y-127880771D02*
X140446428Y-127880771D01*
X140446428Y-127880771D02*
X140541666Y-127928390D01*
X140541666Y-127928390D02*
X140589285Y-127976009D01*
X140589285Y-127976009D02*
X140636904Y-128071247D01*
X140636904Y-128071247D02*
X140636904Y-128309342D01*
X140636904Y-128309342D02*
X140589285Y-128404580D01*
X140589285Y-128404580D02*
X140541666Y-128452200D01*
X140541666Y-128452200D02*
X140446428Y-128499819D01*
X140446428Y-128499819D02*
X140208333Y-128499819D01*
X140208333Y-128499819D02*
X140113095Y-128452200D01*
X140113095Y-128452200D02*
X140065476Y-128404580D01*
X63160714Y-140499819D02*
X63160714Y-139499819D01*
X63160714Y-139499819D02*
X63398809Y-139499819D01*
X63398809Y-139499819D02*
X63541666Y-139547438D01*
X63541666Y-139547438D02*
X63636904Y-139642676D01*
X63636904Y-139642676D02*
X63684523Y-139737914D01*
X63684523Y-139737914D02*
X63732142Y-139928390D01*
X63732142Y-139928390D02*
X63732142Y-140071247D01*
X63732142Y-140071247D02*
X63684523Y-140261723D01*
X63684523Y-140261723D02*
X63636904Y-140356961D01*
X63636904Y-140356961D02*
X63541666Y-140452200D01*
X63541666Y-140452200D02*
X63398809Y-140499819D01*
X63398809Y-140499819D02*
X63160714Y-140499819D01*
X64684523Y-140499819D02*
X64113095Y-140499819D01*
X64398809Y-140499819D02*
X64398809Y-139499819D01*
X64398809Y-139499819D02*
X64303571Y-139642676D01*
X64303571Y-139642676D02*
X64208333Y-139737914D01*
X64208333Y-139737914D02*
X64113095Y-139785533D01*
X65255952Y-139928390D02*
X65160714Y-139880771D01*
X65160714Y-139880771D02*
X65113095Y-139833152D01*
X65113095Y-139833152D02*
X65065476Y-139737914D01*
X65065476Y-139737914D02*
X65065476Y-139690295D01*
X65065476Y-139690295D02*
X65113095Y-139595057D01*
X65113095Y-139595057D02*
X65160714Y-139547438D01*
X65160714Y-139547438D02*
X65255952Y-139499819D01*
X65255952Y-139499819D02*
X65446428Y-139499819D01*
X65446428Y-139499819D02*
X65541666Y-139547438D01*
X65541666Y-139547438D02*
X65589285Y-139595057D01*
X65589285Y-139595057D02*
X65636904Y-139690295D01*
X65636904Y-139690295D02*
X65636904Y-139737914D01*
X65636904Y-139737914D02*
X65589285Y-139833152D01*
X65589285Y-139833152D02*
X65541666Y-139880771D01*
X65541666Y-139880771D02*
X65446428Y-139928390D01*
X65446428Y-139928390D02*
X65255952Y-139928390D01*
X65255952Y-139928390D02*
X65160714Y-139976009D01*
X65160714Y-139976009D02*
X65113095Y-140023628D01*
X65113095Y-140023628D02*
X65065476Y-140118866D01*
X65065476Y-140118866D02*
X65065476Y-140309342D01*
X65065476Y-140309342D02*
X65113095Y-140404580D01*
X65113095Y-140404580D02*
X65160714Y-140452200D01*
X65160714Y-140452200D02*
X65255952Y-140499819D01*
X65255952Y-140499819D02*
X65446428Y-140499819D01*
X65446428Y-140499819D02*
X65541666Y-140452200D01*
X65541666Y-140452200D02*
X65589285Y-140404580D01*
X65589285Y-140404580D02*
X65636904Y-140309342D01*
X65636904Y-140309342D02*
X65636904Y-140118866D01*
X65636904Y-140118866D02*
X65589285Y-140023628D01*
X65589285Y-140023628D02*
X65541666Y-139976009D01*
X65541666Y-139976009D02*
X65446428Y-139928390D01*
X153160714Y-128499819D02*
X153160714Y-127499819D01*
X153160714Y-127499819D02*
X153398809Y-127499819D01*
X153398809Y-127499819D02*
X153541666Y-127547438D01*
X153541666Y-127547438D02*
X153636904Y-127642676D01*
X153636904Y-127642676D02*
X153684523Y-127737914D01*
X153684523Y-127737914D02*
X153732142Y-127928390D01*
X153732142Y-127928390D02*
X153732142Y-128071247D01*
X153732142Y-128071247D02*
X153684523Y-128261723D01*
X153684523Y-128261723D02*
X153636904Y-128356961D01*
X153636904Y-128356961D02*
X153541666Y-128452200D01*
X153541666Y-128452200D02*
X153398809Y-128499819D01*
X153398809Y-128499819D02*
X153160714Y-128499819D01*
X154684523Y-128499819D02*
X154113095Y-128499819D01*
X154398809Y-128499819D02*
X154398809Y-127499819D01*
X154398809Y-127499819D02*
X154303571Y-127642676D01*
X154303571Y-127642676D02*
X154208333Y-127737914D01*
X154208333Y-127737914D02*
X154113095Y-127785533D01*
X155541666Y-127499819D02*
X155351190Y-127499819D01*
X155351190Y-127499819D02*
X155255952Y-127547438D01*
X155255952Y-127547438D02*
X155208333Y-127595057D01*
X155208333Y-127595057D02*
X155113095Y-127737914D01*
X155113095Y-127737914D02*
X155065476Y-127928390D01*
X155065476Y-127928390D02*
X155065476Y-128309342D01*
X155065476Y-128309342D02*
X155113095Y-128404580D01*
X155113095Y-128404580D02*
X155160714Y-128452200D01*
X155160714Y-128452200D02*
X155255952Y-128499819D01*
X155255952Y-128499819D02*
X155446428Y-128499819D01*
X155446428Y-128499819D02*
X155541666Y-128452200D01*
X155541666Y-128452200D02*
X155589285Y-128404580D01*
X155589285Y-128404580D02*
X155636904Y-128309342D01*
X155636904Y-128309342D02*
X155636904Y-128071247D01*
X155636904Y-128071247D02*
X155589285Y-127976009D01*
X155589285Y-127976009D02*
X155541666Y-127928390D01*
X155541666Y-127928390D02*
X155446428Y-127880771D01*
X155446428Y-127880771D02*
X155255952Y-127880771D01*
X155255952Y-127880771D02*
X155160714Y-127928390D01*
X155160714Y-127928390D02*
X155113095Y-127976009D01*
X155113095Y-127976009D02*
X155065476Y-128071247D01*
X47352200Y-148658332D02*
X47399819Y-148515475D01*
X47399819Y-148515475D02*
X47399819Y-148277380D01*
X47399819Y-148277380D02*
X47352200Y-148182142D01*
X47352200Y-148182142D02*
X47304580Y-148134523D01*
X47304580Y-148134523D02*
X47209342Y-148086904D01*
X47209342Y-148086904D02*
X47114104Y-148086904D01*
X47114104Y-148086904D02*
X47018866Y-148134523D01*
X47018866Y-148134523D02*
X46971247Y-148182142D01*
X46971247Y-148182142D02*
X46923628Y-148277380D01*
X46923628Y-148277380D02*
X46876009Y-148467856D01*
X46876009Y-148467856D02*
X46828390Y-148563094D01*
X46828390Y-148563094D02*
X46780771Y-148610713D01*
X46780771Y-148610713D02*
X46685533Y-148658332D01*
X46685533Y-148658332D02*
X46590295Y-148658332D01*
X46590295Y-148658332D02*
X46495057Y-148610713D01*
X46495057Y-148610713D02*
X46447438Y-148563094D01*
X46447438Y-148563094D02*
X46399819Y-148467856D01*
X46399819Y-148467856D02*
X46399819Y-148229761D01*
X46399819Y-148229761D02*
X46447438Y-148086904D01*
X46399819Y-147753570D02*
X47399819Y-147515475D01*
X47399819Y-147515475D02*
X46685533Y-147324999D01*
X46685533Y-147324999D02*
X47399819Y-147134523D01*
X47399819Y-147134523D02*
X46399819Y-146896428D01*
X47399819Y-146515475D02*
X46399819Y-146515475D01*
X46399819Y-146515475D02*
X46399819Y-146277380D01*
X46399819Y-146277380D02*
X46447438Y-146134523D01*
X46447438Y-146134523D02*
X46542676Y-146039285D01*
X46542676Y-146039285D02*
X46637914Y-145991666D01*
X46637914Y-145991666D02*
X46828390Y-145944047D01*
X46828390Y-145944047D02*
X46971247Y-145944047D01*
X46971247Y-145944047D02*
X47161723Y-145991666D01*
X47161723Y-145991666D02*
X47256961Y-146039285D01*
X47256961Y-146039285D02*
X47352200Y-146134523D01*
X47352200Y-146134523D02*
X47399819Y-146277380D01*
X47399819Y-146277380D02*
X47399819Y-146515475D01*
X46399819Y-145324999D02*
X46399819Y-145229761D01*
X46399819Y-145229761D02*
X46447438Y-145134523D01*
X46447438Y-145134523D02*
X46495057Y-145086904D01*
X46495057Y-145086904D02*
X46590295Y-145039285D01*
X46590295Y-145039285D02*
X46780771Y-144991666D01*
X46780771Y-144991666D02*
X47018866Y-144991666D01*
X47018866Y-144991666D02*
X47209342Y-145039285D01*
X47209342Y-145039285D02*
X47304580Y-145086904D01*
X47304580Y-145086904D02*
X47352200Y-145134523D01*
X47352200Y-145134523D02*
X47399819Y-145229761D01*
X47399819Y-145229761D02*
X47399819Y-145324999D01*
X47399819Y-145324999D02*
X47352200Y-145420237D01*
X47352200Y-145420237D02*
X47304580Y-145467856D01*
X47304580Y-145467856D02*
X47209342Y-145515475D01*
X47209342Y-145515475D02*
X47018866Y-145563094D01*
X47018866Y-145563094D02*
X46780771Y-145563094D01*
X46780771Y-145563094D02*
X46590295Y-145515475D01*
X46590295Y-145515475D02*
X46495057Y-145467856D01*
X46495057Y-145467856D02*
X46447438Y-145420237D01*
X46447438Y-145420237D02*
X46399819Y-145324999D01*
X122352200Y-148658332D02*
X122399819Y-148515475D01*
X122399819Y-148515475D02*
X122399819Y-148277380D01*
X122399819Y-148277380D02*
X122352200Y-148182142D01*
X122352200Y-148182142D02*
X122304580Y-148134523D01*
X122304580Y-148134523D02*
X122209342Y-148086904D01*
X122209342Y-148086904D02*
X122114104Y-148086904D01*
X122114104Y-148086904D02*
X122018866Y-148134523D01*
X122018866Y-148134523D02*
X121971247Y-148182142D01*
X121971247Y-148182142D02*
X121923628Y-148277380D01*
X121923628Y-148277380D02*
X121876009Y-148467856D01*
X121876009Y-148467856D02*
X121828390Y-148563094D01*
X121828390Y-148563094D02*
X121780771Y-148610713D01*
X121780771Y-148610713D02*
X121685533Y-148658332D01*
X121685533Y-148658332D02*
X121590295Y-148658332D01*
X121590295Y-148658332D02*
X121495057Y-148610713D01*
X121495057Y-148610713D02*
X121447438Y-148563094D01*
X121447438Y-148563094D02*
X121399819Y-148467856D01*
X121399819Y-148467856D02*
X121399819Y-148229761D01*
X121399819Y-148229761D02*
X121447438Y-148086904D01*
X121399819Y-147753570D02*
X122399819Y-147515475D01*
X122399819Y-147515475D02*
X121685533Y-147324999D01*
X121685533Y-147324999D02*
X122399819Y-147134523D01*
X122399819Y-147134523D02*
X121399819Y-146896428D01*
X122399819Y-146515475D02*
X121399819Y-146515475D01*
X121399819Y-146515475D02*
X121399819Y-146277380D01*
X121399819Y-146277380D02*
X121447438Y-146134523D01*
X121447438Y-146134523D02*
X121542676Y-146039285D01*
X121542676Y-146039285D02*
X121637914Y-145991666D01*
X121637914Y-145991666D02*
X121828390Y-145944047D01*
X121828390Y-145944047D02*
X121971247Y-145944047D01*
X121971247Y-145944047D02*
X122161723Y-145991666D01*
X122161723Y-145991666D02*
X122256961Y-146039285D01*
X122256961Y-146039285D02*
X122352200Y-146134523D01*
X122352200Y-146134523D02*
X122399819Y-146277380D01*
X122399819Y-146277380D02*
X122399819Y-146515475D01*
X121399819Y-145039285D02*
X121399819Y-145515475D01*
X121399819Y-145515475D02*
X121876009Y-145563094D01*
X121876009Y-145563094D02*
X121828390Y-145515475D01*
X121828390Y-145515475D02*
X121780771Y-145420237D01*
X121780771Y-145420237D02*
X121780771Y-145182142D01*
X121780771Y-145182142D02*
X121828390Y-145086904D01*
X121828390Y-145086904D02*
X121876009Y-145039285D01*
X121876009Y-145039285D02*
X121971247Y-144991666D01*
X121971247Y-144991666D02*
X122209342Y-144991666D01*
X122209342Y-144991666D02*
X122304580Y-145039285D01*
X122304580Y-145039285D02*
X122352200Y-145086904D01*
X122352200Y-145086904D02*
X122399819Y-145182142D01*
X122399819Y-145182142D02*
X122399819Y-145420237D01*
X122399819Y-145420237D02*
X122352200Y-145515475D01*
X122352200Y-145515475D02*
X122304580Y-145563094D01*
X76613095Y-101879819D02*
X76613095Y-102689342D01*
X76613095Y-102689342D02*
X76660714Y-102784580D01*
X76660714Y-102784580D02*
X76708333Y-102832200D01*
X76708333Y-102832200D02*
X76803571Y-102879819D01*
X76803571Y-102879819D02*
X76994047Y-102879819D01*
X76994047Y-102879819D02*
X77089285Y-102832200D01*
X77089285Y-102832200D02*
X77136904Y-102784580D01*
X77136904Y-102784580D02*
X77184523Y-102689342D01*
X77184523Y-102689342D02*
X77184523Y-101879819D01*
X78136904Y-101879819D02*
X77660714Y-101879819D01*
X77660714Y-101879819D02*
X77613095Y-102356009D01*
X77613095Y-102356009D02*
X77660714Y-102308390D01*
X77660714Y-102308390D02*
X77755952Y-102260771D01*
X77755952Y-102260771D02*
X77994047Y-102260771D01*
X77994047Y-102260771D02*
X78089285Y-102308390D01*
X78089285Y-102308390D02*
X78136904Y-102356009D01*
X78136904Y-102356009D02*
X78184523Y-102451247D01*
X78184523Y-102451247D02*
X78184523Y-102689342D01*
X78184523Y-102689342D02*
X78136904Y-102784580D01*
X78136904Y-102784580D02*
X78089285Y-102832200D01*
X78089285Y-102832200D02*
X77994047Y-102879819D01*
X77994047Y-102879819D02*
X77755952Y-102879819D01*
X77755952Y-102879819D02*
X77660714Y-102832200D01*
X77660714Y-102832200D02*
X77613095Y-102784580D01*
X42613095Y-58679819D02*
X42613095Y-57679819D01*
X42613095Y-58156009D02*
X43184523Y-58156009D01*
X43184523Y-58679819D02*
X43184523Y-57679819D01*
X44184523Y-58679819D02*
X43613095Y-58679819D01*
X43898809Y-58679819D02*
X43898809Y-57679819D01*
X43898809Y-57679819D02*
X43803571Y-57822676D01*
X43803571Y-57822676D02*
X43708333Y-57917914D01*
X43708333Y-57917914D02*
X43613095Y-57965533D01*
X151613095Y-93929819D02*
X151613095Y-94739342D01*
X151613095Y-94739342D02*
X151660714Y-94834580D01*
X151660714Y-94834580D02*
X151708333Y-94882200D01*
X151708333Y-94882200D02*
X151803571Y-94929819D01*
X151803571Y-94929819D02*
X151994047Y-94929819D01*
X151994047Y-94929819D02*
X152089285Y-94882200D01*
X152089285Y-94882200D02*
X152136904Y-94834580D01*
X152136904Y-94834580D02*
X152184523Y-94739342D01*
X152184523Y-94739342D02*
X152184523Y-93929819D01*
X152613095Y-94025057D02*
X152660714Y-93977438D01*
X152660714Y-93977438D02*
X152755952Y-93929819D01*
X152755952Y-93929819D02*
X152994047Y-93929819D01*
X152994047Y-93929819D02*
X153089285Y-93977438D01*
X153089285Y-93977438D02*
X153136904Y-94025057D01*
X153136904Y-94025057D02*
X153184523Y-94120295D01*
X153184523Y-94120295D02*
X153184523Y-94215533D01*
X153184523Y-94215533D02*
X153136904Y-94358390D01*
X153136904Y-94358390D02*
X152565476Y-94929819D01*
X152565476Y-94929819D02*
X153184523Y-94929819D01*
X152352200Y-148658332D02*
X152399819Y-148515475D01*
X152399819Y-148515475D02*
X152399819Y-148277380D01*
X152399819Y-148277380D02*
X152352200Y-148182142D01*
X152352200Y-148182142D02*
X152304580Y-148134523D01*
X152304580Y-148134523D02*
X152209342Y-148086904D01*
X152209342Y-148086904D02*
X152114104Y-148086904D01*
X152114104Y-148086904D02*
X152018866Y-148134523D01*
X152018866Y-148134523D02*
X151971247Y-148182142D01*
X151971247Y-148182142D02*
X151923628Y-148277380D01*
X151923628Y-148277380D02*
X151876009Y-148467856D01*
X151876009Y-148467856D02*
X151828390Y-148563094D01*
X151828390Y-148563094D02*
X151780771Y-148610713D01*
X151780771Y-148610713D02*
X151685533Y-148658332D01*
X151685533Y-148658332D02*
X151590295Y-148658332D01*
X151590295Y-148658332D02*
X151495057Y-148610713D01*
X151495057Y-148610713D02*
X151447438Y-148563094D01*
X151447438Y-148563094D02*
X151399819Y-148467856D01*
X151399819Y-148467856D02*
X151399819Y-148229761D01*
X151399819Y-148229761D02*
X151447438Y-148086904D01*
X151399819Y-147753570D02*
X152399819Y-147515475D01*
X152399819Y-147515475D02*
X151685533Y-147324999D01*
X151685533Y-147324999D02*
X152399819Y-147134523D01*
X152399819Y-147134523D02*
X151399819Y-146896428D01*
X152399819Y-146515475D02*
X151399819Y-146515475D01*
X151399819Y-146515475D02*
X151399819Y-146277380D01*
X151399819Y-146277380D02*
X151447438Y-146134523D01*
X151447438Y-146134523D02*
X151542676Y-146039285D01*
X151542676Y-146039285D02*
X151637914Y-145991666D01*
X151637914Y-145991666D02*
X151828390Y-145944047D01*
X151828390Y-145944047D02*
X151971247Y-145944047D01*
X151971247Y-145944047D02*
X152161723Y-145991666D01*
X152161723Y-145991666D02*
X152256961Y-146039285D01*
X152256961Y-146039285D02*
X152352200Y-146134523D01*
X152352200Y-146134523D02*
X152399819Y-146277380D01*
X152399819Y-146277380D02*
X152399819Y-146515475D01*
X151399819Y-145610713D02*
X151399819Y-144944047D01*
X151399819Y-144944047D02*
X152399819Y-145372618D01*
X123160714Y-140499819D02*
X123160714Y-139499819D01*
X123160714Y-139499819D02*
X123398809Y-139499819D01*
X123398809Y-139499819D02*
X123541666Y-139547438D01*
X123541666Y-139547438D02*
X123636904Y-139642676D01*
X123636904Y-139642676D02*
X123684523Y-139737914D01*
X123684523Y-139737914D02*
X123732142Y-139928390D01*
X123732142Y-139928390D02*
X123732142Y-140071247D01*
X123732142Y-140071247D02*
X123684523Y-140261723D01*
X123684523Y-140261723D02*
X123636904Y-140356961D01*
X123636904Y-140356961D02*
X123541666Y-140452200D01*
X123541666Y-140452200D02*
X123398809Y-140499819D01*
X123398809Y-140499819D02*
X123160714Y-140499819D01*
X124113095Y-139595057D02*
X124160714Y-139547438D01*
X124160714Y-139547438D02*
X124255952Y-139499819D01*
X124255952Y-139499819D02*
X124494047Y-139499819D01*
X124494047Y-139499819D02*
X124589285Y-139547438D01*
X124589285Y-139547438D02*
X124636904Y-139595057D01*
X124636904Y-139595057D02*
X124684523Y-139690295D01*
X124684523Y-139690295D02*
X124684523Y-139785533D01*
X124684523Y-139785533D02*
X124636904Y-139928390D01*
X124636904Y-139928390D02*
X124065476Y-140499819D01*
X124065476Y-140499819D02*
X124684523Y-140499819D01*
X125065476Y-139595057D02*
X125113095Y-139547438D01*
X125113095Y-139547438D02*
X125208333Y-139499819D01*
X125208333Y-139499819D02*
X125446428Y-139499819D01*
X125446428Y-139499819D02*
X125541666Y-139547438D01*
X125541666Y-139547438D02*
X125589285Y-139595057D01*
X125589285Y-139595057D02*
X125636904Y-139690295D01*
X125636904Y-139690295D02*
X125636904Y-139785533D01*
X125636904Y-139785533D02*
X125589285Y-139928390D01*
X125589285Y-139928390D02*
X125017857Y-140499819D01*
X125017857Y-140499819D02*
X125636904Y-140499819D01*
X120898809Y-95403628D02*
X120898809Y-95879819D01*
X120565476Y-94879819D02*
X120898809Y-95403628D01*
X120898809Y-95403628D02*
X121232142Y-94879819D01*
X122089285Y-95879819D02*
X121517857Y-95879819D01*
X121803571Y-95879819D02*
X121803571Y-94879819D01*
X121803571Y-94879819D02*
X121708333Y-95022676D01*
X121708333Y-95022676D02*
X121613095Y-95117914D01*
X121613095Y-95117914D02*
X121517857Y-95165533D01*
X107352200Y-148658332D02*
X107399819Y-148515475D01*
X107399819Y-148515475D02*
X107399819Y-148277380D01*
X107399819Y-148277380D02*
X107352200Y-148182142D01*
X107352200Y-148182142D02*
X107304580Y-148134523D01*
X107304580Y-148134523D02*
X107209342Y-148086904D01*
X107209342Y-148086904D02*
X107114104Y-148086904D01*
X107114104Y-148086904D02*
X107018866Y-148134523D01*
X107018866Y-148134523D02*
X106971247Y-148182142D01*
X106971247Y-148182142D02*
X106923628Y-148277380D01*
X106923628Y-148277380D02*
X106876009Y-148467856D01*
X106876009Y-148467856D02*
X106828390Y-148563094D01*
X106828390Y-148563094D02*
X106780771Y-148610713D01*
X106780771Y-148610713D02*
X106685533Y-148658332D01*
X106685533Y-148658332D02*
X106590295Y-148658332D01*
X106590295Y-148658332D02*
X106495057Y-148610713D01*
X106495057Y-148610713D02*
X106447438Y-148563094D01*
X106447438Y-148563094D02*
X106399819Y-148467856D01*
X106399819Y-148467856D02*
X106399819Y-148229761D01*
X106399819Y-148229761D02*
X106447438Y-148086904D01*
X106399819Y-147753570D02*
X107399819Y-147515475D01*
X107399819Y-147515475D02*
X106685533Y-147324999D01*
X106685533Y-147324999D02*
X107399819Y-147134523D01*
X107399819Y-147134523D02*
X106399819Y-146896428D01*
X107399819Y-146515475D02*
X106399819Y-146515475D01*
X106399819Y-146515475D02*
X106399819Y-146277380D01*
X106399819Y-146277380D02*
X106447438Y-146134523D01*
X106447438Y-146134523D02*
X106542676Y-146039285D01*
X106542676Y-146039285D02*
X106637914Y-145991666D01*
X106637914Y-145991666D02*
X106828390Y-145944047D01*
X106828390Y-145944047D02*
X106971247Y-145944047D01*
X106971247Y-145944047D02*
X107161723Y-145991666D01*
X107161723Y-145991666D02*
X107256961Y-146039285D01*
X107256961Y-146039285D02*
X107352200Y-146134523D01*
X107352200Y-146134523D02*
X107399819Y-146277380D01*
X107399819Y-146277380D02*
X107399819Y-146515475D01*
X106733152Y-145086904D02*
X107399819Y-145086904D01*
X106352200Y-145324999D02*
X107066485Y-145563094D01*
X107066485Y-145563094D02*
X107066485Y-144944047D01*
X181160714Y-128499819D02*
X181160714Y-127499819D01*
X181160714Y-127499819D02*
X181398809Y-127499819D01*
X181398809Y-127499819D02*
X181541666Y-127547438D01*
X181541666Y-127547438D02*
X181636904Y-127642676D01*
X181636904Y-127642676D02*
X181684523Y-127737914D01*
X181684523Y-127737914D02*
X181732142Y-127928390D01*
X181732142Y-127928390D02*
X181732142Y-128071247D01*
X181732142Y-128071247D02*
X181684523Y-128261723D01*
X181684523Y-128261723D02*
X181636904Y-128356961D01*
X181636904Y-128356961D02*
X181541666Y-128452200D01*
X181541666Y-128452200D02*
X181398809Y-128499819D01*
X181398809Y-128499819D02*
X181160714Y-128499819D01*
X182113095Y-127595057D02*
X182160714Y-127547438D01*
X182160714Y-127547438D02*
X182255952Y-127499819D01*
X182255952Y-127499819D02*
X182494047Y-127499819D01*
X182494047Y-127499819D02*
X182589285Y-127547438D01*
X182589285Y-127547438D02*
X182636904Y-127595057D01*
X182636904Y-127595057D02*
X182684523Y-127690295D01*
X182684523Y-127690295D02*
X182684523Y-127785533D01*
X182684523Y-127785533D02*
X182636904Y-127928390D01*
X182636904Y-127928390D02*
X182065476Y-128499819D01*
X182065476Y-128499819D02*
X182684523Y-128499819D01*
X183589285Y-127499819D02*
X183113095Y-127499819D01*
X183113095Y-127499819D02*
X183065476Y-127976009D01*
X183065476Y-127976009D02*
X183113095Y-127928390D01*
X183113095Y-127928390D02*
X183208333Y-127880771D01*
X183208333Y-127880771D02*
X183446428Y-127880771D01*
X183446428Y-127880771D02*
X183541666Y-127928390D01*
X183541666Y-127928390D02*
X183589285Y-127976009D01*
X183589285Y-127976009D02*
X183636904Y-128071247D01*
X183636904Y-128071247D02*
X183636904Y-128309342D01*
X183636904Y-128309342D02*
X183589285Y-128404580D01*
X183589285Y-128404580D02*
X183541666Y-128452200D01*
X183541666Y-128452200D02*
X183446428Y-128499819D01*
X183446428Y-128499819D02*
X183208333Y-128499819D01*
X183208333Y-128499819D02*
X183113095Y-128452200D01*
X183113095Y-128452200D02*
X183065476Y-128404580D01*
X192041667Y-91832200D02*
X192184524Y-91879819D01*
X192184524Y-91879819D02*
X192422619Y-91879819D01*
X192422619Y-91879819D02*
X192517857Y-91832200D01*
X192517857Y-91832200D02*
X192565476Y-91784580D01*
X192565476Y-91784580D02*
X192613095Y-91689342D01*
X192613095Y-91689342D02*
X192613095Y-91594104D01*
X192613095Y-91594104D02*
X192565476Y-91498866D01*
X192565476Y-91498866D02*
X192517857Y-91451247D01*
X192517857Y-91451247D02*
X192422619Y-91403628D01*
X192422619Y-91403628D02*
X192232143Y-91356009D01*
X192232143Y-91356009D02*
X192136905Y-91308390D01*
X192136905Y-91308390D02*
X192089286Y-91260771D01*
X192089286Y-91260771D02*
X192041667Y-91165533D01*
X192041667Y-91165533D02*
X192041667Y-91070295D01*
X192041667Y-91070295D02*
X192089286Y-90975057D01*
X192089286Y-90975057D02*
X192136905Y-90927438D01*
X192136905Y-90927438D02*
X192232143Y-90879819D01*
X192232143Y-90879819D02*
X192470238Y-90879819D01*
X192470238Y-90879819D02*
X192613095Y-90927438D01*
X192946429Y-90879819D02*
X193184524Y-91879819D01*
X193184524Y-91879819D02*
X193375000Y-91165533D01*
X193375000Y-91165533D02*
X193565476Y-91879819D01*
X193565476Y-91879819D02*
X193803572Y-90879819D01*
X194136905Y-90975057D02*
X194184524Y-90927438D01*
X194184524Y-90927438D02*
X194279762Y-90879819D01*
X194279762Y-90879819D02*
X194517857Y-90879819D01*
X194517857Y-90879819D02*
X194613095Y-90927438D01*
X194613095Y-90927438D02*
X194660714Y-90975057D01*
X194660714Y-90975057D02*
X194708333Y-91070295D01*
X194708333Y-91070295D02*
X194708333Y-91165533D01*
X194708333Y-91165533D02*
X194660714Y-91308390D01*
X194660714Y-91308390D02*
X194089286Y-91879819D01*
X194089286Y-91879819D02*
X194708333Y-91879819D01*
X62352200Y-148658332D02*
X62399819Y-148515475D01*
X62399819Y-148515475D02*
X62399819Y-148277380D01*
X62399819Y-148277380D02*
X62352200Y-148182142D01*
X62352200Y-148182142D02*
X62304580Y-148134523D01*
X62304580Y-148134523D02*
X62209342Y-148086904D01*
X62209342Y-148086904D02*
X62114104Y-148086904D01*
X62114104Y-148086904D02*
X62018866Y-148134523D01*
X62018866Y-148134523D02*
X61971247Y-148182142D01*
X61971247Y-148182142D02*
X61923628Y-148277380D01*
X61923628Y-148277380D02*
X61876009Y-148467856D01*
X61876009Y-148467856D02*
X61828390Y-148563094D01*
X61828390Y-148563094D02*
X61780771Y-148610713D01*
X61780771Y-148610713D02*
X61685533Y-148658332D01*
X61685533Y-148658332D02*
X61590295Y-148658332D01*
X61590295Y-148658332D02*
X61495057Y-148610713D01*
X61495057Y-148610713D02*
X61447438Y-148563094D01*
X61447438Y-148563094D02*
X61399819Y-148467856D01*
X61399819Y-148467856D02*
X61399819Y-148229761D01*
X61399819Y-148229761D02*
X61447438Y-148086904D01*
X61399819Y-147753570D02*
X62399819Y-147515475D01*
X62399819Y-147515475D02*
X61685533Y-147324999D01*
X61685533Y-147324999D02*
X62399819Y-147134523D01*
X62399819Y-147134523D02*
X61399819Y-146896428D01*
X62399819Y-146515475D02*
X61399819Y-146515475D01*
X61399819Y-146515475D02*
X61399819Y-146277380D01*
X61399819Y-146277380D02*
X61447438Y-146134523D01*
X61447438Y-146134523D02*
X61542676Y-146039285D01*
X61542676Y-146039285D02*
X61637914Y-145991666D01*
X61637914Y-145991666D02*
X61828390Y-145944047D01*
X61828390Y-145944047D02*
X61971247Y-145944047D01*
X61971247Y-145944047D02*
X62161723Y-145991666D01*
X62161723Y-145991666D02*
X62256961Y-146039285D01*
X62256961Y-146039285D02*
X62352200Y-146134523D01*
X62352200Y-146134523D02*
X62399819Y-146277380D01*
X62399819Y-146277380D02*
X62399819Y-146515475D01*
X62399819Y-144991666D02*
X62399819Y-145563094D01*
X62399819Y-145277380D02*
X61399819Y-145277380D01*
X61399819Y-145277380D02*
X61542676Y-145372618D01*
X61542676Y-145372618D02*
X61637914Y-145467856D01*
X61637914Y-145467856D02*
X61685533Y-145563094D01*
%TO.C,D19*%
D12*
X77090000Y-140740000D02*
X77090000Y-143010000D01*
X77090000Y-143010000D02*
X80975000Y-143010000D01*
X80975000Y-140740000D02*
X77090000Y-140740000D01*
%TO.C,D5*%
X107090000Y-116740000D02*
X107090000Y-119010000D01*
X107090000Y-119010000D02*
X110975000Y-119010000D01*
X110975000Y-116740000D02*
X107090000Y-116740000D01*
%TO.C,D21*%
X107090000Y-140740000D02*
X107090000Y-143010000D01*
X107090000Y-143010000D02*
X110975000Y-143010000D01*
X110975000Y-140740000D02*
X107090000Y-140740000D01*
%TO.C,SWD6*%
X137945000Y-148205000D02*
X137945000Y-146825000D01*
X139325000Y-148205000D02*
X137945000Y-148205000D01*
X140595000Y-145445000D02*
X145785000Y-145445000D01*
X140595000Y-148205000D02*
X140595000Y-145445000D01*
X140595000Y-148205000D02*
X145785000Y-148205000D01*
X145785000Y-148205000D02*
X145785000Y-145445000D01*
%TO.C,SWC1*%
X195945000Y-145445000D02*
X197325000Y-145445000D01*
X195945000Y-146825000D02*
X195945000Y-145445000D01*
X195945000Y-148095000D02*
X195945000Y-153285000D01*
X195945000Y-148095000D02*
X198595000Y-148095000D01*
X195945000Y-153285000D02*
X201245000Y-153285000D01*
X198595000Y-145445000D02*
X201245000Y-145445000D01*
X198595000Y-148095000D02*
X198595000Y-145445000D01*
X201245000Y-145445000D02*
X201245000Y-153285000D01*
%TO.C,SWC0*%
X180945000Y-145445000D02*
X182325000Y-145445000D01*
X180945000Y-146825000D02*
X180945000Y-145445000D01*
X180945000Y-148095000D02*
X180945000Y-153285000D01*
X180945000Y-148095000D02*
X183595000Y-148095000D01*
X180945000Y-153285000D02*
X186245000Y-153285000D01*
X183595000Y-145445000D02*
X186245000Y-145445000D01*
X183595000Y-148095000D02*
X183595000Y-145445000D01*
X186245000Y-145445000D02*
X186245000Y-153285000D01*
%TO.C,J2*%
X150675000Y-60875000D02*
X150675000Y-58975000D01*
X150675000Y-64775000D02*
X150675000Y-62775000D01*
X160075000Y-58975000D02*
X150675000Y-58975000D01*
X160075000Y-60875000D02*
X160075000Y-58975000D01*
X160075000Y-64775000D02*
X160075000Y-62775000D01*
%TO.C,SWC2*%
X210945000Y-145445000D02*
X212325000Y-145445000D01*
X210945000Y-146825000D02*
X210945000Y-145445000D01*
X210945000Y-148095000D02*
X210945000Y-153285000D01*
X210945000Y-148095000D02*
X213595000Y-148095000D01*
X210945000Y-153285000D02*
X216245000Y-153285000D01*
X213595000Y-145445000D02*
X216245000Y-145445000D01*
X213595000Y-148095000D02*
X213595000Y-145445000D01*
X216245000Y-145445000D02*
X216245000Y-153285000D01*
%TO.C,U6*%
X195065000Y-103140000D02*
X199685000Y-103140000D01*
X199685000Y-108610000D02*
X195065000Y-108610000D01*
X193515000Y-103595000D02*
X193185000Y-103835000D01*
X193185000Y-103355000D01*
X193515000Y-103595000D01*
G36*
X193515000Y-103595000D02*
G01*
X193185000Y-103835000D01*
X193185000Y-103355000D01*
X193515000Y-103595000D01*
G37*
%TO.C,D24*%
X152090000Y-140740000D02*
X152090000Y-143010000D01*
X152090000Y-143010000D02*
X155975000Y-143010000D01*
X155975000Y-140740000D02*
X152090000Y-140740000D01*
%TO.C,D26*%
X195090000Y-128740000D02*
X195090000Y-131010000D01*
X195090000Y-131010000D02*
X198975000Y-131010000D01*
X198975000Y-128740000D02*
X195090000Y-128740000D01*
%TO.C,U7*%
X213380000Y-75760000D02*
X213380000Y-61750000D01*
X214860000Y-59690000D02*
X214600000Y-59690000D01*
X215060000Y-59490000D02*
X214860000Y-59690000D01*
X215060000Y-59490000D02*
X217370000Y-59490000D01*
X215300000Y-75760000D02*
X213380000Y-75760000D01*
X217370000Y-59490000D02*
X217880000Y-59840000D01*
X224250000Y-59840000D02*
X217880000Y-59840000D01*
X224250000Y-59840000D02*
X224250000Y-59690000D01*
X224460000Y-59490000D02*
X224250000Y-59690000D01*
X226320000Y-59490000D02*
X224460000Y-59490000D01*
X226320000Y-59490000D02*
X226520000Y-59690000D01*
X226900000Y-75760000D02*
X227350000Y-75760000D01*
X227350000Y-64450000D02*
X227350000Y-62650000D01*
X227350000Y-70450000D02*
X227350000Y-65750000D01*
X227350000Y-75760000D02*
X227350000Y-72150000D01*
%TO.C,SWD2*%
X77945000Y-148205000D02*
X77945000Y-146825000D01*
X79325000Y-148205000D02*
X77945000Y-148205000D01*
X80595000Y-145445000D02*
X85785000Y-145445000D01*
X80595000Y-148205000D02*
X80595000Y-145445000D01*
X80595000Y-148205000D02*
X85785000Y-148205000D01*
X85785000Y-148205000D02*
X85785000Y-145445000D01*
%TO.C,D17*%
X47090000Y-140740000D02*
X47090000Y-143010000D01*
X47090000Y-143010000D02*
X50975000Y-143010000D01*
X50975000Y-140740000D02*
X47090000Y-140740000D01*
%TO.C,D11*%
X77090000Y-128740000D02*
X77090000Y-131010000D01*
X77090000Y-131010000D02*
X80975000Y-131010000D01*
X80975000Y-128740000D02*
X77090000Y-128740000D01*
%TO.C,U9*%
X173525000Y-74465000D02*
X177285000Y-74465000D01*
X173525000Y-81285000D02*
X177285000Y-81285000D01*
X177285000Y-74465000D02*
X177285000Y-75725000D01*
X177285000Y-81285000D02*
X177285000Y-80025000D01*
X172245000Y-74565000D02*
X172005000Y-74235000D01*
X172485000Y-74235000D01*
X172245000Y-74565000D01*
G36*
X172245000Y-74565000D02*
G01*
X172005000Y-74235000D01*
X172485000Y-74235000D01*
X172245000Y-74565000D01*
G37*
%TO.C,D12*%
X92090000Y-128740000D02*
X92090000Y-131010000D01*
X92090000Y-131010000D02*
X95975000Y-131010000D01*
X95975000Y-128740000D02*
X92090000Y-128740000D01*
%TO.C,D23*%
X137090000Y-140740000D02*
X137090000Y-143010000D01*
X137090000Y-143010000D02*
X140975000Y-143010000D01*
X140975000Y-140740000D02*
X137090000Y-140740000D01*
%TO.C,U8*%
X111525000Y-74465000D02*
X115285000Y-74465000D01*
X111525000Y-81285000D02*
X115285000Y-81285000D01*
X115285000Y-74465000D02*
X115285000Y-75725000D01*
X115285000Y-81285000D02*
X115285000Y-80025000D01*
X110245000Y-74565000D02*
X110005000Y-74235000D01*
X110485000Y-74235000D01*
X110245000Y-74565000D01*
G36*
X110245000Y-74565000D02*
G01*
X110005000Y-74235000D01*
X110485000Y-74235000D01*
X110245000Y-74565000D01*
G37*
%TO.C,U1*%
X133765000Y-94265000D02*
X134415000Y-94265000D01*
X133765000Y-94915000D02*
X133765000Y-94265000D01*
X133765000Y-101485000D02*
X133765000Y-100835000D01*
X134415000Y-101485000D02*
X133765000Y-101485000D01*
X140335000Y-94265000D02*
X140985000Y-94265000D01*
X140985000Y-94265000D02*
X140985000Y-94915000D01*
X140985000Y-100835000D02*
X140985000Y-101485000D01*
X140985000Y-101485000D02*
X140335000Y-101485000D01*
X133235000Y-95275000D02*
X132905000Y-95515000D01*
X132905000Y-95035000D01*
X133235000Y-95275000D01*
G36*
X133235000Y-95275000D02*
G01*
X132905000Y-95515000D01*
X132905000Y-95035000D01*
X133235000Y-95275000D01*
G37*
%TO.C,D20*%
X92090000Y-140740000D02*
X92090000Y-143010000D01*
X92090000Y-143010000D02*
X95975000Y-143010000D01*
X95975000Y-140740000D02*
X92090000Y-140740000D01*
%TO.C,D1*%
X47090000Y-116740000D02*
X47090000Y-119010000D01*
X47090000Y-119010000D02*
X50975000Y-119010000D01*
X50975000Y-116740000D02*
X47090000Y-116740000D01*
%TO.C,U3*%
X98215000Y-105265000D02*
X104535000Y-105265000D01*
X98215000Y-105540000D02*
X98215000Y-105265000D01*
X98215000Y-116485000D02*
X98215000Y-116210000D01*
X104535000Y-105265000D02*
X104535000Y-105540000D01*
X104535000Y-116210000D02*
X104535000Y-116485000D01*
X104535000Y-116485000D02*
X98215000Y-116485000D01*
X97575000Y-105535000D02*
X97235000Y-105065000D01*
X97915000Y-105065000D01*
X97575000Y-105535000D01*
G36*
X97575000Y-105535000D02*
G01*
X97235000Y-105065000D01*
X97915000Y-105065000D01*
X97575000Y-105535000D01*
G37*
%TO.C,D27*%
X210090000Y-128740000D02*
X210090000Y-131010000D01*
X210090000Y-131010000D02*
X213975000Y-131010000D01*
X213975000Y-128740000D02*
X210090000Y-128740000D01*
%TO.C,D10*%
X62090000Y-128740000D02*
X62090000Y-131010000D01*
X62090000Y-131010000D02*
X65975000Y-131010000D01*
X65975000Y-128740000D02*
X62090000Y-128740000D01*
%TO.C,D6*%
X122090000Y-116740000D02*
X122090000Y-119010000D01*
X122090000Y-119010000D02*
X125975000Y-119010000D01*
X125975000Y-116740000D02*
X122090000Y-116740000D01*
%TO.C,D4*%
X92090000Y-116740000D02*
X92090000Y-119010000D01*
X92090000Y-119010000D02*
X95975000Y-119010000D01*
X95975000Y-116740000D02*
X92090000Y-116740000D01*
%TO.C,D2*%
X62090000Y-116740000D02*
X62090000Y-119010000D01*
X62090000Y-119010000D02*
X65975000Y-119010000D01*
X65975000Y-116740000D02*
X62090000Y-116740000D01*
%TO.C,D8*%
X152090000Y-116740000D02*
X152090000Y-119010000D01*
X152090000Y-119010000D02*
X155975000Y-119010000D01*
X155975000Y-116740000D02*
X152090000Y-116740000D01*
%TO.C,SWC3*%
X225945000Y-145445000D02*
X227325000Y-145445000D01*
X225945000Y-146825000D02*
X225945000Y-145445000D01*
X225945000Y-148095000D02*
X225945000Y-153285000D01*
X225945000Y-148095000D02*
X228595000Y-148095000D01*
X225945000Y-153285000D02*
X231245000Y-153285000D01*
X228595000Y-145445000D02*
X231245000Y-145445000D01*
X228595000Y-148095000D02*
X228595000Y-145445000D01*
X231245000Y-145445000D02*
X231245000Y-153285000D01*
%TO.C,D3*%
X77090000Y-116740000D02*
X77090000Y-119010000D01*
X77090000Y-119010000D02*
X80975000Y-119010000D01*
X80975000Y-116740000D02*
X77090000Y-116740000D01*
%TO.C,J5*%
X201995000Y-97495000D02*
X203375000Y-97495000D01*
X201995000Y-98875000D02*
X201995000Y-97495000D01*
X201995000Y-100145000D02*
X201995000Y-105335000D01*
X201995000Y-100145000D02*
X204755000Y-100145000D01*
X201995000Y-105335000D02*
X204755000Y-105335000D01*
X204755000Y-100145000D02*
X204755000Y-105335000D01*
%TO.C,D28*%
X225090000Y-128740000D02*
X225090000Y-131010000D01*
X225090000Y-131010000D02*
X228975000Y-131010000D01*
X228975000Y-128740000D02*
X225090000Y-128740000D01*
%TO.C,D9*%
X47090000Y-128740000D02*
X47090000Y-131010000D01*
X47090000Y-131010000D02*
X50975000Y-131010000D01*
X50975000Y-128740000D02*
X47090000Y-128740000D01*
%TO.C,U4*%
X208215000Y-105265000D02*
X214535000Y-105265000D01*
X208215000Y-105540000D02*
X208215000Y-105265000D01*
X208215000Y-116485000D02*
X208215000Y-116210000D01*
X214535000Y-105265000D02*
X214535000Y-105540000D01*
X214535000Y-116210000D02*
X214535000Y-116485000D01*
X214535000Y-116485000D02*
X208215000Y-116485000D01*
X207575000Y-105535000D02*
X207235000Y-105065000D01*
X207915000Y-105065000D01*
X207575000Y-105535000D01*
G36*
X207575000Y-105535000D02*
G01*
X207235000Y-105065000D01*
X207915000Y-105065000D01*
X207575000Y-105535000D01*
G37*
%TO.C,D7*%
X137090000Y-116740000D02*
X137090000Y-119010000D01*
X137090000Y-119010000D02*
X140975000Y-119010000D01*
X140975000Y-116740000D02*
X137090000Y-116740000D01*
%TO.C,D13*%
X107090000Y-128740000D02*
X107090000Y-131010000D01*
X107090000Y-131010000D02*
X110975000Y-131010000D01*
X110975000Y-128740000D02*
X107090000Y-128740000D01*
%TO.C,SWD3*%
X92945000Y-148205000D02*
X92945000Y-146825000D01*
X94325000Y-148205000D02*
X92945000Y-148205000D01*
X95595000Y-145445000D02*
X100785000Y-145445000D01*
X95595000Y-148205000D02*
X95595000Y-145445000D01*
X95595000Y-148205000D02*
X100785000Y-148205000D01*
X100785000Y-148205000D02*
X100785000Y-145445000D01*
%TO.C,D14*%
X122090000Y-128740000D02*
X122090000Y-131010000D01*
X122090000Y-131010000D02*
X125975000Y-131010000D01*
X125975000Y-128740000D02*
X122090000Y-128740000D01*
%TO.C,SW1*%
X183175000Y-93925000D02*
X183175000Y-93825000D01*
X183175000Y-95425000D02*
X187575000Y-95425000D01*
X187575000Y-92325000D02*
X183175000Y-92325000D01*
X187575000Y-93925000D02*
X187575000Y-93825000D01*
%TO.C,J1*%
X90675000Y-60875000D02*
X90675000Y-58975000D01*
X90675000Y-64775000D02*
X90675000Y-62775000D01*
X100075000Y-58975000D02*
X90675000Y-58975000D01*
X100075000Y-60875000D02*
X100075000Y-58975000D01*
X100075000Y-64775000D02*
X100075000Y-62775000D01*
%TO.C,D15*%
X137090000Y-128740000D02*
X137090000Y-131010000D01*
X137090000Y-131010000D02*
X140975000Y-131010000D01*
X140975000Y-128740000D02*
X137090000Y-128740000D01*
%TO.C,D18*%
X62090000Y-140740000D02*
X62090000Y-143010000D01*
X62090000Y-143010000D02*
X65975000Y-143010000D01*
X65975000Y-140740000D02*
X62090000Y-140740000D01*
%TO.C,D16*%
X152090000Y-128740000D02*
X152090000Y-131010000D01*
X152090000Y-131010000D02*
X155975000Y-131010000D01*
X155975000Y-128740000D02*
X152090000Y-128740000D01*
%TO.C,SWD0*%
X47945000Y-148205000D02*
X47945000Y-146825000D01*
X49325000Y-148205000D02*
X47945000Y-148205000D01*
X50595000Y-145445000D02*
X55785000Y-145445000D01*
X50595000Y-148205000D02*
X50595000Y-145445000D01*
X50595000Y-148205000D02*
X55785000Y-148205000D01*
X55785000Y-148205000D02*
X55785000Y-145445000D01*
%TO.C,SWD5*%
X122945000Y-148205000D02*
X122945000Y-146825000D01*
X124325000Y-148205000D02*
X122945000Y-148205000D01*
X125595000Y-145445000D02*
X130785000Y-145445000D01*
X125595000Y-148205000D02*
X125595000Y-145445000D01*
X125595000Y-148205000D02*
X130785000Y-148205000D01*
X130785000Y-148205000D02*
X130785000Y-145445000D01*
%TO.C,U5*%
X75065000Y-103140000D02*
X79685000Y-103140000D01*
X79685000Y-108610000D02*
X75065000Y-108610000D01*
X73515000Y-103595000D02*
X73185000Y-103835000D01*
X73185000Y-103355000D01*
X73515000Y-103595000D01*
G36*
X73515000Y-103595000D02*
G01*
X73185000Y-103835000D01*
X73185000Y-103355000D01*
X73515000Y-103595000D01*
G37*
%TO.C,U2*%
X150315000Y-95315000D02*
X154435000Y-95315000D01*
X150315000Y-95410000D02*
X150315000Y-95315000D01*
X150315000Y-100435000D02*
X150315000Y-100340000D01*
X154435000Y-95315000D02*
X154435000Y-95410000D01*
X154435000Y-100340000D02*
X154435000Y-100435000D01*
X154435000Y-100435000D02*
X150315000Y-100435000D01*
X149775000Y-95405000D02*
X149535000Y-95075000D01*
X150015000Y-95075000D01*
X149775000Y-95405000D01*
G36*
X149775000Y-95405000D02*
G01*
X149535000Y-95075000D01*
X150015000Y-95075000D01*
X149775000Y-95405000D01*
G37*
%TO.C,SWD7*%
X152945000Y-148205000D02*
X152945000Y-146825000D01*
X154325000Y-148205000D02*
X152945000Y-148205000D01*
X155595000Y-145445000D02*
X160785000Y-145445000D01*
X155595000Y-148205000D02*
X155595000Y-145445000D01*
X155595000Y-148205000D02*
X160785000Y-148205000D01*
X160785000Y-148205000D02*
X160785000Y-145445000D01*
%TO.C,D22*%
X122090000Y-140740000D02*
X122090000Y-143010000D01*
X122090000Y-143010000D02*
X125975000Y-143010000D01*
X125975000Y-140740000D02*
X122090000Y-140740000D01*
%TO.C,Y1*%
X119315000Y-96165000D02*
X119315000Y-99585000D01*
X119315000Y-99585000D02*
X123435000Y-99585000D01*
%TO.C,SWD4*%
X107945000Y-148205000D02*
X107945000Y-146825000D01*
X109325000Y-148205000D02*
X107945000Y-148205000D01*
X110595000Y-145445000D02*
X115785000Y-145445000D01*
X110595000Y-148205000D02*
X110595000Y-145445000D01*
X110595000Y-148205000D02*
X115785000Y-148205000D01*
X115785000Y-148205000D02*
X115785000Y-145445000D01*
%TO.C,D25*%
X180090000Y-128740000D02*
X180090000Y-131010000D01*
X180090000Y-131010000D02*
X183975000Y-131010000D01*
X183975000Y-128740000D02*
X180090000Y-128740000D01*
%TO.C,SW2*%
X191175000Y-93925000D02*
X191175000Y-93825000D01*
X191175000Y-95425000D02*
X195575000Y-95425000D01*
X195575000Y-92325000D02*
X191175000Y-92325000D01*
X195575000Y-93925000D02*
X195575000Y-93825000D01*
%TO.C,SWD1*%
X62945000Y-148205000D02*
X62945000Y-146825000D01*
X64325000Y-148205000D02*
X62945000Y-148205000D01*
X65595000Y-145445000D02*
X70785000Y-145445000D01*
X65595000Y-148205000D02*
X65595000Y-145445000D01*
X65595000Y-148205000D02*
X70785000Y-148205000D01*
X70785000Y-148205000D02*
X70785000Y-145445000D01*
%TD*%
%LPC*%
D13*
%TO.C,D19*%
X77975000Y-141875000D03*
X80775000Y-141875000D03*
%TD*%
%TO.C,D5*%
X107975000Y-117875000D03*
X110775000Y-117875000D03*
%TD*%
%TO.C,D21*%
X107975000Y-141875000D03*
X110775000Y-141875000D03*
%TD*%
D14*
%TO.C,SWD6*%
X139325000Y-146825000D03*
D15*
X141865000Y-146825000D03*
X144405000Y-146825000D03*
%TD*%
D14*
%TO.C,SWC1*%
X197325000Y-146825000D03*
D15*
X199865000Y-146825000D03*
X197325000Y-149365000D03*
X199865000Y-149365000D03*
X197325000Y-151905000D03*
X199865000Y-151905000D03*
%TD*%
D14*
%TO.C,SWC0*%
X182325000Y-146825000D03*
D15*
X184865000Y-146825000D03*
X182325000Y-149365000D03*
X184865000Y-149365000D03*
X182325000Y-151905000D03*
X184865000Y-151905000D03*
%TD*%
D16*
%TO.C,J2*%
X158265000Y-65475000D03*
X152485000Y-65475000D03*
D17*
X158625000Y-66920000D03*
X157825000Y-66920000D03*
D18*
X156625000Y-66920000D03*
X155625000Y-66920000D03*
X155125000Y-66920000D03*
X154125000Y-66920000D03*
D17*
X152925000Y-66920000D03*
X152125000Y-66920000D03*
X152125000Y-66920000D03*
X152925000Y-66920000D03*
D18*
X153625000Y-66920000D03*
X154625000Y-66920000D03*
X156125000Y-66920000D03*
X157125000Y-66920000D03*
D17*
X157825000Y-66920000D03*
X158625000Y-66920000D03*
D19*
X159695000Y-66005000D03*
D20*
X159695000Y-61825000D03*
D19*
X151055000Y-66005000D03*
D20*
X151055000Y-61825000D03*
%TD*%
D14*
%TO.C,SWC2*%
X212325000Y-146825000D03*
D15*
X214865000Y-146825000D03*
X212325000Y-149365000D03*
X214865000Y-149365000D03*
X212325000Y-151905000D03*
X214865000Y-151905000D03*
%TD*%
D21*
%TO.C,U6*%
X194512500Y-103600000D03*
X194512500Y-104250000D03*
X194512500Y-104900000D03*
X194512500Y-105550000D03*
X194512500Y-106200000D03*
X194512500Y-106850000D03*
X194512500Y-107500000D03*
X194512500Y-108150000D03*
X200237500Y-108150000D03*
X200237500Y-107500000D03*
X200237500Y-106850000D03*
X200237500Y-106200000D03*
X200237500Y-105550000D03*
X200237500Y-104900000D03*
X200237500Y-104250000D03*
X200237500Y-103600000D03*
%TD*%
D22*
%TO.C,H5*%
X166375000Y-140875000D03*
%TD*%
D13*
%TO.C,D24*%
X152975000Y-141875000D03*
X155775000Y-141875000D03*
%TD*%
%TO.C,D26*%
X195975000Y-129875000D03*
X198775000Y-129875000D03*
%TD*%
D23*
%TO.C,U7*%
X217600000Y-75600000D03*
X218700000Y-75600000D03*
X219800000Y-75600000D03*
X220900000Y-75600000D03*
X222000000Y-75600000D03*
X223100000Y-75600000D03*
X224200000Y-75600000D03*
X225300000Y-75600000D03*
X226250000Y-75600000D03*
D24*
X227200000Y-65100000D03*
D25*
X227200000Y-71300000D03*
D26*
X227200000Y-60950000D03*
D25*
X216050000Y-75600000D03*
D27*
X213700000Y-60500000D03*
%TD*%
D14*
%TO.C,SWD2*%
X79325000Y-146825000D03*
D15*
X81865000Y-146825000D03*
X84405000Y-146825000D03*
%TD*%
D13*
%TO.C,D17*%
X47975000Y-141875000D03*
X50775000Y-141875000D03*
%TD*%
%TO.C,D11*%
X77975000Y-129875000D03*
X80775000Y-129875000D03*
%TD*%
D28*
%TO.C,U9*%
X172225000Y-75575000D03*
X172225000Y-77875000D03*
D29*
X178525000Y-77875000D03*
D28*
X172225000Y-80175000D03*
%TD*%
D13*
%TO.C,D12*%
X92975000Y-129875000D03*
X95775000Y-129875000D03*
%TD*%
%TO.C,D23*%
X137975000Y-141875000D03*
X140775000Y-141875000D03*
%TD*%
D28*
%TO.C,U8*%
X110225000Y-75575000D03*
X110225000Y-77875000D03*
D29*
X116525000Y-77875000D03*
D28*
X110225000Y-80175000D03*
%TD*%
D30*
%TO.C,U1*%
X133937500Y-95275000D03*
X133937500Y-95675000D03*
X133937500Y-96075000D03*
X133937500Y-96475000D03*
X133937500Y-96875000D03*
X133937500Y-97275000D03*
X133937500Y-97675000D03*
X133937500Y-98075000D03*
X133937500Y-98475000D03*
X133937500Y-98875000D03*
X133937500Y-99275000D03*
X133937500Y-99675000D03*
X133937500Y-100075000D03*
X133937500Y-100475000D03*
D31*
X134775000Y-101312500D03*
X135175000Y-101312500D03*
X135575000Y-101312500D03*
X135975000Y-101312500D03*
X136375000Y-101312500D03*
X136775000Y-101312500D03*
X137175000Y-101312500D03*
X137575000Y-101312500D03*
X137975000Y-101312500D03*
X138375000Y-101312500D03*
X138775000Y-101312500D03*
X139175000Y-101312500D03*
X139575000Y-101312500D03*
X139975000Y-101312500D03*
D30*
X140812500Y-100475000D03*
X140812500Y-100075000D03*
X140812500Y-99675000D03*
X140812500Y-99275000D03*
X140812500Y-98875000D03*
X140812500Y-98475000D03*
X140812500Y-98075000D03*
X140812500Y-97675000D03*
X140812500Y-97275000D03*
X140812500Y-96875000D03*
X140812500Y-96475000D03*
X140812500Y-96075000D03*
X140812500Y-95675000D03*
X140812500Y-95275000D03*
D31*
X139975000Y-94437500D03*
X139575000Y-94437500D03*
X139175000Y-94437500D03*
X138775000Y-94437500D03*
X138375000Y-94437500D03*
X137975000Y-94437500D03*
X137575000Y-94437500D03*
X137175000Y-94437500D03*
X136775000Y-94437500D03*
X136375000Y-94437500D03*
X135975000Y-94437500D03*
X135575000Y-94437500D03*
X135175000Y-94437500D03*
X134775000Y-94437500D03*
D32*
X137375000Y-97875000D03*
%TD*%
D13*
%TO.C,D20*%
X92975000Y-141875000D03*
X95775000Y-141875000D03*
%TD*%
%TO.C,D1*%
X47975000Y-117875000D03*
X50775000Y-117875000D03*
%TD*%
D33*
%TO.C,U3*%
X97662500Y-106000000D03*
X97662500Y-106650000D03*
X97662500Y-107300000D03*
X97662500Y-107950000D03*
X97662500Y-108600000D03*
X97662500Y-109250000D03*
X97662500Y-109900000D03*
X97662500Y-110550000D03*
X97662500Y-111200000D03*
X97662500Y-111850000D03*
X97662500Y-112500000D03*
X97662500Y-113150000D03*
X97662500Y-113800000D03*
X97662500Y-114450000D03*
X97662500Y-115100000D03*
X97662500Y-115750000D03*
X105087500Y-115750000D03*
X105087500Y-115100000D03*
X105087500Y-114450000D03*
X105087500Y-113800000D03*
X105087500Y-113150000D03*
X105087500Y-112500000D03*
X105087500Y-111850000D03*
X105087500Y-111200000D03*
X105087500Y-110550000D03*
X105087500Y-109900000D03*
X105087500Y-109250000D03*
X105087500Y-108600000D03*
X105087500Y-107950000D03*
X105087500Y-107300000D03*
X105087500Y-106650000D03*
X105087500Y-106000000D03*
%TD*%
D22*
%TO.C,H4*%
X43375000Y-140875000D03*
%TD*%
D13*
%TO.C,D27*%
X210975000Y-129875000D03*
X213775000Y-129875000D03*
%TD*%
%TO.C,D10*%
X62975000Y-129875000D03*
X65775000Y-129875000D03*
%TD*%
D22*
%TO.C,H3*%
X231375000Y-61875000D03*
%TD*%
D13*
%TO.C,D6*%
X122975000Y-117875000D03*
X125775000Y-117875000D03*
%TD*%
D22*
%TO.C,H6*%
X231375000Y-140875000D03*
%TD*%
D13*
%TO.C,D4*%
X92975000Y-117875000D03*
X95775000Y-117875000D03*
%TD*%
%TO.C,D2*%
X62975000Y-117875000D03*
X65775000Y-117875000D03*
%TD*%
D22*
%TO.C,H2*%
X166375000Y-61875000D03*
%TD*%
D13*
%TO.C,D8*%
X152975000Y-117875000D03*
X155775000Y-117875000D03*
%TD*%
D14*
%TO.C,SWC3*%
X227325000Y-146825000D03*
D15*
X229865000Y-146825000D03*
X227325000Y-149365000D03*
X229865000Y-149365000D03*
X227325000Y-151905000D03*
X229865000Y-151905000D03*
%TD*%
D13*
%TO.C,D3*%
X77975000Y-117875000D03*
X80775000Y-117875000D03*
%TD*%
D14*
%TO.C,J5*%
X203375000Y-98875000D03*
D15*
X203375000Y-101415000D03*
X203375000Y-103955000D03*
%TD*%
D13*
%TO.C,D28*%
X225975000Y-129875000D03*
X228775000Y-129875000D03*
%TD*%
%TO.C,D9*%
X47975000Y-129875000D03*
X50775000Y-129875000D03*
%TD*%
D33*
%TO.C,U4*%
X207662500Y-106000000D03*
X207662500Y-106650000D03*
X207662500Y-107300000D03*
X207662500Y-107950000D03*
X207662500Y-108600000D03*
X207662500Y-109250000D03*
X207662500Y-109900000D03*
X207662500Y-110550000D03*
X207662500Y-111200000D03*
X207662500Y-111850000D03*
X207662500Y-112500000D03*
X207662500Y-113150000D03*
X207662500Y-113800000D03*
X207662500Y-114450000D03*
X207662500Y-115100000D03*
X207662500Y-115750000D03*
X215087500Y-115750000D03*
X215087500Y-115100000D03*
X215087500Y-114450000D03*
X215087500Y-113800000D03*
X215087500Y-113150000D03*
X215087500Y-112500000D03*
X215087500Y-111850000D03*
X215087500Y-111200000D03*
X215087500Y-110550000D03*
X215087500Y-109900000D03*
X215087500Y-109250000D03*
X215087500Y-108600000D03*
X215087500Y-107950000D03*
X215087500Y-107300000D03*
X215087500Y-106650000D03*
X215087500Y-106000000D03*
%TD*%
D13*
%TO.C,D7*%
X137975000Y-117875000D03*
X140775000Y-117875000D03*
%TD*%
%TO.C,D13*%
X107975000Y-129875000D03*
X110775000Y-129875000D03*
%TD*%
D14*
%TO.C,SWD3*%
X94325000Y-146825000D03*
D15*
X96865000Y-146825000D03*
X99405000Y-146825000D03*
%TD*%
D13*
%TO.C,D14*%
X122975000Y-129875000D03*
X125775000Y-129875000D03*
%TD*%
D34*
%TO.C,SW1*%
X183325000Y-93075000D03*
X187425000Y-93075000D03*
X183325000Y-94675000D03*
X187425000Y-94675000D03*
%TD*%
D16*
%TO.C,J1*%
X98265000Y-65475000D03*
X92485000Y-65475000D03*
D17*
X98625000Y-66920000D03*
X97825000Y-66920000D03*
D18*
X96625000Y-66920000D03*
X95625000Y-66920000D03*
X95125000Y-66920000D03*
X94125000Y-66920000D03*
D17*
X92925000Y-66920000D03*
X92125000Y-66920000D03*
X92125000Y-66920000D03*
X92925000Y-66920000D03*
D18*
X93625000Y-66920000D03*
X94625000Y-66920000D03*
X96125000Y-66920000D03*
X97125000Y-66920000D03*
D17*
X97825000Y-66920000D03*
X98625000Y-66920000D03*
D19*
X99695000Y-66005000D03*
D20*
X99695000Y-61825000D03*
D19*
X91055000Y-66005000D03*
D20*
X91055000Y-61825000D03*
%TD*%
D13*
%TO.C,D15*%
X137975000Y-129875000D03*
X140775000Y-129875000D03*
%TD*%
%TO.C,D18*%
X62975000Y-141875000D03*
X65775000Y-141875000D03*
%TD*%
%TO.C,D16*%
X152975000Y-129875000D03*
X155775000Y-129875000D03*
%TD*%
D14*
%TO.C,SWD0*%
X49325000Y-146825000D03*
D15*
X51865000Y-146825000D03*
X54405000Y-146825000D03*
%TD*%
D14*
%TO.C,SWD5*%
X124325000Y-146825000D03*
D15*
X126865000Y-146825000D03*
X129405000Y-146825000D03*
%TD*%
D21*
%TO.C,U5*%
X74512500Y-103600000D03*
X74512500Y-104250000D03*
X74512500Y-104900000D03*
X74512500Y-105550000D03*
X74512500Y-106200000D03*
X74512500Y-106850000D03*
X74512500Y-107500000D03*
X74512500Y-108150000D03*
X80237500Y-108150000D03*
X80237500Y-107500000D03*
X80237500Y-106850000D03*
X80237500Y-106200000D03*
X80237500Y-105550000D03*
X80237500Y-104900000D03*
X80237500Y-104250000D03*
X80237500Y-103600000D03*
%TD*%
D22*
%TO.C,H1*%
X43375000Y-61875000D03*
%TD*%
D35*
%TO.C,U2*%
X149900000Y-95970000D03*
X149900000Y-97240000D03*
X149900000Y-98510000D03*
X149900000Y-99780000D03*
X154850000Y-99780000D03*
X154850000Y-98510000D03*
X154850000Y-97240000D03*
X154850000Y-95970000D03*
%TD*%
D14*
%TO.C,SWD7*%
X154325000Y-146825000D03*
D15*
X156865000Y-146825000D03*
X159405000Y-146825000D03*
%TD*%
D13*
%TO.C,D22*%
X122975000Y-141875000D03*
X125775000Y-141875000D03*
%TD*%
D36*
%TO.C,Y1*%
X120275000Y-98725000D03*
X122475000Y-98725000D03*
X122475000Y-97025000D03*
X120275000Y-97025000D03*
%TD*%
D14*
%TO.C,SWD4*%
X109325000Y-146825000D03*
D15*
X111865000Y-146825000D03*
X114405000Y-146825000D03*
%TD*%
D13*
%TO.C,D25*%
X180975000Y-129875000D03*
X183775000Y-129875000D03*
%TD*%
D34*
%TO.C,SW2*%
X191325000Y-93075000D03*
X195425000Y-93075000D03*
X191325000Y-94675000D03*
X195425000Y-94675000D03*
%TD*%
D14*
%TO.C,SWD1*%
X64325000Y-146825000D03*
D15*
X66865000Y-146825000D03*
X69405000Y-146825000D03*
%TD*%
%LPD*%
M02*
