%TF.GenerationSoftware,KiCad,Pcbnew,10.0.4-10.0.4~ubuntu24.04.1*%
%TF.CreationDate,2026-07-14T21:19:46-07:00*%
%TF.ProjectId,imspi8080_rev3,696d7370-6938-4303-9830-5f726576332e,rev?*%
%TF.SameCoordinates,Original*%
%TF.FileFunction,Paste,Top*%
%TF.FilePolarity,Positive*%
%FSLAX46Y46*%
G04 Gerber Fmt 4.6, Leading zero omitted, Abs format (unit mm)*
G04 Created by KiCad (PCBNEW 10.0.4-10.0.4~ubuntu24.04.1) date 2026-07-14 21:19:46*
%MOMM*%
%LPD*%
G01*
G04 APERTURE LIST*
G04 Aperture macros list*
%AMRoundRect*
0 Rectangle with rounded corners*
0 $1 Rounding radius*
0 $2 $3 $4 $5 $6 $7 $8 $9 X,Y pos of 4 corners*
0 Add a 4 corners polygon primitive as box body*
4,1,4,$2,$3,$4,$5,$6,$7,$8,$9,$2,$3,0*
0 Add four circle primitives for the rounded corners*
1,1,$1+$1,$2,$3*
1,1,$1+$1,$4,$5*
1,1,$1+$1,$6,$7*
1,1,$1+$1,$8,$9*
0 Add four rect primitives between the rounded corners*
20,1,$1+$1,$2,$3,$4,$5,0*
20,1,$1+$1,$4,$5,$6,$7,0*
20,1,$1+$1,$6,$7,$8,$9,0*
20,1,$1+$1,$8,$9,$2,$3,0*%
G04 Aperture macros list end*
%ADD10RoundRect,0.250000X-0.375000X-0.625000X0.375000X-0.625000X0.375000X0.625000X-0.375000X0.625000X0*%
%ADD11RoundRect,0.150000X0.150000X0.575000X-0.150000X0.575000X-0.150000X-0.575000X0.150000X-0.575000X0*%
%ADD12RoundRect,0.075000X0.075000X0.650000X-0.075000X0.650000X-0.075000X-0.650000X0.075000X-0.650000X0*%
%ADD13RoundRect,0.100000X-0.637500X-0.100000X0.637500X-0.100000X0.637500X0.100000X-0.637500X0.100000X0*%
%ADD14R,0.700000X1.200000*%
%ADD15R,1.000000X0.800000*%
%ADD16R,1.000000X1.200000*%
%ADD17R,1.000000X2.800000*%
%ADD18R,1.300000X1.900000*%
%ADD19RoundRect,0.375000X-0.625000X-0.375000X0.625000X-0.375000X0.625000X0.375000X-0.625000X0.375000X0*%
%ADD20RoundRect,0.500000X-0.500000X-1.400000X0.500000X-1.400000X0.500000X1.400000X-0.500000X1.400000X0*%
%ADD21RoundRect,0.249999X-0.395001X-0.395001X0.395001X-0.395001X0.395001X0.395001X-0.395001X0.395001X0*%
%ADD22RoundRect,0.050000X-0.387500X-0.050000X0.387500X-0.050000X0.387500X0.050000X-0.387500X0.050000X0*%
%ADD23RoundRect,0.050000X-0.050000X-0.387500X0.050000X-0.387500X0.050000X0.387500X-0.050000X0.387500X0*%
%ADD24RoundRect,0.100000X-0.687500X-0.100000X0.687500X-0.100000X0.687500X0.100000X-0.687500X0.100000X0*%
%ADD25R,0.900000X1.000000*%
%ADD26RoundRect,0.150000X-0.825000X-0.150000X0.825000X-0.150000X0.825000X0.150000X-0.825000X0.150000X0*%
%ADD27RoundRect,0.250000X-0.450000X-0.350000X0.450000X-0.350000X0.450000X0.350000X-0.450000X0.350000X0*%
G04 APERTURE END LIST*
D10*
%TO.C,D19*%
X77975000Y-141875000D03*
X80775000Y-141875000D03*
%TD*%
%TO.C,D5*%
X107975000Y-117875000D03*
X110775000Y-117875000D03*
%TD*%
%TO.C,D21*%
X107975000Y-141875000D03*
X110775000Y-141875000D03*
%TD*%
D11*
%TO.C,J2*%
X158625000Y-66920000D03*
X157825000Y-66920000D03*
D12*
X156625000Y-66920000D03*
X155625000Y-66920000D03*
X155125000Y-66920000D03*
X154125000Y-66920000D03*
D11*
X152925000Y-66920000D03*
X152125000Y-66920000D03*
X152125000Y-66920000D03*
X152925000Y-66920000D03*
D12*
X153625000Y-66920000D03*
X154625000Y-66920000D03*
X156125000Y-66920000D03*
X157125000Y-66920000D03*
D11*
X157825000Y-66920000D03*
X158625000Y-66920000D03*
%TD*%
D13*
%TO.C,U6*%
X194512500Y-103600000D03*
X194512500Y-104250000D03*
X194512500Y-104900000D03*
X194512500Y-105550000D03*
X194512500Y-106200000D03*
X194512500Y-106850000D03*
X194512500Y-107500000D03*
X194512500Y-108150000D03*
X200237500Y-108150000D03*
X200237500Y-107500000D03*
X200237500Y-106850000D03*
X200237500Y-106200000D03*
X200237500Y-105550000D03*
X200237500Y-104900000D03*
X200237500Y-104250000D03*
X200237500Y-103600000D03*
%TD*%
D10*
%TO.C,D24*%
X152975000Y-141875000D03*
X155775000Y-141875000D03*
%TD*%
%TO.C,D26*%
X195975000Y-129875000D03*
X198775000Y-129875000D03*
%TD*%
D14*
%TO.C,U7*%
X217600000Y-75600000D03*
X218700000Y-75600000D03*
X219800000Y-75600000D03*
X220900000Y-75600000D03*
X222000000Y-75600000D03*
X223100000Y-75600000D03*
X224200000Y-75600000D03*
X225300000Y-75600000D03*
X226250000Y-75600000D03*
D15*
X227200000Y-65100000D03*
D16*
X227200000Y-71300000D03*
D17*
X227200000Y-60950000D03*
D16*
X216050000Y-75600000D03*
D18*
X213700000Y-60500000D03*
%TD*%
D10*
%TO.C,D17*%
X47975000Y-141875000D03*
X50775000Y-141875000D03*
%TD*%
%TO.C,D11*%
X77975000Y-129875000D03*
X80775000Y-129875000D03*
%TD*%
D19*
%TO.C,U9*%
X172225000Y-75575000D03*
X172225000Y-77875000D03*
D20*
X178525000Y-77875000D03*
D19*
X172225000Y-80175000D03*
%TD*%
D10*
%TO.C,D12*%
X92975000Y-129875000D03*
X95775000Y-129875000D03*
%TD*%
%TO.C,D23*%
X137975000Y-141875000D03*
X140775000Y-141875000D03*
%TD*%
D19*
%TO.C,U8*%
X110225000Y-75575000D03*
X110225000Y-77875000D03*
D20*
X116525000Y-77875000D03*
D19*
X110225000Y-80175000D03*
%TD*%
D21*
%TO.C,U1*%
X136575000Y-97075000D03*
X136575000Y-98675000D03*
X138175000Y-97075000D03*
X138175000Y-98675000D03*
D22*
X133937500Y-95275000D03*
X133937500Y-95675000D03*
X133937500Y-96075000D03*
X133937500Y-96475000D03*
X133937500Y-96875000D03*
X133937500Y-97275000D03*
X133937500Y-97675000D03*
X133937500Y-98075000D03*
X133937500Y-98475000D03*
X133937500Y-98875000D03*
X133937500Y-99275000D03*
X133937500Y-99675000D03*
X133937500Y-100075000D03*
X133937500Y-100475000D03*
D23*
X134775000Y-101312500D03*
X135175000Y-101312500D03*
X135575000Y-101312500D03*
X135975000Y-101312500D03*
X136375000Y-101312500D03*
X136775000Y-101312500D03*
X137175000Y-101312500D03*
X137575000Y-101312500D03*
X137975000Y-101312500D03*
X138375000Y-101312500D03*
X138775000Y-101312500D03*
X139175000Y-101312500D03*
X139575000Y-101312500D03*
X139975000Y-101312500D03*
D22*
X140812500Y-100475000D03*
X140812500Y-100075000D03*
X140812500Y-99675000D03*
X140812500Y-99275000D03*
X140812500Y-98875000D03*
X140812500Y-98475000D03*
X140812500Y-98075000D03*
X140812500Y-97675000D03*
X140812500Y-97275000D03*
X140812500Y-96875000D03*
X140812500Y-96475000D03*
X140812500Y-96075000D03*
X140812500Y-95675000D03*
X140812500Y-95275000D03*
D23*
X139975000Y-94437500D03*
X139575000Y-94437500D03*
X139175000Y-94437500D03*
X138775000Y-94437500D03*
X138375000Y-94437500D03*
X137975000Y-94437500D03*
X137575000Y-94437500D03*
X137175000Y-94437500D03*
X136775000Y-94437500D03*
X136375000Y-94437500D03*
X135975000Y-94437500D03*
X135575000Y-94437500D03*
X135175000Y-94437500D03*
X134775000Y-94437500D03*
%TD*%
D10*
%TO.C,D20*%
X92975000Y-141875000D03*
X95775000Y-141875000D03*
%TD*%
%TO.C,D1*%
X47975000Y-117875000D03*
X50775000Y-117875000D03*
%TD*%
D24*
%TO.C,U3*%
X97662500Y-106000000D03*
X97662500Y-106650000D03*
X97662500Y-107300000D03*
X97662500Y-107950000D03*
X97662500Y-108600000D03*
X97662500Y-109250000D03*
X97662500Y-109900000D03*
X97662500Y-110550000D03*
X97662500Y-111200000D03*
X97662500Y-111850000D03*
X97662500Y-112500000D03*
X97662500Y-113150000D03*
X97662500Y-113800000D03*
X97662500Y-114450000D03*
X97662500Y-115100000D03*
X97662500Y-115750000D03*
X105087500Y-115750000D03*
X105087500Y-115100000D03*
X105087500Y-114450000D03*
X105087500Y-113800000D03*
X105087500Y-113150000D03*
X105087500Y-112500000D03*
X105087500Y-111850000D03*
X105087500Y-111200000D03*
X105087500Y-110550000D03*
X105087500Y-109900000D03*
X105087500Y-109250000D03*
X105087500Y-108600000D03*
X105087500Y-107950000D03*
X105087500Y-107300000D03*
X105087500Y-106650000D03*
X105087500Y-106000000D03*
%TD*%
D10*
%TO.C,D27*%
X210975000Y-129875000D03*
X213775000Y-129875000D03*
%TD*%
%TO.C,D10*%
X62975000Y-129875000D03*
X65775000Y-129875000D03*
%TD*%
%TO.C,D6*%
X122975000Y-117875000D03*
X125775000Y-117875000D03*
%TD*%
%TO.C,D4*%
X92975000Y-117875000D03*
X95775000Y-117875000D03*
%TD*%
%TO.C,D2*%
X62975000Y-117875000D03*
X65775000Y-117875000D03*
%TD*%
%TO.C,D8*%
X152975000Y-117875000D03*
X155775000Y-117875000D03*
%TD*%
%TO.C,D3*%
X77975000Y-117875000D03*
X80775000Y-117875000D03*
%TD*%
%TO.C,D28*%
X225975000Y-129875000D03*
X228775000Y-129875000D03*
%TD*%
%TO.C,D9*%
X47975000Y-129875000D03*
X50775000Y-129875000D03*
%TD*%
D24*
%TO.C,U4*%
X207662500Y-106000000D03*
X207662500Y-106650000D03*
X207662500Y-107300000D03*
X207662500Y-107950000D03*
X207662500Y-108600000D03*
X207662500Y-109250000D03*
X207662500Y-109900000D03*
X207662500Y-110550000D03*
X207662500Y-111200000D03*
X207662500Y-111850000D03*
X207662500Y-112500000D03*
X207662500Y-113150000D03*
X207662500Y-113800000D03*
X207662500Y-114450000D03*
X207662500Y-115100000D03*
X207662500Y-115750000D03*
X215087500Y-115750000D03*
X215087500Y-115100000D03*
X215087500Y-114450000D03*
X215087500Y-113800000D03*
X215087500Y-113150000D03*
X215087500Y-112500000D03*
X215087500Y-111850000D03*
X215087500Y-111200000D03*
X215087500Y-110550000D03*
X215087500Y-109900000D03*
X215087500Y-109250000D03*
X215087500Y-108600000D03*
X215087500Y-107950000D03*
X215087500Y-107300000D03*
X215087500Y-106650000D03*
X215087500Y-106000000D03*
%TD*%
D10*
%TO.C,D7*%
X137975000Y-117875000D03*
X140775000Y-117875000D03*
%TD*%
%TO.C,D13*%
X107975000Y-129875000D03*
X110775000Y-129875000D03*
%TD*%
%TO.C,D14*%
X122975000Y-129875000D03*
X125775000Y-129875000D03*
%TD*%
D25*
%TO.C,SW1*%
X183325000Y-93075000D03*
X187425000Y-93075000D03*
X183325000Y-94675000D03*
X187425000Y-94675000D03*
%TD*%
D11*
%TO.C,J1*%
X98625000Y-66920000D03*
X97825000Y-66920000D03*
D12*
X96625000Y-66920000D03*
X95625000Y-66920000D03*
X95125000Y-66920000D03*
X94125000Y-66920000D03*
D11*
X92925000Y-66920000D03*
X92125000Y-66920000D03*
X92125000Y-66920000D03*
X92925000Y-66920000D03*
D12*
X93625000Y-66920000D03*
X94625000Y-66920000D03*
X96125000Y-66920000D03*
X97125000Y-66920000D03*
D11*
X97825000Y-66920000D03*
X98625000Y-66920000D03*
%TD*%
D10*
%TO.C,D15*%
X137975000Y-129875000D03*
X140775000Y-129875000D03*
%TD*%
%TO.C,D18*%
X62975000Y-141875000D03*
X65775000Y-141875000D03*
%TD*%
%TO.C,D16*%
X152975000Y-129875000D03*
X155775000Y-129875000D03*
%TD*%
D13*
%TO.C,U5*%
X74512500Y-103600000D03*
X74512500Y-104250000D03*
X74512500Y-104900000D03*
X74512500Y-105550000D03*
X74512500Y-106200000D03*
X74512500Y-106850000D03*
X74512500Y-107500000D03*
X74512500Y-108150000D03*
X80237500Y-108150000D03*
X80237500Y-107500000D03*
X80237500Y-106850000D03*
X80237500Y-106200000D03*
X80237500Y-105550000D03*
X80237500Y-104900000D03*
X80237500Y-104250000D03*
X80237500Y-103600000D03*
%TD*%
D26*
%TO.C,U2*%
X149900000Y-95970000D03*
X149900000Y-97240000D03*
X149900000Y-98510000D03*
X149900000Y-99780000D03*
X154850000Y-99780000D03*
X154850000Y-98510000D03*
X154850000Y-97240000D03*
X154850000Y-95970000D03*
%TD*%
D10*
%TO.C,D22*%
X122975000Y-141875000D03*
X125775000Y-141875000D03*
%TD*%
D27*
%TO.C,Y1*%
X120275000Y-98725000D03*
X122475000Y-98725000D03*
X122475000Y-97025000D03*
X120275000Y-97025000D03*
%TD*%
D10*
%TO.C,D25*%
X180975000Y-129875000D03*
X183775000Y-129875000D03*
%TD*%
D25*
%TO.C,SW2*%
X191325000Y-93075000D03*
X195425000Y-93075000D03*
X191325000Y-94675000D03*
X195425000Y-94675000D03*
%TD*%
M02*
