%TF.GenerationSoftware,KiCad,Pcbnew,10.0.4-10.0.4~ubuntu24.04.1*%
%TF.CreationDate,2026-07-14T21:19:46-07:00*%
%TF.ProjectId,imspi8080_rev3,696d7370-6938-4303-9830-5f726576332e,rev?*%
%TF.SameCoordinates,Original*%
%TF.FileFunction,Legend,Bot*%
%TF.FilePolarity,Positive*%
%FSLAX46Y46*%
G04 Gerber Fmt 4.6, Leading zero omitted, Abs format (unit mm)*
G04 Created by KiCad (PCBNEW 10.0.4-10.0.4~ubuntu24.04.1) date 2026-07-14 21:19:46*
%MOMM*%
%LPD*%
G01*
G04 APERTURE LIST*
G04 Aperture macros list*
%AMRoundRect*
0 Rectangle with rounded corners*
0 $1 Rounding radius*
0 $2 $3 $4 $5 $6 $7 $8 $9 X,Y pos of 4 corners*
0 Add a 4 corners polygon primitive as box body*
4,1,4,$2,$3,$4,$5,$6,$7,$8,$9,$2,$3,0*
0 Add four circle primitives for the rounded corners*
1,1,$1+$1,$2,$3*
1,1,$1+$1,$4,$5*
1,1,$1+$1,$6,$7*
1,1,$1+$1,$8,$9*
0 Add four rect primitives between the rounded corners*
20,1,$1+$1,$2,$3,$4,$5,0*
20,1,$1+$1,$4,$5,$6,$7,0*
20,1,$1+$1,$6,$7,$8,$9,0*
20,1,$1+$1,$8,$9,$2,$3,0*%
G04 Aperture macros list end*
%ADD10C,0.130000*%
%ADD11C,0.120000*%
%ADD12R,1.700000X1.700000*%
%ADD13C,1.700000*%
%ADD14C,0.650000*%
%ADD15O,1.000000X2.100000*%
%ADD16O,1.000000X1.600000*%
%ADD17C,2.700000*%
%ADD18RoundRect,0.140000X-0.140000X-0.170000X0.140000X-0.170000X0.140000X0.170000X-0.140000X0.170000X0*%
%ADD19RoundRect,0.135000X-0.135000X-0.185000X0.135000X-0.185000X0.135000X0.185000X-0.135000X0.185000X0*%
%ADD20RoundRect,0.250000X-0.250000X-0.475000X0.250000X-0.475000X0.250000X0.475000X-0.250000X0.475000X0*%
G04 APERTURE END LIST*
D10*
X49608332Y-143961467D02*
X49324999Y-144811467D01*
X49324999Y-144811467D02*
X49041665Y-143961467D01*
X52512619Y-144770991D02*
X52391190Y-144811467D01*
X52391190Y-144811467D02*
X52188809Y-144811467D01*
X52188809Y-144811467D02*
X52107857Y-144770991D01*
X52107857Y-144770991D02*
X52067381Y-144730514D01*
X52067381Y-144730514D02*
X52026904Y-144649562D01*
X52026904Y-144649562D02*
X52026904Y-144568610D01*
X52026904Y-144568610D02*
X52067381Y-144487657D01*
X52067381Y-144487657D02*
X52107857Y-144447181D01*
X52107857Y-144447181D02*
X52188809Y-144406705D01*
X52188809Y-144406705D02*
X52350714Y-144366229D01*
X52350714Y-144366229D02*
X52431666Y-144325752D01*
X52431666Y-144325752D02*
X52472143Y-144285276D01*
X52472143Y-144285276D02*
X52512619Y-144204324D01*
X52512619Y-144204324D02*
X52512619Y-144123371D01*
X52512619Y-144123371D02*
X52472143Y-144042419D01*
X52472143Y-144042419D02*
X52431666Y-144001943D01*
X52431666Y-144001943D02*
X52350714Y-143961467D01*
X52350714Y-143961467D02*
X52148333Y-143961467D01*
X52148333Y-143961467D02*
X52026904Y-144001943D01*
X51500714Y-143961467D02*
X51419761Y-143961467D01*
X51419761Y-143961467D02*
X51338809Y-144001943D01*
X51338809Y-144001943D02*
X51298333Y-144042419D01*
X51298333Y-144042419D02*
X51257857Y-144123371D01*
X51257857Y-144123371D02*
X51217380Y-144285276D01*
X51217380Y-144285276D02*
X51217380Y-144487657D01*
X51217380Y-144487657D02*
X51257857Y-144649562D01*
X51257857Y-144649562D02*
X51298333Y-144730514D01*
X51298333Y-144730514D02*
X51338809Y-144770991D01*
X51338809Y-144770991D02*
X51419761Y-144811467D01*
X51419761Y-144811467D02*
X51500714Y-144811467D01*
X51500714Y-144811467D02*
X51581666Y-144770991D01*
X51581666Y-144770991D02*
X51622142Y-144730514D01*
X51622142Y-144730514D02*
X51662619Y-144649562D01*
X51662619Y-144649562D02*
X51703095Y-144487657D01*
X51703095Y-144487657D02*
X51703095Y-144285276D01*
X51703095Y-144285276D02*
X51662619Y-144123371D01*
X51662619Y-144123371D02*
X51622142Y-144042419D01*
X51622142Y-144042419D02*
X51581666Y-144001943D01*
X51581666Y-144001943D02*
X51500714Y-143961467D01*
X54182380Y-144001943D02*
X54263333Y-143961467D01*
X54263333Y-143961467D02*
X54384761Y-143961467D01*
X54384761Y-143961467D02*
X54506190Y-144001943D01*
X54506190Y-144001943D02*
X54587142Y-144082895D01*
X54587142Y-144082895D02*
X54627619Y-144163848D01*
X54627619Y-144163848D02*
X54668095Y-144325752D01*
X54668095Y-144325752D02*
X54668095Y-144447181D01*
X54668095Y-144447181D02*
X54627619Y-144609086D01*
X54627619Y-144609086D02*
X54587142Y-144690038D01*
X54587142Y-144690038D02*
X54506190Y-144770991D01*
X54506190Y-144770991D02*
X54384761Y-144811467D01*
X54384761Y-144811467D02*
X54303809Y-144811467D01*
X54303809Y-144811467D02*
X54182380Y-144770991D01*
X54182380Y-144770991D02*
X54141904Y-144730514D01*
X54141904Y-144730514D02*
X54141904Y-144447181D01*
X54141904Y-144447181D02*
X54303809Y-144447181D01*
X64608332Y-143961467D02*
X64324999Y-144811467D01*
X64324999Y-144811467D02*
X64041665Y-143961467D01*
X67512619Y-144770991D02*
X67391190Y-144811467D01*
X67391190Y-144811467D02*
X67188809Y-144811467D01*
X67188809Y-144811467D02*
X67107857Y-144770991D01*
X67107857Y-144770991D02*
X67067381Y-144730514D01*
X67067381Y-144730514D02*
X67026904Y-144649562D01*
X67026904Y-144649562D02*
X67026904Y-144568610D01*
X67026904Y-144568610D02*
X67067381Y-144487657D01*
X67067381Y-144487657D02*
X67107857Y-144447181D01*
X67107857Y-144447181D02*
X67188809Y-144406705D01*
X67188809Y-144406705D02*
X67350714Y-144366229D01*
X67350714Y-144366229D02*
X67431666Y-144325752D01*
X67431666Y-144325752D02*
X67472143Y-144285276D01*
X67472143Y-144285276D02*
X67512619Y-144204324D01*
X67512619Y-144204324D02*
X67512619Y-144123371D01*
X67512619Y-144123371D02*
X67472143Y-144042419D01*
X67472143Y-144042419D02*
X67431666Y-144001943D01*
X67431666Y-144001943D02*
X67350714Y-143961467D01*
X67350714Y-143961467D02*
X67148333Y-143961467D01*
X67148333Y-143961467D02*
X67026904Y-144001943D01*
X66217380Y-144811467D02*
X66703095Y-144811467D01*
X66460238Y-144811467D02*
X66460238Y-143961467D01*
X66460238Y-143961467D02*
X66541190Y-144082895D01*
X66541190Y-144082895D02*
X66622142Y-144163848D01*
X66622142Y-144163848D02*
X66703095Y-144204324D01*
X69182380Y-144001943D02*
X69263333Y-143961467D01*
X69263333Y-143961467D02*
X69384761Y-143961467D01*
X69384761Y-143961467D02*
X69506190Y-144001943D01*
X69506190Y-144001943D02*
X69587142Y-144082895D01*
X69587142Y-144082895D02*
X69627619Y-144163848D01*
X69627619Y-144163848D02*
X69668095Y-144325752D01*
X69668095Y-144325752D02*
X69668095Y-144447181D01*
X69668095Y-144447181D02*
X69627619Y-144609086D01*
X69627619Y-144609086D02*
X69587142Y-144690038D01*
X69587142Y-144690038D02*
X69506190Y-144770991D01*
X69506190Y-144770991D02*
X69384761Y-144811467D01*
X69384761Y-144811467D02*
X69303809Y-144811467D01*
X69303809Y-144811467D02*
X69182380Y-144770991D01*
X69182380Y-144770991D02*
X69141904Y-144730514D01*
X69141904Y-144730514D02*
X69141904Y-144447181D01*
X69141904Y-144447181D02*
X69303809Y-144447181D01*
X79608332Y-143961467D02*
X79324999Y-144811467D01*
X79324999Y-144811467D02*
X79041665Y-143961467D01*
X82512619Y-144770991D02*
X82391190Y-144811467D01*
X82391190Y-144811467D02*
X82188809Y-144811467D01*
X82188809Y-144811467D02*
X82107857Y-144770991D01*
X82107857Y-144770991D02*
X82067381Y-144730514D01*
X82067381Y-144730514D02*
X82026904Y-144649562D01*
X82026904Y-144649562D02*
X82026904Y-144568610D01*
X82026904Y-144568610D02*
X82067381Y-144487657D01*
X82067381Y-144487657D02*
X82107857Y-144447181D01*
X82107857Y-144447181D02*
X82188809Y-144406705D01*
X82188809Y-144406705D02*
X82350714Y-144366229D01*
X82350714Y-144366229D02*
X82431666Y-144325752D01*
X82431666Y-144325752D02*
X82472143Y-144285276D01*
X82472143Y-144285276D02*
X82512619Y-144204324D01*
X82512619Y-144204324D02*
X82512619Y-144123371D01*
X82512619Y-144123371D02*
X82472143Y-144042419D01*
X82472143Y-144042419D02*
X82431666Y-144001943D01*
X82431666Y-144001943D02*
X82350714Y-143961467D01*
X82350714Y-143961467D02*
X82148333Y-143961467D01*
X82148333Y-143961467D02*
X82026904Y-144001943D01*
X81703095Y-144042419D02*
X81662619Y-144001943D01*
X81662619Y-144001943D02*
X81581666Y-143961467D01*
X81581666Y-143961467D02*
X81379285Y-143961467D01*
X81379285Y-143961467D02*
X81298333Y-144001943D01*
X81298333Y-144001943D02*
X81257857Y-144042419D01*
X81257857Y-144042419D02*
X81217380Y-144123371D01*
X81217380Y-144123371D02*
X81217380Y-144204324D01*
X81217380Y-144204324D02*
X81257857Y-144325752D01*
X81257857Y-144325752D02*
X81743571Y-144811467D01*
X81743571Y-144811467D02*
X81217380Y-144811467D01*
X84182380Y-144001943D02*
X84263333Y-143961467D01*
X84263333Y-143961467D02*
X84384761Y-143961467D01*
X84384761Y-143961467D02*
X84506190Y-144001943D01*
X84506190Y-144001943D02*
X84587142Y-144082895D01*
X84587142Y-144082895D02*
X84627619Y-144163848D01*
X84627619Y-144163848D02*
X84668095Y-144325752D01*
X84668095Y-144325752D02*
X84668095Y-144447181D01*
X84668095Y-144447181D02*
X84627619Y-144609086D01*
X84627619Y-144609086D02*
X84587142Y-144690038D01*
X84587142Y-144690038D02*
X84506190Y-144770991D01*
X84506190Y-144770991D02*
X84384761Y-144811467D01*
X84384761Y-144811467D02*
X84303809Y-144811467D01*
X84303809Y-144811467D02*
X84182380Y-144770991D01*
X84182380Y-144770991D02*
X84141904Y-144730514D01*
X84141904Y-144730514D02*
X84141904Y-144447181D01*
X84141904Y-144447181D02*
X84303809Y-144447181D01*
X94608332Y-143961467D02*
X94324999Y-144811467D01*
X94324999Y-144811467D02*
X94041665Y-143961467D01*
X97512619Y-144770991D02*
X97391190Y-144811467D01*
X97391190Y-144811467D02*
X97188809Y-144811467D01*
X97188809Y-144811467D02*
X97107857Y-144770991D01*
X97107857Y-144770991D02*
X97067381Y-144730514D01*
X97067381Y-144730514D02*
X97026904Y-144649562D01*
X97026904Y-144649562D02*
X97026904Y-144568610D01*
X97026904Y-144568610D02*
X97067381Y-144487657D01*
X97067381Y-144487657D02*
X97107857Y-144447181D01*
X97107857Y-144447181D02*
X97188809Y-144406705D01*
X97188809Y-144406705D02*
X97350714Y-144366229D01*
X97350714Y-144366229D02*
X97431666Y-144325752D01*
X97431666Y-144325752D02*
X97472143Y-144285276D01*
X97472143Y-144285276D02*
X97512619Y-144204324D01*
X97512619Y-144204324D02*
X97512619Y-144123371D01*
X97512619Y-144123371D02*
X97472143Y-144042419D01*
X97472143Y-144042419D02*
X97431666Y-144001943D01*
X97431666Y-144001943D02*
X97350714Y-143961467D01*
X97350714Y-143961467D02*
X97148333Y-143961467D01*
X97148333Y-143961467D02*
X97026904Y-144001943D01*
X96743571Y-143961467D02*
X96217380Y-143961467D01*
X96217380Y-143961467D02*
X96500714Y-144285276D01*
X96500714Y-144285276D02*
X96379285Y-144285276D01*
X96379285Y-144285276D02*
X96298333Y-144325752D01*
X96298333Y-144325752D02*
X96257857Y-144366229D01*
X96257857Y-144366229D02*
X96217380Y-144447181D01*
X96217380Y-144447181D02*
X96217380Y-144649562D01*
X96217380Y-144649562D02*
X96257857Y-144730514D01*
X96257857Y-144730514D02*
X96298333Y-144770991D01*
X96298333Y-144770991D02*
X96379285Y-144811467D01*
X96379285Y-144811467D02*
X96622142Y-144811467D01*
X96622142Y-144811467D02*
X96703095Y-144770991D01*
X96703095Y-144770991D02*
X96743571Y-144730514D01*
X99182380Y-144001943D02*
X99263333Y-143961467D01*
X99263333Y-143961467D02*
X99384761Y-143961467D01*
X99384761Y-143961467D02*
X99506190Y-144001943D01*
X99506190Y-144001943D02*
X99587142Y-144082895D01*
X99587142Y-144082895D02*
X99627619Y-144163848D01*
X99627619Y-144163848D02*
X99668095Y-144325752D01*
X99668095Y-144325752D02*
X99668095Y-144447181D01*
X99668095Y-144447181D02*
X99627619Y-144609086D01*
X99627619Y-144609086D02*
X99587142Y-144690038D01*
X99587142Y-144690038D02*
X99506190Y-144770991D01*
X99506190Y-144770991D02*
X99384761Y-144811467D01*
X99384761Y-144811467D02*
X99303809Y-144811467D01*
X99303809Y-144811467D02*
X99182380Y-144770991D01*
X99182380Y-144770991D02*
X99141904Y-144730514D01*
X99141904Y-144730514D02*
X99141904Y-144447181D01*
X99141904Y-144447181D02*
X99303809Y-144447181D01*
X109608332Y-143961467D02*
X109324999Y-144811467D01*
X109324999Y-144811467D02*
X109041665Y-143961467D01*
X112512619Y-144770991D02*
X112391190Y-144811467D01*
X112391190Y-144811467D02*
X112188809Y-144811467D01*
X112188809Y-144811467D02*
X112107857Y-144770991D01*
X112107857Y-144770991D02*
X112067381Y-144730514D01*
X112067381Y-144730514D02*
X112026904Y-144649562D01*
X112026904Y-144649562D02*
X112026904Y-144568610D01*
X112026904Y-144568610D02*
X112067381Y-144487657D01*
X112067381Y-144487657D02*
X112107857Y-144447181D01*
X112107857Y-144447181D02*
X112188809Y-144406705D01*
X112188809Y-144406705D02*
X112350714Y-144366229D01*
X112350714Y-144366229D02*
X112431666Y-144325752D01*
X112431666Y-144325752D02*
X112472143Y-144285276D01*
X112472143Y-144285276D02*
X112512619Y-144204324D01*
X112512619Y-144204324D02*
X112512619Y-144123371D01*
X112512619Y-144123371D02*
X112472143Y-144042419D01*
X112472143Y-144042419D02*
X112431666Y-144001943D01*
X112431666Y-144001943D02*
X112350714Y-143961467D01*
X112350714Y-143961467D02*
X112148333Y-143961467D01*
X112148333Y-143961467D02*
X112026904Y-144001943D01*
X111298333Y-144244800D02*
X111298333Y-144811467D01*
X111500714Y-143920991D02*
X111703095Y-144528133D01*
X111703095Y-144528133D02*
X111176904Y-144528133D01*
X114182380Y-144001943D02*
X114263333Y-143961467D01*
X114263333Y-143961467D02*
X114384761Y-143961467D01*
X114384761Y-143961467D02*
X114506190Y-144001943D01*
X114506190Y-144001943D02*
X114587142Y-144082895D01*
X114587142Y-144082895D02*
X114627619Y-144163848D01*
X114627619Y-144163848D02*
X114668095Y-144325752D01*
X114668095Y-144325752D02*
X114668095Y-144447181D01*
X114668095Y-144447181D02*
X114627619Y-144609086D01*
X114627619Y-144609086D02*
X114587142Y-144690038D01*
X114587142Y-144690038D02*
X114506190Y-144770991D01*
X114506190Y-144770991D02*
X114384761Y-144811467D01*
X114384761Y-144811467D02*
X114303809Y-144811467D01*
X114303809Y-144811467D02*
X114182380Y-144770991D01*
X114182380Y-144770991D02*
X114141904Y-144730514D01*
X114141904Y-144730514D02*
X114141904Y-144447181D01*
X114141904Y-144447181D02*
X114303809Y-144447181D01*
X124608332Y-143961467D02*
X124324999Y-144811467D01*
X124324999Y-144811467D02*
X124041665Y-143961467D01*
X127512619Y-144770991D02*
X127391190Y-144811467D01*
X127391190Y-144811467D02*
X127188809Y-144811467D01*
X127188809Y-144811467D02*
X127107857Y-144770991D01*
X127107857Y-144770991D02*
X127067381Y-144730514D01*
X127067381Y-144730514D02*
X127026904Y-144649562D01*
X127026904Y-144649562D02*
X127026904Y-144568610D01*
X127026904Y-144568610D02*
X127067381Y-144487657D01*
X127067381Y-144487657D02*
X127107857Y-144447181D01*
X127107857Y-144447181D02*
X127188809Y-144406705D01*
X127188809Y-144406705D02*
X127350714Y-144366229D01*
X127350714Y-144366229D02*
X127431666Y-144325752D01*
X127431666Y-144325752D02*
X127472143Y-144285276D01*
X127472143Y-144285276D02*
X127512619Y-144204324D01*
X127512619Y-144204324D02*
X127512619Y-144123371D01*
X127512619Y-144123371D02*
X127472143Y-144042419D01*
X127472143Y-144042419D02*
X127431666Y-144001943D01*
X127431666Y-144001943D02*
X127350714Y-143961467D01*
X127350714Y-143961467D02*
X127148333Y-143961467D01*
X127148333Y-143961467D02*
X127026904Y-144001943D01*
X126257857Y-143961467D02*
X126662619Y-143961467D01*
X126662619Y-143961467D02*
X126703095Y-144366229D01*
X126703095Y-144366229D02*
X126662619Y-144325752D01*
X126662619Y-144325752D02*
X126581666Y-144285276D01*
X126581666Y-144285276D02*
X126379285Y-144285276D01*
X126379285Y-144285276D02*
X126298333Y-144325752D01*
X126298333Y-144325752D02*
X126257857Y-144366229D01*
X126257857Y-144366229D02*
X126217380Y-144447181D01*
X126217380Y-144447181D02*
X126217380Y-144649562D01*
X126217380Y-144649562D02*
X126257857Y-144730514D01*
X126257857Y-144730514D02*
X126298333Y-144770991D01*
X126298333Y-144770991D02*
X126379285Y-144811467D01*
X126379285Y-144811467D02*
X126581666Y-144811467D01*
X126581666Y-144811467D02*
X126662619Y-144770991D01*
X126662619Y-144770991D02*
X126703095Y-144730514D01*
X129182380Y-144001943D02*
X129263333Y-143961467D01*
X129263333Y-143961467D02*
X129384761Y-143961467D01*
X129384761Y-143961467D02*
X129506190Y-144001943D01*
X129506190Y-144001943D02*
X129587142Y-144082895D01*
X129587142Y-144082895D02*
X129627619Y-144163848D01*
X129627619Y-144163848D02*
X129668095Y-144325752D01*
X129668095Y-144325752D02*
X129668095Y-144447181D01*
X129668095Y-144447181D02*
X129627619Y-144609086D01*
X129627619Y-144609086D02*
X129587142Y-144690038D01*
X129587142Y-144690038D02*
X129506190Y-144770991D01*
X129506190Y-144770991D02*
X129384761Y-144811467D01*
X129384761Y-144811467D02*
X129303809Y-144811467D01*
X129303809Y-144811467D02*
X129182380Y-144770991D01*
X129182380Y-144770991D02*
X129141904Y-144730514D01*
X129141904Y-144730514D02*
X129141904Y-144447181D01*
X129141904Y-144447181D02*
X129303809Y-144447181D01*
X139608332Y-143961467D02*
X139324999Y-144811467D01*
X139324999Y-144811467D02*
X139041665Y-143961467D01*
X142512619Y-144770991D02*
X142391190Y-144811467D01*
X142391190Y-144811467D02*
X142188809Y-144811467D01*
X142188809Y-144811467D02*
X142107857Y-144770991D01*
X142107857Y-144770991D02*
X142067381Y-144730514D01*
X142067381Y-144730514D02*
X142026904Y-144649562D01*
X142026904Y-144649562D02*
X142026904Y-144568610D01*
X142026904Y-144568610D02*
X142067381Y-144487657D01*
X142067381Y-144487657D02*
X142107857Y-144447181D01*
X142107857Y-144447181D02*
X142188809Y-144406705D01*
X142188809Y-144406705D02*
X142350714Y-144366229D01*
X142350714Y-144366229D02*
X142431666Y-144325752D01*
X142431666Y-144325752D02*
X142472143Y-144285276D01*
X142472143Y-144285276D02*
X142512619Y-144204324D01*
X142512619Y-144204324D02*
X142512619Y-144123371D01*
X142512619Y-144123371D02*
X142472143Y-144042419D01*
X142472143Y-144042419D02*
X142431666Y-144001943D01*
X142431666Y-144001943D02*
X142350714Y-143961467D01*
X142350714Y-143961467D02*
X142148333Y-143961467D01*
X142148333Y-143961467D02*
X142026904Y-144001943D01*
X141298333Y-143961467D02*
X141460238Y-143961467D01*
X141460238Y-143961467D02*
X141541190Y-144001943D01*
X141541190Y-144001943D02*
X141581666Y-144042419D01*
X141581666Y-144042419D02*
X141662619Y-144163848D01*
X141662619Y-144163848D02*
X141703095Y-144325752D01*
X141703095Y-144325752D02*
X141703095Y-144649562D01*
X141703095Y-144649562D02*
X141662619Y-144730514D01*
X141662619Y-144730514D02*
X141622142Y-144770991D01*
X141622142Y-144770991D02*
X141541190Y-144811467D01*
X141541190Y-144811467D02*
X141379285Y-144811467D01*
X141379285Y-144811467D02*
X141298333Y-144770991D01*
X141298333Y-144770991D02*
X141257857Y-144730514D01*
X141257857Y-144730514D02*
X141217380Y-144649562D01*
X141217380Y-144649562D02*
X141217380Y-144447181D01*
X141217380Y-144447181D02*
X141257857Y-144366229D01*
X141257857Y-144366229D02*
X141298333Y-144325752D01*
X141298333Y-144325752D02*
X141379285Y-144285276D01*
X141379285Y-144285276D02*
X141541190Y-144285276D01*
X141541190Y-144285276D02*
X141622142Y-144325752D01*
X141622142Y-144325752D02*
X141662619Y-144366229D01*
X141662619Y-144366229D02*
X141703095Y-144447181D01*
X144182380Y-144001943D02*
X144263333Y-143961467D01*
X144263333Y-143961467D02*
X144384761Y-143961467D01*
X144384761Y-143961467D02*
X144506190Y-144001943D01*
X144506190Y-144001943D02*
X144587142Y-144082895D01*
X144587142Y-144082895D02*
X144627619Y-144163848D01*
X144627619Y-144163848D02*
X144668095Y-144325752D01*
X144668095Y-144325752D02*
X144668095Y-144447181D01*
X144668095Y-144447181D02*
X144627619Y-144609086D01*
X144627619Y-144609086D02*
X144587142Y-144690038D01*
X144587142Y-144690038D02*
X144506190Y-144770991D01*
X144506190Y-144770991D02*
X144384761Y-144811467D01*
X144384761Y-144811467D02*
X144303809Y-144811467D01*
X144303809Y-144811467D02*
X144182380Y-144770991D01*
X144182380Y-144770991D02*
X144141904Y-144730514D01*
X144141904Y-144730514D02*
X144141904Y-144447181D01*
X144141904Y-144447181D02*
X144303809Y-144447181D01*
X154608332Y-143961467D02*
X154324999Y-144811467D01*
X154324999Y-144811467D02*
X154041665Y-143961467D01*
X157512619Y-144770991D02*
X157391190Y-144811467D01*
X157391190Y-144811467D02*
X157188809Y-144811467D01*
X157188809Y-144811467D02*
X157107857Y-144770991D01*
X157107857Y-144770991D02*
X157067381Y-144730514D01*
X157067381Y-144730514D02*
X157026904Y-144649562D01*
X157026904Y-144649562D02*
X157026904Y-144568610D01*
X157026904Y-144568610D02*
X157067381Y-144487657D01*
X157067381Y-144487657D02*
X157107857Y-144447181D01*
X157107857Y-144447181D02*
X157188809Y-144406705D01*
X157188809Y-144406705D02*
X157350714Y-144366229D01*
X157350714Y-144366229D02*
X157431666Y-144325752D01*
X157431666Y-144325752D02*
X157472143Y-144285276D01*
X157472143Y-144285276D02*
X157512619Y-144204324D01*
X157512619Y-144204324D02*
X157512619Y-144123371D01*
X157512619Y-144123371D02*
X157472143Y-144042419D01*
X157472143Y-144042419D02*
X157431666Y-144001943D01*
X157431666Y-144001943D02*
X157350714Y-143961467D01*
X157350714Y-143961467D02*
X157148333Y-143961467D01*
X157148333Y-143961467D02*
X157026904Y-144001943D01*
X156743571Y-143961467D02*
X156176904Y-143961467D01*
X156176904Y-143961467D02*
X156541190Y-144811467D01*
X159182380Y-144001943D02*
X159263333Y-143961467D01*
X159263333Y-143961467D02*
X159384761Y-143961467D01*
X159384761Y-143961467D02*
X159506190Y-144001943D01*
X159506190Y-144001943D02*
X159587142Y-144082895D01*
X159587142Y-144082895D02*
X159627619Y-144163848D01*
X159627619Y-144163848D02*
X159668095Y-144325752D01*
X159668095Y-144325752D02*
X159668095Y-144447181D01*
X159668095Y-144447181D02*
X159627619Y-144609086D01*
X159627619Y-144609086D02*
X159587142Y-144690038D01*
X159587142Y-144690038D02*
X159506190Y-144770991D01*
X159506190Y-144770991D02*
X159384761Y-144811467D01*
X159384761Y-144811467D02*
X159303809Y-144811467D01*
X159303809Y-144811467D02*
X159182380Y-144770991D01*
X159182380Y-144770991D02*
X159141904Y-144730514D01*
X159141904Y-144730514D02*
X159141904Y-144447181D01*
X159141904Y-144447181D02*
X159303809Y-144447181D01*
X182466666Y-144730514D02*
X182507142Y-144770991D01*
X182507142Y-144770991D02*
X182628571Y-144811467D01*
X182628571Y-144811467D02*
X182709523Y-144811467D01*
X182709523Y-144811467D02*
X182830952Y-144770991D01*
X182830952Y-144770991D02*
X182911904Y-144690038D01*
X182911904Y-144690038D02*
X182952381Y-144609086D01*
X182952381Y-144609086D02*
X182992857Y-144447181D01*
X182992857Y-144447181D02*
X182992857Y-144325752D01*
X182992857Y-144325752D02*
X182952381Y-144163848D01*
X182952381Y-144163848D02*
X182911904Y-144082895D01*
X182911904Y-144082895D02*
X182830952Y-144001943D01*
X182830952Y-144001943D02*
X182709523Y-143961467D01*
X182709523Y-143961467D02*
X182628571Y-143961467D01*
X182628571Y-143961467D02*
X182507142Y-144001943D01*
X182507142Y-144001943D02*
X182466666Y-144042419D01*
X181940476Y-143961467D02*
X181859523Y-143961467D01*
X181859523Y-143961467D02*
X181778571Y-144001943D01*
X181778571Y-144001943D02*
X181738095Y-144042419D01*
X181738095Y-144042419D02*
X181697619Y-144123371D01*
X181697619Y-144123371D02*
X181657142Y-144285276D01*
X181657142Y-144285276D02*
X181657142Y-144487657D01*
X181657142Y-144487657D02*
X181697619Y-144649562D01*
X181697619Y-144649562D02*
X181738095Y-144730514D01*
X181738095Y-144730514D02*
X181778571Y-144770991D01*
X181778571Y-144770991D02*
X181859523Y-144811467D01*
X181859523Y-144811467D02*
X181940476Y-144811467D01*
X181940476Y-144811467D02*
X182021428Y-144770991D01*
X182021428Y-144770991D02*
X182061904Y-144730514D01*
X182061904Y-144730514D02*
X182102381Y-144649562D01*
X182102381Y-144649562D02*
X182142857Y-144487657D01*
X182142857Y-144487657D02*
X182142857Y-144285276D01*
X182142857Y-144285276D02*
X182102381Y-144123371D01*
X182102381Y-144123371D02*
X182061904Y-144042419D01*
X182061904Y-144042419D02*
X182021428Y-144001943D01*
X182021428Y-144001943D02*
X181940476Y-143961467D01*
X184642380Y-144001943D02*
X184723333Y-143961467D01*
X184723333Y-143961467D02*
X184844761Y-143961467D01*
X184844761Y-143961467D02*
X184966190Y-144001943D01*
X184966190Y-144001943D02*
X185047142Y-144082895D01*
X185047142Y-144082895D02*
X185087619Y-144163848D01*
X185087619Y-144163848D02*
X185128095Y-144325752D01*
X185128095Y-144325752D02*
X185128095Y-144447181D01*
X185128095Y-144447181D02*
X185087619Y-144609086D01*
X185087619Y-144609086D02*
X185047142Y-144690038D01*
X185047142Y-144690038D02*
X184966190Y-144770991D01*
X184966190Y-144770991D02*
X184844761Y-144811467D01*
X184844761Y-144811467D02*
X184763809Y-144811467D01*
X184763809Y-144811467D02*
X184642380Y-144770991D01*
X184642380Y-144770991D02*
X184601904Y-144730514D01*
X184601904Y-144730514D02*
X184601904Y-144447181D01*
X184601904Y-144447181D02*
X184763809Y-144447181D01*
X197466666Y-144730514D02*
X197507142Y-144770991D01*
X197507142Y-144770991D02*
X197628571Y-144811467D01*
X197628571Y-144811467D02*
X197709523Y-144811467D01*
X197709523Y-144811467D02*
X197830952Y-144770991D01*
X197830952Y-144770991D02*
X197911904Y-144690038D01*
X197911904Y-144690038D02*
X197952381Y-144609086D01*
X197952381Y-144609086D02*
X197992857Y-144447181D01*
X197992857Y-144447181D02*
X197992857Y-144325752D01*
X197992857Y-144325752D02*
X197952381Y-144163848D01*
X197952381Y-144163848D02*
X197911904Y-144082895D01*
X197911904Y-144082895D02*
X197830952Y-144001943D01*
X197830952Y-144001943D02*
X197709523Y-143961467D01*
X197709523Y-143961467D02*
X197628571Y-143961467D01*
X197628571Y-143961467D02*
X197507142Y-144001943D01*
X197507142Y-144001943D02*
X197466666Y-144042419D01*
X196657142Y-144811467D02*
X197142857Y-144811467D01*
X196900000Y-144811467D02*
X196900000Y-143961467D01*
X196900000Y-143961467D02*
X196980952Y-144082895D01*
X196980952Y-144082895D02*
X197061904Y-144163848D01*
X197061904Y-144163848D02*
X197142857Y-144204324D01*
X199642380Y-144001943D02*
X199723333Y-143961467D01*
X199723333Y-143961467D02*
X199844761Y-143961467D01*
X199844761Y-143961467D02*
X199966190Y-144001943D01*
X199966190Y-144001943D02*
X200047142Y-144082895D01*
X200047142Y-144082895D02*
X200087619Y-144163848D01*
X200087619Y-144163848D02*
X200128095Y-144325752D01*
X200128095Y-144325752D02*
X200128095Y-144447181D01*
X200128095Y-144447181D02*
X200087619Y-144609086D01*
X200087619Y-144609086D02*
X200047142Y-144690038D01*
X200047142Y-144690038D02*
X199966190Y-144770991D01*
X199966190Y-144770991D02*
X199844761Y-144811467D01*
X199844761Y-144811467D02*
X199763809Y-144811467D01*
X199763809Y-144811467D02*
X199642380Y-144770991D01*
X199642380Y-144770991D02*
X199601904Y-144730514D01*
X199601904Y-144730514D02*
X199601904Y-144447181D01*
X199601904Y-144447181D02*
X199763809Y-144447181D01*
X212466666Y-144730514D02*
X212507142Y-144770991D01*
X212507142Y-144770991D02*
X212628571Y-144811467D01*
X212628571Y-144811467D02*
X212709523Y-144811467D01*
X212709523Y-144811467D02*
X212830952Y-144770991D01*
X212830952Y-144770991D02*
X212911904Y-144690038D01*
X212911904Y-144690038D02*
X212952381Y-144609086D01*
X212952381Y-144609086D02*
X212992857Y-144447181D01*
X212992857Y-144447181D02*
X212992857Y-144325752D01*
X212992857Y-144325752D02*
X212952381Y-144163848D01*
X212952381Y-144163848D02*
X212911904Y-144082895D01*
X212911904Y-144082895D02*
X212830952Y-144001943D01*
X212830952Y-144001943D02*
X212709523Y-143961467D01*
X212709523Y-143961467D02*
X212628571Y-143961467D01*
X212628571Y-143961467D02*
X212507142Y-144001943D01*
X212507142Y-144001943D02*
X212466666Y-144042419D01*
X212142857Y-144042419D02*
X212102381Y-144001943D01*
X212102381Y-144001943D02*
X212021428Y-143961467D01*
X212021428Y-143961467D02*
X211819047Y-143961467D01*
X211819047Y-143961467D02*
X211738095Y-144001943D01*
X211738095Y-144001943D02*
X211697619Y-144042419D01*
X211697619Y-144042419D02*
X211657142Y-144123371D01*
X211657142Y-144123371D02*
X211657142Y-144204324D01*
X211657142Y-144204324D02*
X211697619Y-144325752D01*
X211697619Y-144325752D02*
X212183333Y-144811467D01*
X212183333Y-144811467D02*
X211657142Y-144811467D01*
X214642380Y-144001943D02*
X214723333Y-143961467D01*
X214723333Y-143961467D02*
X214844761Y-143961467D01*
X214844761Y-143961467D02*
X214966190Y-144001943D01*
X214966190Y-144001943D02*
X215047142Y-144082895D01*
X215047142Y-144082895D02*
X215087619Y-144163848D01*
X215087619Y-144163848D02*
X215128095Y-144325752D01*
X215128095Y-144325752D02*
X215128095Y-144447181D01*
X215128095Y-144447181D02*
X215087619Y-144609086D01*
X215087619Y-144609086D02*
X215047142Y-144690038D01*
X215047142Y-144690038D02*
X214966190Y-144770991D01*
X214966190Y-144770991D02*
X214844761Y-144811467D01*
X214844761Y-144811467D02*
X214763809Y-144811467D01*
X214763809Y-144811467D02*
X214642380Y-144770991D01*
X214642380Y-144770991D02*
X214601904Y-144730514D01*
X214601904Y-144730514D02*
X214601904Y-144447181D01*
X214601904Y-144447181D02*
X214763809Y-144447181D01*
X227466666Y-144730514D02*
X227507142Y-144770991D01*
X227507142Y-144770991D02*
X227628571Y-144811467D01*
X227628571Y-144811467D02*
X227709523Y-144811467D01*
X227709523Y-144811467D02*
X227830952Y-144770991D01*
X227830952Y-144770991D02*
X227911904Y-144690038D01*
X227911904Y-144690038D02*
X227952381Y-144609086D01*
X227952381Y-144609086D02*
X227992857Y-144447181D01*
X227992857Y-144447181D02*
X227992857Y-144325752D01*
X227992857Y-144325752D02*
X227952381Y-144163848D01*
X227952381Y-144163848D02*
X227911904Y-144082895D01*
X227911904Y-144082895D02*
X227830952Y-144001943D01*
X227830952Y-144001943D02*
X227709523Y-143961467D01*
X227709523Y-143961467D02*
X227628571Y-143961467D01*
X227628571Y-143961467D02*
X227507142Y-144001943D01*
X227507142Y-144001943D02*
X227466666Y-144042419D01*
X227183333Y-143961467D02*
X226657142Y-143961467D01*
X226657142Y-143961467D02*
X226940476Y-144285276D01*
X226940476Y-144285276D02*
X226819047Y-144285276D01*
X226819047Y-144285276D02*
X226738095Y-144325752D01*
X226738095Y-144325752D02*
X226697619Y-144366229D01*
X226697619Y-144366229D02*
X226657142Y-144447181D01*
X226657142Y-144447181D02*
X226657142Y-144649562D01*
X226657142Y-144649562D02*
X226697619Y-144730514D01*
X226697619Y-144730514D02*
X226738095Y-144770991D01*
X226738095Y-144770991D02*
X226819047Y-144811467D01*
X226819047Y-144811467D02*
X227061904Y-144811467D01*
X227061904Y-144811467D02*
X227142857Y-144770991D01*
X227142857Y-144770991D02*
X227183333Y-144730514D01*
X229642380Y-144001943D02*
X229723333Y-143961467D01*
X229723333Y-143961467D02*
X229844761Y-143961467D01*
X229844761Y-143961467D02*
X229966190Y-144001943D01*
X229966190Y-144001943D02*
X230047142Y-144082895D01*
X230047142Y-144082895D02*
X230087619Y-144163848D01*
X230087619Y-144163848D02*
X230128095Y-144325752D01*
X230128095Y-144325752D02*
X230128095Y-144447181D01*
X230128095Y-144447181D02*
X230087619Y-144609086D01*
X230087619Y-144609086D02*
X230047142Y-144690038D01*
X230047142Y-144690038D02*
X229966190Y-144770991D01*
X229966190Y-144770991D02*
X229844761Y-144811467D01*
X229844761Y-144811467D02*
X229763809Y-144811467D01*
X229763809Y-144811467D02*
X229642380Y-144770991D01*
X229642380Y-144770991D02*
X229601904Y-144730514D01*
X229601904Y-144730514D02*
X229601904Y-144447181D01*
X229601904Y-144447181D02*
X229763809Y-144447181D01*
X177815473Y-150774740D02*
X177658330Y-150827120D01*
X177658330Y-150827120D02*
X177396425Y-150827120D01*
X177396425Y-150827120D02*
X177291663Y-150774740D01*
X177291663Y-150774740D02*
X177239282Y-150722359D01*
X177239282Y-150722359D02*
X177186901Y-150617597D01*
X177186901Y-150617597D02*
X177186901Y-150512835D01*
X177186901Y-150512835D02*
X177239282Y-150408073D01*
X177239282Y-150408073D02*
X177291663Y-150355692D01*
X177291663Y-150355692D02*
X177396425Y-150303311D01*
X177396425Y-150303311D02*
X177605949Y-150250930D01*
X177605949Y-150250930D02*
X177710711Y-150198549D01*
X177710711Y-150198549D02*
X177763092Y-150146168D01*
X177763092Y-150146168D02*
X177815473Y-150041406D01*
X177815473Y-150041406D02*
X177815473Y-149936644D01*
X177815473Y-149936644D02*
X177763092Y-149831882D01*
X177763092Y-149831882D02*
X177710711Y-149779501D01*
X177710711Y-149779501D02*
X177605949Y-149727120D01*
X177605949Y-149727120D02*
X177344044Y-149727120D01*
X177344044Y-149727120D02*
X177186901Y-149779501D01*
X176820235Y-149727120D02*
X176558330Y-150827120D01*
X176558330Y-150827120D02*
X176348806Y-150041406D01*
X176348806Y-150041406D02*
X176139282Y-150827120D01*
X176139282Y-150827120D02*
X175877378Y-149727120D01*
X175458330Y-150827120D02*
X175458330Y-149727120D01*
X175091663Y-149727120D02*
X174463091Y-149727120D01*
X174777377Y-150827120D02*
X174777377Y-149727120D01*
X173467853Y-150722359D02*
X173520234Y-150774740D01*
X173520234Y-150774740D02*
X173677377Y-150827120D01*
X173677377Y-150827120D02*
X173782139Y-150827120D01*
X173782139Y-150827120D02*
X173939282Y-150774740D01*
X173939282Y-150774740D02*
X174044044Y-150669978D01*
X174044044Y-150669978D02*
X174096425Y-150565216D01*
X174096425Y-150565216D02*
X174148806Y-150355692D01*
X174148806Y-150355692D02*
X174148806Y-150198549D01*
X174148806Y-150198549D02*
X174096425Y-149989025D01*
X174096425Y-149989025D02*
X174044044Y-149884263D01*
X174044044Y-149884263D02*
X173939282Y-149779501D01*
X173939282Y-149779501D02*
X173782139Y-149727120D01*
X173782139Y-149727120D02*
X173677377Y-149727120D01*
X173677377Y-149727120D02*
X173520234Y-149779501D01*
X173520234Y-149779501D02*
X173467853Y-149831882D01*
X172996425Y-150827120D02*
X172996425Y-149727120D01*
X172996425Y-150250930D02*
X172367853Y-150250930D01*
X172367853Y-150827120D02*
X172367853Y-149727120D01*
X170482139Y-150827120D02*
X171005949Y-150827120D01*
X171005949Y-150827120D02*
X171005949Y-149727120D01*
X170167854Y-150512835D02*
X169644044Y-150512835D01*
X170272616Y-150827120D02*
X169905949Y-149727120D01*
X169905949Y-149727120D02*
X169539282Y-150827120D01*
X169172616Y-150827120D02*
X169172616Y-149727120D01*
X169172616Y-149727120D02*
X168544044Y-150827120D01*
X168544044Y-150827120D02*
X168544044Y-149727120D01*
X168020235Y-150827120D02*
X168020235Y-149727120D01*
X168020235Y-149727120D02*
X167758330Y-149727120D01*
X167758330Y-149727120D02*
X167601187Y-149779501D01*
X167601187Y-149779501D02*
X167496425Y-149884263D01*
X167496425Y-149884263D02*
X167444044Y-149989025D01*
X167444044Y-149989025D02*
X167391663Y-150198549D01*
X167391663Y-150198549D02*
X167391663Y-150355692D01*
X167391663Y-150355692D02*
X167444044Y-150565216D01*
X167444044Y-150565216D02*
X167496425Y-150669978D01*
X167496425Y-150669978D02*
X167601187Y-150774740D01*
X167601187Y-150774740D02*
X167758330Y-150827120D01*
X167758330Y-150827120D02*
X168020235Y-150827120D01*
X166972616Y-150774740D02*
X166815473Y-150827120D01*
X166815473Y-150827120D02*
X166553568Y-150827120D01*
X166553568Y-150827120D02*
X166448806Y-150774740D01*
X166448806Y-150774740D02*
X166396425Y-150722359D01*
X166396425Y-150722359D02*
X166344044Y-150617597D01*
X166344044Y-150617597D02*
X166344044Y-150512835D01*
X166344044Y-150512835D02*
X166396425Y-150408073D01*
X166396425Y-150408073D02*
X166448806Y-150355692D01*
X166448806Y-150355692D02*
X166553568Y-150303311D01*
X166553568Y-150303311D02*
X166763092Y-150250930D01*
X166763092Y-150250930D02*
X166867854Y-150198549D01*
X166867854Y-150198549D02*
X166920235Y-150146168D01*
X166920235Y-150146168D02*
X166972616Y-150041406D01*
X166972616Y-150041406D02*
X166972616Y-149936644D01*
X166972616Y-149936644D02*
X166920235Y-149831882D01*
X166920235Y-149831882D02*
X166867854Y-149779501D01*
X166867854Y-149779501D02*
X166763092Y-149727120D01*
X166763092Y-149727120D02*
X166501187Y-149727120D01*
X166501187Y-149727120D02*
X166344044Y-149779501D01*
X164720235Y-151246168D02*
X164772616Y-151193787D01*
X164772616Y-151193787D02*
X164877378Y-151036644D01*
X164877378Y-151036644D02*
X164929759Y-150931882D01*
X164929759Y-150931882D02*
X164982140Y-150774740D01*
X164982140Y-150774740D02*
X165034521Y-150512835D01*
X165034521Y-150512835D02*
X165034521Y-150303311D01*
X165034521Y-150303311D02*
X164982140Y-150041406D01*
X164982140Y-150041406D02*
X164929759Y-149884263D01*
X164929759Y-149884263D02*
X164877378Y-149779501D01*
X164877378Y-149779501D02*
X164772616Y-149622359D01*
X164772616Y-149622359D02*
X164720235Y-149569978D01*
X164301188Y-150827120D02*
X164301188Y-149727120D01*
X164301188Y-150146168D02*
X164196426Y-150093787D01*
X164196426Y-150093787D02*
X163986902Y-150093787D01*
X163986902Y-150093787D02*
X163882140Y-150146168D01*
X163882140Y-150146168D02*
X163829759Y-150198549D01*
X163829759Y-150198549D02*
X163777378Y-150303311D01*
X163777378Y-150303311D02*
X163777378Y-150617597D01*
X163777378Y-150617597D02*
X163829759Y-150722359D01*
X163829759Y-150722359D02*
X163882140Y-150774740D01*
X163882140Y-150774740D02*
X163986902Y-150827120D01*
X163986902Y-150827120D02*
X164196426Y-150827120D01*
X164196426Y-150827120D02*
X164301188Y-150774740D01*
X162886902Y-150774740D02*
X162991664Y-150827120D01*
X162991664Y-150827120D02*
X163201188Y-150827120D01*
X163201188Y-150827120D02*
X163305950Y-150774740D01*
X163305950Y-150774740D02*
X163358331Y-150669978D01*
X163358331Y-150669978D02*
X163358331Y-150250930D01*
X163358331Y-150250930D02*
X163305950Y-150146168D01*
X163305950Y-150146168D02*
X163201188Y-150093787D01*
X163201188Y-150093787D02*
X162991664Y-150093787D01*
X162991664Y-150093787D02*
X162886902Y-150146168D01*
X162886902Y-150146168D02*
X162834521Y-150250930D01*
X162834521Y-150250930D02*
X162834521Y-150355692D01*
X162834521Y-150355692D02*
X163358331Y-150460454D01*
X162205950Y-150827120D02*
X162310712Y-150774740D01*
X162310712Y-150774740D02*
X162363093Y-150669978D01*
X162363093Y-150669978D02*
X162363093Y-149727120D01*
X161629760Y-150827120D02*
X161734522Y-150774740D01*
X161734522Y-150774740D02*
X161786903Y-150722359D01*
X161786903Y-150722359D02*
X161839284Y-150617597D01*
X161839284Y-150617597D02*
X161839284Y-150303311D01*
X161839284Y-150303311D02*
X161786903Y-150198549D01*
X161786903Y-150198549D02*
X161734522Y-150146168D01*
X161734522Y-150146168D02*
X161629760Y-150093787D01*
X161629760Y-150093787D02*
X161472617Y-150093787D01*
X161472617Y-150093787D02*
X161367855Y-150146168D01*
X161367855Y-150146168D02*
X161315474Y-150198549D01*
X161315474Y-150198549D02*
X161263093Y-150303311D01*
X161263093Y-150303311D02*
X161263093Y-150617597D01*
X161263093Y-150617597D02*
X161315474Y-150722359D01*
X161315474Y-150722359D02*
X161367855Y-150774740D01*
X161367855Y-150774740D02*
X161472617Y-150827120D01*
X161472617Y-150827120D02*
X161629760Y-150827120D01*
X160896427Y-150093787D02*
X160686903Y-150827120D01*
X160686903Y-150827120D02*
X160477379Y-150303311D01*
X160477379Y-150303311D02*
X160267855Y-150827120D01*
X160267855Y-150827120D02*
X160058331Y-150093787D01*
X159639284Y-150408073D02*
X158801189Y-150408073D01*
X158277379Y-150827120D02*
X158277379Y-149727120D01*
X158277379Y-150146168D02*
X158172617Y-150093787D01*
X158172617Y-150093787D02*
X157963093Y-150093787D01*
X157963093Y-150093787D02*
X157858331Y-150146168D01*
X157858331Y-150146168D02*
X157805950Y-150198549D01*
X157805950Y-150198549D02*
X157753569Y-150303311D01*
X157753569Y-150303311D02*
X157753569Y-150617597D01*
X157753569Y-150617597D02*
X157805950Y-150722359D01*
X157805950Y-150722359D02*
X157858331Y-150774740D01*
X157858331Y-150774740D02*
X157963093Y-150827120D01*
X157963093Y-150827120D02*
X158172617Y-150827120D01*
X158172617Y-150827120D02*
X158277379Y-150774740D01*
X157124998Y-150827120D02*
X157229760Y-150774740D01*
X157229760Y-150774740D02*
X157282141Y-150722359D01*
X157282141Y-150722359D02*
X157334522Y-150617597D01*
X157334522Y-150617597D02*
X157334522Y-150303311D01*
X157334522Y-150303311D02*
X157282141Y-150198549D01*
X157282141Y-150198549D02*
X157229760Y-150146168D01*
X157229760Y-150146168D02*
X157124998Y-150093787D01*
X157124998Y-150093787D02*
X156967855Y-150093787D01*
X156967855Y-150093787D02*
X156863093Y-150146168D01*
X156863093Y-150146168D02*
X156810712Y-150198549D01*
X156810712Y-150198549D02*
X156758331Y-150303311D01*
X156758331Y-150303311D02*
X156758331Y-150617597D01*
X156758331Y-150617597D02*
X156810712Y-150722359D01*
X156810712Y-150722359D02*
X156863093Y-150774740D01*
X156863093Y-150774740D02*
X156967855Y-150827120D01*
X156967855Y-150827120D02*
X157124998Y-150827120D01*
X155815474Y-150827120D02*
X155815474Y-150250930D01*
X155815474Y-150250930D02*
X155867855Y-150146168D01*
X155867855Y-150146168D02*
X155972617Y-150093787D01*
X155972617Y-150093787D02*
X156182141Y-150093787D01*
X156182141Y-150093787D02*
X156286903Y-150146168D01*
X155815474Y-150774740D02*
X155920236Y-150827120D01*
X155920236Y-150827120D02*
X156182141Y-150827120D01*
X156182141Y-150827120D02*
X156286903Y-150774740D01*
X156286903Y-150774740D02*
X156339284Y-150669978D01*
X156339284Y-150669978D02*
X156339284Y-150565216D01*
X156339284Y-150565216D02*
X156286903Y-150460454D01*
X156286903Y-150460454D02*
X156182141Y-150408073D01*
X156182141Y-150408073D02*
X155920236Y-150408073D01*
X155920236Y-150408073D02*
X155815474Y-150355692D01*
X155291665Y-150827120D02*
X155291665Y-150093787D01*
X155291665Y-150303311D02*
X155239284Y-150198549D01*
X155239284Y-150198549D02*
X155186903Y-150146168D01*
X155186903Y-150146168D02*
X155082141Y-150093787D01*
X155082141Y-150093787D02*
X154977379Y-150093787D01*
X154139284Y-150827120D02*
X154139284Y-149727120D01*
X154139284Y-150774740D02*
X154244046Y-150827120D01*
X154244046Y-150827120D02*
X154453570Y-150827120D01*
X154453570Y-150827120D02*
X154558332Y-150774740D01*
X154558332Y-150774740D02*
X154610713Y-150722359D01*
X154610713Y-150722359D02*
X154663094Y-150617597D01*
X154663094Y-150617597D02*
X154663094Y-150303311D01*
X154663094Y-150303311D02*
X154610713Y-150198549D01*
X154610713Y-150198549D02*
X154558332Y-150146168D01*
X154558332Y-150146168D02*
X154453570Y-150093787D01*
X154453570Y-150093787D02*
X154244046Y-150093787D01*
X154244046Y-150093787D02*
X154139284Y-150146168D01*
X153720237Y-151246168D02*
X153667856Y-151193787D01*
X153667856Y-151193787D02*
X153563094Y-151036644D01*
X153563094Y-151036644D02*
X153510713Y-150931882D01*
X153510713Y-150931882D02*
X153458332Y-150774740D01*
X153458332Y-150774740D02*
X153405951Y-150512835D01*
X153405951Y-150512835D02*
X153405951Y-150303311D01*
X153405951Y-150303311D02*
X153458332Y-150041406D01*
X153458332Y-150041406D02*
X153510713Y-149884263D01*
X153510713Y-149884263D02*
X153563094Y-149779501D01*
X153563094Y-149779501D02*
X153667856Y-149622359D01*
X153667856Y-149622359D02*
X153720237Y-149569978D01*
X151363095Y-149727120D02*
X150996428Y-150827120D01*
X150996428Y-150827120D02*
X150629761Y-149727120D01*
X150263095Y-150250930D02*
X149425000Y-150250930D01*
X149425000Y-150565216D02*
X150263095Y-150565216D01*
X148901190Y-150408073D02*
X148063095Y-150408073D01*
X148482142Y-150827120D02*
X148482142Y-149989025D01*
X147644047Y-149727120D02*
X146963094Y-149727120D01*
X146963094Y-149727120D02*
X147329761Y-150146168D01*
X147329761Y-150146168D02*
X147172618Y-150146168D01*
X147172618Y-150146168D02*
X147067856Y-150198549D01*
X147067856Y-150198549D02*
X147015475Y-150250930D01*
X147015475Y-150250930D02*
X146963094Y-150355692D01*
X146963094Y-150355692D02*
X146963094Y-150617597D01*
X146963094Y-150617597D02*
X147015475Y-150722359D01*
X147015475Y-150722359D02*
X147067856Y-150774740D01*
X147067856Y-150774740D02*
X147172618Y-150827120D01*
X147172618Y-150827120D02*
X147486904Y-150827120D01*
X147486904Y-150827120D02*
X147591666Y-150774740D01*
X147591666Y-150774740D02*
X147644047Y-150722359D01*
X146648809Y-149727120D02*
X146282142Y-150827120D01*
X146282142Y-150827120D02*
X145915475Y-149727120D01*
X145653571Y-149727120D02*
X144972618Y-149727120D01*
X144972618Y-149727120D02*
X145339285Y-150146168D01*
X145339285Y-150146168D02*
X145182142Y-150146168D01*
X145182142Y-150146168D02*
X145077380Y-150198549D01*
X145077380Y-150198549D02*
X145024999Y-150250930D01*
X145024999Y-150250930D02*
X144972618Y-150355692D01*
X144972618Y-150355692D02*
X144972618Y-150617597D01*
X144972618Y-150617597D02*
X145024999Y-150722359D01*
X145024999Y-150722359D02*
X145077380Y-150774740D01*
X145077380Y-150774740D02*
X145182142Y-150827120D01*
X145182142Y-150827120D02*
X145496428Y-150827120D01*
X145496428Y-150827120D02*
X145601190Y-150774740D01*
X145601190Y-150774740D02*
X145653571Y-150722359D01*
X142248809Y-149779501D02*
X142353571Y-149727120D01*
X142353571Y-149727120D02*
X142510714Y-149727120D01*
X142510714Y-149727120D02*
X142667857Y-149779501D01*
X142667857Y-149779501D02*
X142772619Y-149884263D01*
X142772619Y-149884263D02*
X142825000Y-149989025D01*
X142825000Y-149989025D02*
X142877381Y-150198549D01*
X142877381Y-150198549D02*
X142877381Y-150355692D01*
X142877381Y-150355692D02*
X142825000Y-150565216D01*
X142825000Y-150565216D02*
X142772619Y-150669978D01*
X142772619Y-150669978D02*
X142667857Y-150774740D01*
X142667857Y-150774740D02*
X142510714Y-150827120D01*
X142510714Y-150827120D02*
X142405952Y-150827120D01*
X142405952Y-150827120D02*
X142248809Y-150774740D01*
X142248809Y-150774740D02*
X142196428Y-150722359D01*
X142196428Y-150722359D02*
X142196428Y-150355692D01*
X142196428Y-150355692D02*
X142405952Y-150355692D01*
X141725000Y-150250930D02*
X140886905Y-150250930D01*
X140886905Y-150565216D02*
X141725000Y-150565216D01*
X139786904Y-149779501D02*
X139891666Y-149727120D01*
X139891666Y-149727120D02*
X140048809Y-149727120D01*
X140048809Y-149727120D02*
X140205952Y-149779501D01*
X140205952Y-149779501D02*
X140310714Y-149884263D01*
X140310714Y-149884263D02*
X140363095Y-149989025D01*
X140363095Y-149989025D02*
X140415476Y-150198549D01*
X140415476Y-150198549D02*
X140415476Y-150355692D01*
X140415476Y-150355692D02*
X140363095Y-150565216D01*
X140363095Y-150565216D02*
X140310714Y-150669978D01*
X140310714Y-150669978D02*
X140205952Y-150774740D01*
X140205952Y-150774740D02*
X140048809Y-150827120D01*
X140048809Y-150827120D02*
X139944047Y-150827120D01*
X139944047Y-150827120D02*
X139786904Y-150774740D01*
X139786904Y-150774740D02*
X139734523Y-150722359D01*
X139734523Y-150722359D02*
X139734523Y-150355692D01*
X139734523Y-150355692D02*
X139944047Y-150355692D01*
X139263095Y-150827120D02*
X139263095Y-149727120D01*
X139263095Y-149727120D02*
X138634523Y-150827120D01*
X138634523Y-150827120D02*
X138634523Y-149727120D01*
X138110714Y-150827120D02*
X138110714Y-149727120D01*
X138110714Y-149727120D02*
X137848809Y-149727120D01*
X137848809Y-149727120D02*
X137691666Y-149779501D01*
X137691666Y-149779501D02*
X137586904Y-149884263D01*
X137586904Y-149884263D02*
X137534523Y-149989025D01*
X137534523Y-149989025D02*
X137482142Y-150198549D01*
X137482142Y-150198549D02*
X137482142Y-150355692D01*
X137482142Y-150355692D02*
X137534523Y-150565216D01*
X137534523Y-150565216D02*
X137586904Y-150669978D01*
X137586904Y-150669978D02*
X137691666Y-150774740D01*
X137691666Y-150774740D02*
X137848809Y-150827120D01*
X137848809Y-150827120D02*
X138110714Y-150827120D01*
X135858333Y-151246168D02*
X135910714Y-151193787D01*
X135910714Y-151193787D02*
X136015476Y-151036644D01*
X136015476Y-151036644D02*
X136067857Y-150931882D01*
X136067857Y-150931882D02*
X136120238Y-150774740D01*
X136120238Y-150774740D02*
X136172619Y-150512835D01*
X136172619Y-150512835D02*
X136172619Y-150303311D01*
X136172619Y-150303311D02*
X136120238Y-150041406D01*
X136120238Y-150041406D02*
X136067857Y-149884263D01*
X136067857Y-149884263D02*
X136015476Y-149779501D01*
X136015476Y-149779501D02*
X135910714Y-149622359D01*
X135910714Y-149622359D02*
X135858333Y-149569978D01*
X135439286Y-150827120D02*
X135439286Y-149727120D01*
X135439286Y-150146168D02*
X135334524Y-150093787D01*
X135334524Y-150093787D02*
X135125000Y-150093787D01*
X135125000Y-150093787D02*
X135020238Y-150146168D01*
X135020238Y-150146168D02*
X134967857Y-150198549D01*
X134967857Y-150198549D02*
X134915476Y-150303311D01*
X134915476Y-150303311D02*
X134915476Y-150617597D01*
X134915476Y-150617597D02*
X134967857Y-150722359D01*
X134967857Y-150722359D02*
X135020238Y-150774740D01*
X135020238Y-150774740D02*
X135125000Y-150827120D01*
X135125000Y-150827120D02*
X135334524Y-150827120D01*
X135334524Y-150827120D02*
X135439286Y-150774740D01*
X133972619Y-150093787D02*
X133972619Y-150827120D01*
X134444048Y-150093787D02*
X134444048Y-150669978D01*
X134444048Y-150669978D02*
X134391667Y-150774740D01*
X134391667Y-150774740D02*
X134286905Y-150827120D01*
X134286905Y-150827120D02*
X134129762Y-150827120D01*
X134129762Y-150827120D02*
X134025000Y-150774740D01*
X134025000Y-150774740D02*
X133972619Y-150722359D01*
X133501191Y-150774740D02*
X133396429Y-150827120D01*
X133396429Y-150827120D02*
X133186905Y-150827120D01*
X133186905Y-150827120D02*
X133082143Y-150774740D01*
X133082143Y-150774740D02*
X133029762Y-150669978D01*
X133029762Y-150669978D02*
X133029762Y-150617597D01*
X133029762Y-150617597D02*
X133082143Y-150512835D01*
X133082143Y-150512835D02*
X133186905Y-150460454D01*
X133186905Y-150460454D02*
X133344048Y-150460454D01*
X133344048Y-150460454D02*
X133448810Y-150408073D01*
X133448810Y-150408073D02*
X133501191Y-150303311D01*
X133501191Y-150303311D02*
X133501191Y-150250930D01*
X133501191Y-150250930D02*
X133448810Y-150146168D01*
X133448810Y-150146168D02*
X133344048Y-150093787D01*
X133344048Y-150093787D02*
X133186905Y-150093787D01*
X133186905Y-150093787D02*
X133082143Y-150146168D01*
X132610715Y-150774740D02*
X132505953Y-150827120D01*
X132505953Y-150827120D02*
X132296429Y-150827120D01*
X132296429Y-150827120D02*
X132191667Y-150774740D01*
X132191667Y-150774740D02*
X132139286Y-150669978D01*
X132139286Y-150669978D02*
X132139286Y-150617597D01*
X132139286Y-150617597D02*
X132191667Y-150512835D01*
X132191667Y-150512835D02*
X132296429Y-150460454D01*
X132296429Y-150460454D02*
X132453572Y-150460454D01*
X132453572Y-150460454D02*
X132558334Y-150408073D01*
X132558334Y-150408073D02*
X132610715Y-150303311D01*
X132610715Y-150303311D02*
X132610715Y-150250930D01*
X132610715Y-150250930D02*
X132558334Y-150146168D01*
X132558334Y-150146168D02*
X132453572Y-150093787D01*
X132453572Y-150093787D02*
X132296429Y-150093787D01*
X132296429Y-150093787D02*
X132191667Y-150146168D01*
X131248810Y-150774740D02*
X131353572Y-150827120D01*
X131353572Y-150827120D02*
X131563096Y-150827120D01*
X131563096Y-150827120D02*
X131667858Y-150774740D01*
X131667858Y-150774740D02*
X131720239Y-150669978D01*
X131720239Y-150669978D02*
X131720239Y-150250930D01*
X131720239Y-150250930D02*
X131667858Y-150146168D01*
X131667858Y-150146168D02*
X131563096Y-150093787D01*
X131563096Y-150093787D02*
X131353572Y-150093787D01*
X131353572Y-150093787D02*
X131248810Y-150146168D01*
X131248810Y-150146168D02*
X131196429Y-150250930D01*
X131196429Y-150250930D02*
X131196429Y-150355692D01*
X131196429Y-150355692D02*
X131720239Y-150460454D01*
X130253572Y-150827120D02*
X130253572Y-149727120D01*
X130253572Y-150774740D02*
X130358334Y-150827120D01*
X130358334Y-150827120D02*
X130567858Y-150827120D01*
X130567858Y-150827120D02*
X130672620Y-150774740D01*
X130672620Y-150774740D02*
X130725001Y-150722359D01*
X130725001Y-150722359D02*
X130777382Y-150617597D01*
X130777382Y-150617597D02*
X130777382Y-150303311D01*
X130777382Y-150303311D02*
X130725001Y-150198549D01*
X130725001Y-150198549D02*
X130672620Y-150146168D01*
X130672620Y-150146168D02*
X130567858Y-150093787D01*
X130567858Y-150093787D02*
X130358334Y-150093787D01*
X130358334Y-150093787D02*
X130253572Y-150146168D01*
X129834525Y-151246168D02*
X129782144Y-151193787D01*
X129782144Y-151193787D02*
X129677382Y-151036644D01*
X129677382Y-151036644D02*
X129625001Y-150931882D01*
X129625001Y-150931882D02*
X129572620Y-150774740D01*
X129572620Y-150774740D02*
X129520239Y-150512835D01*
X129520239Y-150512835D02*
X129520239Y-150303311D01*
X129520239Y-150303311D02*
X129572620Y-150041406D01*
X129572620Y-150041406D02*
X129625001Y-149884263D01*
X129625001Y-149884263D02*
X129677382Y-149779501D01*
X129677382Y-149779501D02*
X129782144Y-149622359D01*
X129782144Y-149622359D02*
X129834525Y-149569978D01*
X127372621Y-150774740D02*
X127215478Y-150827120D01*
X127215478Y-150827120D02*
X126953573Y-150827120D01*
X126953573Y-150827120D02*
X126848811Y-150774740D01*
X126848811Y-150774740D02*
X126796430Y-150722359D01*
X126796430Y-150722359D02*
X126744049Y-150617597D01*
X126744049Y-150617597D02*
X126744049Y-150512835D01*
X126744049Y-150512835D02*
X126796430Y-150408073D01*
X126796430Y-150408073D02*
X126848811Y-150355692D01*
X126848811Y-150355692D02*
X126953573Y-150303311D01*
X126953573Y-150303311D02*
X127163097Y-150250930D01*
X127163097Y-150250930D02*
X127267859Y-150198549D01*
X127267859Y-150198549D02*
X127320240Y-150146168D01*
X127320240Y-150146168D02*
X127372621Y-150041406D01*
X127372621Y-150041406D02*
X127372621Y-149936644D01*
X127372621Y-149936644D02*
X127320240Y-149831882D01*
X127320240Y-149831882D02*
X127267859Y-149779501D01*
X127267859Y-149779501D02*
X127163097Y-149727120D01*
X127163097Y-149727120D02*
X126901192Y-149727120D01*
X126901192Y-149727120D02*
X126744049Y-149779501D01*
X126272621Y-150093787D02*
X126272621Y-150827120D01*
X126272621Y-150198549D02*
X126220240Y-150146168D01*
X126220240Y-150146168D02*
X126115478Y-150093787D01*
X126115478Y-150093787D02*
X125958335Y-150093787D01*
X125958335Y-150093787D02*
X125853573Y-150146168D01*
X125853573Y-150146168D02*
X125801192Y-150250930D01*
X125801192Y-150250930D02*
X125801192Y-150827120D01*
X125277383Y-150250930D02*
X124439288Y-150250930D01*
X124439288Y-150565216D02*
X125277383Y-150565216D01*
X123444049Y-150827120D02*
X123444049Y-149727120D01*
X123444049Y-150774740D02*
X123548811Y-150827120D01*
X123548811Y-150827120D02*
X123758335Y-150827120D01*
X123758335Y-150827120D02*
X123863097Y-150774740D01*
X123863097Y-150774740D02*
X123915478Y-150722359D01*
X123915478Y-150722359D02*
X123967859Y-150617597D01*
X123967859Y-150617597D02*
X123967859Y-150303311D01*
X123967859Y-150303311D02*
X123915478Y-150198549D01*
X123915478Y-150198549D02*
X123863097Y-150146168D01*
X123863097Y-150146168D02*
X123758335Y-150093787D01*
X123758335Y-150093787D02*
X123548811Y-150093787D01*
X123548811Y-150093787D02*
X123444049Y-150146168D01*
X122448811Y-150827120D02*
X122448811Y-150250930D01*
X122448811Y-150250930D02*
X122501192Y-150146168D01*
X122501192Y-150146168D02*
X122605954Y-150093787D01*
X122605954Y-150093787D02*
X122815478Y-150093787D01*
X122815478Y-150093787D02*
X122920240Y-150146168D01*
X122448811Y-150774740D02*
X122553573Y-150827120D01*
X122553573Y-150827120D02*
X122815478Y-150827120D01*
X122815478Y-150827120D02*
X122920240Y-150774740D01*
X122920240Y-150774740D02*
X122972621Y-150669978D01*
X122972621Y-150669978D02*
X122972621Y-150565216D01*
X122972621Y-150565216D02*
X122920240Y-150460454D01*
X122920240Y-150460454D02*
X122815478Y-150408073D01*
X122815478Y-150408073D02*
X122553573Y-150408073D01*
X122553573Y-150408073D02*
X122448811Y-150355692D01*
X122082145Y-150093787D02*
X121663097Y-150093787D01*
X121925002Y-149727120D02*
X121925002Y-150669978D01*
X121925002Y-150669978D02*
X121872621Y-150774740D01*
X121872621Y-150774740D02*
X121767859Y-150827120D01*
X121767859Y-150827120D02*
X121663097Y-150827120D01*
X120825002Y-150827120D02*
X120825002Y-150250930D01*
X120825002Y-150250930D02*
X120877383Y-150146168D01*
X120877383Y-150146168D02*
X120982145Y-150093787D01*
X120982145Y-150093787D02*
X121191669Y-150093787D01*
X121191669Y-150093787D02*
X121296431Y-150146168D01*
X120825002Y-150774740D02*
X120929764Y-150827120D01*
X120929764Y-150827120D02*
X121191669Y-150827120D01*
X121191669Y-150827120D02*
X121296431Y-150774740D01*
X121296431Y-150774740D02*
X121348812Y-150669978D01*
X121348812Y-150669978D02*
X121348812Y-150565216D01*
X121348812Y-150565216D02*
X121296431Y-150460454D01*
X121296431Y-150460454D02*
X121191669Y-150408073D01*
X121191669Y-150408073D02*
X120929764Y-150408073D01*
X120929764Y-150408073D02*
X120825002Y-150355692D01*
X118991669Y-150774740D02*
X119096431Y-150827120D01*
X119096431Y-150827120D02*
X119305955Y-150827120D01*
X119305955Y-150827120D02*
X119410717Y-150774740D01*
X119410717Y-150774740D02*
X119463098Y-150722359D01*
X119463098Y-150722359D02*
X119515479Y-150617597D01*
X119515479Y-150617597D02*
X119515479Y-150303311D01*
X119515479Y-150303311D02*
X119463098Y-150198549D01*
X119463098Y-150198549D02*
X119410717Y-150146168D01*
X119410717Y-150146168D02*
X119305955Y-150093787D01*
X119305955Y-150093787D02*
X119096431Y-150093787D01*
X119096431Y-150093787D02*
X118991669Y-150146168D01*
X118363098Y-150827120D02*
X118467860Y-150774740D01*
X118467860Y-150774740D02*
X118520241Y-150722359D01*
X118520241Y-150722359D02*
X118572622Y-150617597D01*
X118572622Y-150617597D02*
X118572622Y-150303311D01*
X118572622Y-150303311D02*
X118520241Y-150198549D01*
X118520241Y-150198549D02*
X118467860Y-150146168D01*
X118467860Y-150146168D02*
X118363098Y-150093787D01*
X118363098Y-150093787D02*
X118205955Y-150093787D01*
X118205955Y-150093787D02*
X118101193Y-150146168D01*
X118101193Y-150146168D02*
X118048812Y-150198549D01*
X118048812Y-150198549D02*
X117996431Y-150303311D01*
X117996431Y-150303311D02*
X117996431Y-150617597D01*
X117996431Y-150617597D02*
X118048812Y-150722359D01*
X118048812Y-150722359D02*
X118101193Y-150774740D01*
X118101193Y-150774740D02*
X118205955Y-150827120D01*
X118205955Y-150827120D02*
X118363098Y-150827120D01*
X117525003Y-150827120D02*
X117525003Y-150093787D01*
X117525003Y-150198549D02*
X117472622Y-150146168D01*
X117472622Y-150146168D02*
X117367860Y-150093787D01*
X117367860Y-150093787D02*
X117210717Y-150093787D01*
X117210717Y-150093787D02*
X117105955Y-150146168D01*
X117105955Y-150146168D02*
X117053574Y-150250930D01*
X117053574Y-150250930D02*
X117053574Y-150827120D01*
X117053574Y-150250930D02*
X117001193Y-150146168D01*
X117001193Y-150146168D02*
X116896431Y-150093787D01*
X116896431Y-150093787D02*
X116739288Y-150093787D01*
X116739288Y-150093787D02*
X116634527Y-150146168D01*
X116634527Y-150146168D02*
X116582146Y-150250930D01*
X116582146Y-150250930D02*
X116582146Y-150827120D01*
X116058336Y-150827120D02*
X116058336Y-150093787D01*
X116058336Y-150198549D02*
X116005955Y-150146168D01*
X116005955Y-150146168D02*
X115901193Y-150093787D01*
X115901193Y-150093787D02*
X115744050Y-150093787D01*
X115744050Y-150093787D02*
X115639288Y-150146168D01*
X115639288Y-150146168D02*
X115586907Y-150250930D01*
X115586907Y-150250930D02*
X115586907Y-150827120D01*
X115586907Y-150250930D02*
X115534526Y-150146168D01*
X115534526Y-150146168D02*
X115429764Y-150093787D01*
X115429764Y-150093787D02*
X115272621Y-150093787D01*
X115272621Y-150093787D02*
X115167860Y-150146168D01*
X115167860Y-150146168D02*
X115115479Y-150250930D01*
X115115479Y-150250930D02*
X115115479Y-150827120D01*
X114434526Y-150827120D02*
X114539288Y-150774740D01*
X114539288Y-150774740D02*
X114591669Y-150722359D01*
X114591669Y-150722359D02*
X114644050Y-150617597D01*
X114644050Y-150617597D02*
X114644050Y-150303311D01*
X114644050Y-150303311D02*
X114591669Y-150198549D01*
X114591669Y-150198549D02*
X114539288Y-150146168D01*
X114539288Y-150146168D02*
X114434526Y-150093787D01*
X114434526Y-150093787D02*
X114277383Y-150093787D01*
X114277383Y-150093787D02*
X114172621Y-150146168D01*
X114172621Y-150146168D02*
X114120240Y-150198549D01*
X114120240Y-150198549D02*
X114067859Y-150303311D01*
X114067859Y-150303311D02*
X114067859Y-150617597D01*
X114067859Y-150617597D02*
X114120240Y-150722359D01*
X114120240Y-150722359D02*
X114172621Y-150774740D01*
X114172621Y-150774740D02*
X114277383Y-150827120D01*
X114277383Y-150827120D02*
X114434526Y-150827120D01*
X113596431Y-150093787D02*
X113596431Y-150827120D01*
X113596431Y-150198549D02*
X113544050Y-150146168D01*
X113544050Y-150146168D02*
X113439288Y-150093787D01*
X113439288Y-150093787D02*
X113282145Y-150093787D01*
X113282145Y-150093787D02*
X113177383Y-150146168D01*
X113177383Y-150146168D02*
X113125002Y-150250930D01*
X113125002Y-150250930D02*
X113125002Y-150827120D01*
X110296431Y-150722359D02*
X110348812Y-150774740D01*
X110348812Y-150774740D02*
X110505955Y-150827120D01*
X110505955Y-150827120D02*
X110610717Y-150827120D01*
X110610717Y-150827120D02*
X110767860Y-150774740D01*
X110767860Y-150774740D02*
X110872622Y-150669978D01*
X110872622Y-150669978D02*
X110925003Y-150565216D01*
X110925003Y-150565216D02*
X110977384Y-150355692D01*
X110977384Y-150355692D02*
X110977384Y-150198549D01*
X110977384Y-150198549D02*
X110925003Y-149989025D01*
X110925003Y-149989025D02*
X110872622Y-149884263D01*
X110872622Y-149884263D02*
X110767860Y-149779501D01*
X110767860Y-149779501D02*
X110610717Y-149727120D01*
X110610717Y-149727120D02*
X110505955Y-149727120D01*
X110505955Y-149727120D02*
X110348812Y-149779501D01*
X110348812Y-149779501D02*
X110296431Y-149831882D01*
X109825003Y-150093787D02*
X109825003Y-150827120D01*
X109825003Y-150198549D02*
X109772622Y-150146168D01*
X109772622Y-150146168D02*
X109667860Y-150093787D01*
X109667860Y-150093787D02*
X109510717Y-150093787D01*
X109510717Y-150093787D02*
X109405955Y-150146168D01*
X109405955Y-150146168D02*
X109353574Y-150250930D01*
X109353574Y-150250930D02*
X109353574Y-150827120D01*
X108829765Y-150250930D02*
X107991670Y-150250930D01*
X107991670Y-150565216D02*
X108829765Y-150565216D01*
X106996431Y-150774740D02*
X107101193Y-150827120D01*
X107101193Y-150827120D02*
X107310717Y-150827120D01*
X107310717Y-150827120D02*
X107415479Y-150774740D01*
X107415479Y-150774740D02*
X107467860Y-150722359D01*
X107467860Y-150722359D02*
X107520241Y-150617597D01*
X107520241Y-150617597D02*
X107520241Y-150303311D01*
X107520241Y-150303311D02*
X107467860Y-150198549D01*
X107467860Y-150198549D02*
X107415479Y-150146168D01*
X107415479Y-150146168D02*
X107310717Y-150093787D01*
X107310717Y-150093787D02*
X107101193Y-150093787D01*
X107101193Y-150093787D02*
X106996431Y-150146168D01*
X106525003Y-150827120D02*
X106525003Y-150093787D01*
X106525003Y-150198549D02*
X106472622Y-150146168D01*
X106472622Y-150146168D02*
X106367860Y-150093787D01*
X106367860Y-150093787D02*
X106210717Y-150093787D01*
X106210717Y-150093787D02*
X106105955Y-150146168D01*
X106105955Y-150146168D02*
X106053574Y-150250930D01*
X106053574Y-150250930D02*
X106053574Y-150827120D01*
X106053574Y-150250930D02*
X106001193Y-150146168D01*
X106001193Y-150146168D02*
X105896431Y-150093787D01*
X105896431Y-150093787D02*
X105739288Y-150093787D01*
X105739288Y-150093787D02*
X105634527Y-150146168D01*
X105634527Y-150146168D02*
X105582146Y-150250930D01*
X105582146Y-150250930D02*
X105582146Y-150827120D01*
X104586907Y-150827120D02*
X104586907Y-149727120D01*
X104586907Y-150774740D02*
X104691669Y-150827120D01*
X104691669Y-150827120D02*
X104901193Y-150827120D01*
X104901193Y-150827120D02*
X105005955Y-150774740D01*
X105005955Y-150774740D02*
X105058336Y-150722359D01*
X105058336Y-150722359D02*
X105110717Y-150617597D01*
X105110717Y-150617597D02*
X105110717Y-150303311D01*
X105110717Y-150303311D02*
X105058336Y-150198549D01*
X105058336Y-150198549D02*
X105005955Y-150146168D01*
X105005955Y-150146168D02*
X104901193Y-150093787D01*
X104901193Y-150093787D02*
X104691669Y-150093787D01*
X104691669Y-150093787D02*
X104586907Y-150146168D01*
X102753574Y-150774740D02*
X102858336Y-150827120D01*
X102858336Y-150827120D02*
X103067860Y-150827120D01*
X103067860Y-150827120D02*
X103172622Y-150774740D01*
X103172622Y-150774740D02*
X103225003Y-150722359D01*
X103225003Y-150722359D02*
X103277384Y-150617597D01*
X103277384Y-150617597D02*
X103277384Y-150303311D01*
X103277384Y-150303311D02*
X103225003Y-150198549D01*
X103225003Y-150198549D02*
X103172622Y-150146168D01*
X103172622Y-150146168D02*
X103067860Y-150093787D01*
X103067860Y-150093787D02*
X102858336Y-150093787D01*
X102858336Y-150093787D02*
X102753574Y-150146168D01*
X102125003Y-150827120D02*
X102229765Y-150774740D01*
X102229765Y-150774740D02*
X102282146Y-150722359D01*
X102282146Y-150722359D02*
X102334527Y-150617597D01*
X102334527Y-150617597D02*
X102334527Y-150303311D01*
X102334527Y-150303311D02*
X102282146Y-150198549D01*
X102282146Y-150198549D02*
X102229765Y-150146168D01*
X102229765Y-150146168D02*
X102125003Y-150093787D01*
X102125003Y-150093787D02*
X101967860Y-150093787D01*
X101967860Y-150093787D02*
X101863098Y-150146168D01*
X101863098Y-150146168D02*
X101810717Y-150198549D01*
X101810717Y-150198549D02*
X101758336Y-150303311D01*
X101758336Y-150303311D02*
X101758336Y-150617597D01*
X101758336Y-150617597D02*
X101810717Y-150722359D01*
X101810717Y-150722359D02*
X101863098Y-150774740D01*
X101863098Y-150774740D02*
X101967860Y-150827120D01*
X101967860Y-150827120D02*
X102125003Y-150827120D01*
X101286908Y-150827120D02*
X101286908Y-150093787D01*
X101286908Y-150198549D02*
X101234527Y-150146168D01*
X101234527Y-150146168D02*
X101129765Y-150093787D01*
X101129765Y-150093787D02*
X100972622Y-150093787D01*
X100972622Y-150093787D02*
X100867860Y-150146168D01*
X100867860Y-150146168D02*
X100815479Y-150250930D01*
X100815479Y-150250930D02*
X100815479Y-150827120D01*
X100815479Y-150250930D02*
X100763098Y-150146168D01*
X100763098Y-150146168D02*
X100658336Y-150093787D01*
X100658336Y-150093787D02*
X100501193Y-150093787D01*
X100501193Y-150093787D02*
X100396432Y-150146168D01*
X100396432Y-150146168D02*
X100344051Y-150250930D01*
X100344051Y-150250930D02*
X100344051Y-150827120D01*
X99820241Y-150827120D02*
X99820241Y-150093787D01*
X99820241Y-150198549D02*
X99767860Y-150146168D01*
X99767860Y-150146168D02*
X99663098Y-150093787D01*
X99663098Y-150093787D02*
X99505955Y-150093787D01*
X99505955Y-150093787D02*
X99401193Y-150146168D01*
X99401193Y-150146168D02*
X99348812Y-150250930D01*
X99348812Y-150250930D02*
X99348812Y-150827120D01*
X99348812Y-150250930D02*
X99296431Y-150146168D01*
X99296431Y-150146168D02*
X99191669Y-150093787D01*
X99191669Y-150093787D02*
X99034526Y-150093787D01*
X99034526Y-150093787D02*
X98929765Y-150146168D01*
X98929765Y-150146168D02*
X98877384Y-150250930D01*
X98877384Y-150250930D02*
X98877384Y-150827120D01*
X98196431Y-150827120D02*
X98301193Y-150774740D01*
X98301193Y-150774740D02*
X98353574Y-150722359D01*
X98353574Y-150722359D02*
X98405955Y-150617597D01*
X98405955Y-150617597D02*
X98405955Y-150303311D01*
X98405955Y-150303311D02*
X98353574Y-150198549D01*
X98353574Y-150198549D02*
X98301193Y-150146168D01*
X98301193Y-150146168D02*
X98196431Y-150093787D01*
X98196431Y-150093787D02*
X98039288Y-150093787D01*
X98039288Y-150093787D02*
X97934526Y-150146168D01*
X97934526Y-150146168D02*
X97882145Y-150198549D01*
X97882145Y-150198549D02*
X97829764Y-150303311D01*
X97829764Y-150303311D02*
X97829764Y-150617597D01*
X97829764Y-150617597D02*
X97882145Y-150722359D01*
X97882145Y-150722359D02*
X97934526Y-150774740D01*
X97934526Y-150774740D02*
X98039288Y-150827120D01*
X98039288Y-150827120D02*
X98196431Y-150827120D01*
X97358336Y-150093787D02*
X97358336Y-150827120D01*
X97358336Y-150198549D02*
X97305955Y-150146168D01*
X97305955Y-150146168D02*
X97201193Y-150093787D01*
X97201193Y-150093787D02*
X97044050Y-150093787D01*
X97044050Y-150093787D02*
X96939288Y-150146168D01*
X96939288Y-150146168D02*
X96886907Y-150250930D01*
X96886907Y-150250930D02*
X96886907Y-150827120D01*
%TO.C,C11*%
D11*
X144817164Y-97515000D02*
X145032836Y-97515000D01*
X144817164Y-98235000D02*
X145032836Y-98235000D01*
%TO.C,R15*%
X194798859Y-106900000D02*
X195106141Y-106900000D01*
X194798859Y-107660000D02*
X195106141Y-107660000D01*
%TO.C,R16*%
X194798859Y-104100000D02*
X195106141Y-104100000D01*
X194798859Y-104860000D02*
X195106141Y-104860000D01*
%TO.C,C5*%
X133667164Y-97515500D02*
X133882836Y-97515500D01*
X133667164Y-98235500D02*
X133882836Y-98235500D01*
%TO.C,R1*%
X110796359Y-78895000D02*
X111103641Y-78895000D01*
X110796359Y-79655000D02*
X111103641Y-79655000D01*
%TO.C,C16*%
X142781164Y-99881500D02*
X142996836Y-99881500D01*
X142781164Y-100601500D02*
X142996836Y-100601500D01*
%TO.C,C10*%
X197269664Y-105520000D02*
X197485336Y-105520000D01*
X197269664Y-106240000D02*
X197485336Y-106240000D01*
%TO.C,R10*%
X203763359Y-63105000D02*
X204070641Y-63105000D01*
X203763359Y-63865000D02*
X204070641Y-63865000D01*
%TO.C,C15*%
X139067164Y-94397500D02*
X139282836Y-94397500D01*
X139067164Y-95117500D02*
X139282836Y-95117500D01*
%TO.C,C22*%
X114513748Y-79565000D02*
X115036252Y-79565000D01*
X114513748Y-81035000D02*
X115036252Y-81035000D01*
%TO.C,C1*%
X137267164Y-97515500D02*
X137482836Y-97515500D01*
X137267164Y-98235500D02*
X137482836Y-98235500D01*
%TO.C,R2*%
X110796359Y-76095000D02*
X111103641Y-76095000D01*
X110796359Y-76855000D02*
X111103641Y-76855000D01*
%TO.C,R8*%
X211456359Y-99350000D02*
X211763641Y-99350000D01*
X211456359Y-100110000D02*
X211763641Y-100110000D01*
%TO.C,R11*%
X211150359Y-55238000D02*
X211457641Y-55238000D01*
X211150359Y-55998000D02*
X211457641Y-55998000D01*
%TO.C,C9*%
X77269664Y-105520000D02*
X77485336Y-105520000D01*
X77269664Y-106240000D02*
X77485336Y-106240000D01*
%TO.C,R7*%
X103648859Y-111900000D02*
X103956141Y-111900000D01*
X103648859Y-112660000D02*
X103956141Y-112660000D01*
%TO.C,C8*%
X209077164Y-97970000D02*
X209292836Y-97970000D01*
X209077164Y-98690000D02*
X209292836Y-98690000D01*
%TO.C,C23*%
X131192164Y-98940000D02*
X131407836Y-98940000D01*
X131192164Y-99660000D02*
X131407836Y-99660000D01*
%TO.C,R14*%
X198623859Y-107925000D02*
X198931141Y-107925000D01*
X198623859Y-108685000D02*
X198931141Y-108685000D01*
%TO.C,C3*%
X139067164Y-100632500D02*
X139282836Y-100632500D01*
X139067164Y-101352500D02*
X139282836Y-101352500D01*
%TO.C,R12*%
X213908359Y-54712000D02*
X214215641Y-54712000D01*
X213908359Y-55472000D02*
X214215641Y-55472000D01*
%TO.C,R5*%
X131975359Y-94583500D02*
X132282641Y-94583500D01*
X131975359Y-95343500D02*
X132282641Y-95343500D01*
%TO.C,C12*%
X212558164Y-76912000D02*
X212773836Y-76912000D01*
X212558164Y-77632000D02*
X212773836Y-77632000D01*
%TO.C,C7*%
X101269664Y-110520000D02*
X101485336Y-110520000D01*
X101269664Y-111240000D02*
X101485336Y-111240000D01*
%TO.C,C4*%
X135467164Y-100632500D02*
X135682836Y-100632500D01*
X135467164Y-101352500D02*
X135682836Y-101352500D01*
%TO.C,C19*%
X148417164Y-97515000D02*
X148632836Y-97515000D01*
X148417164Y-98235000D02*
X148632836Y-98235000D01*
%TO.C,C20*%
X115913748Y-77140000D02*
X116436252Y-77140000D01*
X115913748Y-78610000D02*
X116436252Y-78610000D01*
%TO.C,C24*%
X127767164Y-100005000D02*
X127982836Y-100005000D01*
X127767164Y-100725000D02*
X127982836Y-100725000D01*
%TO.C,R9*%
X203411359Y-65890000D02*
X203718641Y-65890000D01*
X203411359Y-66650000D02*
X203718641Y-66650000D01*
%TO.C,R13*%
X200023859Y-105500000D02*
X200331141Y-105500000D01*
X200023859Y-106260000D02*
X200331141Y-106260000D01*
%TO.C,C13*%
X113267164Y-77515000D02*
X113482836Y-77515000D01*
X113267164Y-78235000D02*
X113482836Y-78235000D01*
%TO.C,C18*%
X223131664Y-99300000D02*
X223347336Y-99300000D01*
X223131664Y-100020000D02*
X223347336Y-100020000D01*
%TO.C,C14*%
X175267164Y-77515000D02*
X175482836Y-77515000D01*
X175267164Y-78235000D02*
X175482836Y-78235000D01*
%TO.C,R6*%
X136917359Y-91502500D02*
X137224641Y-91502500D01*
X136917359Y-92262500D02*
X137224641Y-92262500D01*
%TO.C,C2*%
X140867164Y-97515500D02*
X141082836Y-97515500D01*
X140867164Y-98235500D02*
X141082836Y-98235500D01*
%TO.C,C17*%
X132714164Y-101423500D02*
X132929836Y-101423500D01*
X132714164Y-102143500D02*
X132929836Y-102143500D01*
%TO.C,C6*%
X135467164Y-94397500D02*
X135682836Y-94397500D01*
X135467164Y-95117500D02*
X135682836Y-95117500D01*
%TO.C,R4*%
X172796359Y-76095000D02*
X173103641Y-76095000D01*
X172796359Y-76855000D02*
X173103641Y-76855000D01*
%TO.C,C21*%
X178343748Y-79260000D02*
X178866252Y-79260000D01*
X178343748Y-80730000D02*
X178866252Y-80730000D01*
%TO.C,R3*%
X173821359Y-79920000D02*
X174128641Y-79920000D01*
X173821359Y-80680000D02*
X174128641Y-80680000D01*
%TD*%
%LPC*%
D12*
%TO.C,SWD6*%
X139325000Y-146825000D03*
D13*
X141865000Y-146825000D03*
X144405000Y-146825000D03*
%TD*%
D12*
%TO.C,SWC1*%
X197325000Y-146825000D03*
D13*
X199865000Y-146825000D03*
X197325000Y-149365000D03*
X199865000Y-149365000D03*
X197325000Y-151905000D03*
X199865000Y-151905000D03*
%TD*%
D12*
%TO.C,SWC0*%
X182325000Y-146825000D03*
D13*
X184865000Y-146825000D03*
X182325000Y-149365000D03*
X184865000Y-149365000D03*
X182325000Y-151905000D03*
X184865000Y-151905000D03*
%TD*%
D14*
%TO.C,J2*%
X158265000Y-65475000D03*
X152485000Y-65475000D03*
D15*
X159695000Y-66005000D03*
D16*
X159695000Y-61825000D03*
D15*
X151055000Y-66005000D03*
D16*
X151055000Y-61825000D03*
%TD*%
D12*
%TO.C,SWC2*%
X212325000Y-146825000D03*
D13*
X214865000Y-146825000D03*
X212325000Y-149365000D03*
X214865000Y-149365000D03*
X212325000Y-151905000D03*
X214865000Y-151905000D03*
%TD*%
D17*
%TO.C,H5*%
X166375000Y-140875000D03*
%TD*%
D12*
%TO.C,SWD2*%
X79325000Y-146825000D03*
D13*
X81865000Y-146825000D03*
X84405000Y-146825000D03*
%TD*%
D17*
%TO.C,H4*%
X43375000Y-140875000D03*
%TD*%
%TO.C,H3*%
X231375000Y-61875000D03*
%TD*%
%TO.C,H6*%
X231375000Y-140875000D03*
%TD*%
%TO.C,H2*%
X166375000Y-61875000D03*
%TD*%
D12*
%TO.C,SWC3*%
X227325000Y-146825000D03*
D13*
X229865000Y-146825000D03*
X227325000Y-149365000D03*
X229865000Y-149365000D03*
X227325000Y-151905000D03*
X229865000Y-151905000D03*
%TD*%
D12*
%TO.C,J5*%
X203375000Y-98875000D03*
D13*
X203375000Y-101415000D03*
X203375000Y-103955000D03*
%TD*%
D12*
%TO.C,SWD3*%
X94325000Y-146825000D03*
D13*
X96865000Y-146825000D03*
X99405000Y-146825000D03*
%TD*%
D14*
%TO.C,J1*%
X98265000Y-65475000D03*
X92485000Y-65475000D03*
D15*
X99695000Y-66005000D03*
D16*
X99695000Y-61825000D03*
D15*
X91055000Y-66005000D03*
D16*
X91055000Y-61825000D03*
%TD*%
D12*
%TO.C,SWD0*%
X49325000Y-146825000D03*
D13*
X51865000Y-146825000D03*
X54405000Y-146825000D03*
%TD*%
D12*
%TO.C,SWD5*%
X124325000Y-146825000D03*
D13*
X126865000Y-146825000D03*
X129405000Y-146825000D03*
%TD*%
D17*
%TO.C,H1*%
X43375000Y-61875000D03*
%TD*%
D12*
%TO.C,SWD7*%
X154325000Y-146825000D03*
D13*
X156865000Y-146825000D03*
X159405000Y-146825000D03*
%TD*%
D12*
%TO.C,SWD4*%
X109325000Y-146825000D03*
D13*
X111865000Y-146825000D03*
X114405000Y-146825000D03*
%TD*%
D12*
%TO.C,SWD1*%
X64325000Y-146825000D03*
D13*
X66865000Y-146825000D03*
X69405000Y-146825000D03*
%TD*%
D18*
%TO.C,C11*%
X144445000Y-97875000D03*
X145405000Y-97875000D03*
%TD*%
D19*
%TO.C,R15*%
X194442500Y-107280000D03*
X195462500Y-107280000D03*
%TD*%
%TO.C,R16*%
X194442500Y-104480000D03*
X195462500Y-104480000D03*
%TD*%
D18*
%TO.C,C5*%
X133295000Y-97875500D03*
X134255000Y-97875500D03*
%TD*%
D19*
%TO.C,R1*%
X110440000Y-79275000D03*
X111460000Y-79275000D03*
%TD*%
D18*
%TO.C,C16*%
X142409000Y-100241500D03*
X143369000Y-100241500D03*
%TD*%
%TO.C,C10*%
X196897500Y-105880000D03*
X197857500Y-105880000D03*
%TD*%
D19*
%TO.C,R10*%
X203407000Y-63485000D03*
X204427000Y-63485000D03*
%TD*%
D18*
%TO.C,C15*%
X138695000Y-94757500D03*
X139655000Y-94757500D03*
%TD*%
D20*
%TO.C,C22*%
X113825000Y-80300000D03*
X115725000Y-80300000D03*
%TD*%
D18*
%TO.C,C1*%
X136895000Y-97875500D03*
X137855000Y-97875500D03*
%TD*%
D19*
%TO.C,R2*%
X110440000Y-76475000D03*
X111460000Y-76475000D03*
%TD*%
%TO.C,R8*%
X211100000Y-99730000D03*
X212120000Y-99730000D03*
%TD*%
%TO.C,R11*%
X210794000Y-55618000D03*
X211814000Y-55618000D03*
%TD*%
D18*
%TO.C,C9*%
X76897500Y-105880000D03*
X77857500Y-105880000D03*
%TD*%
D19*
%TO.C,R7*%
X103292500Y-112280000D03*
X104312500Y-112280000D03*
%TD*%
D18*
%TO.C,C8*%
X208705000Y-98330000D03*
X209665000Y-98330000D03*
%TD*%
%TO.C,C23*%
X130820000Y-99300000D03*
X131780000Y-99300000D03*
%TD*%
D19*
%TO.C,R14*%
X198267500Y-108305000D03*
X199287500Y-108305000D03*
%TD*%
D18*
%TO.C,C3*%
X138695000Y-100992500D03*
X139655000Y-100992500D03*
%TD*%
D19*
%TO.C,R12*%
X213552000Y-55092000D03*
X214572000Y-55092000D03*
%TD*%
%TO.C,R5*%
X131619000Y-94963500D03*
X132639000Y-94963500D03*
%TD*%
D18*
%TO.C,C12*%
X212186000Y-77272000D03*
X213146000Y-77272000D03*
%TD*%
%TO.C,C7*%
X100897500Y-110880000D03*
X101857500Y-110880000D03*
%TD*%
%TO.C,C4*%
X135095000Y-100992500D03*
X136055000Y-100992500D03*
%TD*%
%TO.C,C19*%
X148045000Y-97875000D03*
X149005000Y-97875000D03*
%TD*%
D20*
%TO.C,C20*%
X115225000Y-77875000D03*
X117125000Y-77875000D03*
%TD*%
D18*
%TO.C,C24*%
X127395000Y-100365000D03*
X128355000Y-100365000D03*
%TD*%
D19*
%TO.C,R9*%
X203055000Y-66270000D03*
X204075000Y-66270000D03*
%TD*%
%TO.C,R13*%
X199667500Y-105880000D03*
X200687500Y-105880000D03*
%TD*%
D18*
%TO.C,C13*%
X112895000Y-77875000D03*
X113855000Y-77875000D03*
%TD*%
%TO.C,C18*%
X222759500Y-99660000D03*
X223719500Y-99660000D03*
%TD*%
%TO.C,C14*%
X174895000Y-77875000D03*
X175855000Y-77875000D03*
%TD*%
D19*
%TO.C,R6*%
X136561000Y-91882500D03*
X137581000Y-91882500D03*
%TD*%
D18*
%TO.C,C2*%
X140495000Y-97875500D03*
X141455000Y-97875500D03*
%TD*%
%TO.C,C17*%
X132342000Y-101783500D03*
X133302000Y-101783500D03*
%TD*%
%TO.C,C6*%
X135095000Y-94757500D03*
X136055000Y-94757500D03*
%TD*%
D19*
%TO.C,R4*%
X172440000Y-76475000D03*
X173460000Y-76475000D03*
%TD*%
D20*
%TO.C,C21*%
X177655000Y-79995000D03*
X179555000Y-79995000D03*
%TD*%
D19*
%TO.C,R3*%
X173465000Y-80300000D03*
X174485000Y-80300000D03*
%TD*%
%LPD*%
M02*
