M48
; DRILL file KiCad 10.0.4-10.0.4~ubuntu24.04.1 date 2026-07-14T21:31:02
; FORMAT={-:-/ absolute / metric / decimal}
; #@! TF.CreationDate,2026-07-14T21:31:02-07:00
; #@! TF.GenerationSoftware,Kicad,Pcbnew,10.0.4-10.0.4~ubuntu24.04.1
; #@! TF.FileFunction,Plated,1,2,PTH
FMAT,2
METRIC
; #@! TA.AperFunction,Plated,PTH,ViaDrill
T1C0.300
; #@! TA.AperFunction,Plated,PTH,ComponentDrill
T2C0.600
; #@! TA.AperFunction,Plated,PTH,ComponentDrill
T3C1.000
%
G90
G05
T1
X75.893Y-107.553
X76.521Y-106.918
X79.059Y-105.55
X79.066Y-103.702
X81.414Y-105.524
X81.697Y-131.519
X81.832Y-104.897
X82.069Y-132.239
X88.852Y-138.09
X94.065Y-68.091
X95.645Y-106.229
X99.301Y-68.136
X100.793Y-113.004
X101.451Y-112.519
X101.937Y-111.974
X101.939Y-103.491
X102.292Y-106.878
X102.427Y-132.769
X102.52Y-104.537
X103.036Y-114.006
X103.178Y-111.453
X103.474Y-114.617
X103.846Y-110.645
X106.313Y-109.9
X106.366Y-109.137
X106.388Y-105.726
X106.508Y-113.75
X107.975Y-140.548
X108.545Y-115.006
X110.073Y-108.6
X110.935Y-116.555
X112.464Y-80.175
X112.96Y-78.623
X114.452Y-76.559
X114.585Y-104.545
X118.843Y-95.968
X119.362Y-83.623
X121.989Y-140.889
X125.053Y-97.92
X125.706Y-107.3
X126.354Y-105.554
X126.41Y-132.721
X126.445Y-99.025
X127.54Y-104.754
X127.769Y-101.491
X127.885Y-96.855
X129.377Y-99.368
X129.575Y-100.955
X130.681Y-101.694
X134.534Y-103.111
X134.81Y-98.852
X135.108Y-95.933
X136.055Y-100.216
X136.909Y-100.434
X137.007Y-102.463
X137.021Y-108.962
X137.975Y-102.19
X138.775Y-93.571
X139.708Y-98.927
X140.931Y-92.443
X142.411Y-98.979
X145.653Y-98.627
X146.993Y-96.815
X148.65Y-96.571
X150.024Y-103.73
X150.87Y-141.875
X152.33Y-97.24
X154.651Y-116.751
X155.645Y-103.184
X157.796Y-70.338
X160.922Y-94.561
X162.261Y-92.778
X166.873Y-102.639
X168.074Y-76.985
X172.842Y-90.921
X175.955Y-78.623
X181.92Y-104.662
X196.248Y-104.771
X196.469Y-106.577
X196.518Y-96.873
X199.058Y-106.992
X201.411Y-106.856
X201.412Y-104.9
X202.143Y-106.59
X205.03Y-97.183
X205.396Y-80.911
X205.815Y-106.111
X211.004Y-103.135
X212.656Y-75.663
X214.392Y-76.686
X217.491Y-76.632
X220.265Y-77.039
X224.2Y-76.632
X224.639Y-74.56
T3
X49.325Y-146.825
X51.865Y-146.825
X54.405Y-146.825
X64.325Y-146.825
X66.865Y-146.825
X69.405Y-146.825
X79.325Y-146.825
X81.865Y-146.825
X84.405Y-146.825
X94.325Y-146.825
X96.865Y-146.825
X99.405Y-146.825
X109.325Y-146.825
X111.865Y-146.825
X114.405Y-146.825
X124.325Y-146.825
X126.865Y-146.825
X129.405Y-146.825
X139.325Y-146.825
X141.865Y-146.825
X144.405Y-146.825
X154.325Y-146.825
X156.865Y-146.825
X159.405Y-146.825
X182.325Y-146.825
X182.325Y-149.365
X182.325Y-151.905
X184.865Y-146.825
X184.865Y-149.365
X184.865Y-151.905
X197.325Y-146.825
X197.325Y-149.365
X197.325Y-151.905
X199.865Y-146.825
X199.865Y-149.365
X199.865Y-151.905
X203.375Y-98.875
X203.375Y-101.415
X203.375Y-103.955
X212.325Y-146.825
X212.325Y-149.365
X212.325Y-151.905
X214.865Y-146.825
X214.865Y-149.365
X214.865Y-151.905
X227.325Y-146.825
X227.325Y-149.365
X227.325Y-151.905
X229.865Y-146.825
X229.865Y-149.365
X229.865Y-151.905
T2
X91.055Y-62.125G85X91.055Y-61.525
G05
X91.055Y-66.555G85X91.055Y-65.455
G05
X99.695Y-62.125G85X99.695Y-61.525
G05
X99.695Y-66.555G85X99.695Y-65.455
G05
X151.055Y-62.125G85X151.055Y-61.525
G05
X151.055Y-66.555G85X151.055Y-65.455
G05
X159.695Y-62.125G85X159.695Y-61.525
G05
X159.695Y-66.555G85X159.695Y-65.455
G05
M30
