%TF.GenerationSoftware,KiCad,Pcbnew,10.0.4-10.0.4~ubuntu24.04.1*%
%TF.CreationDate,2026-07-14T21:19:46-07:00*%
%TF.ProjectId,imspi8080_rev3,696d7370-6938-4303-9830-5f726576332e,rev?*%
%TF.SameCoordinates,Original*%
%TF.FileFunction,Copper,L1,Top*%
%TF.FilePolarity,Positive*%
%FSLAX46Y46*%
G04 Gerber Fmt 4.6, Leading zero omitted, Abs format (unit mm)*
G04 Created by KiCad (PCBNEW 10.0.4-10.0.4~ubuntu24.04.1) date 2026-07-14 21:19:46*
%MOMM*%
%LPD*%
G01*
G04 APERTURE LIST*
G04 Aperture macros list*
%AMRoundRect*
0 Rectangle with rounded corners*
0 $1 Rounding radius*
0 $2 $3 $4 $5 $6 $7 $8 $9 X,Y pos of 4 corners*
0 Add a 4 corners polygon primitive as box body*
4,1,4,$2,$3,$4,$5,$6,$7,$8,$9,$2,$3,0*
0 Add four circle primitives for the rounded corners*
1,1,$1+$1,$2,$3*
1,1,$1+$1,$4,$5*
1,1,$1+$1,$6,$7*
1,1,$1+$1,$8,$9*
0 Add four rect primitives between the rounded corners*
20,1,$1+$1,$2,$3,$4,$5,0*
20,1,$1+$1,$4,$5,$6,$7,0*
20,1,$1+$1,$6,$7,$8,$9,0*
20,1,$1+$1,$8,$9,$2,$3,0*%
G04 Aperture macros list end*
%TA.AperFunction,SMDPad,CuDef*%
%ADD10RoundRect,0.250000X-0.375000X-0.625000X0.375000X-0.625000X0.375000X0.625000X-0.375000X0.625000X0*%
%TD*%
%TA.AperFunction,ComponentPad*%
%ADD11R,1.700000X1.700000*%
%TD*%
%TA.AperFunction,ComponentPad*%
%ADD12C,1.700000*%
%TD*%
%TA.AperFunction,SMDPad,CuDef*%
%ADD13RoundRect,0.150000X0.150000X0.575000X-0.150000X0.575000X-0.150000X-0.575000X0.150000X-0.575000X0*%
%TD*%
%TA.AperFunction,SMDPad,CuDef*%
%ADD14RoundRect,0.075000X0.075000X0.650000X-0.075000X0.650000X-0.075000X-0.650000X0.075000X-0.650000X0*%
%TD*%
%TA.AperFunction,ComponentPad*%
%ADD15O,1.000000X2.100000*%
%TD*%
%TA.AperFunction,ComponentPad*%
%ADD16O,1.000000X1.600000*%
%TD*%
%TA.AperFunction,SMDPad,CuDef*%
%ADD17RoundRect,0.100000X-0.637500X-0.100000X0.637500X-0.100000X0.637500X0.100000X-0.637500X0.100000X0*%
%TD*%
%TA.AperFunction,SMDPad,CuDef*%
%ADD18R,0.700000X1.200000*%
%TD*%
%TA.AperFunction,SMDPad,CuDef*%
%ADD19R,1.000000X0.800000*%
%TD*%
%TA.AperFunction,SMDPad,CuDef*%
%ADD20R,1.000000X1.200000*%
%TD*%
%TA.AperFunction,SMDPad,CuDef*%
%ADD21R,1.000000X2.800000*%
%TD*%
%TA.AperFunction,SMDPad,CuDef*%
%ADD22R,1.300000X1.900000*%
%TD*%
%TA.AperFunction,SMDPad,CuDef*%
%ADD23RoundRect,0.375000X-0.625000X-0.375000X0.625000X-0.375000X0.625000X0.375000X-0.625000X0.375000X0*%
%TD*%
%TA.AperFunction,SMDPad,CuDef*%
%ADD24RoundRect,0.500000X-0.500000X-1.400000X0.500000X-1.400000X0.500000X1.400000X-0.500000X1.400000X0*%
%TD*%
%TA.AperFunction,SMDPad,CuDef*%
%ADD25RoundRect,0.050000X-0.387500X-0.050000X0.387500X-0.050000X0.387500X0.050000X-0.387500X0.050000X0*%
%TD*%
%TA.AperFunction,SMDPad,CuDef*%
%ADD26RoundRect,0.050000X-0.050000X-0.387500X0.050000X-0.387500X0.050000X0.387500X-0.050000X0.387500X0*%
%TD*%
%TA.AperFunction,HeatsinkPad*%
%ADD27R,3.200000X3.200000*%
%TD*%
%TA.AperFunction,SMDPad,CuDef*%
%ADD28RoundRect,0.100000X-0.687500X-0.100000X0.687500X-0.100000X0.687500X0.100000X-0.687500X0.100000X0*%
%TD*%
%TA.AperFunction,SMDPad,CuDef*%
%ADD29R,0.900000X1.000000*%
%TD*%
%TA.AperFunction,SMDPad,CuDef*%
%ADD30RoundRect,0.150000X-0.825000X-0.150000X0.825000X-0.150000X0.825000X0.150000X-0.825000X0.150000X0*%
%TD*%
%TA.AperFunction,SMDPad,CuDef*%
%ADD31RoundRect,0.250000X-0.450000X-0.350000X0.450000X-0.350000X0.450000X0.350000X-0.450000X0.350000X0*%
%TD*%
%TA.AperFunction,ViaPad*%
%ADD32C,0.600000*%
%TD*%
%TA.AperFunction,Conductor*%
%ADD33C,0.150000*%
%TD*%
G04 APERTURE END LIST*
D10*
%TO.P,D19,1*%
%TO.N,N$29*%
X77975000Y-141875000D03*
%TO.P,D19,2*%
%TO.N,+3V3_LED*%
X80775000Y-141875000D03*
%TD*%
%TO.P,D5,1*%
%TO.N,N$15*%
X107975000Y-117875000D03*
%TO.P,D5,2*%
%TO.N,+3V3_LED*%
X110775000Y-117875000D03*
%TD*%
%TO.P,D21,1*%
%TO.N,N$31*%
X107975000Y-141875000D03*
%TO.P,D21,2*%
%TO.N,+3V3_LED*%
X110775000Y-141875000D03*
%TD*%
D11*
%TO.P,SWD6,1*%
%TO.N,+3V3*%
X139325000Y-146825000D03*
D12*
%TO.P,SWD6,2*%
%TO.N,SW6*%
X141865000Y-146825000D03*
%TO.P,SWD6,3*%
%TO.N,GND*%
X144405000Y-146825000D03*
%TD*%
D11*
%TO.P,SWC1,1*%
%TO.N,CMD1*%
X197325000Y-146825000D03*
D12*
%TO.P,SWC1,2*%
%TO.N,GND*%
X199865000Y-146825000D03*
%TO.P,SWC1,3*%
%TO.N,N/C*%
X197325000Y-149365000D03*
%TO.P,SWC1,4*%
X199865000Y-149365000D03*
%TO.P,SWC1,5*%
X197325000Y-151905000D03*
%TO.P,SWC1,6*%
X199865000Y-151905000D03*
%TD*%
D11*
%TO.P,SWC0,1*%
%TO.N,CMD0*%
X182325000Y-146825000D03*
D12*
%TO.P,SWC0,2*%
%TO.N,GND*%
X184865000Y-146825000D03*
%TO.P,SWC0,3*%
%TO.N,N/C*%
X182325000Y-149365000D03*
%TO.P,SWC0,4*%
X184865000Y-149365000D03*
%TO.P,SWC0,5*%
X182325000Y-151905000D03*
%TO.P,SWC0,6*%
X184865000Y-151905000D03*
%TD*%
D13*
%TO.P,J2,A1*%
%TO.N,GND*%
X158625000Y-66920000D03*
%TO.P,J2,A4*%
%TO.N,VBUS_LED*%
X157825000Y-66920000D03*
D14*
%TO.P,J2,A5*%
%TO.N,N$5*%
X156625000Y-66920000D03*
%TO.P,J2,A6*%
%TO.N,N/C*%
X155625000Y-66920000D03*
%TO.P,J2,A7*%
X155125000Y-66920000D03*
%TO.P,J2,A8*%
X154125000Y-66920000D03*
D13*
%TO.P,J2,A9*%
%TO.N,VBUS_LED*%
X152925000Y-66920000D03*
%TO.P,J2,A12*%
%TO.N,GND*%
X152125000Y-66920000D03*
%TO.P,J2,B1*%
X152125000Y-66920000D03*
%TO.P,J2,B4*%
%TO.N,VBUS_LED*%
X152925000Y-66920000D03*
D14*
%TO.P,J2,B5*%
%TO.N,N$6*%
X153625000Y-66920000D03*
%TO.P,J2,B6*%
%TO.N,N/C*%
X154625000Y-66920000D03*
%TO.P,J2,B7*%
X156125000Y-66920000D03*
%TO.P,J2,B8*%
X157125000Y-66920000D03*
D13*
%TO.P,J2,B9*%
%TO.N,VBUS_LED*%
X157825000Y-66920000D03*
%TO.P,J2,B12*%
%TO.N,GND*%
X158625000Y-66920000D03*
D15*
%TO.P,J2,SH*%
X159695000Y-66005000D03*
D16*
X159695000Y-61825000D03*
D15*
X151055000Y-66005000D03*
D16*
X151055000Y-61825000D03*
%TD*%
D11*
%TO.P,SWC2,1*%
%TO.N,CMD2*%
X212325000Y-146825000D03*
D12*
%TO.P,SWC2,2*%
%TO.N,GND*%
X214865000Y-146825000D03*
%TO.P,SWC2,3*%
%TO.N,N/C*%
X212325000Y-149365000D03*
%TO.P,SWC2,4*%
X214865000Y-149365000D03*
%TO.P,SWC2,5*%
X212325000Y-151905000D03*
%TO.P,SWC2,6*%
X214865000Y-151905000D03*
%TD*%
D17*
%TO.P,U6,1*%
%TO.N,HC_PLOAD*%
X194512500Y-103600000D03*
%TO.P,U6,2*%
%TO.N,HC_CLK*%
X194512500Y-104250000D03*
%TO.P,U6,3*%
%TO.N,GND*%
X194512500Y-104900000D03*
%TO.P,U6,4*%
X194512500Y-105550000D03*
%TO.P,U6,5*%
X194512500Y-106200000D03*
%TO.P,U6,6*%
X194512500Y-106850000D03*
%TO.P,U6,7*%
%TO.N,N/C*%
X194512500Y-107500000D03*
%TO.P,U6,8*%
%TO.N,GND*%
X194512500Y-108150000D03*
%TO.P,U6,9*%
%TO.N,HC_QH*%
X200237500Y-108150000D03*
%TO.P,U6,10*%
%TO.N,HC_CHAIN*%
X200237500Y-107500000D03*
%TO.P,U6,11*%
%TO.N,CMD0*%
X200237500Y-106850000D03*
%TO.P,U6,12*%
%TO.N,CMD1*%
X200237500Y-106200000D03*
%TO.P,U6,13*%
%TO.N,CMD2*%
X200237500Y-105550000D03*
%TO.P,U6,14*%
%TO.N,CMD3*%
X200237500Y-104900000D03*
%TO.P,U6,15*%
%TO.N,GND*%
X200237500Y-104250000D03*
%TO.P,U6,16*%
%TO.N,+3V3*%
X200237500Y-103600000D03*
%TD*%
D10*
%TO.P,D24,1*%
%TO.N,N$34*%
X152975000Y-141875000D03*
%TO.P,D24,2*%
%TO.N,+3V3_LED*%
X155775000Y-141875000D03*
%TD*%
%TO.P,D26,1*%
%TO.N,N$36*%
X195975000Y-129875000D03*
%TO.P,D26,2*%
%TO.N,+3V3_LED*%
X198775000Y-129875000D03*
%TD*%
D18*
%TO.P,U7,1*%
%TO.N,N$40*%
X217600000Y-75600000D03*
%TO.P,U7,2*%
%TO.N,SD_CS*%
X218700000Y-75600000D03*
%TO.P,U7,3*%
%TO.N,SD_MOSI*%
X219800000Y-75600000D03*
%TO.P,U7,4*%
%TO.N,+3V3*%
X220900000Y-75600000D03*
%TO.P,U7,5*%
%TO.N,SD_SCK*%
X222000000Y-75600000D03*
%TO.P,U7,6*%
%TO.N,GND*%
X223100000Y-75600000D03*
%TO.P,U7,7*%
%TO.N,SD_MISO*%
X224200000Y-75600000D03*
%TO.P,U7,8*%
%TO.N,N$39*%
X225300000Y-75600000D03*
%TO.P,U7,9*%
%TO.N,N/C*%
X226250000Y-75600000D03*
D19*
%TO.P,U7,10*%
X227200000Y-65100000D03*
D20*
%TO.P,U7,SH*%
%TO.N,GND*%
X227200000Y-71300000D03*
D21*
X227200000Y-60950000D03*
D20*
X216050000Y-75600000D03*
D22*
X213700000Y-60500000D03*
%TD*%
D11*
%TO.P,SWD2,1*%
%TO.N,+3V3*%
X79325000Y-146825000D03*
D12*
%TO.P,SWD2,2*%
%TO.N,SW2*%
X81865000Y-146825000D03*
%TO.P,SWD2,3*%
%TO.N,GND*%
X84405000Y-146825000D03*
%TD*%
D10*
%TO.P,D17,1*%
%TO.N,N$27*%
X47975000Y-141875000D03*
%TO.P,D17,2*%
%TO.N,+3V3_LED*%
X50775000Y-141875000D03*
%TD*%
%TO.P,D11,1*%
%TO.N,N$21*%
X77975000Y-129875000D03*
%TO.P,D11,2*%
%TO.N,+3V3_LED*%
X80775000Y-129875000D03*
%TD*%
D23*
%TO.P,U9,1*%
%TO.N,GND*%
X172225000Y-75575000D03*
%TO.P,U9,2*%
%TO.N,+3V3_LED*%
X172225000Y-77875000D03*
D24*
X178525000Y-77875000D03*
D23*
%TO.P,U9,3*%
%TO.N,VBUS_LED*%
X172225000Y-80175000D03*
%TD*%
D10*
%TO.P,D12,1*%
%TO.N,N$22*%
X92975000Y-129875000D03*
%TO.P,D12,2*%
%TO.N,+3V3_LED*%
X95775000Y-129875000D03*
%TD*%
%TO.P,D23,1*%
%TO.N,N$33*%
X137975000Y-141875000D03*
%TO.P,D23,2*%
%TO.N,+3V3_LED*%
X140775000Y-141875000D03*
%TD*%
D23*
%TO.P,U8,1*%
%TO.N,GND*%
X110225000Y-75575000D03*
%TO.P,U8,2*%
%TO.N,+3V3*%
X110225000Y-77875000D03*
D24*
X116525000Y-77875000D03*
D23*
%TO.P,U8,3*%
%TO.N,VBUS_LOGIC*%
X110225000Y-80175000D03*
%TD*%
D25*
%TO.P,U1,1*%
%TO.N,+3V3*%
X133937500Y-95275000D03*
%TO.P,U1,2*%
%TO.N,N/C*%
X133937500Y-95675000D03*
%TO.P,U1,3*%
X133937500Y-96075000D03*
%TO.P,U1,4*%
%TO.N,TLC_SCLK*%
X133937500Y-96475000D03*
%TO.P,U1,5*%
%TO.N,TLC_SIN*%
X133937500Y-96875000D03*
%TO.P,U1,6*%
%TO.N,TLC_XLAT*%
X133937500Y-97275000D03*
%TO.P,U1,7*%
%TO.N,TLC_BLANK*%
X133937500Y-97675000D03*
%TO.P,U1,8*%
%TO.N,N/C*%
X133937500Y-98075000D03*
%TO.P,U1,9*%
%TO.N,HC_PLOAD*%
X133937500Y-98475000D03*
%TO.P,U1,10*%
%TO.N,+3V3*%
X133937500Y-98875000D03*
%TO.P,U1,11*%
%TO.N,HC_CLK*%
X133937500Y-99275000D03*
%TO.P,U1,12*%
%TO.N,HC_QH*%
X133937500Y-99675000D03*
%TO.P,U1,13*%
%TO.N,SD_SCK*%
X133937500Y-100075000D03*
%TO.P,U1,14*%
%TO.N,SD_MOSI*%
X133937500Y-100475000D03*
D26*
%TO.P,U1,15*%
%TO.N,SD_MISO*%
X134775000Y-101312500D03*
%TO.P,U1,16*%
%TO.N,SD_CS*%
X135175000Y-101312500D03*
%TO.P,U1,17*%
%TO.N,N/C*%
X135575000Y-101312500D03*
%TO.P,U1,18*%
X135975000Y-101312500D03*
%TO.P,U1,19*%
%TO.N,GND*%
X136375000Y-101312500D03*
%TO.P,U1,20*%
%TO.N,XIN*%
X136775000Y-101312500D03*
%TO.P,U1,21*%
%TO.N,XOUT*%
X137175000Y-101312500D03*
%TO.P,U1,22*%
%TO.N,+3V3*%
X137575000Y-101312500D03*
%TO.P,U1,23*%
%TO.N,VCORE*%
X137975000Y-101312500D03*
%TO.P,U1,24*%
%TO.N,N$1*%
X138375000Y-101312500D03*
%TO.P,U1,25*%
%TO.N,N$2*%
X138775000Y-101312500D03*
%TO.P,U1,26*%
%TO.N,RUN*%
X139175000Y-101312500D03*
%TO.P,U1,27*%
%TO.N,N/C*%
X139575000Y-101312500D03*
%TO.P,U1,28*%
X139975000Y-101312500D03*
D25*
%TO.P,U1,29*%
X140812500Y-100475000D03*
%TO.P,U1,30*%
X140812500Y-100075000D03*
%TO.P,U1,31*%
X140812500Y-99675000D03*
%TO.P,U1,32*%
X140812500Y-99275000D03*
%TO.P,U1,33*%
%TO.N,+3V3*%
X140812500Y-98875000D03*
%TO.P,U1,34*%
%TO.N,N/C*%
X140812500Y-98475000D03*
%TO.P,U1,35*%
X140812500Y-98075000D03*
%TO.P,U1,36*%
X140812500Y-97675000D03*
%TO.P,U1,37*%
X140812500Y-97275000D03*
%TO.P,U1,38*%
X140812500Y-96875000D03*
%TO.P,U1,39*%
X140812500Y-96475000D03*
%TO.P,U1,40*%
X140812500Y-96075000D03*
%TO.P,U1,41*%
X140812500Y-95675000D03*
%TO.P,U1,42*%
%TO.N,+3V3*%
X140812500Y-95275000D03*
D26*
%TO.P,U1,43*%
X139975000Y-94437500D03*
%TO.P,U1,44*%
X139575000Y-94437500D03*
%TO.P,U1,45*%
%TO.N,VCORE*%
X139175000Y-94437500D03*
%TO.P,U1,46*%
%TO.N,N$8*%
X138775000Y-94437500D03*
%TO.P,U1,47*%
%TO.N,N$7*%
X138375000Y-94437500D03*
%TO.P,U1,48*%
%TO.N,+3V3*%
X137975000Y-94437500D03*
%TO.P,U1,49*%
X137575000Y-94437500D03*
%TO.P,U1,50*%
%TO.N,VCORE*%
X137175000Y-94437500D03*
%TO.P,U1,51*%
%TO.N,QSPI_SD3*%
X136775000Y-94437500D03*
%TO.P,U1,52*%
%TO.N,QSPI_SCLK*%
X136375000Y-94437500D03*
%TO.P,U1,53*%
%TO.N,QSPI_SD0*%
X135975000Y-94437500D03*
%TO.P,U1,54*%
%TO.N,QSPI_SD2*%
X135575000Y-94437500D03*
%TO.P,U1,55*%
%TO.N,QSPI_SD1*%
X135175000Y-94437500D03*
%TO.P,U1,56*%
%TO.N,QSPI_SS*%
X134775000Y-94437500D03*
D27*
%TO.P,U1,57*%
%TO.N,GND*%
X137375000Y-97875000D03*
%TD*%
D10*
%TO.P,D20,1*%
%TO.N,N$30*%
X92975000Y-141875000D03*
%TO.P,D20,2*%
%TO.N,+3V3_LED*%
X95775000Y-141875000D03*
%TD*%
%TO.P,D1,1*%
%TO.N,N$11*%
X47975000Y-117875000D03*
%TO.P,D1,2*%
%TO.N,+3V3_LED*%
X50775000Y-117875000D03*
%TD*%
D28*
%TO.P,U3,1*%
%TO.N,GND*%
X97662500Y-106000000D03*
%TO.P,U3,2*%
%TO.N,TLC_BLANK*%
X97662500Y-106650000D03*
%TO.P,U3,3*%
%TO.N,TLC_SCLK*%
X97662500Y-107300000D03*
%TO.P,U3,4*%
%TO.N,TLC_SIN*%
X97662500Y-107950000D03*
%TO.P,U3,5*%
%TO.N,N$11*%
X97662500Y-108600000D03*
%TO.P,U3,6*%
%TO.N,N$12*%
X97662500Y-109250000D03*
%TO.P,U3,7*%
%TO.N,N$13*%
X97662500Y-109900000D03*
%TO.P,U3,8*%
%TO.N,N$14*%
X97662500Y-110550000D03*
%TO.P,U3,9*%
%TO.N,N$15*%
X97662500Y-111200000D03*
%TO.P,U3,10*%
%TO.N,N$16*%
X97662500Y-111850000D03*
%TO.P,U3,11*%
%TO.N,N$17*%
X97662500Y-112500000D03*
%TO.P,U3,12*%
%TO.N,N$18*%
X97662500Y-113150000D03*
%TO.P,U3,13*%
%TO.N,N$19*%
X97662500Y-113800000D03*
%TO.P,U3,14*%
%TO.N,N$20*%
X97662500Y-114450000D03*
%TO.P,U3,15*%
%TO.N,N$21*%
X97662500Y-115100000D03*
%TO.P,U3,16*%
%TO.N,N$22*%
X97662500Y-115750000D03*
%TO.P,U3,17*%
%TO.N,N$23*%
X105087500Y-115750000D03*
%TO.P,U3,18*%
%TO.N,N$24*%
X105087500Y-115100000D03*
%TO.P,U3,19*%
%TO.N,N$25*%
X105087500Y-114450000D03*
%TO.P,U3,20*%
%TO.N,N$26*%
X105087500Y-113800000D03*
%TO.P,U3,21*%
%TO.N,N$27*%
X105087500Y-113150000D03*
%TO.P,U3,22*%
%TO.N,N$28*%
X105087500Y-112500000D03*
%TO.P,U3,23*%
%TO.N,N$29*%
X105087500Y-111850000D03*
%TO.P,U3,24*%
%TO.N,N$30*%
X105087500Y-111200000D03*
%TO.P,U3,25*%
%TO.N,N$31*%
X105087500Y-110550000D03*
%TO.P,U3,26*%
%TO.N,N$32*%
X105087500Y-109900000D03*
%TO.P,U3,27*%
%TO.N,N$33*%
X105087500Y-109250000D03*
%TO.P,U3,28*%
%TO.N,N$34*%
X105087500Y-108600000D03*
%TO.P,U3,29*%
%TO.N,TLC_CHAIN*%
X105087500Y-107950000D03*
%TO.P,U3,30*%
%TO.N,TLC_XLAT*%
X105087500Y-107300000D03*
%TO.P,U3,31*%
%TO.N,N$9*%
X105087500Y-106650000D03*
%TO.P,U3,32*%
%TO.N,+3V3*%
X105087500Y-106000000D03*
%TD*%
D10*
%TO.P,D27,1*%
%TO.N,N$37*%
X210975000Y-129875000D03*
%TO.P,D27,2*%
%TO.N,+3V3_LED*%
X213775000Y-129875000D03*
%TD*%
%TO.P,D10,1*%
%TO.N,N$20*%
X62975000Y-129875000D03*
%TO.P,D10,2*%
%TO.N,+3V3_LED*%
X65775000Y-129875000D03*
%TD*%
%TO.P,D6,1*%
%TO.N,N$16*%
X122975000Y-117875000D03*
%TO.P,D6,2*%
%TO.N,+3V3_LED*%
X125775000Y-117875000D03*
%TD*%
%TO.P,D4,1*%
%TO.N,N$14*%
X92975000Y-117875000D03*
%TO.P,D4,2*%
%TO.N,+3V3_LED*%
X95775000Y-117875000D03*
%TD*%
%TO.P,D2,1*%
%TO.N,N$12*%
X62975000Y-117875000D03*
%TO.P,D2,2*%
%TO.N,+3V3_LED*%
X65775000Y-117875000D03*
%TD*%
%TO.P,D8,1*%
%TO.N,N$18*%
X152975000Y-117875000D03*
%TO.P,D8,2*%
%TO.N,+3V3_LED*%
X155775000Y-117875000D03*
%TD*%
D11*
%TO.P,SWC3,1*%
%TO.N,CMD3*%
X227325000Y-146825000D03*
D12*
%TO.P,SWC3,2*%
%TO.N,GND*%
X229865000Y-146825000D03*
%TO.P,SWC3,3*%
%TO.N,N/C*%
X227325000Y-149365000D03*
%TO.P,SWC3,4*%
X229865000Y-149365000D03*
%TO.P,SWC3,5*%
X227325000Y-151905000D03*
%TO.P,SWC3,6*%
X229865000Y-151905000D03*
%TD*%
D10*
%TO.P,D3,1*%
%TO.N,N$13*%
X77975000Y-117875000D03*
%TO.P,D3,2*%
%TO.N,+3V3_LED*%
X80775000Y-117875000D03*
%TD*%
D11*
%TO.P,J5,1*%
%TO.N,N$1*%
X203375000Y-98875000D03*
D12*
%TO.P,J5,2*%
%TO.N,N$2*%
X203375000Y-101415000D03*
%TO.P,J5,3*%
%TO.N,GND*%
X203375000Y-103955000D03*
%TD*%
D10*
%TO.P,D28,1*%
%TO.N,N$38*%
X225975000Y-129875000D03*
%TO.P,D28,2*%
%TO.N,+3V3_LED*%
X228775000Y-129875000D03*
%TD*%
%TO.P,D9,1*%
%TO.N,N$19*%
X47975000Y-129875000D03*
%TO.P,D9,2*%
%TO.N,+3V3_LED*%
X50775000Y-129875000D03*
%TD*%
D28*
%TO.P,U4,1*%
%TO.N,GND*%
X207662500Y-106000000D03*
%TO.P,U4,2*%
%TO.N,TLC_BLANK*%
X207662500Y-106650000D03*
%TO.P,U4,3*%
%TO.N,TLC_SCLK*%
X207662500Y-107300000D03*
%TO.P,U4,4*%
%TO.N,TLC_CHAIN*%
X207662500Y-107950000D03*
%TO.P,U4,5*%
%TO.N,N$35*%
X207662500Y-108600000D03*
%TO.P,U4,6*%
%TO.N,N$36*%
X207662500Y-109250000D03*
%TO.P,U4,7*%
%TO.N,N$37*%
X207662500Y-109900000D03*
%TO.P,U4,8*%
%TO.N,N$38*%
X207662500Y-110550000D03*
%TO.P,U4,9*%
%TO.N,N/C*%
X207662500Y-111200000D03*
%TO.P,U4,10*%
X207662500Y-111850000D03*
%TO.P,U4,11*%
X207662500Y-112500000D03*
%TO.P,U4,12*%
X207662500Y-113150000D03*
%TO.P,U4,13*%
X207662500Y-113800000D03*
%TO.P,U4,14*%
X207662500Y-114450000D03*
%TO.P,U4,15*%
X207662500Y-115100000D03*
%TO.P,U4,16*%
X207662500Y-115750000D03*
%TO.P,U4,17*%
X215087500Y-115750000D03*
%TO.P,U4,18*%
X215087500Y-115100000D03*
%TO.P,U4,19*%
X215087500Y-114450000D03*
%TO.P,U4,20*%
X215087500Y-113800000D03*
%TO.P,U4,21*%
X215087500Y-113150000D03*
%TO.P,U4,22*%
X215087500Y-112500000D03*
%TO.P,U4,23*%
X215087500Y-111850000D03*
%TO.P,U4,24*%
X215087500Y-111200000D03*
%TO.P,U4,25*%
X215087500Y-110550000D03*
%TO.P,U4,26*%
X215087500Y-109900000D03*
%TO.P,U4,27*%
X215087500Y-109250000D03*
%TO.P,U4,28*%
X215087500Y-108600000D03*
%TO.P,U4,29*%
X215087500Y-107950000D03*
%TO.P,U4,30*%
%TO.N,TLC_XLAT*%
X215087500Y-107300000D03*
%TO.P,U4,31*%
%TO.N,N$10*%
X215087500Y-106650000D03*
%TO.P,U4,32*%
%TO.N,+3V3*%
X215087500Y-106000000D03*
%TD*%
D10*
%TO.P,D7,1*%
%TO.N,N$17*%
X137975000Y-117875000D03*
%TO.P,D7,2*%
%TO.N,+3V3_LED*%
X140775000Y-117875000D03*
%TD*%
%TO.P,D13,1*%
%TO.N,N$23*%
X107975000Y-129875000D03*
%TO.P,D13,2*%
%TO.N,+3V3_LED*%
X110775000Y-129875000D03*
%TD*%
D11*
%TO.P,SWD3,1*%
%TO.N,+3V3*%
X94325000Y-146825000D03*
D12*
%TO.P,SWD3,2*%
%TO.N,SW3*%
X96865000Y-146825000D03*
%TO.P,SWD3,3*%
%TO.N,GND*%
X99405000Y-146825000D03*
%TD*%
D10*
%TO.P,D14,1*%
%TO.N,N$24*%
X122975000Y-129875000D03*
%TO.P,D14,2*%
%TO.N,+3V3_LED*%
X125775000Y-129875000D03*
%TD*%
D29*
%TO.P,SW1,1*%
%TO.N,QSPI_SS*%
X183325000Y-93075000D03*
X187425000Y-93075000D03*
%TO.P,SW1,2*%
%TO.N,GND*%
X183325000Y-94675000D03*
X187425000Y-94675000D03*
%TD*%
D13*
%TO.P,J1,A1*%
%TO.N,GND*%
X98625000Y-66920000D03*
%TO.P,J1,A4*%
%TO.N,VBUS_LOGIC*%
X97825000Y-66920000D03*
D14*
%TO.P,J1,A5*%
%TO.N,N$3*%
X96625000Y-66920000D03*
%TO.P,J1,A6*%
%TO.N,USB_DP_CONN*%
X95625000Y-66920000D03*
%TO.P,J1,A7*%
%TO.N,USB_DM_CONN*%
X95125000Y-66920000D03*
%TO.P,J1,A8*%
%TO.N,N/C*%
X94125000Y-66920000D03*
D13*
%TO.P,J1,A9*%
%TO.N,VBUS_LOGIC*%
X92925000Y-66920000D03*
%TO.P,J1,A12*%
%TO.N,GND*%
X92125000Y-66920000D03*
%TO.P,J1,B1*%
X92125000Y-66920000D03*
%TO.P,J1,B4*%
%TO.N,VBUS_LOGIC*%
X92925000Y-66920000D03*
D14*
%TO.P,J1,B5*%
%TO.N,N$4*%
X93625000Y-66920000D03*
%TO.P,J1,B6*%
%TO.N,USB_DP_CONN*%
X94625000Y-66920000D03*
%TO.P,J1,B7*%
%TO.N,USB_DM_CONN*%
X96125000Y-66920000D03*
%TO.P,J1,B8*%
%TO.N,N/C*%
X97125000Y-66920000D03*
D13*
%TO.P,J1,B9*%
%TO.N,VBUS_LOGIC*%
X97825000Y-66920000D03*
%TO.P,J1,B12*%
%TO.N,GND*%
X98625000Y-66920000D03*
D15*
%TO.P,J1,SH*%
X99695000Y-66005000D03*
D16*
X99695000Y-61825000D03*
D15*
X91055000Y-66005000D03*
D16*
X91055000Y-61825000D03*
%TD*%
D10*
%TO.P,D15,1*%
%TO.N,N$25*%
X137975000Y-129875000D03*
%TO.P,D15,2*%
%TO.N,+3V3_LED*%
X140775000Y-129875000D03*
%TD*%
%TO.P,D18,1*%
%TO.N,N$28*%
X62975000Y-141875000D03*
%TO.P,D18,2*%
%TO.N,+3V3_LED*%
X65775000Y-141875000D03*
%TD*%
%TO.P,D16,1*%
%TO.N,N$26*%
X152975000Y-129875000D03*
%TO.P,D16,2*%
%TO.N,+3V3_LED*%
X155775000Y-129875000D03*
%TD*%
D11*
%TO.P,SWD0,1*%
%TO.N,+3V3*%
X49325000Y-146825000D03*
D12*
%TO.P,SWD0,2*%
%TO.N,SW0*%
X51865000Y-146825000D03*
%TO.P,SWD0,3*%
%TO.N,GND*%
X54405000Y-146825000D03*
%TD*%
D11*
%TO.P,SWD5,1*%
%TO.N,+3V3*%
X124325000Y-146825000D03*
D12*
%TO.P,SWD5,2*%
%TO.N,SW5*%
X126865000Y-146825000D03*
%TO.P,SWD5,3*%
%TO.N,GND*%
X129405000Y-146825000D03*
%TD*%
D17*
%TO.P,U5,1*%
%TO.N,HC_PLOAD*%
X74512500Y-103600000D03*
%TO.P,U5,2*%
%TO.N,HC_CLK*%
X74512500Y-104250000D03*
%TO.P,U5,3*%
%TO.N,SW4*%
X74512500Y-104900000D03*
%TO.P,U5,4*%
%TO.N,SW5*%
X74512500Y-105550000D03*
%TO.P,U5,5*%
%TO.N,SW6*%
X74512500Y-106200000D03*
%TO.P,U5,6*%
%TO.N,SW7*%
X74512500Y-106850000D03*
%TO.P,U5,7*%
%TO.N,N/C*%
X74512500Y-107500000D03*
%TO.P,U5,8*%
%TO.N,GND*%
X74512500Y-108150000D03*
%TO.P,U5,9*%
%TO.N,HC_CHAIN*%
X80237500Y-108150000D03*
%TO.P,U5,10*%
%TO.N,GND*%
X80237500Y-107500000D03*
%TO.P,U5,11*%
%TO.N,SW0*%
X80237500Y-106850000D03*
%TO.P,U5,12*%
%TO.N,SW1*%
X80237500Y-106200000D03*
%TO.P,U5,13*%
%TO.N,SW2*%
X80237500Y-105550000D03*
%TO.P,U5,14*%
%TO.N,SW3*%
X80237500Y-104900000D03*
%TO.P,U5,15*%
%TO.N,GND*%
X80237500Y-104250000D03*
%TO.P,U5,16*%
%TO.N,+3V3*%
X80237500Y-103600000D03*
%TD*%
D30*
%TO.P,U2,1*%
%TO.N,QSPI_SS*%
X149900000Y-95970000D03*
%TO.P,U2,2*%
%TO.N,QSPI_SD1*%
X149900000Y-97240000D03*
%TO.P,U2,3*%
%TO.N,QSPI_SD2*%
X149900000Y-98510000D03*
%TO.P,U2,4*%
%TO.N,GND*%
X149900000Y-99780000D03*
%TO.P,U2,5*%
%TO.N,QSPI_SD0*%
X154850000Y-99780000D03*
%TO.P,U2,6*%
%TO.N,QSPI_SCLK*%
X154850000Y-98510000D03*
%TO.P,U2,7*%
%TO.N,QSPI_SD3*%
X154850000Y-97240000D03*
%TO.P,U2,8*%
%TO.N,+3V3*%
X154850000Y-95970000D03*
%TD*%
D11*
%TO.P,SWD7,1*%
%TO.N,+3V3*%
X154325000Y-146825000D03*
D12*
%TO.P,SWD7,2*%
%TO.N,SW7*%
X156865000Y-146825000D03*
%TO.P,SWD7,3*%
%TO.N,GND*%
X159405000Y-146825000D03*
%TD*%
D10*
%TO.P,D22,1*%
%TO.N,N$32*%
X122975000Y-141875000D03*
%TO.P,D22,2*%
%TO.N,+3V3_LED*%
X125775000Y-141875000D03*
%TD*%
D31*
%TO.P,Y1,1*%
%TO.N,XIN*%
X120275000Y-98725000D03*
%TO.P,Y1,2*%
%TO.N,GND*%
X122475000Y-98725000D03*
%TO.P,Y1,3*%
%TO.N,XOUT*%
X122475000Y-97025000D03*
%TO.P,Y1,4*%
%TO.N,GND*%
X120275000Y-97025000D03*
%TD*%
D11*
%TO.P,SWD4,1*%
%TO.N,+3V3*%
X109325000Y-146825000D03*
D12*
%TO.P,SWD4,2*%
%TO.N,SW4*%
X111865000Y-146825000D03*
%TO.P,SWD4,3*%
%TO.N,GND*%
X114405000Y-146825000D03*
%TD*%
D10*
%TO.P,D25,1*%
%TO.N,N$35*%
X180975000Y-129875000D03*
%TO.P,D25,2*%
%TO.N,+3V3_LED*%
X183775000Y-129875000D03*
%TD*%
D29*
%TO.P,SW2,1*%
%TO.N,RUN*%
X191325000Y-93075000D03*
X195425000Y-93075000D03*
%TO.P,SW2,2*%
%TO.N,GND*%
X191325000Y-94675000D03*
X195425000Y-94675000D03*
%TD*%
D11*
%TO.P,SWD1,1*%
%TO.N,+3V3*%
X64325000Y-146825000D03*
D12*
%TO.P,SWD1,2*%
%TO.N,SW1*%
X66865000Y-146825000D03*
%TO.P,SWD1,3*%
%TO.N,GND*%
X69405000Y-146825000D03*
%TD*%
D32*
%TO.N,N$29*%
X88852100Y-138089600D03*
X101937300Y-111974300D03*
%TO.N,+3V3_LED*%
X154651000Y-116751000D03*
X175954800Y-78623100D03*
%TO.N,N$31*%
X107975000Y-140547600D03*
X106507900Y-113750500D03*
%TO.N,+3V3*%
X148649700Y-96570800D03*
X139708100Y-98927500D03*
X79066300Y-103702200D03*
X112959900Y-78623500D03*
X102292300Y-106878100D03*
X220265100Y-77038600D03*
X134809800Y-98851900D03*
X205030300Y-97183000D03*
%TO.N,SW6*%
X102520200Y-104537200D03*
%TO.N,GND*%
X136055000Y-100216200D03*
X95644800Y-106229000D03*
X196517800Y-96872700D03*
X214392300Y-76686500D03*
X205814700Y-106110500D03*
X160922200Y-94561200D03*
X81832400Y-104896800D03*
X118842700Y-95967800D03*
%TO.N,CMD1*%
X201411100Y-106856100D03*
%TO.N,CMD0*%
X199057500Y-106992400D03*
%TO.N,N$5*%
X168073800Y-76985400D03*
%TO.N,N$6*%
X157796500Y-70338300D03*
%TO.N,CMD2*%
X202142800Y-106590300D03*
X196468900Y-106577200D03*
%TO.N,HC_PLOAD*%
X130681400Y-101693900D03*
X150024000Y-103730200D03*
%TO.N,CMD3*%
X201411800Y-104900000D03*
X196248000Y-104770700D03*
%TO.N,N$34*%
X150869700Y-141875000D03*
X110073000Y-108600000D03*
%TO.N,N$40*%
X217490600Y-76632300D03*
%TO.N,SD_CS*%
X166873500Y-102639100D03*
X212656100Y-75662600D03*
%TO.N,SD_MOSI*%
X205396300Y-80911100D03*
X181920200Y-104661700D03*
%TO.N,SD_SCK*%
X162261200Y-92778400D03*
X134533600Y-103111000D03*
%TO.N,SD_MISO*%
X224200000Y-76632300D03*
X155645300Y-103184000D03*
X172841800Y-90921100D03*
%TO.N,N$39*%
X224639100Y-74560300D03*
%TO.N,SW2*%
X79059100Y-105550000D03*
%TO.N,N$27*%
X81696700Y-131519400D03*
X100793300Y-113004400D03*
%TO.N,N$33*%
X126409800Y-132721200D03*
X106366300Y-109137500D03*
%TO.N,VBUS_LOGIC*%
X112464400Y-80174800D03*
%TO.N,TLC_SCLK*%
X126353600Y-105554000D03*
X126444600Y-99024700D03*
%TO.N,TLC_SIN*%
X127884900Y-96855300D03*
X106388500Y-105726100D03*
%TO.N,TLC_XLAT*%
X129575100Y-100955400D03*
X125706500Y-107300000D03*
X137020600Y-108961800D03*
%TO.N,TLC_BLANK*%
X127539600Y-104754500D03*
X127769400Y-101490800D03*
%TO.N,XIN*%
X129377300Y-99367900D03*
X136909100Y-100434200D03*
%TO.N,XOUT*%
X125052600Y-97919700D03*
X137007300Y-102462600D03*
%TO.N,VCORE*%
X142411400Y-98979100D03*
X137975000Y-102190400D03*
%TO.N,N$8*%
X138775000Y-93570700D03*
%TO.N,N$7*%
X135108500Y-95932800D03*
%TO.N,QSPI_SD3*%
X145653500Y-98627400D03*
X152330300Y-97240000D03*
%TO.N,QSPI_SD0*%
X146993400Y-96814800D03*
X140930600Y-92442800D03*
%TO.N,N$30*%
X103178000Y-111452800D03*
X102426700Y-132768600D03*
%TO.N,N$16*%
X103035700Y-114006300D03*
X110935000Y-116555100D03*
%TO.N,N$17*%
X103474200Y-114616800D03*
X108545500Y-115006400D03*
%TO.N,N$28*%
X82068800Y-132238700D03*
X101451400Y-112519000D03*
%TO.N,N$32*%
X106313200Y-109900000D03*
X121989100Y-140889100D03*
%TO.N,N$9*%
X103845500Y-110645400D03*
%TO.N,N$10*%
X211004500Y-103135000D03*
%TO.N,SW3*%
X81414300Y-105524500D03*
%TO.N,N$3*%
X99300600Y-68135600D03*
%TO.N,USB_DP_CONN*%
X119362000Y-83622900D03*
%TO.N,USB_DM_CONN*%
X114452200Y-76558900D03*
%TO.N,N$4*%
X94064700Y-68090900D03*
%TO.N,SW0*%
X75892900Y-107553400D03*
%TO.N,SW4*%
X101939200Y-103490800D03*
%TO.N,SW7*%
X114585100Y-104545100D03*
%TO.N,SW1*%
X76521300Y-106918300D03*
%TD*%
%TO.N,N$29*%
D33*
X88852100Y-138089600D02*
X81760400Y-138089600D01*
X104963300Y-111974200D02*
X101937300Y-111974200D01*
X101937300Y-111974200D02*
X101937300Y-111974300D01*
X81760400Y-138089600D02*
X77975000Y-141875000D01*
X105087500Y-111850000D02*
X104963300Y-111974200D01*
%TO.N,+3V3_LED*%
X139352700Y-138229500D02*
X141886600Y-140763400D01*
X79695300Y-142954700D02*
X77400300Y-142954700D01*
X139693300Y-118956700D02*
X126856700Y-118956700D01*
X139352700Y-131297300D02*
X139352700Y-138229500D01*
X50775000Y-141875000D02*
X51854700Y-142954700D01*
X109377800Y-131272200D02*
X103050600Y-131272200D01*
X82135800Y-131235800D02*
X80775000Y-129875000D01*
X156854700Y-139262000D02*
X155353300Y-140763400D01*
X172278000Y-77928000D02*
X172225000Y-77875000D01*
X227695300Y-130954700D02*
X214854700Y-130954700D01*
X103499400Y-134599400D02*
X110775000Y-141875000D01*
X183775000Y-129875000D02*
X184922900Y-131022900D01*
X124647100Y-119002900D02*
X111902900Y-119002900D01*
X155353300Y-141453300D02*
X155353300Y-140763400D01*
X82572500Y-131235800D02*
X82135800Y-131235800D01*
X198775000Y-129875000D02*
X199854700Y-130954700D01*
X47435200Y-130979700D02*
X49670300Y-130979700D01*
X51854700Y-118954700D02*
X64695300Y-118954700D01*
X155775000Y-117875000D02*
X155775000Y-129875000D01*
X155775000Y-129875000D02*
X156854700Y-130954700D01*
X178525000Y-77875000D02*
X178472000Y-77928000D01*
X110775000Y-129875000D02*
X112197300Y-131297300D01*
X110775000Y-129875000D02*
X109377800Y-131272200D01*
X97172200Y-131272200D02*
X103050600Y-131272200D01*
X182695300Y-130954700D02*
X183775000Y-129875000D01*
X125775000Y-117875000D02*
X124647100Y-119002900D01*
X64695300Y-130954700D02*
X65775000Y-129875000D01*
X67139600Y-131239600D02*
X65775000Y-129875000D01*
X156854700Y-130954700D02*
X156854700Y-139262000D01*
X64695300Y-142954700D02*
X65775000Y-141875000D01*
X228775000Y-129875000D02*
X227695300Y-130954700D01*
X65775000Y-141875000D02*
X77130400Y-141875000D01*
X184922900Y-131022900D02*
X197627100Y-131022900D01*
X51854700Y-118954700D02*
X47118200Y-123691200D01*
X154651000Y-116751000D02*
X141899000Y-116751000D01*
X154651000Y-116751000D02*
X155775000Y-117875000D01*
X50775000Y-117875000D02*
X51854700Y-118954700D01*
X79695300Y-118954700D02*
X66854700Y-118954700D01*
X103050600Y-134599400D02*
X103499400Y-134599400D01*
X51854700Y-130954700D02*
X64695300Y-130954700D01*
X175954800Y-77928000D02*
X175954800Y-78623100D01*
X125775000Y-131297300D02*
X139352700Y-131297300D01*
X80775000Y-129875000D02*
X79410400Y-131239600D01*
X95775000Y-129875000D02*
X94414200Y-131235800D01*
X103050600Y-131272200D02*
X103050600Y-134599400D01*
X197627100Y-131022900D02*
X198775000Y-129875000D01*
X199854700Y-130954700D02*
X212695300Y-130954700D01*
X155353300Y-140763400D02*
X141886600Y-140763400D01*
X178472000Y-77928000D02*
X175954800Y-77928000D01*
X80775000Y-141875000D02*
X79695300Y-142954700D01*
X214854700Y-130954700D02*
X213775000Y-129875000D01*
X51854700Y-142954700D02*
X64695300Y-142954700D01*
X64695300Y-118954700D02*
X65775000Y-117875000D01*
X94678600Y-118971400D02*
X95775000Y-117875000D01*
X80775000Y-117875000D02*
X81871400Y-118971400D01*
X77130400Y-137889500D02*
X82572500Y-132447400D01*
X155775000Y-141875000D02*
X155353300Y-141453300D01*
X79410400Y-131239600D02*
X67139600Y-131239600D01*
X126856700Y-118956700D02*
X125775000Y-117875000D01*
X82572500Y-132447400D02*
X82572500Y-131235800D01*
X77400300Y-142954700D02*
X77130400Y-142684800D01*
X66854700Y-118954700D02*
X65775000Y-117875000D01*
X125775000Y-129875000D02*
X125775000Y-131297300D01*
X139352700Y-131297300D02*
X140775000Y-129875000D01*
X80775000Y-117875000D02*
X79695300Y-118954700D01*
X141899000Y-116751000D02*
X140775000Y-117875000D01*
X212695300Y-130954700D02*
X213775000Y-129875000D01*
X50775000Y-129875000D02*
X51854700Y-130954700D01*
X111902900Y-119002900D02*
X110775000Y-117875000D01*
X141886600Y-140763400D02*
X140775000Y-141875000D01*
X47118200Y-123691200D02*
X47118200Y-130662700D01*
X77130400Y-141875000D02*
X77130400Y-137889500D01*
X47118200Y-130662700D02*
X47435200Y-130979700D01*
X125775000Y-131297300D02*
X125775000Y-141875000D01*
X94414200Y-131235800D02*
X82572500Y-131235800D01*
X103050600Y-134599400D02*
X95775000Y-141875000D01*
X140775000Y-117875000D02*
X139693300Y-118956700D01*
X49670300Y-130979700D02*
X50775000Y-129875000D01*
X77130400Y-142684800D02*
X77130400Y-141875000D01*
X112197300Y-131297300D02*
X125775000Y-131297300D01*
X156854700Y-130954700D02*
X182695300Y-130954700D01*
X175954800Y-77928000D02*
X172278000Y-77928000D01*
X81871400Y-118971400D02*
X94678600Y-118971400D01*
X95775000Y-129875000D02*
X97172200Y-131272200D01*
%TO.N,N$15*%
X104095900Y-114353300D02*
X103231700Y-113489100D01*
X104095900Y-116040700D02*
X104095900Y-114353300D01*
X100605600Y-113529400D02*
X98276200Y-111200000D01*
X107975000Y-117875000D02*
X105930200Y-117875000D01*
X98276200Y-111200000D02*
X97662500Y-111200000D01*
X101791300Y-113489100D02*
X101751000Y-113529400D01*
X105930200Y-117875000D02*
X104095900Y-116040700D01*
X103231700Y-113489100D02*
X101791300Y-113489100D01*
X101751000Y-113529400D02*
X100605600Y-113529400D01*
%TO.N,N$31*%
X105087500Y-110550000D02*
X105691500Y-110550000D01*
X105691500Y-110550000D02*
X106507900Y-111366400D01*
X107975000Y-140547600D02*
X107975000Y-141875000D01*
X106507900Y-111366400D02*
X106507900Y-113750500D01*
%TO.N,+3V3*%
X205030300Y-101261000D02*
X203606300Y-102685000D01*
X203606300Y-102685000D02*
X201152500Y-102685000D01*
X139325000Y-146825000D02*
X140378700Y-146825000D01*
X140153100Y-98695200D02*
X139867600Y-98980700D01*
X200218600Y-92371300D02*
X205030300Y-97183000D01*
X140153100Y-98695200D02*
X140332900Y-98875000D01*
X201152500Y-102685000D02*
X200237500Y-103600000D01*
X108798200Y-146825000D02*
X109165000Y-146825000D01*
X134590700Y-98632800D02*
X134348500Y-98875000D01*
X154850000Y-95970000D02*
X156925800Y-93894200D01*
X133925000Y-95275000D02*
X133937500Y-95275000D01*
X62217600Y-147878700D02*
X51300600Y-147878700D01*
X63271300Y-146825000D02*
X62217600Y-147878700D01*
X109325000Y-146825000D02*
X109165000Y-146825000D01*
X79325000Y-146825000D02*
X80378700Y-146825000D01*
X104175000Y-106000000D02*
X103296900Y-106878100D01*
X80237500Y-103600000D02*
X80135300Y-103702200D01*
X109165000Y-146825000D02*
X110218700Y-145771300D01*
X51300600Y-147878700D02*
X50378700Y-146956800D01*
X139975000Y-94437500D02*
X139575000Y-94437500D01*
X134809800Y-98851900D02*
X134590700Y-98632800D01*
X134484900Y-95275000D02*
X134590700Y-95380800D01*
X133937500Y-95275000D02*
X134484900Y-95275000D01*
X105087500Y-106000000D02*
X104175000Y-106000000D01*
X137575000Y-100834700D02*
X137575000Y-101312500D01*
X140408900Y-95275000D02*
X140153100Y-95530800D01*
X141300700Y-145771300D02*
X152217600Y-145771300D01*
X220265100Y-77038600D02*
X220900000Y-76403700D01*
X94325000Y-146825000D02*
X93271300Y-146825000D01*
X116525000Y-77875000D02*
X133925000Y-95275000D01*
X110218700Y-145771300D02*
X122217600Y-145771300D01*
X137069700Y-95380800D02*
X137575000Y-94875500D01*
X107217600Y-147878700D02*
X108271300Y-146825000D01*
X108798200Y-146825000D02*
X108271300Y-146825000D01*
X139867600Y-98980700D02*
X139761300Y-98980700D01*
X140812500Y-95275000D02*
X140408900Y-95275000D01*
X50378700Y-146956800D02*
X50378700Y-146825000D01*
X188825400Y-93894200D02*
X190348300Y-92371300D01*
X95378700Y-146956700D02*
X96300700Y-147878700D01*
X92217600Y-147878700D02*
X93271300Y-146825000D01*
X205030300Y-97183000D02*
X205030300Y-101261000D01*
X134590700Y-95380800D02*
X134590700Y-98632800D01*
X80378700Y-146956700D02*
X81300700Y-147878700D01*
X140378700Y-146825000D02*
X140378700Y-146693300D01*
X49325000Y-146825000D02*
X50378700Y-146825000D01*
X138994000Y-99748000D02*
X138661700Y-99748000D01*
X139708100Y-98927500D02*
X139761300Y-98980700D01*
X139975000Y-94841100D02*
X140408900Y-95275000D01*
X112959900Y-77875000D02*
X116525000Y-77875000D01*
X154249200Y-96570800D02*
X154850000Y-95970000D01*
X134348500Y-98875000D02*
X133937500Y-98875000D01*
X81300700Y-147878700D02*
X92217600Y-147878700D01*
X190348300Y-92371300D02*
X200218600Y-92371300D01*
X140332900Y-98875000D02*
X140812500Y-98875000D01*
X140378700Y-146693300D02*
X141300700Y-145771300D01*
X154325000Y-146825000D02*
X153271300Y-146825000D01*
X122217600Y-145771300D02*
X123271300Y-146825000D01*
X134590700Y-95380800D02*
X137069700Y-95380800D01*
X64325000Y-146825000D02*
X63271300Y-146825000D01*
X210348500Y-101261000D02*
X205030300Y-101261000D01*
X137575000Y-94437500D02*
X137975000Y-94437500D01*
X152217600Y-145771300D02*
X153271300Y-146825000D01*
X112959900Y-78623500D02*
X112959900Y-77875000D01*
X137575000Y-94875500D02*
X137575000Y-94437500D01*
X94325000Y-146825000D02*
X95378700Y-146825000D01*
X80135300Y-103702200D02*
X79066300Y-103702200D01*
X156925800Y-93894200D02*
X188825400Y-93894200D01*
X103296900Y-106878100D02*
X102292300Y-106878100D01*
X139975000Y-94437500D02*
X139975000Y-94841100D01*
X220900000Y-76403700D02*
X220900000Y-75600000D01*
X110225000Y-77875000D02*
X112959900Y-77875000D01*
X139761300Y-98980700D02*
X138994000Y-99748000D01*
X80378700Y-146825000D02*
X80378700Y-146956700D01*
X96300700Y-147878700D02*
X107217600Y-147878700D01*
X138661700Y-99748000D02*
X137575000Y-100834700D01*
X140153100Y-95530800D02*
X140153100Y-98695200D01*
X124325000Y-146825000D02*
X123271300Y-146825000D01*
X148649700Y-96570800D02*
X154249200Y-96570800D01*
X215087500Y-106000000D02*
X210348500Y-101261000D01*
X95378700Y-146825000D02*
X95378700Y-146956700D01*
%TO.N,SW6*%
X74512500Y-106200000D02*
X75408500Y-106200000D01*
X102257000Y-104537200D02*
X102520200Y-104537200D01*
X75408500Y-106200000D02*
X78421700Y-103186800D01*
X78421700Y-103186800D02*
X100906600Y-103186800D01*
X100906600Y-103186800D02*
X102257000Y-104537200D01*
%TO.N,GND*%
X216050000Y-75600000D02*
X216753700Y-75600000D01*
X80768000Y-107500000D02*
X80237500Y-107500000D01*
X136356700Y-100216200D02*
X136375000Y-100234500D01*
X226111900Y-147599900D02*
X226111900Y-147599800D01*
X137375000Y-99678700D02*
X136930800Y-99678700D01*
X114405000Y-146825000D02*
X115458700Y-147878700D01*
X160458700Y-147878700D02*
X183811300Y-147878700D01*
X203080000Y-104250000D02*
X200237500Y-104250000D01*
X191325000Y-94675000D02*
X187425000Y-94675000D01*
X120275000Y-97025000D02*
X120775000Y-97025000D01*
X159695000Y-67258700D02*
X158963700Y-67258700D01*
X99695000Y-66005000D02*
X99695000Y-67258700D01*
X214090200Y-147599800D02*
X214865000Y-146825000D01*
X91055000Y-66005000D02*
X91055000Y-67258700D01*
X196012000Y-104250000D02*
X195362000Y-104900000D01*
X214553700Y-60883200D02*
X214783500Y-61113000D01*
X74512500Y-108150000D02*
X76396200Y-108150000D01*
X81686600Y-105042600D02*
X81926600Y-105282600D01*
X194512500Y-106850000D02*
X193958200Y-106850000D01*
X163908700Y-67258700D02*
X159695000Y-67258700D01*
X200918700Y-147878700D02*
X213259300Y-147878700D01*
X216050000Y-75600000D02*
X215346300Y-75600000D01*
X97433500Y-106229000D02*
X97662500Y-106000000D01*
X195362000Y-104900000D02*
X194512500Y-104900000D01*
X80894000Y-104250000D02*
X81686600Y-105042600D01*
X229865000Y-146825000D02*
X228811300Y-147878700D01*
X158963700Y-67258700D02*
X158625000Y-66920000D01*
X55458700Y-145771300D02*
X54405000Y-146825000D01*
X81926600Y-106341400D02*
X80768000Y-107500000D01*
X145458700Y-147878700D02*
X144405000Y-146825000D01*
X227903700Y-71300000D02*
X227903700Y-63257400D01*
X137375000Y-97875000D02*
X137375000Y-99678700D01*
X136375000Y-100234500D02*
X136375000Y-101312500D01*
X81926600Y-105282600D02*
X81926600Y-106341400D01*
X226496300Y-71400000D02*
X223100000Y-74796300D01*
X223100000Y-75600000D02*
X223100000Y-74796300D01*
X216753700Y-75600000D02*
X216753700Y-75160200D01*
X159695000Y-62828700D02*
X159695000Y-66005000D01*
X159405000Y-146825000D02*
X160458700Y-147878700D01*
X159695000Y-66005000D02*
X159695000Y-67258700D01*
X207662500Y-106000000D02*
X207552000Y-106110500D01*
X118842700Y-95967800D02*
X119217800Y-95967800D01*
X227200000Y-60950000D02*
X227200000Y-62553700D01*
X200237500Y-104250000D02*
X196012000Y-104250000D01*
X207552000Y-106110500D02*
X205814700Y-106110500D01*
X213538100Y-147599800D02*
X214090200Y-147599800D01*
X198811300Y-147878700D02*
X185918700Y-147878700D01*
X91786300Y-67258700D02*
X92125000Y-66920000D01*
X193554100Y-107254100D02*
X193554100Y-107709200D01*
X119217800Y-95967800D02*
X120275000Y-97025000D01*
X149900000Y-99780000D02*
X150455000Y-100335000D01*
X213700000Y-60500000D02*
X214553700Y-60500000D01*
X130458700Y-147878700D02*
X143351300Y-147878700D01*
X76396200Y-108150000D02*
X77046200Y-107500000D01*
X95644800Y-106229000D02*
X97433500Y-106229000D01*
X194512500Y-106200000D02*
X194512500Y-105550000D01*
X226496300Y-71300000D02*
X226496300Y-71400000D01*
X160922200Y-94561200D02*
X160922200Y-94675000D01*
X101908700Y-67258700D02*
X110225000Y-75575000D01*
X187425000Y-94675000D02*
X183325000Y-94675000D01*
X150455000Y-100335000D02*
X155783700Y-100335000D01*
X128351300Y-147878700D02*
X129405000Y-146825000D01*
X136055000Y-100216200D02*
X136356700Y-100216200D01*
X194512500Y-106850000D02*
X194512500Y-106200000D01*
X193554100Y-107709200D02*
X193994900Y-108150000D01*
X80237500Y-104250000D02*
X80894000Y-104250000D01*
X151055000Y-62828700D02*
X151055000Y-66005000D01*
X151055000Y-61825000D02*
X151055000Y-62326800D01*
X99405000Y-146825000D02*
X98351300Y-145771300D01*
X136930800Y-99678700D02*
X136375000Y-100234500D01*
X70458700Y-145771300D02*
X69405000Y-146825000D01*
X160922200Y-95196500D02*
X160922200Y-94675000D01*
X151055000Y-62326800D02*
X151055000Y-62828700D01*
X214783500Y-61113000D02*
X227037000Y-61113000D01*
X160922200Y-94675000D02*
X182671300Y-94675000D01*
X99695000Y-67258700D02*
X101908700Y-67258700D01*
X155783700Y-100335000D02*
X160922200Y-95196500D01*
X158351300Y-147878700D02*
X145458700Y-147878700D01*
X98351300Y-145771300D02*
X85458700Y-145771300D01*
X195425000Y-94675000D02*
X195425000Y-95779900D01*
X215346300Y-75732500D02*
X215346300Y-75600000D01*
X199865000Y-146825000D02*
X200918700Y-147878700D01*
X84405000Y-146825000D02*
X83351300Y-145771300D01*
X199865000Y-146825000D02*
X198811300Y-147878700D01*
X143351300Y-147878700D02*
X144405000Y-146825000D01*
X99695000Y-67258700D02*
X98963700Y-67258700D01*
X129405000Y-146825000D02*
X130458700Y-147878700D01*
X69405000Y-146825000D02*
X68351300Y-145771300D01*
X83351300Y-145771300D02*
X70458700Y-145771300D01*
X185918700Y-147878700D02*
X184865000Y-146825000D01*
X183811300Y-147878700D02*
X184865000Y-146825000D01*
X91055000Y-67258700D02*
X91786300Y-67258700D01*
X194512500Y-104900000D02*
X194512500Y-105550000D01*
X191325000Y-94675000D02*
X195425000Y-94675000D01*
X172225000Y-75575000D02*
X163908700Y-67258700D01*
X227200000Y-71300000D02*
X227903700Y-71300000D01*
X227144900Y-71300000D02*
X227200000Y-71300000D01*
X68351300Y-145771300D02*
X55458700Y-145771300D01*
X214553700Y-60500000D02*
X214553700Y-60883200D01*
X77046200Y-107500000D02*
X80237500Y-107500000D01*
X216753700Y-75160200D02*
X217117600Y-74796300D01*
X159405000Y-146825000D02*
X158351300Y-147878700D01*
X227144900Y-71300000D02*
X226496300Y-71300000D01*
X81686600Y-105042600D02*
X81832400Y-104896800D01*
X195425000Y-95779900D02*
X196517800Y-96872700D01*
X151055000Y-66005000D02*
X151055000Y-67258700D01*
X213538100Y-147599900D02*
X213538100Y-147599800D01*
X203375000Y-103955000D02*
X203080000Y-104250000D01*
X193958200Y-106850000D02*
X193554100Y-107254100D01*
X213259300Y-147878700D02*
X213538100Y-147599900D01*
X226390700Y-147878700D02*
X226111900Y-147599900D01*
X183325000Y-94675000D02*
X182671300Y-94675000D01*
X215639800Y-147599800D02*
X214865000Y-146825000D01*
X159695000Y-61825000D02*
X159695000Y-62828700D01*
X227903700Y-63257400D02*
X227200000Y-62553700D01*
X115458700Y-147878700D02*
X128351300Y-147878700D01*
X98963700Y-67258700D02*
X98625000Y-66920000D01*
X227037000Y-61113000D02*
X227200000Y-60950000D01*
X120775000Y-97025000D02*
X122475000Y-98725000D01*
X151055000Y-67258700D02*
X151786300Y-67258700D01*
X217117600Y-74796300D02*
X223100000Y-74796300D01*
X214392300Y-76686500D02*
X215346300Y-75732500D01*
X226111900Y-147599800D02*
X215639800Y-147599800D01*
X85458700Y-145771300D02*
X84405000Y-146825000D01*
X228811300Y-147878700D02*
X226390700Y-147878700D01*
X193994900Y-108150000D02*
X194512500Y-108150000D01*
X151786300Y-67258700D02*
X152125000Y-66920000D01*
X151055000Y-62828700D02*
X159695000Y-62828700D01*
%TO.N,CMD1*%
X200755000Y-106200000D02*
X200237500Y-106200000D01*
X201411100Y-106856100D02*
X200755000Y-106200000D01*
%TO.N,CMD0*%
X200095100Y-106992400D02*
X200237500Y-106850000D01*
X199057500Y-106992400D02*
X200095100Y-106992400D01*
%TO.N,VBUS_LED*%
X161290600Y-69240600D02*
X172225000Y-80175000D01*
X157825000Y-66920000D02*
X157825000Y-67462400D01*
X157825000Y-66469000D02*
X157346000Y-65990000D01*
X157825000Y-67462400D02*
X159603200Y-69240600D01*
X157346000Y-65990000D02*
X153353500Y-65990000D01*
X152925000Y-66418500D02*
X152925000Y-66920000D01*
X159603200Y-69240600D02*
X161290600Y-69240600D01*
X153353500Y-65990000D02*
X152925000Y-66418500D01*
X157825000Y-66920000D02*
X157825000Y-66469000D01*
%TO.N,N$5*%
X156625000Y-67579900D02*
X166030500Y-76985400D01*
X166030500Y-76985400D02*
X168073800Y-76985400D01*
X156625000Y-66920000D02*
X156625000Y-67579900D01*
%TO.N,N$6*%
X153625000Y-67551000D02*
X153625000Y-66920000D01*
X156412300Y-70338300D02*
X153625000Y-67551000D01*
X157796500Y-70338300D02*
X156412300Y-70338300D01*
%TO.N,CMD2*%
X197496100Y-105550000D02*
X200237500Y-105550000D01*
X201102500Y-105550000D02*
X202142800Y-106590300D01*
X196468900Y-106577200D02*
X197496100Y-105550000D01*
X200237500Y-105550000D02*
X201102500Y-105550000D01*
%TO.N,HC_PLOAD*%
X133536700Y-98475000D02*
X130681400Y-101330300D01*
X194382400Y-103730100D02*
X150024000Y-103730100D01*
X194512500Y-103600000D02*
X194382400Y-103730100D01*
X130681400Y-101693900D02*
X130350600Y-102024700D01*
X133937500Y-98475000D02*
X133536700Y-98475000D01*
X76087800Y-102024700D02*
X74512500Y-103600000D01*
X130350600Y-102024700D02*
X76087800Y-102024700D01*
X130681400Y-101330300D02*
X130681400Y-101693900D01*
X150024000Y-103730100D02*
X150024000Y-103730200D01*
%TO.N,HC_CLK*%
X131185100Y-101902600D02*
X130784200Y-102303500D01*
X167689300Y-104243700D02*
X167775000Y-104158000D01*
X136781500Y-104243700D02*
X167689300Y-104243700D01*
X134470700Y-100820300D02*
X134470700Y-101932900D01*
X167775000Y-104158000D02*
X194420500Y-104158000D01*
X134631400Y-100659600D02*
X134470700Y-100820300D01*
X134631400Y-99537800D02*
X134631400Y-100659600D01*
X133937500Y-99275000D02*
X133463600Y-99275000D01*
X133937500Y-99275000D02*
X134368600Y-99275000D01*
X131185100Y-101553500D02*
X131185100Y-101902600D01*
X77909700Y-102303500D02*
X75963200Y-104250000D01*
X75963200Y-104250000D02*
X74512500Y-104250000D01*
X130784200Y-102303500D02*
X77909700Y-102303500D01*
X134368600Y-99275000D02*
X134631400Y-99537800D01*
X134470700Y-101932900D02*
X136781500Y-104243700D01*
X133463600Y-99275000D02*
X131185100Y-101553500D01*
X194420500Y-104158000D02*
X194512500Y-104250000D01*
%TO.N,HC_QH*%
X133503300Y-99675000D02*
X133937500Y-99675000D01*
X132964400Y-102278000D02*
X132964400Y-100213900D01*
X139246700Y-108560300D02*
X132964400Y-102278000D01*
X132964400Y-100213900D02*
X133503300Y-99675000D01*
X200237500Y-108150000D02*
X199827200Y-108560300D01*
X199827200Y-108560300D02*
X139246700Y-108560300D01*
%TO.N,HC_CHAIN*%
X103894000Y-103989200D02*
X133658100Y-103989200D01*
X201179400Y-108412100D02*
X201179400Y-107901000D01*
X200778400Y-107500000D02*
X200237500Y-107500000D01*
X102824900Y-105058300D02*
X103894000Y-103989200D01*
X201179400Y-107901000D02*
X200778400Y-107500000D01*
X92577500Y-105058300D02*
X102824900Y-105058300D01*
X80237500Y-108150000D02*
X89485800Y-108150000D01*
X89485800Y-108150000D02*
X92577500Y-105058300D01*
X138524100Y-108855200D02*
X200736300Y-108855200D01*
X200736300Y-108855200D02*
X201179400Y-108412100D01*
X133658100Y-103989200D02*
X138524100Y-108855200D01*
%TO.N,CMD3*%
X200108200Y-104770700D02*
X200237500Y-104900000D01*
X200237500Y-104900000D02*
X201411800Y-104900000D01*
X196248000Y-104770700D02*
X200108200Y-104770700D01*
%TO.N,N$34*%
X105087500Y-108600000D02*
X110073000Y-108600000D01*
X150869700Y-141875000D02*
X152975000Y-141875000D01*
%TO.N,N$36*%
X207087200Y-109250000D02*
X195975000Y-120362200D01*
X207662500Y-109250000D02*
X207087200Y-109250000D01*
X195975000Y-120362200D02*
X195975000Y-129875000D01*
%TO.N,N$40*%
X217600000Y-75600000D02*
X217600000Y-76522900D01*
X217600000Y-76522900D02*
X217490600Y-76632300D01*
%TO.N,SD_CS*%
X166873500Y-102639100D02*
X148898900Y-102639100D01*
X135175000Y-101776800D02*
X135175000Y-101312500D01*
X217862200Y-77241500D02*
X218700000Y-76403700D01*
X148898900Y-102639100D02*
X148563700Y-102974300D01*
X212656100Y-75662600D02*
X214235000Y-77241500D01*
X214235000Y-77241500D02*
X217862200Y-77241500D01*
X136372500Y-102974300D02*
X135175000Y-101776800D01*
X148563700Y-102974300D02*
X136372500Y-102974300D01*
X218700000Y-75600000D02*
X218700000Y-76403700D01*
%TO.N,SD_MOSI*%
X215292600Y-80911100D02*
X205396300Y-80911100D01*
X219800000Y-76403700D02*
X215292600Y-80911100D01*
X219800000Y-75600000D02*
X219800000Y-76403700D01*
X136798800Y-104661700D02*
X181920200Y-104661700D01*
X133937500Y-100475000D02*
X133937500Y-101800400D01*
X133937500Y-101800400D02*
X136798800Y-104661700D01*
%TO.N,SD_SCK*%
X222000000Y-75600000D02*
X222000000Y-76403700D01*
X173145100Y-81894400D02*
X173145100Y-81894500D01*
X134533600Y-103111000D02*
X133271800Y-101849200D01*
X133541000Y-100075000D02*
X133937500Y-100075000D01*
X133271800Y-100344200D02*
X133541000Y-100075000D01*
X173145100Y-81894500D02*
X162261200Y-92778400D01*
X133271800Y-101849200D02*
X133271800Y-100344200D01*
X222000000Y-76403700D02*
X216509300Y-81894400D01*
X216509300Y-81894400D02*
X173145100Y-81894400D01*
%TO.N,SD_MISO*%
X149589600Y-103184000D02*
X149520600Y-103253000D01*
X134775000Y-101831100D02*
X134775000Y-101312500D01*
X149520600Y-103253000D02*
X136196900Y-103253000D01*
X224200000Y-76632300D02*
X209911200Y-90921100D01*
X209911200Y-90921100D02*
X172841800Y-90921100D01*
X136196900Y-103253000D02*
X134775000Y-101831100D01*
X224200000Y-76632300D02*
X224200000Y-75600000D01*
X155645300Y-103184000D02*
X149589600Y-103184000D01*
%TO.N,N$39*%
X225300000Y-75600000D02*
X225300000Y-74796300D01*
X224875100Y-74796300D02*
X224639100Y-74560300D01*
X225300000Y-74796300D02*
X224875100Y-74796300D01*
%TO.N,SW2*%
X80237500Y-105550000D02*
X79059100Y-105550000D01*
%TO.N,N$27*%
X100938900Y-113150000D02*
X100793300Y-113004400D01*
X105087500Y-113150000D02*
X100938900Y-113150000D01*
X58330600Y-131519400D02*
X81696700Y-131519400D01*
X47975000Y-141875000D02*
X58330600Y-131519400D01*
%TO.N,N$21*%
X96670700Y-116013800D02*
X96967700Y-116310800D01*
X97662500Y-115100000D02*
X97084800Y-115100000D01*
X97084800Y-115100000D02*
X96670700Y-115514100D01*
X96670700Y-115514100D02*
X96670700Y-116013800D01*
X79368200Y-128481800D02*
X77975000Y-129875000D01*
X96967700Y-118722200D02*
X87208100Y-128481800D01*
X87208100Y-128481800D02*
X79368200Y-128481800D01*
X96967700Y-116310800D02*
X96967700Y-118722200D01*
%TO.N,N$22*%
X97662500Y-125187500D02*
X92975000Y-129875000D01*
X97662500Y-115750000D02*
X97662500Y-125187500D01*
%TO.N,N$33*%
X105087500Y-109250000D02*
X105200000Y-109137500D01*
X128821200Y-132721200D02*
X137975000Y-141875000D01*
X105200000Y-109137500D02*
X106366300Y-109137500D01*
X126409800Y-132721200D02*
X128821200Y-132721200D01*
%TO.N,VBUS_LOGIC*%
X97825000Y-66920000D02*
X97825000Y-66469000D01*
X112464400Y-80174800D02*
X110225200Y-80174800D01*
X92925000Y-67699100D02*
X92925000Y-66920000D01*
X97048400Y-65692400D02*
X93652600Y-65692400D01*
X110225000Y-80175000D02*
X105400900Y-80175000D01*
X93652600Y-65692400D02*
X92925000Y-66420000D01*
X97825000Y-66469000D02*
X97048400Y-65692400D01*
X92925000Y-66420000D02*
X92925000Y-66920000D01*
X110225200Y-80174800D02*
X110225000Y-80175000D01*
X105400900Y-80175000D02*
X92925000Y-67699100D01*
%TO.N,TLC_SCLK*%
X128296200Y-96286500D02*
X128484700Y-96475000D01*
X126444600Y-99024700D02*
X126444600Y-97582000D01*
X103386700Y-105961400D02*
X104141600Y-105206500D01*
X104141600Y-105206500D02*
X108512900Y-105206500D01*
X128484700Y-96475000D02*
X133937500Y-96475000D01*
X126444600Y-97582000D02*
X127740100Y-96286500D01*
X126353600Y-105554000D02*
X130567800Y-109768200D01*
X130567800Y-109768200D02*
X201454800Y-109768200D01*
X201454800Y-109768200D02*
X203923000Y-107300000D01*
X108512900Y-105206500D02*
X108860400Y-105554000D01*
X99342500Y-107300000D02*
X100681100Y-105961400D01*
X97662500Y-107300000D02*
X99342500Y-107300000D01*
X203923000Y-107300000D02*
X207662500Y-107300000D01*
X100681100Y-105961400D02*
X103386700Y-105961400D01*
X108860400Y-105554000D02*
X126353600Y-105554000D01*
X127740100Y-96286500D02*
X128296200Y-96286500D01*
%TO.N,TLC_SIN*%
X99921700Y-107950000D02*
X101497400Y-106374300D01*
X106222000Y-105559600D02*
X106388500Y-105726100D01*
X133917800Y-96855300D02*
X127884900Y-96855300D01*
X133937500Y-96875000D02*
X133917800Y-96855300D01*
X104221100Y-105559600D02*
X106222000Y-105559600D01*
X103406400Y-106374300D02*
X104221100Y-105559600D01*
X97662500Y-107950000D02*
X99921700Y-107950000D01*
X101497400Y-106374300D02*
X103406400Y-106374300D01*
%TO.N,TLC_XLAT*%
X208472800Y-105592800D02*
X210180000Y-107300000D01*
X210180000Y-107300000D02*
X215087500Y-107300000D01*
X200890100Y-109150400D02*
X204447700Y-105592800D01*
X105087500Y-107300000D02*
X125706500Y-107300000D01*
X133255500Y-97275000D02*
X133937500Y-97275000D01*
X129575100Y-100955400D02*
X133255500Y-97275000D01*
X204447700Y-105592800D02*
X208472800Y-105592800D01*
X137209200Y-109150400D02*
X200890100Y-109150400D01*
X137020600Y-108961800D02*
X137209200Y-109150400D01*
%TO.N,TLC_BLANK*%
X133159000Y-98159400D02*
X133159000Y-97966000D01*
X99336800Y-106650000D02*
X100330600Y-105656200D01*
X131968700Y-109476400D02*
X200958400Y-109476400D01*
X114195800Y-105050300D02*
X127536600Y-105050300D01*
X200958400Y-109476400D02*
X203784800Y-106650000D01*
X203784800Y-106650000D02*
X207662500Y-106650000D01*
X127539600Y-105047300D02*
X127539600Y-104754500D01*
X103297700Y-105656200D02*
X104045100Y-104908800D01*
X97662500Y-106650000D02*
X99336800Y-106650000D01*
X104045100Y-104908800D02*
X114054300Y-104908800D01*
X133159000Y-97966000D02*
X133450000Y-97675000D01*
X127536600Y-105050300D02*
X127539600Y-105047300D01*
X100330600Y-105656200D02*
X103297700Y-105656200D01*
X133450000Y-97675000D02*
X133937500Y-97675000D01*
X114054300Y-104908800D02*
X114195800Y-105050300D01*
X127539600Y-105047300D02*
X131968700Y-109476400D01*
X127769400Y-101490800D02*
X129827600Y-101490800D01*
X129827600Y-101490800D02*
X133159000Y-98159400D01*
%TO.N,XIN*%
X129191300Y-99553900D02*
X121103900Y-99553900D01*
X129377300Y-99367900D02*
X129191300Y-99553900D01*
X121103900Y-99553900D02*
X120275000Y-98725000D01*
X136775000Y-100568300D02*
X136775000Y-101312500D01*
X136909100Y-100434200D02*
X136775000Y-100568300D01*
%TO.N,XOUT*%
X137175000Y-102294900D02*
X137007300Y-102462600D01*
X122475000Y-97025000D02*
X123369700Y-97919700D01*
X123369700Y-97919700D02*
X125052600Y-97919700D01*
X137175000Y-101312500D02*
X137175000Y-102294900D01*
%TO.N,VCORE*%
X138996200Y-93056500D02*
X139411700Y-93472000D01*
X139175000Y-93914900D02*
X139175000Y-94437500D01*
X140030000Y-93678200D02*
X142411400Y-96059600D01*
X142411400Y-96059600D02*
X142411400Y-98979100D01*
X137175000Y-94437500D02*
X137175000Y-94041000D01*
X137975000Y-102190400D02*
X137975000Y-101312500D01*
X139411700Y-93678200D02*
X140030000Y-93678200D01*
X137175000Y-94041000D02*
X138159500Y-93056500D01*
X139411700Y-93472000D02*
X139411700Y-93678200D01*
X138159500Y-93056500D02*
X138996200Y-93056500D01*
X139411700Y-93678200D02*
X139175000Y-93914900D01*
%TO.N,N$1*%
X202321300Y-98875000D02*
X200414800Y-100781500D01*
X203375000Y-98875000D02*
X202321300Y-98875000D01*
X200414800Y-100781500D02*
X140281500Y-100781500D01*
X138375000Y-100873300D02*
X138375000Y-101312500D01*
X140281500Y-100781500D02*
X140159300Y-100659300D01*
X138589000Y-100659300D02*
X138375000Y-100873300D01*
X140159300Y-100659300D02*
X138589000Y-100659300D01*
%TO.N,N$2*%
X203276000Y-101514000D02*
X154117700Y-101514000D01*
X203375000Y-101415000D02*
X203276000Y-101514000D01*
X154117700Y-101514000D02*
X153377700Y-102254000D01*
X139261900Y-102254000D02*
X138775000Y-101767100D01*
X153377700Y-102254000D02*
X139261900Y-102254000D01*
X138775000Y-101767100D02*
X138775000Y-101312500D01*
%TO.N,RUN*%
X204428700Y-99818700D02*
X204200500Y-100046900D01*
X199568900Y-93075000D02*
X204428700Y-97934800D01*
X204428700Y-97934800D02*
X204428700Y-99818700D01*
X140126100Y-101974500D02*
X139393900Y-101974500D01*
X200817900Y-101235300D02*
X140865300Y-101235300D01*
X140865300Y-101235300D02*
X140126100Y-101974500D01*
X191325000Y-93075000D02*
X195425000Y-93075000D01*
X139175000Y-101755600D02*
X139175000Y-101312500D01*
X195425000Y-93075000D02*
X199568900Y-93075000D01*
X139393900Y-101974500D02*
X139175000Y-101755600D01*
X202006300Y-100046900D02*
X200817900Y-101235300D01*
X204200500Y-100046900D02*
X202006300Y-100046900D01*
%TO.N,N$8*%
X138775000Y-94437500D02*
X138775000Y-93570700D01*
%TO.N,N$7*%
X137349900Y-95932800D02*
X138375000Y-94907700D01*
X135108500Y-95932800D02*
X137349900Y-95932800D01*
X138375000Y-94907700D02*
X138375000Y-94437500D01*
%TO.N,QSPI_SD3*%
X136775000Y-94437500D02*
X136775000Y-94037200D01*
X136775000Y-94037200D02*
X138034400Y-92777800D01*
X139803900Y-92777800D02*
X145653500Y-98627400D01*
X154850000Y-97240000D02*
X152330300Y-97240000D01*
X138034400Y-92777800D02*
X139803900Y-92777800D01*
%TO.N,QSPI_SCLK*%
X136375000Y-94033600D02*
X136375000Y-94437500D01*
X137911000Y-92497600D02*
X136375000Y-94033600D01*
X154339900Y-99020100D02*
X146795300Y-99020100D01*
X140272800Y-92497600D02*
X137911000Y-92497600D01*
X146795300Y-99020100D02*
X140272800Y-92497600D01*
X154850000Y-98510000D02*
X154339900Y-99020100D01*
%TO.N,QSPI_SD0*%
X140930600Y-92442800D02*
X140706700Y-92218900D01*
X155721200Y-97875000D02*
X148053600Y-97875000D01*
X155121900Y-99780000D02*
X156047600Y-98854300D01*
X135975000Y-94030000D02*
X135975000Y-94437500D01*
X140706700Y-92218900D02*
X137786100Y-92218900D01*
X156047600Y-98201400D02*
X155721200Y-97875000D01*
X156047600Y-98854300D02*
X156047600Y-98201400D01*
X148053600Y-97875000D02*
X146993400Y-96814800D01*
X154850000Y-99780000D02*
X155121900Y-99780000D01*
X137786100Y-92218900D02*
X135975000Y-94030000D01*
%TO.N,QSPI_SD2*%
X137654900Y-91938700D02*
X135575000Y-94018600D01*
X141365300Y-91938700D02*
X137654900Y-91938700D01*
X147936600Y-98510000D02*
X141365300Y-91938700D01*
X149900000Y-98510000D02*
X147936600Y-98510000D01*
X135575000Y-94018600D02*
X135575000Y-94437500D01*
%TO.N,QSPI_SD1*%
X135175000Y-94000100D02*
X135175000Y-94437500D01*
X148606400Y-97240000D02*
X143023400Y-91657000D01*
X137518100Y-91657000D02*
X135175000Y-94000100D01*
X149900000Y-97240000D02*
X148606400Y-97240000D01*
X143023400Y-91657000D02*
X137518100Y-91657000D01*
%TO.N,QSPI_SS*%
X149900000Y-95970000D02*
X145305300Y-91375300D01*
X137375400Y-91375300D02*
X134775000Y-93975700D01*
X152559100Y-93310900D02*
X182435400Y-93310900D01*
X182435400Y-93310900D02*
X182671300Y-93075000D01*
X183325000Y-93075000D02*
X182671300Y-93075000D01*
X149900000Y-95970000D02*
X152559100Y-93310900D01*
X187425000Y-93075000D02*
X183325000Y-93075000D01*
X145305300Y-91375300D02*
X137375400Y-91375300D01*
X134775000Y-93975700D02*
X134775000Y-94437500D01*
%TO.N,N$30*%
X105087500Y-111200000D02*
X103430800Y-111200000D01*
X93320300Y-141875000D02*
X92975000Y-141875000D01*
X102426700Y-132768600D02*
X93320300Y-141875000D01*
X103430800Y-111200000D02*
X103178000Y-111452800D01*
%TO.N,N$11*%
X47975000Y-117875000D02*
X57004100Y-108845900D01*
X97416600Y-108845900D02*
X97662500Y-108600000D01*
X57004100Y-108845900D02*
X97416600Y-108845900D01*
%TO.N,N$12*%
X62975000Y-117875000D02*
X71600000Y-109250000D01*
X71600000Y-109250000D02*
X97662500Y-109250000D01*
%TO.N,N$13*%
X85950000Y-109900000D02*
X77975000Y-117875000D01*
X97662500Y-109900000D02*
X85950000Y-109900000D01*
%TO.N,N$14*%
X97066400Y-110550000D02*
X92975000Y-114641400D01*
X92975000Y-114641400D02*
X92975000Y-117875000D01*
X97662500Y-110550000D02*
X97066400Y-110550000D01*
%TO.N,N$16*%
X121655100Y-116555100D02*
X110935000Y-116555100D01*
X97662500Y-111850000D02*
X98291200Y-111850000D01*
X122975000Y-117875000D02*
X121655100Y-116555100D01*
X98291200Y-111850000D02*
X100447500Y-114006300D01*
X100447500Y-114006300D02*
X103035700Y-114006300D01*
%TO.N,N$17*%
X135106400Y-115006400D02*
X108545500Y-115006400D01*
X98547000Y-112500000D02*
X100663800Y-114616800D01*
X100663800Y-114616800D02*
X103474200Y-114616800D01*
X137975000Y-117875000D02*
X135106400Y-115006400D01*
X97662500Y-112500000D02*
X98547000Y-112500000D01*
%TO.N,N$18*%
X106045900Y-120903100D02*
X98292800Y-113150000D01*
X124917000Y-129073200D02*
X124917000Y-129601000D01*
X153805700Y-130765000D02*
X153616000Y-130954700D01*
X108527700Y-130974100D02*
X107405800Y-130974100D01*
X98292800Y-113150000D02*
X97662500Y-113150000D01*
X153805700Y-118705700D02*
X153805700Y-130765000D01*
X110209300Y-128795300D02*
X109710700Y-129293900D01*
X138531400Y-130986600D02*
X137318800Y-130986600D01*
X140207500Y-128786300D02*
X139732200Y-129261600D01*
X109710700Y-129293900D02*
X109710700Y-129791100D01*
X139732200Y-129261600D02*
X139732200Y-129785800D01*
X109710700Y-129791100D02*
X108527700Y-130974100D01*
X152975000Y-117875000D02*
X153805700Y-118705700D01*
X152286600Y-130954700D02*
X150118200Y-128786300D01*
X107405800Y-130974100D02*
X106045900Y-129614200D01*
X150118200Y-128786300D02*
X140207500Y-128786300D01*
X153616000Y-130954700D02*
X152286600Y-130954700D01*
X111574600Y-128795300D02*
X110209300Y-128795300D01*
X135097100Y-128764900D02*
X125225300Y-128764900D01*
X123531400Y-130986600D02*
X113765900Y-130986600D01*
X139732200Y-129785800D02*
X138531400Y-130986600D01*
X113765900Y-130986600D02*
X111574600Y-128795300D01*
X125225300Y-128764900D02*
X124917000Y-129073200D01*
X124917000Y-129601000D02*
X123531400Y-130986600D01*
X137318800Y-130986600D02*
X135097100Y-128764900D01*
X106045900Y-129614200D02*
X106045900Y-120903100D01*
%TO.N,N$19*%
X97662500Y-113800000D02*
X97083100Y-113800000D01*
X89617300Y-125676300D02*
X52173700Y-125676300D01*
X96670900Y-118622700D02*
X89617300Y-125676300D01*
X96670900Y-116659700D02*
X96670900Y-118622700D01*
X96308400Y-116297200D02*
X96670900Y-116659700D01*
X97083100Y-113800000D02*
X96308400Y-114574700D01*
X52173700Y-125676300D02*
X47975000Y-129875000D01*
X96308400Y-114574700D02*
X96308400Y-116297200D01*
%TO.N,N$20*%
X98245900Y-114450000D02*
X98663200Y-114867300D01*
X93581500Y-130954700D02*
X83497500Y-130954700D01*
X78541200Y-130957800D02*
X68950600Y-130957800D01*
X98663200Y-124823700D02*
X94059900Y-129427000D01*
X80189600Y-128795300D02*
X79059900Y-129925000D01*
X94059900Y-129427000D02*
X94059900Y-130476300D01*
X66759400Y-128766600D02*
X64083400Y-128766600D01*
X94059900Y-130476300D02*
X93581500Y-130954700D01*
X98663200Y-114867300D02*
X98663200Y-124823700D01*
X97662500Y-114450000D02*
X98245900Y-114450000D01*
X79059900Y-129925000D02*
X79059900Y-130439100D01*
X83497500Y-130954700D02*
X81338100Y-128795300D01*
X64083400Y-128766600D02*
X62975000Y-129875000D01*
X79059900Y-130439100D02*
X78541200Y-130957800D01*
X81338100Y-128795300D02*
X80189600Y-128795300D01*
X68950600Y-130957800D02*
X66759400Y-128766600D01*
%TO.N,N$23*%
X105964100Y-116626600D02*
X108374100Y-116626600D01*
X108824700Y-117077200D02*
X108824700Y-129025300D01*
X108374100Y-116626600D02*
X108824700Y-117077200D01*
X105087500Y-115750000D02*
X105964100Y-116626600D01*
X108824700Y-129025300D02*
X107975000Y-129875000D01*
%TO.N,N$24*%
X108491200Y-116346300D02*
X109161800Y-117016900D01*
X109161800Y-118799000D02*
X120237800Y-129875000D01*
X109161800Y-117016900D02*
X109161800Y-118799000D01*
X107418000Y-116346300D02*
X108491200Y-116346300D01*
X105087500Y-115100000D02*
X106171700Y-115100000D01*
X106171700Y-115100000D02*
X107418000Y-116346300D01*
X120237800Y-129875000D02*
X122975000Y-129875000D01*
%TO.N,N$25*%
X105701600Y-114450000D02*
X105980300Y-114728700D01*
X105087500Y-114450000D02*
X105701600Y-114450000D01*
X109440600Y-118651400D02*
X115251000Y-124461800D01*
X107777900Y-115790400D02*
X108329500Y-115790400D01*
X106716200Y-114728700D02*
X107777900Y-115790400D01*
X108329500Y-115790400D02*
X109440600Y-116901500D01*
X132561800Y-124461800D02*
X137975000Y-129875000D01*
X109440600Y-116901500D02*
X109440600Y-118651400D01*
X115251000Y-124461800D02*
X132561800Y-124461800D01*
X105980300Y-114728700D02*
X106716200Y-114728700D01*
%TO.N,N$26*%
X105673000Y-113800000D02*
X106127300Y-114254300D01*
X105087500Y-113800000D02*
X105673000Y-113800000D01*
X106127300Y-114254300D02*
X106992300Y-114254300D01*
X109734200Y-116778200D02*
X109734200Y-118512900D01*
X108466200Y-115510200D02*
X109734200Y-116778200D01*
X113671100Y-122449800D02*
X145549800Y-122449800D01*
X145549800Y-122449800D02*
X152975000Y-129875000D01*
X106992300Y-114254300D02*
X108248200Y-115510200D01*
X109734200Y-118512900D02*
X113671100Y-122449800D01*
X108248200Y-115510200D02*
X108466200Y-115510200D01*
%TO.N,N$28*%
X62975000Y-141875000D02*
X72611300Y-132238700D01*
X72611300Y-132238700D02*
X82068800Y-132238700D01*
X105068500Y-112519000D02*
X101451400Y-112519000D01*
X105087500Y-112500000D02*
X105068500Y-112519000D01*
%TO.N,N$32*%
X105087500Y-109900000D02*
X106313200Y-109900000D01*
X122975000Y-141875000D02*
X121989100Y-140889100D01*
%TO.N,TLC_CHAIN*%
X201559400Y-110060000D02*
X203669400Y-107950000D01*
X203669400Y-107950000D02*
X207662500Y-107950000D01*
X110150600Y-107950000D02*
X112260600Y-110060000D01*
X105087500Y-107950000D02*
X110150600Y-107950000D01*
X112260600Y-110060000D02*
X201559400Y-110060000D01*
%TO.N,N$9*%
X103845500Y-110645400D02*
X103845500Y-107290100D01*
X103845500Y-107290100D02*
X104485600Y-106650000D01*
X104485600Y-106650000D02*
X105087500Y-106650000D01*
%TO.N,N$37*%
X206669200Y-110255900D02*
X207025100Y-109900000D01*
X206669200Y-125569200D02*
X206669200Y-110255900D01*
X210975000Y-129875000D02*
X206669200Y-125569200D01*
X207025100Y-109900000D02*
X207662500Y-109900000D01*
%TO.N,N$38*%
X225975000Y-128243700D02*
X225975000Y-129875000D01*
X207662500Y-110550000D02*
X208281300Y-110550000D01*
X208281300Y-110550000D02*
X225975000Y-128243700D01*
%TO.N,N$35*%
X180975000Y-129875000D02*
X200444800Y-110405200D01*
X200444800Y-110405200D02*
X201608400Y-110405200D01*
X201608400Y-110405200D02*
X203413600Y-108600000D01*
X203413600Y-108600000D02*
X207662500Y-108600000D01*
%TO.N,N$10*%
X215087500Y-106650000D02*
X214519500Y-106650000D01*
X214519500Y-106650000D02*
X211004500Y-103135000D01*
%TO.N,SW3*%
X80237500Y-104900000D02*
X80789800Y-104900000D01*
X80789800Y-104900000D02*
X81414300Y-105524500D01*
%TO.N,N$3*%
X97157900Y-68135600D02*
X99300600Y-68135600D01*
X96625000Y-67602700D02*
X97157900Y-68135600D01*
X96625000Y-66920000D02*
X96625000Y-67602700D01*
%TO.N,USB_DP_CONN*%
X95625000Y-67544000D02*
X107265100Y-79184100D01*
X94625000Y-66920000D02*
X94625000Y-67587900D01*
X107265100Y-79184100D02*
X114923200Y-79184100D01*
X114923200Y-79184100D02*
X119362000Y-83622900D01*
X94625000Y-67587900D02*
X94923800Y-67886700D01*
X94923800Y-67886700D02*
X95282300Y-67886700D01*
X95625000Y-67544000D02*
X95625000Y-66920000D01*
X95282300Y-67886700D02*
X95625000Y-67544000D01*
%TO.N,USB_DM_CONN*%
X95125000Y-66257100D02*
X95125000Y-66920000D01*
X96125000Y-67594600D02*
X105089300Y-76558900D01*
X96125000Y-66920000D02*
X96125000Y-67594600D01*
X96125000Y-66920000D02*
X96125000Y-66238800D01*
X95857300Y-65971100D02*
X95411000Y-65971100D01*
X95411000Y-65971100D02*
X95125000Y-66257100D01*
X105089300Y-76558900D02*
X114452200Y-76558900D01*
X96125000Y-66238800D02*
X95857300Y-65971100D01*
%TO.N,N$4*%
X94064700Y-68090900D02*
X93625000Y-67651200D01*
X93625000Y-67651200D02*
X93625000Y-66920000D01*
%TO.N,SW0*%
X76598500Y-107553400D02*
X77301900Y-106850000D01*
X77301900Y-106850000D02*
X80237500Y-106850000D01*
X75892900Y-107553400D02*
X76598500Y-107553400D01*
%TO.N,SW5*%
X74512500Y-105550000D02*
X58651700Y-105550000D01*
X46810800Y-117390900D02*
X46810800Y-142373700D01*
X46810800Y-142373700D02*
X48796200Y-144359100D01*
X58651700Y-105550000D02*
X46810800Y-117390900D01*
X124399100Y-144359100D02*
X126865000Y-146825000D01*
X48796200Y-144359100D02*
X124399100Y-144359100D01*
%TO.N,SW4*%
X78150100Y-102899100D02*
X101347500Y-102899100D01*
X74512500Y-104900000D02*
X74512500Y-104899900D01*
X76149300Y-104899900D02*
X78150100Y-102899100D01*
X101347500Y-102899100D02*
X101939200Y-103490800D01*
X74512500Y-104899900D02*
X76149300Y-104899900D01*
%TO.N,SW7*%
X74512500Y-106850000D02*
X73973100Y-106850000D01*
X73556700Y-108410100D02*
X73700700Y-108554100D01*
X103183600Y-105376000D02*
X104014500Y-104545100D01*
X73556700Y-107266400D02*
X73556700Y-108410100D01*
X94008400Y-105376000D02*
X103183600Y-105376000D01*
X73700700Y-108554100D02*
X90830300Y-108554100D01*
X104014500Y-104545100D02*
X114585100Y-104545100D01*
X73973100Y-106850000D02*
X73556700Y-107266400D01*
X90830300Y-108554100D02*
X94008400Y-105376000D01*
%TO.N,SW1*%
X80237500Y-106200000D02*
X77239600Y-106200000D01*
X77239600Y-106200000D02*
X76521300Y-106918300D01*
%TD*%
M02*
